<!DOCTYPE svg>
<svg width="900" height="900">
 <g id="layer0">
  <g id="paths">
   <path style="fill:none;stroke:#000000;stroke-width:0.5pt;stroke-linecap:round;stroke-linejoin:round;stroke-opacity:1" d="M 330.971,102.401 C 331.05,192.792 331.208,373.574 331.287,463.965"/>
   <path style="fill:none;stroke:#000000;stroke-width:0.5pt;stroke-linecap:round;stroke-linejoin:round;stroke-opacity:1" d="M 331.287,463.965 C 331.593,522.156 331.527,581.172 330.438,639.94"/>
   <path style="fill:none;stroke:#000000;stroke-width:0.5pt;stroke-linecap:round;stroke-linejoin:round;stroke-opacity:1" d="M 330.438,639.94 C 350.873,651.452 369.383,662.056 385.834,671.461"/>
   <path style="fill:none;stroke:#000000;stroke-width:0.5pt;stroke-linecap:round;stroke-linejoin:round;stroke-opacity:1" d="M 385.834,671.461 C 412.982,686.98 434.369,699.339 448.757,707.666"/>
   <path style="fill:none;stroke:#000000;stroke-width:0.5pt;stroke-linecap:round;stroke-linejoin:round;stroke-opacity:1" d="M 448.757,707.666 C 469.728,718.681 511.669,740.71 532.64,751.725"/>
   <path style="fill:none;stroke:#000000;stroke-width:0.5pt;stroke-linecap:round;stroke-linejoin:round;stroke-opacity:1" d="M 532.64,751.725 C 539.911,684.673 535.447,600.288 534.955,546.36"/>
   <path style="fill:none;stroke:#000000;stroke-width:0.5pt;stroke-linecap:round;stroke-linejoin:round;stroke-opacity:1" d="M 534.955,546.36 C 533.313,366.476 479.16,303.406 465.562,159.64"/>
   <path style="fill:none;stroke:#000000;stroke-width:0.5pt;stroke-linecap:round;stroke-linejoin:round;stroke-opacity:1" d="M 465.562,159.64 C 461.531,117.018 463.381,65.9529 449.249,26.1073"/>
   <path style="fill:none;stroke:#000000;stroke-width:0.5pt;stroke-linecap:round;stroke-linejoin:round;stroke-opacity:1" d="M 449.249,26.1073 C 441.068,3.04132 425.217,-14.0464 412.928,-22.7966"/>
   <path style="fill:none;stroke:#000000;stroke-width:0.5pt;stroke-linecap:round;stroke-linejoin:round;stroke-opacity:1" d="M 412.928,-22.7966 C 394.987,-35.5707 366.171,-41.0619 354.729,-31.8456"/>
   <path style="fill:none;stroke:#000000;stroke-width:0.5pt;stroke-linecap:round;stroke-linejoin:round;stroke-opacity:1" d="M 354.729,-31.8456 C 328.505,-10.7237 330.118,62.6596 330.971,102.401"/>
   <path style="fill:none;stroke:#000000;stroke-width:0.5pt;stroke-linecap:round;stroke-linejoin:round;stroke-opacity:1" d="M 412.928,-22.7966 C 273.528,12.2375 221.523,32.1151 214.668,174.871"/>
   <path style="fill:none;stroke:#000000;stroke-width:0.5pt;stroke-linecap:round;stroke-linejoin:round;stroke-opacity:1" d="M 214.668,174.871 C 208.529,302.717 211.996,440.934 214.955,562.481"/>
   <path style="fill:none;stroke:#000000;stroke-width:0.5pt;stroke-linecap:round;stroke-linejoin:round;stroke-opacity:1" d="M 214.955,562.481 C 216.718,634.893 218.415,710.806 218.415,746.059"/>
   <path style="fill:none;stroke:#000000;stroke-width:0.5pt;stroke-linecap:round;stroke-linejoin:round;stroke-opacity:1" d="M 218.415,746.059 C 252.62,730.049 312.999,705.652 385.834,671.461"/>
   <path style="fill:none;stroke:#000000;stroke-width:0.5pt;stroke-linecap:round;stroke-linejoin:round;stroke-opacity:1" d="M 354.729,-31.8456 C 230.672,-6.07965 191.083,24.51 179.916,148.912"/>
   <path style="fill:none;stroke:#000000;stroke-width:0.5pt;stroke-linecap:round;stroke-linejoin:round;stroke-opacity:1" d="M 179.916,148.912 C 168.505,276.03 174.399,413.945 176.957,538.257"/>
   <path style="fill:none;stroke:#000000;stroke-width:0.5pt;stroke-linecap:round;stroke-linejoin:round;stroke-opacity:1" d="M 176.957,538.257 C 177.987,588.31 179.385,667.848 179.385,706.474"/>
   <path style="fill:none;stroke:#000000;stroke-width:0.5pt;stroke-linecap:round;stroke-linejoin:round;stroke-opacity:1" d="M 179.385,706.474 C 226.373,684.456 281.825,661.958 330.438,639.94"/>
   <path style="fill:none;stroke:#000000;stroke-width:0.5pt;stroke-linecap:round;stroke-linejoin:round;stroke-opacity:1" d="M 534.955,546.36 C 482.885,576.69 430.848,580.284 411.172,578.089"/>
   <path style="fill:none;stroke:#000000;stroke-width:0.5pt;stroke-linecap:round;stroke-linejoin:round;stroke-opacity:1" d="M 411.172,578.089 C 327.181,568.719 305.572,589.821 273.965,585.036"/>
   <path style="fill:none;stroke:#000000;stroke-width:0.5pt;stroke-linecap:round;stroke-linejoin:round;stroke-opacity:1" d="M 273.965,585.036 C 253.575,581.948 227.314,568.643 214.955,562.481"/>
   <path style="fill:none;stroke:#000000;stroke-width:0.5pt;stroke-linecap:round;stroke-linejoin:round;stroke-opacity:1" d="M 214.955,562.481 C 197.804,553.932 181.983,544.623 176.957,538.257"/>
   <path style="fill:none;stroke:#000000;stroke-width:0.5pt;stroke-linecap:round;stroke-linejoin:round;stroke-opacity:1" d="M 176.957,538.257 C 164.489,522.465 312.38,470.685 331.287,463.965"/>
   <path style="fill:none;stroke:#000000;stroke-width:0.5pt;stroke-linecap:round;stroke-linejoin:round;stroke-opacity:1" d="M 465.562,159.64 C 429.69,171.008 415.978,157.92 370.629,168.872"/>
   <path style="fill:none;stroke:#000000;stroke-width:0.5pt;stroke-linecap:round;stroke-linejoin:round;stroke-opacity:1" d="M 370.629,168.872 C 345.314,174.985 304.362,196.486 274.876,193.513"/>
   <path style="fill:none;stroke:#000000;stroke-width:0.5pt;stroke-linecap:round;stroke-linejoin:round;stroke-opacity:1" d="M 274.876,193.513 C 254.119,191.421 227.156,181.121 214.668,174.871"/>
   <path style="fill:none;stroke:#000000;stroke-width:0.5pt;stroke-linecap:round;stroke-linejoin:round;stroke-opacity:1" d="M 214.668,174.871 C 200.97,168.014 185.154,158.223 179.916,148.912"/>
   <path style="fill:none;stroke:#000000;stroke-width:0.5pt;stroke-linecap:round;stroke-linejoin:round;stroke-opacity:1" d="M 179.916,148.912 C 176.957,143.98 322.496,104.829 330.971,102.401"/>
   <path style="fill:none;stroke:#000000;stroke-width:0.5pt;stroke-linecap:round;stroke-linejoin:round;stroke-opacity:1" d="M 179.385,706.474 C 191.523,721.399 203.19,734.599 218.415,746.059"/>
   <path style="fill:none;stroke:#000000;stroke-width:0.5pt;stroke-linecap:round;stroke-linejoin:round;stroke-opacity:1" d="M 218.415,746.059 C 234.202,757.942 253.815,767.956 281.745,776.084"/>
   <path style="fill:none;stroke:#000000;stroke-width:0.5pt;stroke-linecap:round;stroke-linejoin:round;stroke-opacity:1" d="M 281.745,776.084 C 314.632,785.655 343.647,766.532 417.397,778.012"/>
   <path style="fill:none;stroke:#000000;stroke-width:0.5pt;stroke-linecap:round;stroke-linejoin:round;stroke-opacity:1" d="M 417.397,778.012 C 441.823,781.814 495.924,772.93 532.64,751.725"/>
   <path style="fill:none;stroke:#000000;stroke-width:0.5pt;stroke-linecap:round;stroke-linejoin:round;stroke-opacity:1" d="M 449.249,26.1073 C 285.841,68.4233 274.92,53.5595 274.876,193.513"/>
   <path style="fill:none;stroke:#000000;stroke-width:0.5pt;stroke-linecap:round;stroke-linejoin:round;stroke-opacity:1" d="M 274.876,193.513 C 274.649,291.394 274.193,487.155 273.965,585.036"/>
   <path style="fill:none;stroke:#000000;stroke-width:0.5pt;stroke-linecap:round;stroke-linejoin:round;stroke-opacity:1" d="M 273.965,585.036 C 273.969,606.494 267.259,767.936 281.745,776.084"/>
   <path style="fill:none;stroke:#000000;stroke-width:0.5pt;stroke-linecap:round;stroke-linejoin:round;stroke-opacity:1" d="M 281.745,776.084 C 297.989,786.236 436.565,713.696 448.757,707.666"/>
  </g>
  <g id="intersections">
   <circle fill="black" cx="330.438" cy="639.94" stroke="none" r="2"/>
   <circle fill="black" cx="532.64" cy="751.725" stroke="none" r="2"/>
   <circle fill="black" cx="218.415" cy="746.059" stroke="none" r="2"/>
   <circle fill="black" cx="179.385" cy="706.474" stroke="none" r="2"/>
   <circle fill="black" cx="179.916" cy="148.912" stroke="none" r="2"/>
   <circle fill="black" cx="281.745" cy="776.084" stroke="none" r="2"/>
   <circle fill="black" cx="330.971" cy="102.401" stroke="none" r="2"/>
   <circle fill="black" cx="331.287" cy="463.965" stroke="none" r="2"/>
   <circle fill="black" cx="385.834" cy="671.461" stroke="none" r="2"/>
   <circle fill="black" cx="448.757" cy="707.666" stroke="none" r="2"/>
   <circle fill="black" cx="534.955" cy="546.36" stroke="none" r="2"/>
   <circle fill="black" cx="465.562" cy="159.64" stroke="none" r="2"/>
   <circle fill="black" cx="449.249" cy="26.1073" stroke="none" r="2"/>
   <circle fill="black" cx="412.928" cy="-22.7966" stroke="none" r="2"/>
   <circle fill="black" cx="354.729" cy="-31.8456" stroke="none" r="2"/>
   <circle fill="black" cx="214.668" cy="174.871" stroke="none" r="2"/>
   <circle fill="black" cx="214.955" cy="562.481" stroke="none" r="2"/>
   <circle fill="black" cx="176.957" cy="538.257" stroke="none" r="2"/>
   <circle fill="black" cx="273.965" cy="585.036" stroke="none" r="2"/>
   <circle fill="black" cx="274.876" cy="193.513" stroke="none" r="2"/>
  </g>
 </g>
</svg>
