<!DOCTYPE svg>
<svg width="900" height="900">
 <g id="layer0">
  <g id="paths">
   <path style="fill:none;stroke:#000000;stroke-width:0.5pt;stroke-linecap:round;stroke-linejoin:round;stroke-opacity:1" d="M 587.529,253.732 C 611.579,263.138 659.167,284.622 672.714,294.057"/>
   <path style="fill:none;stroke:#000000;stroke-width:0.5pt;stroke-linecap:round;stroke-linejoin:round;stroke-opacity:1" d="M 672.714,294.057 C 677.599,297.18 682.117,321.834 685.821,338.925"/>
   <path style="fill:none;stroke:#000000;stroke-width:0.5pt;stroke-linecap:round;stroke-linejoin:round;stroke-opacity:1" d="M 685.821,338.925 C 689.176,354.408 687.238,351.105 697.877,360.211"/>
   <path style="fill:none;stroke:#000000;stroke-width:0.5pt;stroke-linecap:round;stroke-linejoin:round;stroke-opacity:1" d="M 697.877,360.211 C 717.777,377.243 724.403,375.248 722.415,400.957"/>
   <path style="fill:none;stroke:#000000;stroke-width:0.5pt;stroke-linecap:round;stroke-linejoin:round;stroke-opacity:1" d="M 722.415,400.957 C 720.065,431.359 713.29,472.82 705.952,482.316"/>
   <path style="fill:none;stroke:#000000;stroke-width:0.5pt;stroke-linecap:round;stroke-linejoin:round;stroke-opacity:1" d="M 705.952,482.316 C 688.187,479.436 617.743,450.465 593.373,437.991"/>
   <path style="fill:none;stroke:#000000;stroke-width:0.5pt;stroke-linecap:round;stroke-linejoin:round;stroke-opacity:1" d="M 427.62,367.62 C 494.575,395.888 504.996,381.256 563.2,392.897"/>
   <path style="fill:none;stroke:#000000;stroke-width:0.5pt;stroke-linecap:round;stroke-linejoin:round;stroke-opacity:1" d="M 563.2,392.897 C 565.462,393.4 567.636,405.755 568.13,420.572"/>
   <path style="fill:none;stroke:#000000;stroke-width:0.5pt;stroke-linecap:round;stroke-linejoin:round;stroke-opacity:1" d="M 568.13,420.572 C 568.68,437.038 567.504,456.91 563.469,466.996"/>
   <path style="fill:none;stroke:#000000;stroke-width:0.5pt;stroke-linecap:round;stroke-linejoin:round;stroke-opacity:1" d="M 563.469,466.996 C 562.363,469.578 564.259,537.63 549.517,551.707"/>
   <path style="fill:none;stroke:#000000;stroke-width:0.5pt;stroke-linecap:round;stroke-linejoin:round;stroke-opacity:1" d="M 549.517,551.707 C 534.668,549.141 462.308,523.626 441.211,510.301"/>
   <path style="fill:none;stroke:#000000;stroke-width:0.5pt;stroke-linecap:round;stroke-linejoin:round;stroke-opacity:1" d="M 707.871,371.737 C 714.742,374.86 724.271,379.57 734.61,385.176"/>
   <path style="fill:none;stroke:#000000;stroke-width:0.5pt;stroke-linecap:round;stroke-linejoin:round;stroke-opacity:1" d="M 734.61,385.176 C 737.176,386.568 739.792,388.014 742.429,389.506"/>
   <path style="fill:none;stroke:#000000;stroke-width:0.5pt;stroke-linecap:round;stroke-linejoin:round;stroke-opacity:1" d="M 742.429,389.506 C 759.134,398.951 776.647,410.161 787.904,420.506"/>
   <path style="fill:none;stroke:#000000;stroke-width:0.5pt;stroke-linecap:round;stroke-linejoin:round;stroke-opacity:1" d="M 787.904,420.506 C 792.04,424.307 794.914,427.336 796.988,430.764"/>
   <path style="fill:none;stroke:#000000;stroke-width:0.5pt;stroke-linecap:round;stroke-linejoin:round;stroke-opacity:1" d="M 796.988,430.764 C 768.155,448.617 737.944,466.218 705.952,482.316"/>
   <path style="fill:none;stroke:#000000;stroke-width:0.5pt;stroke-linecap:round;stroke-linejoin:round;stroke-opacity:1" d="M 705.952,482.316 C 656.302,507.301 603.491,530.3 549.517,551.707"/>
   <path style="fill:none;stroke:#000000;stroke-width:0.5pt;stroke-linecap:round;stroke-linejoin:round;stroke-opacity:1" d="M 549.517,551.707 C 469.238,583.547 396.266,623.415 313.149,654.037"/>
   <path style="fill:none;stroke:#000000;stroke-width:0.5pt;stroke-linecap:round;stroke-linejoin:round;stroke-opacity:1" d="M 313.149,654.037 C 305.927,653.409 291.907,650.935 275.24,647.508"/>
   <path style="fill:none;stroke:#000000;stroke-width:0.5pt;stroke-linecap:round;stroke-linejoin:round;stroke-opacity:1" d="M 275.24,647.508 C 235.58,639.354 180.603,625.623 164.538,617.404"/>
   <path style="fill:none;stroke:#000000;stroke-width:0.5pt;stroke-linecap:round;stroke-linejoin:round;stroke-opacity:1" d="M 313.149,654.037 C 313.25,647.155 313.521,638.271 313.949,628.982"/>
   <path style="fill:none;stroke:#000000;stroke-width:0.5pt;stroke-linecap:round;stroke-linejoin:round;stroke-opacity:1" d="M 313.949,628.982 C 314.237,622.748 314.599,616.333 315.014,610.214"/>
   <path style="fill:none;stroke:#000000;stroke-width:0.5pt;stroke-linecap:round;stroke-linejoin:round;stroke-opacity:1" d="M 315.014,610.214 C 315.901,597.101 317.061,585.359 318.412,579.731"/>
   <path style="fill:none;stroke:#000000;stroke-width:0.5pt;stroke-linecap:round;stroke-linejoin:round;stroke-opacity:1" d="M 318.412,579.731 C 319.673,573.427 339.367,557.441 359.16,542.128"/>
   <path style="fill:none;stroke:#000000;stroke-width:0.5pt;stroke-linecap:round;stroke-linejoin:round;stroke-opacity:1" d="M 359.16,542.128 C 394.211,515.01 416.246,505.488 448.452,495.512"/>
   <path style="fill:none;stroke:#000000;stroke-width:0.5pt;stroke-linecap:round;stroke-linejoin:round;stroke-opacity:1" d="M 448.452,495.512 C 477.206,488.383 534.715,474.125 563.469,466.996"/>
   <path style="fill:none;stroke:#000000;stroke-width:0.5pt;stroke-linecap:round;stroke-linejoin:round;stroke-opacity:1" d="M 563.469,466.996 C 617.682,451.116 676.718,423.867 722.415,400.957"/>
   <path style="fill:none;stroke:#000000;stroke-width:0.5pt;stroke-linecap:round;stroke-linejoin:round;stroke-opacity:1" d="M 722.415,400.957 C 764.575,379.821 812.745,348.743 846.323,327.757"/>
   <path style="fill:none;stroke:#000000;stroke-width:0.5pt;stroke-linecap:round;stroke-linejoin:round;stroke-opacity:1" d="M 846.323,327.757 C 842.313,340.393 838.913,351.342 834.409,362.046"/>
   <path style="fill:none;stroke:#000000;stroke-width:0.5pt;stroke-linecap:round;stroke-linejoin:round;stroke-opacity:1" d="M 834.409,362.046 C 823.601,387.734 811.277,408.927 796.988,430.764"/>
   <path style="fill:none;stroke:#000000;stroke-width:0.5pt;stroke-linecap:round;stroke-linejoin:round;stroke-opacity:1" d="M 767.262,267.973 C 787.97,272.999 805.061,281.17 818.344,291.544"/>
   <path style="fill:none;stroke:#000000;stroke-width:0.5pt;stroke-linecap:round;stroke-linejoin:round;stroke-opacity:1" d="M 818.344,291.544 C 822.021,294.416 825.409,297.369 828.5,300.571"/>
   <path style="fill:none;stroke:#000000;stroke-width:0.5pt;stroke-linecap:round;stroke-linejoin:round;stroke-opacity:1" d="M 828.5,300.571 C 836.362,308.715 842.333,317.874 846.323,327.757"/>
   <path style="fill:none;stroke:#000000;stroke-width:0.5pt;stroke-linecap:round;stroke-linejoin:round;stroke-opacity:1" d="M 448.452,495.512 C 474.419,470.563 524.432,441.614 568.13,420.572"/>
   <path style="fill:none;stroke:#000000;stroke-width:0.5pt;stroke-linecap:round;stroke-linejoin:round;stroke-opacity:1" d="M 568.13,420.572 C 609.786,400.514 664.557,377.396 697.877,360.211"/>
   <path style="fill:none;stroke:#000000;stroke-width:0.5pt;stroke-linecap:round;stroke-linejoin:round;stroke-opacity:1" d="M 697.877,360.211 C 740.024,338.473 771.892,319.353 815.841,284.552"/>
   <path style="fill:none;stroke:#000000;stroke-width:0.5pt;stroke-linecap:round;stroke-linejoin:round;stroke-opacity:1" d="M 154.5,543.095 C 183.981,553.721 209.254,561.466 236.675,566.933"/>
   <path style="fill:none;stroke:#000000;stroke-width:0.5pt;stroke-linecap:round;stroke-linejoin:round;stroke-opacity:1" d="M 236.675,566.933 C 246.758,568.944 256.013,571.148 266.319,572.908"/>
   <path style="fill:none;stroke:#000000;stroke-width:0.5pt;stroke-linecap:round;stroke-linejoin:round;stroke-opacity:1" d="M 266.319,572.908 C 282.197,575.62 301.194,576.889 318.412,579.731"/>
   <path style="fill:none;stroke:#000000;stroke-width:0.5pt;stroke-linecap:round;stroke-linejoin:round;stroke-opacity:1" d="M 318.412,579.731 C 321.605,580.258 514.922,500.372 563.469,466.996"/>
   <path style="fill:none;stroke:#000000;stroke-width:0.5pt;stroke-linecap:round;stroke-linejoin:round;stroke-opacity:1" d="M 266.319,572.908 C 285.138,555.092 344.448,507.799 359.16,542.128"/>
   <path style="fill:none;stroke:#000000;stroke-width:0.5pt;stroke-linecap:round;stroke-linejoin:round;stroke-opacity:1" d="M 172.652,524.479 C 253.385,555.058 291.669,512.001 362.297,476.168"/>
   <path style="fill:none;stroke:#000000;stroke-width:0.5pt;stroke-linecap:round;stroke-linejoin:round;stroke-opacity:1" d="M 362.297,476.168 C 442.296,435.58 479.834,424.48 563.161,392.963"/>
   <path style="fill:none;stroke:#000000;stroke-width:0.5pt;stroke-linecap:round;stroke-linejoin:round;stroke-opacity:1" d="M 563.161,392.963 C 563.205,392.946 563.156,392.914 563.2,392.897"/>
   <path style="fill:none;stroke:#000000;stroke-width:0.5pt;stroke-linecap:round;stroke-linejoin:round;stroke-opacity:1" d="M 563.2,392.897 C 604.404,377.303 648.102,358.39 685.821,338.925"/>
   <path style="fill:none;stroke:#000000;stroke-width:0.5pt;stroke-linecap:round;stroke-linejoin:round;stroke-opacity:1" d="M 685.821,338.925 C 725.248,318.578 764.869,292.284 797.53,266.585"/>
   <path style="fill:none;stroke:#000000;stroke-width:0.5pt;stroke-linecap:round;stroke-linejoin:round;stroke-opacity:1" d="M 797.53,266.585 C 803.614,261.782 807.284,252.135 808.002,239.324"/>
   <path style="fill:none;stroke:#000000;stroke-width:0.5pt;stroke-linecap:round;stroke-linejoin:round;stroke-opacity:1" d="M 509.755,289.966 C 536.938,303.014 579.612,314.854 616.315,320.122"/>
   <path style="fill:none;stroke:#000000;stroke-width:0.5pt;stroke-linecap:round;stroke-linejoin:round;stroke-opacity:1" d="M 563.161,392.963 C 563.205,392.946 563.156,392.914 563.2,392.897"/>
   <path style="fill:none;stroke:#000000;stroke-width:0.5pt;stroke-linecap:round;stroke-linejoin:round;stroke-opacity:1" d="M 563.2,392.897 C 579.849,365.028 605.289,331.148 616.315,320.122"/>
   <path style="fill:none;stroke:#000000;stroke-width:0.5pt;stroke-linecap:round;stroke-linejoin:round;stroke-opacity:1" d="M 616.315,320.122 C 636.21,309.116 654.982,300.691 672.714,294.057"/>
   <path style="fill:none;stroke:#000000;stroke-width:0.5pt;stroke-linecap:round;stroke-linejoin:round;stroke-opacity:1" d="M 672.714,294.057 C 710.119,280.064 768.679,266.585 797.53,266.585"/>
   <path style="fill:none;stroke:#000000;stroke-width:0.5pt;stroke-linecap:round;stroke-linejoin:round;stroke-opacity:1" d="M 275.433,434.172 C 315.641,451.455 330.186,466.645 345.933,473.005"/>
   <path style="fill:none;stroke:#000000;stroke-width:0.5pt;stroke-linecap:round;stroke-linejoin:round;stroke-opacity:1" d="M 345.933,473.005 C 350.953,475.033 356.192,476.148 362.297,476.168"/>
   <path style="fill:none;stroke:#000000;stroke-width:0.5pt;stroke-linecap:round;stroke-linejoin:round;stroke-opacity:1" d="M 797.53,266.585 C 804.57,272.787 810.431,278.475 815.841,284.552"/>
   <path style="fill:none;stroke:#000000;stroke-width:0.5pt;stroke-linecap:round;stroke-linejoin:round;stroke-opacity:1" d="M 815.841,284.552 C 820.227,289.477 824.317,294.657 828.5,300.571"/>
   <path style="fill:none;stroke:#000000;stroke-width:0.5pt;stroke-linecap:round;stroke-linejoin:round;stroke-opacity:1" d="M 275.433,434.172 C 313.48,417.534 389.574,384.258 427.62,367.62"/>
   <path style="fill:none;stroke:#000000;stroke-width:0.5pt;stroke-linecap:round;stroke-linejoin:round;stroke-opacity:1" d="M 427.62,367.62 C 436.11,359.661 482.164,317.026 509.755,289.966"/>
   <path style="fill:none;stroke:#000000;stroke-width:0.5pt;stroke-linecap:round;stroke-linejoin:round;stroke-opacity:1" d="M 509.755,289.966 C 512.094,287.628 545.227,270.69 587.529,253.732"/>
   <path style="fill:none;stroke:#000000;stroke-width:0.5pt;stroke-linecap:round;stroke-linejoin:round;stroke-opacity:1" d="M 587.529,253.732 C 644.835,230.759 694.603,218.865 758.835,208.891"/>
   <path style="fill:none;stroke:#000000;stroke-width:0.5pt;stroke-linecap:round;stroke-linejoin:round;stroke-opacity:1" d="M 758.835,208.891 C 769.271,207.271 768.503,261.486 767.262,267.973"/>
   <path style="fill:none;stroke:#000000;stroke-width:0.5pt;stroke-linecap:round;stroke-linejoin:round;stroke-opacity:1" d="M 767.262,267.973 C 764.969,273.938 760.382,285.867 758.089,291.832"/>
   <path style="fill:none;stroke:#000000;stroke-width:0.5pt;stroke-linecap:round;stroke-linejoin:round;stroke-opacity:1" d="M 758.089,291.832 C 754.482,299.326 750.296,307.537 745.689,315.932"/>
   <path style="fill:none;stroke:#000000;stroke-width:0.5pt;stroke-linecap:round;stroke-linejoin:round;stroke-opacity:1" d="M 745.689,315.932 C 734.751,335.868 721.441,356.843 707.871,371.737"/>
   <path style="fill:none;stroke:#000000;stroke-width:0.5pt;stroke-linecap:round;stroke-linejoin:round;stroke-opacity:1" d="M 707.871,371.737 C 692.252,384.628 645.896,410.841 593.373,437.991"/>
   <path style="fill:none;stroke:#000000;stroke-width:0.5pt;stroke-linecap:round;stroke-linejoin:round;stroke-opacity:1" d="M 593.373,437.991 C 541.815,464.643 504.48,483.191 441.211,510.301"/>
   <path style="fill:none;stroke:#000000;stroke-width:0.5pt;stroke-linecap:round;stroke-linejoin:round;stroke-opacity:1" d="M 441.211,510.301 C 339.444,553.906 226.865,594.391 164.538,617.404"/>
   <path style="fill:none;stroke:#000000;stroke-width:0.5pt;stroke-linecap:round;stroke-linejoin:round;stroke-opacity:1" d="M 164.538,617.404 C 163.486,617.037 164.225,611.004 162.752,600.841"/>
   <path style="fill:none;stroke:#000000;stroke-width:0.5pt;stroke-linecap:round;stroke-linejoin:round;stroke-opacity:1" d="M 162.752,600.841 C 161.258,590.539 157.996,576.205 156.796,564.231"/>
   <path style="fill:none;stroke:#000000;stroke-width:0.5pt;stroke-linecap:round;stroke-linejoin:round;stroke-opacity:1" d="M 156.796,564.231 C 156.388,560.163 155.644,556.028 155.327,552.421"/>
   <path style="fill:none;stroke:#000000;stroke-width:0.5pt;stroke-linecap:round;stroke-linejoin:round;stroke-opacity:1" d="M 155.327,552.421 C 155.023,548.963 154.695,545.831 154.5,543.095"/>
   <path style="fill:none;stroke:#000000;stroke-width:0.5pt;stroke-linecap:round;stroke-linejoin:round;stroke-opacity:1" d="M 154.5,543.095 C 161.095,535.767 166.815,529.957 172.652,524.479"/>
   <path style="fill:none;stroke:#000000;stroke-width:0.5pt;stroke-linecap:round;stroke-linejoin:round;stroke-opacity:1" d="M 172.652,524.479 C 179.732,517.834 187.03,511.727 196.227,503.944"/>
   <path style="fill:none;stroke:#000000;stroke-width:0.5pt;stroke-linecap:round;stroke-linejoin:round;stroke-opacity:1" d="M 196.227,503.944 C 216.029,486.501 255.632,451.615 275.433,434.172"/>
   <path style="fill:none;stroke:#000000;stroke-width:0.5pt;stroke-linecap:round;stroke-linejoin:round;stroke-opacity:1" d="M 758.835,208.891 C 772.351,215.142 793.058,227.077 808.002,239.324"/>
   <path style="fill:none;stroke:#000000;stroke-width:0.5pt;stroke-linecap:round;stroke-linejoin:round;stroke-opacity:1" d="M 808.002,239.324 C 812.157,260.604 816.514,278.391 818.344,291.544"/>
   <path style="fill:none;stroke:#000000;stroke-width:0.5pt;stroke-linecap:round;stroke-linejoin:round;stroke-opacity:1" d="M 196.227,503.944 C 241.126,515.592 275.688,501.878 345.933,473.005"/>
   <path style="fill:none;stroke:#000000;stroke-width:0.5pt;stroke-linecap:round;stroke-linejoin:round;stroke-opacity:1" d="M 345.933,473.005 C 418.161,443.317 485.677,418.482 563.2,392.897"/>
   <path style="fill:none;stroke:#000000;stroke-width:0.5pt;stroke-linecap:round;stroke-linejoin:round;stroke-opacity:1" d="M 821.132,355.82 C 809.531,350.745 794.739,345.448 780.885,347.109"/>
   <path style="fill:none;stroke:#000000;stroke-width:0.5pt;stroke-linecap:round;stroke-linejoin:round;stroke-opacity:1" d="M 780.885,347.109 C 765.737,365.749 747.902,377.91 734.61,385.176"/>
   <path style="fill:none;stroke:#000000;stroke-width:0.5pt;stroke-linecap:round;stroke-linejoin:round;stroke-opacity:1" d="M 742.429,389.506 C 776.598,368.772 796.466,358.322 814.593,372.823"/>
   <path style="fill:none;stroke:#000000;stroke-width:0.5pt;stroke-linecap:round;stroke-linejoin:round;stroke-opacity:1" d="M 758.089,291.832 C 787.559,302.418 811.051,322.643 825.169,344.421"/>
   <path style="fill:none;stroke:#000000;stroke-width:0.5pt;stroke-linecap:round;stroke-linejoin:round;stroke-opacity:1" d="M 825.169,344.421 C 828.939,350.236 832.041,356.163 834.409,362.046"/>
   <path style="fill:none;stroke:#000000;stroke-width:0.5pt;stroke-linecap:round;stroke-linejoin:round;stroke-opacity:1" d="M 825.169,344.421 C 823.779,348.423 822.442,352.209 821.132,355.82"/>
   <path style="fill:none;stroke:#000000;stroke-width:0.5pt;stroke-linecap:round;stroke-linejoin:round;stroke-opacity:1" d="M 821.132,355.82 C 818.918,361.924 816.781,367.526 814.593,372.823"/>
   <path style="fill:none;stroke:#000000;stroke-width:0.5pt;stroke-linecap:round;stroke-linejoin:round;stroke-opacity:1" d="M 814.593,372.823 C 807.615,389.71 800.108,403.494 787.904,420.506"/>
   <path style="fill:none;stroke:#000000;stroke-width:0.5pt;stroke-linecap:round;stroke-linejoin:round;stroke-opacity:1" d="M 156.796,564.231 C 173.275,569.59 196.369,576.08 213.844,580.696"/>
   <path style="fill:none;stroke:#000000;stroke-width:0.5pt;stroke-linecap:round;stroke-linejoin:round;stroke-opacity:1" d="M 213.844,580.696 C 218.232,581.079 227.007,581.845 231.395,582.228"/>
   <path style="fill:none;stroke:#000000;stroke-width:0.5pt;stroke-linecap:round;stroke-linejoin:round;stroke-opacity:1" d="M 231.395,582.228 C 245.902,577.394 254.461,576.567 266.319,572.908"/>
   <path style="fill:none;stroke:#000000;stroke-width:0.5pt;stroke-linecap:round;stroke-linejoin:round;stroke-opacity:1" d="M 155.327,552.421 C 176.696,559.781 209.298,572.116 236.675,566.933"/>
   <path style="fill:none;stroke:#000000;stroke-width:0.5pt;stroke-linecap:round;stroke-linejoin:round;stroke-opacity:1" d="M 231.395,582.228 C 246.09,602.171 236.702,604.684 265.456,606.578"/>
   <path style="fill:none;stroke:#000000;stroke-width:0.5pt;stroke-linecap:round;stroke-linejoin:round;stroke-opacity:1" d="M 265.456,606.578 C 281.038,607.604 296.383,608.617 315.014,610.214"/>
   <path style="fill:none;stroke:#000000;stroke-width:0.5pt;stroke-linecap:round;stroke-linejoin:round;stroke-opacity:1" d="M 265.456,606.578 C 266.911,612.655 268.327,618.393 269.721,624.087"/>
   <path style="fill:none;stroke:#000000;stroke-width:0.5pt;stroke-linecap:round;stroke-linejoin:round;stroke-opacity:1" d="M 269.721,624.087 C 271.592,631.732 273.421,639.299 275.24,647.508"/>
   <path style="fill:none;stroke:#000000;stroke-width:0.5pt;stroke-linecap:round;stroke-linejoin:round;stroke-opacity:1" d="M 162.752,600.841 C 187.952,608.429 212.257,614.388 236.666,618.897"/>
   <path style="fill:none;stroke:#000000;stroke-width:0.5pt;stroke-linecap:round;stroke-linejoin:round;stroke-opacity:1" d="M 236.666,618.897 C 247.638,620.924 258.575,622.555 269.721,624.087"/>
   <path style="fill:none;stroke:#000000;stroke-width:0.5pt;stroke-linecap:round;stroke-linejoin:round;stroke-opacity:1" d="M 269.721,624.087 C 284.155,626.072 298.823,627.675 313.949,628.982"/>
   <path style="fill:none;stroke:#000000;stroke-width:0.5pt;stroke-linecap:round;stroke-linejoin:round;stroke-opacity:1" d="M 213.844,580.696 C 222.38,596.764 228.157,605.304 236.666,618.897"/>
   <path style="fill:none;stroke:#000000;stroke-width:0.5pt;stroke-linecap:round;stroke-linejoin:round;stroke-opacity:1" d="M 745.689,315.932 C 761.847,325.19 770.639,334.023 780.885,347.109"/>
  </g>
  <g id="intersections">
   <circle fill="black" cx="672.714" cy="294.057" stroke="none" r="2"/>
   <circle fill="black" cx="705.952" cy="482.316" stroke="none" r="2"/>
   <circle fill="black" cx="563.2" cy="392.897" stroke="none" r="2"/>
   <circle fill="black" cx="563.469" cy="466.996" stroke="none" r="2"/>
   <circle fill="black" cx="549.517" cy="551.707" stroke="none" r="2"/>
   <circle fill="black" cx="707.871" cy="371.737" stroke="none" r="2"/>
   <circle fill="black" cx="796.988" cy="430.764" stroke="none" r="2"/>
   <circle fill="black" cx="313.149" cy="654.037" stroke="none" r="2"/>
   <circle fill="black" cx="164.538" cy="617.404" stroke="none" r="2"/>
   <circle fill="black" cx="318.412" cy="579.731" stroke="none" r="2"/>
   <circle fill="black" cx="846.323" cy="327.757" stroke="none" r="2"/>
   <circle fill="black" cx="448.452" cy="495.512" stroke="none" r="2"/>
   <circle fill="black" cx="815.841" cy="284.552" stroke="none" r="2"/>
   <circle fill="black" cx="359.16" cy="542.128" stroke="none" r="2"/>
   <circle fill="black" cx="797.53" cy="266.585" stroke="none" r="2"/>
   <circle fill="black" cx="616.315" cy="320.122" stroke="none" r="2"/>
   <circle fill="black" cx="275.433" cy="434.172" stroke="none" r="2"/>
   <circle fill="black" cx="427.62" cy="367.62" stroke="none" r="2"/>
   <circle fill="black" cx="509.755" cy="289.966" stroke="none" r="2"/>
   <circle fill="black" cx="154.5" cy="543.095" stroke="none" r="2"/>
   <circle fill="black" cx="808.002" cy="239.324" stroke="none" r="2"/>
   <circle fill="black" cx="821.132" cy="355.82" stroke="none" r="2"/>
   <circle fill="black" cx="780.885" cy="347.109" stroke="none" r="2"/>
   <circle fill="black" cx="734.61" cy="385.176" stroke="none" r="2"/>
   <circle fill="black" cx="742.429" cy="389.506" stroke="none" r="2"/>
   <circle fill="black" cx="814.593" cy="372.823" stroke="none" r="2"/>
   <circle fill="black" cx="758.089" cy="291.832" stroke="none" r="2"/>
   <circle fill="black" cx="834.409" cy="362.046" stroke="none" r="2"/>
   <circle fill="black" cx="825.169" cy="344.421" stroke="none" r="2"/>
   <circle fill="black" cx="231.395" cy="582.228" stroke="none" r="2"/>
   <circle fill="black" cx="315.014" cy="610.214" stroke="none" r="2"/>
   <circle fill="black" cx="213.844" cy="580.696" stroke="none" r="2"/>
   <circle fill="black" cx="745.689" cy="315.932" stroke="none" r="2"/>
   <circle fill="black" cx="587.529" cy="253.732" stroke="none" r="2"/>
   <circle fill="black" cx="685.821" cy="338.925" stroke="none" r="2"/>
   <circle fill="black" cx="697.877" cy="360.211" stroke="none" r="2"/>
   <circle fill="black" cx="722.415" cy="400.957" stroke="none" r="2"/>
   <circle fill="black" cx="593.373" cy="437.991" stroke="none" r="2"/>
   <circle fill="black" cx="568.13" cy="420.572" stroke="none" r="2"/>
   <circle fill="black" cx="441.211" cy="510.301" stroke="none" r="2"/>
   <circle fill="black" cx="787.904" cy="420.506" stroke="none" r="2"/>
   <circle fill="black" cx="275.24" cy="647.508" stroke="none" r="2"/>
   <circle fill="black" cx="313.949" cy="628.982" stroke="none" r="2"/>
   <circle fill="black" cx="767.262" cy="267.973" stroke="none" r="2"/>
   <circle fill="black" cx="818.344" cy="291.544" stroke="none" r="2"/>
   <circle fill="black" cx="828.5" cy="300.571" stroke="none" r="2"/>
   <circle fill="black" cx="236.675" cy="566.933" stroke="none" r="2"/>
   <circle fill="black" cx="266.319" cy="572.908" stroke="none" r="2"/>
   <circle fill="black" cx="172.652" cy="524.479" stroke="none" r="2"/>
   <circle fill="black" cx="362.297" cy="476.168" stroke="none" r="2"/>
   <circle fill="black" cx="345.933" cy="473.005" stroke="none" r="2"/>
   <circle fill="black" cx="758.835" cy="208.891" stroke="none" r="2"/>
   <circle fill="black" cx="162.752" cy="600.841" stroke="none" r="2"/>
   <circle fill="black" cx="156.796" cy="564.231" stroke="none" r="2"/>
   <circle fill="black" cx="155.327" cy="552.421" stroke="none" r="2"/>
   <circle fill="black" cx="196.227" cy="503.944" stroke="none" r="2"/>
   <circle fill="black" cx="265.456" cy="606.578" stroke="none" r="2"/>
   <circle fill="black" cx="269.721" cy="624.087" stroke="none" r="2"/>
   <circle fill="black" cx="236.666" cy="618.897" stroke="none" r="2"/>
  </g>
 </g>
</svg>
