<!DOCTYPE svg>
<svg width="500" height="500">
 <g id="layer0">
  <g id="paths">
   <path style="fill:none;stroke:#000000;stroke-width:0.5pt;stroke-linecap:round;stroke-linejoin:round;stroke-opacity:1" d="M 302.843,256.308 C 339.626,272.769 386.935,294.118 435.031,315.896"/>
   <path style="fill:none;stroke:#000000;stroke-width:0.5pt;stroke-linecap:round;stroke-linejoin:round;stroke-opacity:1" d="M 435.031,315.896 C 525.489,356.855 618.171,399.06 646.194,411.763"/>
   <path style="fill:none;stroke:#000000;stroke-width:0.5pt;stroke-linecap:round;stroke-linejoin:round;stroke-opacity:1" d="M 646.194,411.763 C 673.529,394.701 728.199,360.576 755.533,343.513"/>
   <path style="fill:none;stroke:#000000;stroke-width:0.5pt;stroke-linecap:round;stroke-linejoin:round;stroke-opacity:1" d="M 755.533,343.513 C 793.482,319.606 835.506,292.918 871.223,269.946"/>
   <path style="fill:none;stroke:#000000;stroke-width:0.5pt;stroke-linecap:round;stroke-linejoin:round;stroke-opacity:1" d="M 871.223,269.946 C 798.069,236.364 716.997,200.751 649.323,167.424"/>
   <path style="fill:none;stroke:#000000;stroke-width:0.5pt;stroke-linecap:round;stroke-linejoin:round;stroke-opacity:1" d="M 649.323,167.424 C 606.817,146.491 563.211,126.645 516.819,104.635"/>
   <path style="fill:none;stroke:#000000;stroke-width:0.5pt;stroke-linecap:round;stroke-linejoin:round;stroke-opacity:1" d="M 435.378,370.447 C 435.213,351.838 435.122,333.376 435.031,315.896"/>
   <path style="fill:none;stroke:#000000;stroke-width:0.5pt;stroke-linecap:round;stroke-linejoin:round;stroke-opacity:1" d="M 435.031,315.896 C 434.894,289.536 435.256,265.215 434.988,246.22"/>
   <path style="fill:none;stroke:#000000;stroke-width:0.5pt;stroke-linecap:round;stroke-linejoin:round;stroke-opacity:1" d="M 434.988,246.22 C 469.888,222.382 510.903,192.529 543.406,170.805"/>
   <path style="fill:none;stroke:#000000;stroke-width:0.5pt;stroke-linecap:round;stroke-linejoin:round;stroke-opacity:1" d="M 543.406,170.805 C 624.036,116.913 640.255,91.3497 649.323,167.424"/>
   <path style="fill:none;stroke:#000000;stroke-width:0.5pt;stroke-linecap:round;stroke-linejoin:round;stroke-opacity:1" d="M 649.323,167.424 C 652.698,197.243 659.448,256.88 662.823,286.698"/>
   <path style="fill:none;stroke:#000000;stroke-width:0.5pt;stroke-linecap:round;stroke-linejoin:round;stroke-opacity:1" d="M 662.823,286.698 C 663.573,294.381 664.418,304.114 664.681,311.003"/>
   <path style="fill:none;stroke:#000000;stroke-width:0.5pt;stroke-linecap:round;stroke-linejoin:round;stroke-opacity:1" d="M 303.868,437.365 C 303.861,429.455 303.87,420.977 303.834,411.988"/>
   <path style="fill:none;stroke:#000000;stroke-width:0.5pt;stroke-linecap:round;stroke-linejoin:round;stroke-opacity:1" d="M 303.834,411.988 C 303.766,395.065 303.587,376.512 303.447,357.268"/>
   <path style="fill:none;stroke:#000000;stroke-width:0.5pt;stroke-linecap:round;stroke-linejoin:round;stroke-opacity:1" d="M 303.447,357.268 C 303.337,342.007 303.368,326.416 303.235,310.802"/>
   <path style="fill:none;stroke:#000000;stroke-width:0.5pt;stroke-linecap:round;stroke-linejoin:round;stroke-opacity:1" d="M 303.235,310.802 C 303.078,292.255 303,273.843 302.843,256.308"/>
   <path style="fill:none;stroke:#000000;stroke-width:0.5pt;stroke-linecap:round;stroke-linejoin:round;stroke-opacity:1" d="M 302.843,256.308 C 302.6,229.143 302.373,204.62 302.234,184.896"/>
   <path style="fill:none;stroke:#000000;stroke-width:0.5pt;stroke-linecap:round;stroke-linejoin:round;stroke-opacity:1" d="M 302.234,184.896 C 333.276,163.541 381.615,129.961 414.045,108.283"/>
   <path style="fill:none;stroke:#000000;stroke-width:0.5pt;stroke-linecap:round;stroke-linejoin:round;stroke-opacity:1" d="M 414.045,108.283 C 482.157,62.7532 508.427,23.2918 516.819,104.635"/>
   <path style="fill:none;stroke:#000000;stroke-width:0.5pt;stroke-linecap:round;stroke-linejoin:round;stroke-opacity:1" d="M 516.819,104.635 C 519.799,134.343 525.759,193.761 528.74,223.47"/>
   <path style="fill:none;stroke:#000000;stroke-width:0.5pt;stroke-linecap:round;stroke-linejoin:round;stroke-opacity:1" d="M 528.74,223.47 C 529.41,230.593 530.163,240.442 530.744,247.556"/>
   <path style="fill:none;stroke:#000000;stroke-width:0.5pt;stroke-linecap:round;stroke-linejoin:round;stroke-opacity:1" d="M 763.74,400.236 C 761.688,386.055 757.585,357.694 755.533,343.513"/>
   <path style="fill:none;stroke:#000000;stroke-width:0.5pt;stroke-linecap:round;stroke-linejoin:round;stroke-opacity:1" d="M 755.533,343.513 C 747.347,290.555 731.784,264.263 672.131,233.423"/>
   <path style="fill:none;stroke:#000000;stroke-width:0.5pt;stroke-linecap:round;stroke-linejoin:round;stroke-opacity:1" d="M 672.131,233.423 C 633.725,213.569 592.084,194.394 543.406,170.805"/>
   <path style="fill:none;stroke:#000000;stroke-width:0.5pt;stroke-linecap:round;stroke-linejoin:round;stroke-opacity:1" d="M 543.406,170.805 C 501.263,150.382 454.158,128.274 414.045,108.283"/>
   <path style="fill:none;stroke:#000000;stroke-width:0.5pt;stroke-linecap:round;stroke-linejoin:round;stroke-opacity:1" d="M 303.834,411.988 C 340.743,429.295 387.442,451.351 435.156,473.314"/>
   <path style="fill:none;stroke:#000000;stroke-width:0.5pt;stroke-linecap:round;stroke-linejoin:round;stroke-opacity:1" d="M 435.156,473.314 C 544.746,523.758 659.818,573.602 674.267,563.97"/>
   <path style="fill:none;stroke:#000000;stroke-width:0.5pt;stroke-linecap:round;stroke-linejoin:round;stroke-opacity:1" d="M 674.267,563.97 C 708.03,542.023 725.195,531.107 780.433,493.663"/>
   <path style="fill:none;stroke:#000000;stroke-width:0.5pt;stroke-linecap:round;stroke-linejoin:round;stroke-opacity:1" d="M 780.433,493.663 C 803.973,477.706 875.076,433.513 888.274,413.661"/>
   <path style="fill:none;stroke:#000000;stroke-width:0.5pt;stroke-linecap:round;stroke-linejoin:round;stroke-opacity:1" d="M 888.274,413.661 C 900.66,395.028 684.437,296.978 662.823,286.698"/>
   <path style="fill:none;stroke:#000000;stroke-width:0.5pt;stroke-linecap:round;stroke-linejoin:round;stroke-opacity:1" d="M 662.823,286.698 C 619.628,266.153 567.987,242.052 528.74,223.47"/>
   <path style="fill:none;stroke:#000000;stroke-width:0.5pt;stroke-linecap:round;stroke-linejoin:round;stroke-opacity:1" d="M 769.804,437.64 C 772.461,451.645 777.776,479.657 780.433,493.663"/>
   <path style="fill:none;stroke:#000000;stroke-width:0.5pt;stroke-linecap:round;stroke-linejoin:round;stroke-opacity:1" d="M 780.433,493.663 C 781.896,501.567 784.272,512.993 785.922,521.742"/>
   <path style="fill:none;stroke:#000000;stroke-width:0.5pt;stroke-linecap:round;stroke-linejoin:round;stroke-opacity:1" d="M 303.868,437.365 C 340.854,454.328 387.377,475.867 434.985,497.464"/>
   <path style="fill:none;stroke:#000000;stroke-width:0.5pt;stroke-linecap:round;stroke-linejoin:round;stroke-opacity:1" d="M 434.985,497.464 C 547.536,548.523 664.747,600.111 678.268,590.906"/>
   <path style="fill:none;stroke:#000000;stroke-width:0.5pt;stroke-linecap:round;stroke-linejoin:round;stroke-opacity:1" d="M 678.268,590.906 C 709.167,570.416 752.679,543.208 785.922,521.742"/>
   <path style="fill:none;stroke:#000000;stroke-width:0.5pt;stroke-linecap:round;stroke-linejoin:round;stroke-opacity:1" d="M 785.922,521.742 C 819.776,499.881 869.597,471.963 890.956,440.923"/>
   <path style="fill:none;stroke:#000000;stroke-width:0.5pt;stroke-linecap:round;stroke-linejoin:round;stroke-opacity:1" d="M 890.956,440.923 C 907.162,417.374 695.297,325.549 664.681,311.003"/>
   <path style="fill:none;stroke:#000000;stroke-width:0.5pt;stroke-linecap:round;stroke-linejoin:round;stroke-opacity:1" d="M 664.681,311.003 C 618.502,289.063 567.557,265.093 530.744,247.556"/>
   <path style="fill:none;stroke:#000000;stroke-width:0.5pt;stroke-linecap:round;stroke-linejoin:round;stroke-opacity:1" d="M 665.331,508.309 C 667.565,522.224 672.033,550.055 674.267,563.97"/>
   <path style="fill:none;stroke:#000000;stroke-width:0.5pt;stroke-linecap:round;stroke-linejoin:round;stroke-opacity:1" d="M 674.267,563.97 C 675.519,571.527 677.052,582.338 678.268,590.906"/>
   <path style="fill:none;stroke:#000000;stroke-width:0.5pt;stroke-linecap:round;stroke-linejoin:round;stroke-opacity:1" d="M 303.447,357.268 C 338.547,373.721 386.438,395.879 435.542,418.192"/>
   <path style="fill:none;stroke:#000000;stroke-width:0.5pt;stroke-linecap:round;stroke-linejoin:round;stroke-opacity:1" d="M 435.542,418.192 C 541.666,466.415 654.706,515.284 665.331,508.309"/>
   <path style="fill:none;stroke:#000000;stroke-width:0.5pt;stroke-linecap:round;stroke-linejoin:round;stroke-opacity:1" d="M 665.331,508.309 C 691.45,490.642 743.686,455.307 769.804,437.64"/>
   <path style="fill:none;stroke:#000000;stroke-width:0.5pt;stroke-linecap:round;stroke-linejoin:round;stroke-opacity:1" d="M 769.804,437.64 C 805.326,413 848.364,383.241 882.058,359.652"/>
   <path style="fill:none;stroke:#000000;stroke-width:0.5pt;stroke-linecap:round;stroke-linejoin:round;stroke-opacity:1" d="M 303.235,310.802 C 342.623,328.521 388.58,349.306 435.378,370.447"/>
   <path style="fill:none;stroke:#000000;stroke-width:0.5pt;stroke-linecap:round;stroke-linejoin:round;stroke-opacity:1" d="M 435.378,370.447 C 517.158,407.392 601.62,445.396 657.974,470.07"/>
   <path style="fill:none;stroke:#000000;stroke-width:0.5pt;stroke-linecap:round;stroke-linejoin:round;stroke-opacity:1" d="M 657.974,470.07 C 684.416,452.611 737.299,417.694 763.74,400.236"/>
   <path style="fill:none;stroke:#000000;stroke-width:0.5pt;stroke-linecap:round;stroke-linejoin:round;stroke-opacity:1" d="M 763.74,400.236 C 800.925,375.526 843.757,346.675 878.095,323.464"/>
   <path style="fill:none;stroke:#000000;stroke-width:0.5pt;stroke-linecap:round;stroke-linejoin:round;stroke-opacity:1" d="M 871.223,269.946 C 872.941,283.326 876.377,310.084 878.095,323.464"/>
   <path style="fill:none;stroke:#000000;stroke-width:0.5pt;stroke-linecap:round;stroke-linejoin:round;stroke-opacity:1" d="M 878.095,323.464 C 879.086,332.511 881.068,350.605 882.058,359.652"/>
   <path style="fill:none;stroke:#000000;stroke-width:0.5pt;stroke-linecap:round;stroke-linejoin:round;stroke-opacity:1" d="M 882.058,359.652 C 883.612,373.154 886.72,400.159 888.274,413.661"/>
   <path style="fill:none;stroke:#000000;stroke-width:0.5pt;stroke-linecap:round;stroke-linejoin:round;stroke-opacity:1" d="M 888.274,413.661 C 889.156,421.994 890.146,433.13 890.956,440.923"/>
   <path style="fill:none;stroke:#000000;stroke-width:0.5pt;stroke-linecap:round;stroke-linejoin:round;stroke-opacity:1" d="M 302.234,184.896 C 335.422,200.227 401.8,230.889 434.988,246.22"/>
   <path style="fill:none;stroke:#000000;stroke-width:0.5pt;stroke-linecap:round;stroke-linejoin:round;stroke-opacity:1" d="M 434.988,246.22 C 581.012,312.955 626.781,321.49 646.194,411.763"/>
   <path style="fill:none;stroke:#000000;stroke-width:0.5pt;stroke-linecap:round;stroke-linejoin:round;stroke-opacity:1" d="M 646.194,411.763 C 649.574,427.221 653.812,449.053 657.974,470.07"/>
   <path style="fill:none;stroke:#000000;stroke-width:0.5pt;stroke-linecap:round;stroke-linejoin:round;stroke-opacity:1" d="M 435.542,418.192 C 435.649,440.019 435.36,454.804 435.156,473.314"/>
   <path style="fill:none;stroke:#000000;stroke-width:0.5pt;stroke-linecap:round;stroke-linejoin:round;stroke-opacity:1" d="M 435.156,473.314 C 435.076,480.574 435.01,488.407 434.985,497.464"/>
  </g>
  <g id="intersections">
   <circle fill="black" cx="646.194" cy="411.763" stroke="none" r="2"/>
   <circle fill="black" cx="871.223" cy="269.946" stroke="none" r="2"/>
   <circle fill="black" cx="434.988" cy="246.22" stroke="none" r="2"/>
   <circle fill="black" cx="302.234" cy="184.896" stroke="none" r="2"/>
   <circle fill="black" cx="414.045" cy="108.283" stroke="none" r="2"/>
   <circle fill="black" cx="763.74" cy="400.236" stroke="none" r="2"/>
   <circle fill="black" cx="674.267" cy="563.97" stroke="none" r="2"/>
   <circle fill="black" cx="888.274" cy="413.661" stroke="none" r="2"/>
   <circle fill="black" cx="678.268" cy="590.906" stroke="none" r="2"/>
   <circle fill="black" cx="890.956" cy="440.923" stroke="none" r="2"/>
   <circle fill="black" cx="665.331" cy="508.309" stroke="none" r="2"/>
   <circle fill="black" cx="657.974" cy="470.07" stroke="none" r="2"/>
   <circle fill="black" cx="302.843" cy="256.308" stroke="none" r="2"/>
   <circle fill="black" cx="435.031" cy="315.896" stroke="none" r="2"/>
   <circle fill="black" cx="755.533" cy="343.513" stroke="none" r="2"/>
   <circle fill="black" cx="649.323" cy="167.424" stroke="none" r="2"/>
   <circle fill="black" cx="516.819" cy="104.635" stroke="none" r="2"/>
   <circle fill="black" cx="435.378" cy="370.447" stroke="none" r="2"/>
   <circle fill="black" cx="543.406" cy="170.805" stroke="none" r="2"/>
   <circle fill="black" cx="662.823" cy="286.698" stroke="none" r="2"/>
   <circle fill="black" cx="664.681" cy="311.003" stroke="none" r="2"/>
   <circle fill="black" cx="303.834" cy="411.988" stroke="none" r="2"/>
   <circle fill="black" cx="303.447" cy="357.268" stroke="none" r="2"/>
   <circle fill="black" cx="303.235" cy="310.802" stroke="none" r="2"/>
   <circle fill="black" cx="528.74" cy="223.47" stroke="none" r="2"/>
   <circle fill="black" cx="435.156" cy="473.314" stroke="none" r="2"/>
   <circle fill="black" cx="780.433" cy="493.663" stroke="none" r="2"/>
   <circle fill="black" cx="769.804" cy="437.64" stroke="none" r="2"/>
   <circle fill="black" cx="785.922" cy="521.742" stroke="none" r="2"/>
   <circle fill="black" cx="434.985" cy="497.464" stroke="none" r="2"/>
   <circle fill="black" cx="435.542" cy="418.192" stroke="none" r="2"/>
   <circle fill="black" cx="882.058" cy="359.652" stroke="none" r="2"/>
   <circle fill="black" cx="878.095" cy="323.464" stroke="none" r="2"/>
  </g>
 </g>
</svg>
