<!DOCTYPE svg>
<svg width="500" height="500">
 <g id="layer0">
  <g id="paths">
   <path style="fill:none;stroke:#000000;stroke-width:0.5pt;stroke-linecap:round;stroke-linejoin:round;stroke-opacity:1" d="M 87.9057,246.631 C 126.516,248.691 151.475,249.587 175.935,250.47"/>
   <path style="fill:none;stroke:#000000;stroke-width:0.5pt;stroke-linecap:round;stroke-linejoin:round;stroke-opacity:1" d="M 175.935,250.47 C 208.278,251.637 241.317,252.889 272.948,252.046"/>
   <path style="fill:none;stroke:#000000;stroke-width:0.5pt;stroke-linecap:round;stroke-linejoin:round;stroke-opacity:1" d="M 272.948,252.046 C 288.966,241.778 321.002,221.242 337.02,210.974"/>
   <path style="fill:none;stroke:#000000;stroke-width:0.5pt;stroke-linecap:round;stroke-linejoin:round;stroke-opacity:1" d="M 337.02,210.974 C 350.02,202.151 360.362,194.878 373.832,184.73"/>
   <path style="fill:none;stroke:#000000;stroke-width:0.5pt;stroke-linecap:round;stroke-linejoin:round;stroke-opacity:1" d="M 152.672,164.109 C 182.714,162.348 214.167,160.605 246.359,160.56"/>
   <path style="fill:none;stroke:#000000;stroke-width:0.5pt;stroke-linecap:round;stroke-linejoin:round;stroke-opacity:1" d="M 246.359,160.56 C 315.813,160.463 320.508,152.495 337.02,210.974"/>
   <path style="fill:none;stroke:#000000;stroke-width:0.5pt;stroke-linecap:round;stroke-linejoin:round;stroke-opacity:1" d="M 337.02,210.974 C 344.08,235.98 352.993,272.214 359.805,299.151"/>
   <path style="fill:none;stroke:#000000;stroke-width:0.5pt;stroke-linecap:round;stroke-linejoin:round;stroke-opacity:1" d="M 359.805,299.151 C 361.556,306.074 363.181,312.413 364.584,317.747"/>
   <path style="fill:none;stroke:#000000;stroke-width:0.5pt;stroke-linecap:round;stroke-linejoin:round;stroke-opacity:1" d="M 203.808,140.164 C 230.732,139.635 261.723,139.372 291.225,140.074"/>
   <path style="fill:none;stroke:#000000;stroke-width:0.5pt;stroke-linecap:round;stroke-linejoin:round;stroke-opacity:1" d="M 291.225,140.074 C 357.951,141.659 357.885,134.481 373.832,184.73"/>
   <path style="fill:none;stroke:#000000;stroke-width:0.5pt;stroke-linecap:round;stroke-linejoin:round;stroke-opacity:1" d="M 373.832,184.73 C 381.592,209.184 390.528,241.413 398.559,269.024"/>
   <path style="fill:none;stroke:#000000;stroke-width:0.5pt;stroke-linecap:round;stroke-linejoin:round;stroke-opacity:1" d="M 398.559,269.024 C 400.286,274.965 402.037,280.627 403.661,286.014"/>
   <path style="fill:none;stroke:#000000;stroke-width:0.5pt;stroke-linecap:round;stroke-linejoin:round;stroke-opacity:1" d="M 176.842,288.565 C 176.366,275.517 175.772,262.916 175.935,250.47"/>
   <path style="fill:none;stroke:#000000;stroke-width:0.5pt;stroke-linecap:round;stroke-linejoin:round;stroke-opacity:1" d="M 175.935,250.47 C 176.739,188.931 189.767,187.756 246.359,160.56"/>
   <path style="fill:none;stroke:#000000;stroke-width:0.5pt;stroke-linecap:round;stroke-linejoin:round;stroke-opacity:1" d="M 246.359,160.56 C 261.079,153.487 276.92,146.337 291.225,140.074"/>
   <path style="fill:none;stroke:#000000;stroke-width:0.5pt;stroke-linecap:round;stroke-linejoin:round;stroke-opacity:1" d="M 89.4421,345.065 C 120.676,347.637 149.135,349.339 178.045,350.69"/>
   <path style="fill:none;stroke:#000000;stroke-width:0.5pt;stroke-linecap:round;stroke-linejoin:round;stroke-opacity:1" d="M 178.045,350.69 C 203.535,351.881 251.891,355.168 275.725,352.802"/>
   <path style="fill:none;stroke:#000000;stroke-width:0.5pt;stroke-linecap:round;stroke-linejoin:round;stroke-opacity:1" d="M 275.725,352.802 C 294.605,350.928 338.332,315.619 359.805,299.151"/>
   <path style="fill:none;stroke:#000000;stroke-width:0.5pt;stroke-linecap:round;stroke-linejoin:round;stroke-opacity:1" d="M 359.805,299.151 C 373.317,288.787 386.76,278.275 398.559,269.024"/>
   <path style="fill:none;stroke:#000000;stroke-width:0.5pt;stroke-linecap:round;stroke-linejoin:round;stroke-opacity:1" d="M 177.88,313.343 C 177.974,326.706 178.012,338.682 178.045,350.69"/>
   <path style="fill:none;stroke:#000000;stroke-width:0.5pt;stroke-linecap:round;stroke-linejoin:round;stroke-opacity:1" d="M 178.045,350.69 C 178.061,356.896 178.076,363.121 178.097,369.539"/>
   <path style="fill:none;stroke:#000000;stroke-width:0.5pt;stroke-linecap:round;stroke-linejoin:round;stroke-opacity:1" d="M 89.2576,362.852 C 119.422,364.842 148.74,367.525 178.097,369.539"/>
   <path style="fill:none;stroke:#000000;stroke-width:0.5pt;stroke-linecap:round;stroke-linejoin:round;stroke-opacity:1" d="M 178.097,369.539 C 210.252,371.746 242.469,373.149 275.911,371.978"/>
   <path style="fill:none;stroke:#000000;stroke-width:0.5pt;stroke-linecap:round;stroke-linejoin:round;stroke-opacity:1" d="M 275.911,371.978 C 300.537,371.115 343.764,334.308 364.584,317.747"/>
   <path style="fill:none;stroke:#000000;stroke-width:0.5pt;stroke-linecap:round;stroke-linejoin:round;stroke-opacity:1" d="M 364.584,317.747 C 378.849,306.4 392.572,295.126 403.661,286.014"/>
   <path style="fill:none;stroke:#000000;stroke-width:0.5pt;stroke-linecap:round;stroke-linejoin:round;stroke-opacity:1" d="M 89.8124,310.049 C 89.6239,324.249 89.541,334.419 89.4421,345.065"/>
   <path style="fill:none;stroke:#000000;stroke-width:0.5pt;stroke-linecap:round;stroke-linejoin:round;stroke-opacity:1" d="M 89.4421,345.065 C 89.3903,350.645 89.3345,356.357 89.2576,362.852"/>
   <path style="fill:none;stroke:#000000;stroke-width:0.5pt;stroke-linecap:round;stroke-linejoin:round;stroke-opacity:1" d="M 89.8124,310.049 C 118.31,311.643 148.068,312.683 177.88,313.343"/>
   <path style="fill:none;stroke:#000000;stroke-width:0.5pt;stroke-linecap:round;stroke-linejoin:round;stroke-opacity:1" d="M 177.88,313.343 C 210.784,314.07 243.743,314.315 275.152,314.344"/>
   <path style="fill:none;stroke:#000000;stroke-width:0.5pt;stroke-linecap:round;stroke-linejoin:round;stroke-opacity:1" d="M 88.1584,283.388 C 116.118,286.088 146.361,287.68 176.842,288.565"/>
   <path style="fill:none;stroke:#000000;stroke-width:0.5pt;stroke-linecap:round;stroke-linejoin:round;stroke-opacity:1" d="M 176.842,288.565 C 210.066,289.529 243.537,289.649 274.596,289.665"/>
   <path style="fill:none;stroke:#000000;stroke-width:0.5pt;stroke-linecap:round;stroke-linejoin:round;stroke-opacity:1" d="M 272.948,252.046 C 273.612,259.677 274.157,273.415 274.596,289.665"/>
   <path style="fill:none;stroke:#000000;stroke-width:0.5pt;stroke-linecap:round;stroke-linejoin:round;stroke-opacity:1" d="M 274.596,289.665 C 274.805,297.447 274.99,305.805 275.152,314.344"/>
   <path style="fill:none;stroke:#000000;stroke-width:0.5pt;stroke-linecap:round;stroke-linejoin:round;stroke-opacity:1" d="M 275.152,314.344 C 275.395,327.201 275.585,340.469 275.725,352.802"/>
   <path style="fill:none;stroke:#000000;stroke-width:0.5pt;stroke-linecap:round;stroke-linejoin:round;stroke-opacity:1" d="M 275.725,352.802 C 275.802,359.547 275.864,366.012 275.911,371.978"/>
   <path style="fill:none;stroke:#000000;stroke-width:0.5pt;stroke-linecap:round;stroke-linejoin:round;stroke-opacity:1" d="M 203.808,140.164 C 187.227,147.64 169.092,156.084 152.672,164.109"/>
   <path style="fill:none;stroke:#000000;stroke-width:0.5pt;stroke-linecap:round;stroke-linejoin:round;stroke-opacity:1" d="M 152.672,164.109 C 97.8341,190.91 90.0824,186.773 87.9057,246.631"/>
   <path style="fill:none;stroke:#000000;stroke-width:0.5pt;stroke-linecap:round;stroke-linejoin:round;stroke-opacity:1" d="M 87.9057,246.631 C 87.5233,257.147 87.6587,268.984 88.1584,283.388"/>
  </g>
  <g id="intersections">
   <circle fill="black" cx="272.948" cy="252.046" stroke="none" r="2"/>
   <circle fill="black" cx="87.9057" cy="246.631" stroke="none" r="2"/>
   <circle fill="black" cx="175.935" cy="250.47" stroke="none" r="2"/>
   <circle fill="black" cx="337.02" cy="210.974" stroke="none" r="2"/>
   <circle fill="black" cx="373.832" cy="184.73" stroke="none" r="2"/>
   <circle fill="black" cx="152.672" cy="164.109" stroke="none" r="2"/>
   <circle fill="black" cx="246.359" cy="160.56" stroke="none" r="2"/>
   <circle fill="black" cx="359.805" cy="299.151" stroke="none" r="2"/>
   <circle fill="black" cx="364.584" cy="317.747" stroke="none" r="2"/>
   <circle fill="black" cx="291.225" cy="140.074" stroke="none" r="2"/>
   <circle fill="black" cx="398.559" cy="269.024" stroke="none" r="2"/>
   <circle fill="black" cx="176.842" cy="288.565" stroke="none" r="2"/>
   <circle fill="black" cx="89.4421" cy="345.065" stroke="none" r="2"/>
   <circle fill="black" cx="178.045" cy="350.69" stroke="none" r="2"/>
   <circle fill="black" cx="275.725" cy="352.802" stroke="none" r="2"/>
   <circle fill="black" cx="177.88" cy="313.343" stroke="none" r="2"/>
   <circle fill="black" cx="178.097" cy="369.539" stroke="none" r="2"/>
   <circle fill="black" cx="275.911" cy="371.978" stroke="none" r="2"/>
   <circle fill="black" cx="275.152" cy="314.344" stroke="none" r="2"/>
   <circle fill="black" cx="274.596" cy="289.665" stroke="none" r="2"/>
  </g>
 </g>
</svg>
