<!DOCTYPE svg>
<svg width="595" height="841">
 <g id="layer0">
  <g id="paths">
   <path style="fill:none;stroke:#000000;stroke-width:0.5pt;stroke-linecap:round;stroke-linejoin:round;stroke-opacity:1" d="M 178.049,464.059 C 174.413,479.932 176.337,499.939 210,516.557"/>
   <path style="fill:none;stroke:#000000;stroke-width:0.5pt;stroke-linecap:round;stroke-linejoin:round;stroke-opacity:1" d="M 210,516.557 C 243.312,533.002 277.691,537.249 308.264,534.969"/>
   <path style="fill:none;stroke:#000000;stroke-width:0.5pt;stroke-linecap:round;stroke-linejoin:round;stroke-opacity:1" d="M 308.264,534.969 C 350.196,531.843 385.842,515.528 400.875,502.479"/>
   <path style="fill:none;stroke:#000000;stroke-width:0.5pt;stroke-linecap:round;stroke-linejoin:round;stroke-opacity:1" d="M 400.875,502.479 C 421.691,484.409 417.092,467.97 411.589,454.491"/>
   <path style="fill:none;stroke:#000000;stroke-width:0.5pt;stroke-linecap:round;stroke-linejoin:round;stroke-opacity:1" d="M 178.049,464.059 C 186.401,444.441 200.117,414.926 214.814,388.852"/>
   <path style="fill:none;stroke:#000000;stroke-width:0.5pt;stroke-linecap:round;stroke-linejoin:round;stroke-opacity:1" d="M 214.814,388.852 C 224.942,370.884 236.292,353.754 245.73,343.485"/>
   <path style="fill:none;stroke:#000000;stroke-width:0.5pt;stroke-linecap:round;stroke-linejoin:round;stroke-opacity:1" d="M 245.73,343.485 C 263.413,324.28 277.658,316.478 292.439,316.457"/>
   <path style="fill:none;stroke:#000000;stroke-width:0.5pt;stroke-linecap:round;stroke-linejoin:round;stroke-opacity:1" d="M 292.439,316.457 C 307.728,316.435 322.243,325.013 340.06,341.003"/>
   <path style="fill:none;stroke:#000000;stroke-width:0.5pt;stroke-linecap:round;stroke-linejoin:round;stroke-opacity:1" d="M 340.06,341.003 C 348.697,348.77 361.53,366.162 374.02,386.094"/>
   <path style="fill:none;stroke:#000000;stroke-width:0.5pt;stroke-linecap:round;stroke-linejoin:round;stroke-opacity:1" d="M 374.02,386.094 C 387.584,407.741 401.464,433.043 411.589,454.491"/>
   <path style="fill:none;stroke:#000000;stroke-width:0.5pt;stroke-linecap:round;stroke-linejoin:round;stroke-opacity:1" d="M 245.73,343.485 C 244.411,349.364 252.007,352.361 262.721,354.141"/>
   <path style="fill:none;stroke:#000000;stroke-width:0.5pt;stroke-linecap:round;stroke-linejoin:round;stroke-opacity:1" d="M 262.721,354.141 C 272.739,355.805 289.11,356.581 299.943,356.011"/>
   <path style="fill:none;stroke:#000000;stroke-width:0.5pt;stroke-linecap:round;stroke-linejoin:round;stroke-opacity:1" d="M 299.943,356.011 C 312.762,355.336 322.774,353.206 331.387,349.889"/>
   <path style="fill:none;stroke:#000000;stroke-width:0.5pt;stroke-linecap:round;stroke-linejoin:round;stroke-opacity:1" d="M 331.387,349.889 C 337.385,347.579 340.956,344.665 340.06,341.003"/>
   <path style="fill:none;stroke:#000000;stroke-width:0.5pt;stroke-linecap:round;stroke-linejoin:round;stroke-opacity:1" d="M 214.814,388.852 C 212.579,399.504 223.676,406.143 240.195,411.681"/>
   <path style="fill:none;stroke:#000000;stroke-width:0.5pt;stroke-linecap:round;stroke-linejoin:round;stroke-opacity:1" d="M 240.195,411.681 C 257.558,417.503 283.012,420.101 303.427,418.925"/>
   <path style="fill:none;stroke:#000000;stroke-width:0.5pt;stroke-linecap:round;stroke-linejoin:round;stroke-opacity:1" d="M 303.427,418.925 C 329.481,417.426 348.69,412.951 361.394,404.855"/>
   <path style="fill:none;stroke:#000000;stroke-width:0.5pt;stroke-linecap:round;stroke-linejoin:round;stroke-opacity:1" d="M 361.394,404.855 C 370.31,399.173 375.027,392.647 374.02,386.094"/>
   <path style="fill:none;stroke:#000000;stroke-width:0.5pt;stroke-linecap:round;stroke-linejoin:round;stroke-opacity:1" d="M 331.387,349.889 C 340.526,363.191 350.403,381.099 361.394,404.855"/>
   <path style="fill:none;stroke:#000000;stroke-width:0.5pt;stroke-linecap:round;stroke-linejoin:round;stroke-opacity:1" d="M 361.394,404.855 C 373.132,430.223 386.139,462.26 400.875,502.479"/>
   <path style="fill:none;stroke:#000000;stroke-width:0.5pt;stroke-linecap:round;stroke-linejoin:round;stroke-opacity:1" d="M 262.721,354.141 C 255.461,368.903 248.06,387.886 240.195,411.681"/>
   <path style="fill:none;stroke:#000000;stroke-width:0.5pt;stroke-linecap:round;stroke-linejoin:round;stroke-opacity:1" d="M 240.195,411.681 C 230.946,439.665 221.057,474.303 210,516.557"/>
   <path style="fill:none;stroke:#000000;stroke-width:0.5pt;stroke-linecap:round;stroke-linejoin:round;stroke-opacity:1" d="M 292.439,316.457 C 295.71,317.623 297.892,328.514 299.943,356.011"/>
   <path style="fill:none;stroke:#000000;stroke-width:0.5pt;stroke-linecap:round;stroke-linejoin:round;stroke-opacity:1" d="M 299.943,356.011 C 301.09,371.388 302.195,391.958 303.427,418.925"/>
   <path style="fill:none;stroke:#000000;stroke-width:0.5pt;stroke-linecap:round;stroke-linejoin:round;stroke-opacity:1" d="M 303.427,418.925 C 304.804,449.06 306.338,487.181 308.264,534.969"/>
  </g>
  <g id="intersections">
   <circle fill="black" cx="210" cy="516.557" stroke="none" r="2"/>
   <circle fill="black" cx="400.875" cy="502.479" stroke="none" r="2"/>
   <circle fill="black" cx="245.73" cy="343.485" stroke="none" r="2"/>
   <circle fill="black" cx="340.06" cy="341.003" stroke="none" r="2"/>
   <circle fill="black" cx="299.943" cy="356.011" stroke="none" r="2"/>
   <circle fill="black" cx="303.427" cy="418.925" stroke="none" r="2"/>
   <circle fill="black" cx="292.439" cy="316.457" stroke="none" r="2"/>
   <circle fill="black" cx="308.264" cy="534.969" stroke="none" r="2"/>
   <circle fill="black" cx="214.814" cy="388.852" stroke="none" r="2"/>
   <circle fill="black" cx="374.02" cy="386.094" stroke="none" r="2"/>
   <circle fill="black" cx="262.721" cy="354.141" stroke="none" r="2"/>
   <circle fill="black" cx="331.387" cy="349.889" stroke="none" r="2"/>
   <circle fill="black" cx="240.195" cy="411.681" stroke="none" r="2"/>
   <circle fill="black" cx="361.394" cy="404.855" stroke="none" r="2"/>
  </g>
 </g>
</svg>
