<!DOCTYPE svg>
<svg width="900" height="900">
 <g id="layer0">
  <g id="paths">
   <path style="fill:none;stroke:#000000;stroke-width:0.5pt;stroke-linecap:round;stroke-linejoin:round;stroke-opacity:1" d="M 118.568,211.415 C -10.7443,252.457 140.967,318.903 227.369,333.028"/>
   <path style="fill:none;stroke:#000000;stroke-width:0.5pt;stroke-linecap:round;stroke-linejoin:round;stroke-opacity:1" d="M 227.369,333.028 C 364.933,355.517 531.958,342.208 672.735,304.161"/>
   <path style="fill:none;stroke:#000000;stroke-width:0.5pt;stroke-linecap:round;stroke-linejoin:round;stroke-opacity:1" d="M 125.142,365.739 C -4.39835,411.837 175.87,471.891 231.627,483.549"/>
   <path style="fill:none;stroke:#000000;stroke-width:0.5pt;stroke-linecap:round;stroke-linejoin:round;stroke-opacity:1" d="M 231.627,483.549 C 360.85,510.568 532.895,488.748 658.419,451.886"/>
   <path style="fill:none;stroke:#000000;stroke-width:0.5pt;stroke-linecap:round;stroke-linejoin:round;stroke-opacity:1" d="M 204.32,545.033 C 129.577,581.378 214.999,601.323 257.2,610.917"/>
   <path style="fill:none;stroke:#000000;stroke-width:0.5pt;stroke-linecap:round;stroke-linejoin:round;stroke-opacity:1" d="M 257.2,610.917 C 347.627,631.472 471.703,630.195 570.458,597.199"/>
   <path style="fill:none;stroke:#000000;stroke-width:0.5pt;stroke-linecap:round;stroke-linejoin:round;stroke-opacity:1" d="M 227.369,333.028 C 226.616,387.338 227.729,434.563 231.627,483.549"/>
   <path style="fill:none;stroke:#000000;stroke-width:0.5pt;stroke-linecap:round;stroke-linejoin:round;stroke-opacity:1" d="M 231.627,483.549 C 233.927,512.462 242.886,595.776 257.2,610.917"/>
   <path style="fill:none;stroke:#000000;stroke-width:0.5pt;stroke-linecap:round;stroke-linejoin:round;stroke-opacity:1" d="M 257.2,610.917 C 261.619,615.591 371.311,578.258 384.288,574.071"/>
   <path style="fill:none;stroke:#000000;stroke-width:0.5pt;stroke-linecap:round;stroke-linejoin:round;stroke-opacity:1" d="M 118.568,211.415 C 117.532,264.4 117.951,314.886 125.142,365.739"/>
   <path style="fill:none;stroke:#000000;stroke-width:0.5pt;stroke-linecap:round;stroke-linejoin:round;stroke-opacity:1" d="M 125.142,365.739 C 130.579,404.198 157.993,537.597 204.32,545.033"/>
   <path style="fill:none;stroke:#000000;stroke-width:0.5pt;stroke-linecap:round;stroke-linejoin:round;stroke-opacity:1" d="M 204.32,545.033 C 242.224,551.116 314.33,562.815 384.288,574.071"/>
   <path style="fill:none;stroke:#000000;stroke-width:0.5pt;stroke-linecap:round;stroke-linejoin:round;stroke-opacity:1" d="M 384.288,574.071 C 411.821,578.502 555.449,605.526 570.458,597.199"/>
   <path style="fill:none;stroke:#000000;stroke-width:0.5pt;stroke-linecap:round;stroke-linejoin:round;stroke-opacity:1" d="M 570.458,597.199 C 620.224,569.589 647.137,503.48 658.419,451.886"/>
   <path style="fill:none;stroke:#000000;stroke-width:0.5pt;stroke-linecap:round;stroke-linejoin:round;stroke-opacity:1" d="M 658.419,451.886 C 668.973,403.619 670.832,353.568 672.735,304.161"/>
   <path style="fill:none;stroke:#000000;stroke-width:0.5pt;stroke-linecap:round;stroke-linejoin:round;stroke-opacity:1" d="M 658.27,300.068 C 718.222,313.861 796.606,349.323 788.59,425.19"/>
   <path style="fill:none;stroke:#000000;stroke-width:0.5pt;stroke-linecap:round;stroke-linejoin:round;stroke-opacity:1" d="M 788.59,425.19 C 778.577,519.956 691.832,516.447 625.996,510.351"/>
   <path style="fill:none;stroke:#000000;stroke-width:0.5pt;stroke-linecap:round;stroke-linejoin:round;stroke-opacity:1" d="M 653.606,346.452 C 699.784,353.064 742.668,387.082 739.039,422.226"/>
   <path style="fill:none;stroke:#000000;stroke-width:0.5pt;stroke-linecap:round;stroke-linejoin:round;stroke-opacity:1" d="M 739.039,422.226 C 732.66,483.993 663.596,466.319 633.218,462.516"/>
   <path style="fill:none;stroke:#000000;stroke-width:0.5pt;stroke-linecap:round;stroke-linejoin:round;stroke-opacity:1" d="M 739.039,422.226 C 743.098,429.105 750.201,430.907 757.948,431.164"/>
   <path style="fill:none;stroke:#000000;stroke-width:0.5pt;stroke-linecap:round;stroke-linejoin:round;stroke-opacity:1" d="M 757.948,431.164 C 769.736,431.554 782.939,427.469 788.59,425.19"/>
   <path style="fill:none;stroke:#000000;stroke-width:0.5pt;stroke-linecap:round;stroke-linejoin:round;stroke-opacity:1" d="M 658.27,300.068 C 650.597,305.579 645.023,315.3 643.764,324.684"/>
   <path style="fill:none;stroke:#000000;stroke-width:0.5pt;stroke-linecap:round;stroke-linejoin:round;stroke-opacity:1" d="M 643.764,324.684 C 642.577,333.53 645.223,342.078 653.606,346.452"/>
   <path style="fill:none;stroke:#000000;stroke-width:0.5pt;stroke-linecap:round;stroke-linejoin:round;stroke-opacity:1" d="M 633.218,462.516 C 623.115,467.516 619.737,480.99 620.131,492.34"/>
   <path style="fill:none;stroke:#000000;stroke-width:0.5pt;stroke-linecap:round;stroke-linejoin:round;stroke-opacity:1" d="M 620.131,492.34 C 620.381,499.555 621.086,504.548 625.996,510.351"/>
   <path style="fill:none;stroke:#000000;stroke-width:0.5pt;stroke-linecap:round;stroke-linejoin:round;stroke-opacity:1" d="M 643.764,324.684 C 703.485,330.268 763.375,364.752 757.948,431.164"/>
   <path style="fill:none;stroke:#000000;stroke-width:0.5pt;stroke-linecap:round;stroke-linejoin:round;stroke-opacity:1" d="M 757.948,431.164 C 752.024,503.644 664.239,496.538 620.131,492.34"/>
  </g>
  <g id="intersections">
   <circle fill="black" cx="231.627" cy="483.549" stroke="none" r="2"/>
   <circle fill="black" cx="204.32" cy="545.033" stroke="none" r="2"/>
   <circle fill="black" cx="739.039" cy="422.226" stroke="none" r="2"/>
   <circle fill="black" cx="788.59" cy="425.19" stroke="none" r="2"/>
   <circle fill="black" cx="227.369" cy="333.028" stroke="none" r="2"/>
   <circle fill="black" cx="125.142" cy="365.739" stroke="none" r="2"/>
   <circle fill="black" cx="658.419" cy="451.886" stroke="none" r="2"/>
   <circle fill="black" cx="257.2" cy="610.917" stroke="none" r="2"/>
   <circle fill="black" cx="570.458" cy="597.199" stroke="none" r="2"/>
   <circle fill="black" cx="384.288" cy="574.071" stroke="none" r="2"/>
   <circle fill="black" cx="757.948" cy="431.164" stroke="none" r="2"/>
   <circle fill="black" cx="643.764" cy="324.684" stroke="none" r="2"/>
   <circle fill="black" cx="620.131" cy="492.34" stroke="none" r="2"/>
  </g>
 </g>
</svg>
