<!DOCTYPE svg>
<svg width="900" height="900">
 <g id="layer0">
  <g id="paths">
   <path style="fill:none;stroke:#000000;stroke-width:0.5pt;stroke-linecap:round;stroke-linejoin:round;stroke-opacity:1" d="M 182.557,546.292 C 183.539,530.572 205.966,466.966 236.324,469.199"/>
   <path style="fill:none;stroke:#000000;stroke-width:0.5pt;stroke-linecap:round;stroke-linejoin:round;stroke-opacity:1" d="M 236.324,469.199 C 249.911,470.198 257.453,479.656 274.401,476.408"/>
   <path style="fill:none;stroke:#000000;stroke-width:0.5pt;stroke-linecap:round;stroke-linejoin:round;stroke-opacity:1" d="M 274.401,476.408 C 296.117,472.246 319.177,428.869 362.468,405.054"/>
   <path style="fill:none;stroke:#000000;stroke-width:0.5pt;stroke-linecap:round;stroke-linejoin:round;stroke-opacity:1" d="M 362.468,405.054 C 363.837,404.301 365.24,403.521 366.66,402.73"/>
   <path style="fill:none;stroke:#000000;stroke-width:0.5pt;stroke-linecap:round;stroke-linejoin:round;stroke-opacity:1" d="M 366.66,402.73 C 402.877,382.557 359.08,357.082 409.024,363.549"/>
   <path style="fill:none;stroke:#000000;stroke-width:0.5pt;stroke-linecap:round;stroke-linejoin:round;stroke-opacity:1" d="M 409.024,363.549 C 426.953,365.87 452.97,370.962 477.078,360.201"/>
   <path style="fill:none;stroke:#000000;stroke-width:0.5pt;stroke-linecap:round;stroke-linejoin:round;stroke-opacity:1" d="M 477.078,360.201 C 533.461,335.034 497.461,251.936 578.471,230.27"/>
   <path style="fill:none;stroke:#000000;stroke-width:0.5pt;stroke-linecap:round;stroke-linejoin:round;stroke-opacity:1" d="M 578.471,230.27 C 612.921,257.83 596.818,413.836 581.934,455.278"/>
   <path style="fill:none;stroke:#000000;stroke-width:0.5pt;stroke-linecap:round;stroke-linejoin:round;stroke-opacity:1" d="M 581.934,455.278 C 558.061,521.744 429.456,574.069 359.315,602.94"/>
   <path style="fill:none;stroke:#000000;stroke-width:0.5pt;stroke-linecap:round;stroke-linejoin:round;stroke-opacity:1" d="M 359.315,602.94 C 319.605,619.286 271.107,636.573 235.428,646.585"/>
   <path style="fill:none;stroke:#000000;stroke-width:0.5pt;stroke-linecap:round;stroke-linejoin:round;stroke-opacity:1" d="M 235.428,646.585 C 212.557,653.003 101.695,686.335 98.9009,636.495"/>
   <path style="fill:none;stroke:#000000;stroke-width:0.5pt;stroke-linecap:round;stroke-linejoin:round;stroke-opacity:1" d="M 98.9009,636.495 C 96.241,589.05 156.537,560.484 182.557,546.292"/>
   <path style="fill:none;stroke:#000000;stroke-width:0.5pt;stroke-linecap:round;stroke-linejoin:round;stroke-opacity:1" d="M 366.66,402.73 C 415.033,409.151 434.307,465.587 436.994,502.686"/>
   <path style="fill:none;stroke:#000000;stroke-width:0.5pt;stroke-linecap:round;stroke-linejoin:round;stroke-opacity:1" d="M 436.994,502.686 C 439.881,542.547 462.594,515.301 459.942,563.343"/>
   <path style="fill:none;stroke:#000000;stroke-width:0.5pt;stroke-linecap:round;stroke-linejoin:round;stroke-opacity:1" d="M 459.942,563.343 C 458.954,581.241 449.782,605.494 359.315,602.94"/>
   <path style="fill:none;stroke:#000000;stroke-width:0.5pt;stroke-linecap:round;stroke-linejoin:round;stroke-opacity:1" d="M 236.324,469.199 C 257.952,476.452 292.727,512.161 294.251,545.686"/>
   <path style="fill:none;stroke:#000000;stroke-width:0.5pt;stroke-linecap:round;stroke-linejoin:round;stroke-opacity:1" d="M 294.251,545.686 C 316.629,557.157 300.635,593.566 297.055,602.516"/>
   <path style="fill:none;stroke:#000000;stroke-width:0.5pt;stroke-linecap:round;stroke-linejoin:round;stroke-opacity:1" d="M 297.055,602.516 C 297.642,627.341 264.075,650.146 235.428,646.585"/>
   <path style="fill:none;stroke:#000000;stroke-width:0.5pt;stroke-linecap:round;stroke-linejoin:round;stroke-opacity:1" d="M 274.401,476.408 C 325.692,490.145 334.192,505.076 336.028,532.945"/>
   <path style="fill:none;stroke:#000000;stroke-width:0.5pt;stroke-linecap:round;stroke-linejoin:round;stroke-opacity:1" d="M 294.251,545.686 C 325.475,519.409 304.828,534.728 336.028,532.945"/>
   <path style="fill:none;stroke:#000000;stroke-width:0.5pt;stroke-linecap:round;stroke-linejoin:round;stroke-opacity:1" d="M 336.028,532.945 C 378.452,519.462 442.643,438.317 362.468,405.054"/>
   <path style="fill:none;stroke:#000000;stroke-width:0.5pt;stroke-linecap:round;stroke-linejoin:round;stroke-opacity:1" d="M 182.557,546.292 C 201.088,555.176 264.444,550.962 294.251,545.686"/>
   <path style="fill:none;stroke:#000000;stroke-width:0.5pt;stroke-linecap:round;stroke-linejoin:round;stroke-opacity:1" d="M 294.251,545.686 C 337.395,538.05 393.835,518.025 436.994,502.686"/>
   <path style="fill:none;stroke:#000000;stroke-width:0.5pt;stroke-linecap:round;stroke-linejoin:round;stroke-opacity:1" d="M 436.994,502.686 C 465.487,492.181 522.472,471.171 550.965,460.667"/>
   <path style="fill:none;stroke:#000000;stroke-width:0.5pt;stroke-linecap:round;stroke-linejoin:round;stroke-opacity:1" d="M 550.965,460.667 C 577.87,450.765 631.68,430.963 658.585,421.062"/>
   <path style="fill:none;stroke:#000000;stroke-width:0.5pt;stroke-linecap:round;stroke-linejoin:round;stroke-opacity:1" d="M 477.078,360.201 C 523.8,372.72 557.897,407.077 553.633,458.983"/>
   <path style="fill:none;stroke:#000000;stroke-width:0.5pt;stroke-linecap:round;stroke-linejoin:round;stroke-opacity:1" d="M 553.633,458.983 C 553.613,459.231 550.987,460.418 550.965,460.667"/>
   <path style="fill:none;stroke:#000000;stroke-width:0.5pt;stroke-linecap:round;stroke-linejoin:round;stroke-opacity:1" d="M 477.078,360.201 C 508.95,364.387 561.276,346.535 598.087,330.65"/>
   <path style="fill:none;stroke:#000000;stroke-width:0.5pt;stroke-linecap:round;stroke-linejoin:round;stroke-opacity:1" d="M 872.253,531.291 C 744.67,575.339 781.621,539.003 655.48,544.104"/>
   <path style="fill:none;stroke:#000000;stroke-width:0.5pt;stroke-linecap:round;stroke-linejoin:round;stroke-opacity:1" d="M 655.48,544.104 C 590.613,546.727 550.208,589.864 459.942,563.343"/>
   <path style="fill:none;stroke:#000000;stroke-width:0.5pt;stroke-linecap:round;stroke-linejoin:round;stroke-opacity:1" d="M 98.9009,636.495 C 150.97,647.138 233.697,624.949 297.055,602.516"/>
   <path style="fill:none;stroke:#000000;stroke-width:0.5pt;stroke-linecap:round;stroke-linejoin:round;stroke-opacity:1" d="M 297.055,602.516 C 328.09,591.528 358.328,580.299 385.925,572.499"/>
   <path style="fill:none;stroke:#000000;stroke-width:0.5pt;stroke-linecap:round;stroke-linejoin:round;stroke-opacity:1" d="M 385.925,572.499 C 428.324,560.515 429.867,575.138 459.942,563.343"/>
   <path style="fill:none;stroke:#000000;stroke-width:0.5pt;stroke-linecap:round;stroke-linejoin:round;stroke-opacity:1" d="M 459.942,563.343 C 505.515,545.469 445.588,524.402 550.965,460.667"/>
   <path style="fill:none;stroke:#000000;stroke-width:0.5pt;stroke-linecap:round;stroke-linejoin:round;stroke-opacity:1" d="M 550.965,460.667 C 550.987,460.418 553.613,459.231 553.633,458.983"/>
   <path style="fill:none;stroke:#000000;stroke-width:0.5pt;stroke-linecap:round;stroke-linejoin:round;stroke-opacity:1" d="M 581.934,455.278 C 645.965,472.286 783.409,506.435 872.253,531.291"/>
   <path style="fill:none;stroke:#000000;stroke-width:0.5pt;stroke-linecap:round;stroke-linejoin:round;stroke-opacity:1" d="M 872.253,531.291 C 866.859,498.158 782.641,451.883 658.585,421.062"/>
   <path style="fill:none;stroke:#000000;stroke-width:0.5pt;stroke-linecap:round;stroke-linejoin:round;stroke-opacity:1" d="M 658.585,421.062 C 657.524,351.034 621.684,335.32 598.087,330.65"/>
   <path style="fill:none;stroke:#000000;stroke-width:0.5pt;stroke-linecap:round;stroke-linejoin:round;stroke-opacity:1" d="M 598.087,330.65 C 594.2,329.881 599.559,241.978 578.471,230.27"/>
  </g>
  <g id="intersections">
   <circle fill="black" cx="182.557" cy="546.292" stroke="none" r="2"/>
   <circle fill="black" cx="477.078" cy="360.201" stroke="none" r="2"/>
   <circle fill="black" cx="578.471" cy="230.27" stroke="none" r="2"/>
   <circle fill="black" cx="294.251" cy="545.686" stroke="none" r="2"/>
   <circle fill="black" cx="297.055" cy="602.516" stroke="none" r="2"/>
   <circle fill="black" cx="274.401" cy="476.408" stroke="none" r="2"/>
   <circle fill="black" cx="336.028" cy="532.945" stroke="none" r="2"/>
   <circle fill="black" cx="658.585" cy="421.062" stroke="none" r="2"/>
   <circle fill="black" cx="872.253" cy="531.291" stroke="none" r="2"/>
   <circle fill="black" cx="598.087" cy="330.65" stroke="none" r="2"/>
   <circle fill="black" cx="236.324" cy="469.199" stroke="none" r="2"/>
   <circle fill="black" cx="362.468" cy="405.054" stroke="none" r="2"/>
   <circle fill="black" cx="366.66" cy="402.73" stroke="none" r="2"/>
   <circle fill="black" cx="581.934" cy="455.278" stroke="none" r="2"/>
   <circle fill="black" cx="359.315" cy="602.94" stroke="none" r="2"/>
   <circle fill="black" cx="235.428" cy="646.585" stroke="none" r="2"/>
   <circle fill="black" cx="98.9009" cy="636.495" stroke="none" r="2"/>
   <circle fill="black" cx="436.994" cy="502.686" stroke="none" r="2"/>
   <circle fill="black" cx="459.942" cy="563.343" stroke="none" r="2"/>
   <circle fill="black" cx="550.965" cy="460.667" stroke="none" r="2"/>
  </g>
 </g>
</svg>
