<!DOCTYPE svg>
<svg width="900" height="900">
 <g id="layer0">
  <g id="paths">
   <path style="fill:none;stroke:#000000;stroke-width:0.5pt;stroke-linecap:round;stroke-linejoin:round;stroke-opacity:1" d="M 518.036,399.106 C 541.682,389.872 566.939,383.01 592.283,381.908"/>
   <path style="fill:none;stroke:#000000;stroke-width:0.5pt;stroke-linecap:round;stroke-linejoin:round;stroke-opacity:1" d="M 592.283,381.908 C 613.917,381.007 597.973,438.859 582.508,457.147"/>
   <path style="fill:none;stroke:#000000;stroke-width:0.5pt;stroke-linecap:round;stroke-linejoin:round;stroke-opacity:1" d="M 582.508,457.147 C 575.85,465.02 530.577,485.893 529.153,486.561"/>
   <path style="fill:none;stroke:#000000;stroke-width:0.5pt;stroke-linecap:round;stroke-linejoin:round;stroke-opacity:1" d="M 529.153,486.561 C 488.204,505.782 439.816,524.315 423.597,519.041"/>
   <path style="fill:none;stroke:#000000;stroke-width:0.5pt;stroke-linecap:round;stroke-linejoin:round;stroke-opacity:1" d="M 423.597,519.041 C 400.805,511.63 431.214,452.646 432.51,450.748"/>
   <path style="fill:none;stroke:#000000;stroke-width:0.5pt;stroke-linecap:round;stroke-linejoin:round;stroke-opacity:1" d="M 432.51,450.748 C 444.842,432.703 486.296,411.501 518.036,399.106"/>
   <path style="fill:none;stroke:#000000;stroke-width:0.5pt;stroke-linecap:round;stroke-linejoin:round;stroke-opacity:1" d="M 518.036,399.106 C 542.738,411.419 592.144,436.046 616.846,448.36"/>
   <path style="fill:none;stroke:#000000;stroke-width:0.5pt;stroke-linecap:round;stroke-linejoin:round;stroke-opacity:1" d="M 616.846,448.36 C 629.309,454.525 642.288,461.232 654.928,468.545"/>
   <path style="fill:none;stroke:#000000;stroke-width:0.5pt;stroke-linecap:round;stroke-linejoin:round;stroke-opacity:1" d="M 654.928,468.545 C 670.152,477.354 684.866,487.059 697.365,497.975"/>
   <path style="fill:none;stroke:#000000;stroke-width:0.5pt;stroke-linecap:round;stroke-linejoin:round;stroke-opacity:1" d="M 697.365,497.975 C 709.306,508.403 724.344,524.449 729.878,542.522"/>
   <path style="fill:none;stroke:#000000;stroke-width:0.5pt;stroke-linecap:round;stroke-linejoin:round;stroke-opacity:1" d="M 729.878,542.522 C 735.641,561.344 730.595,583.903 718.852,600.137"/>
   <path style="fill:none;stroke:#000000;stroke-width:0.5pt;stroke-linecap:round;stroke-linejoin:round;stroke-opacity:1" d="M 718.852,600.137 C 703.962,620.721 684.792,627.151 656.338,615.762"/>
   <path style="fill:none;stroke:#000000;stroke-width:0.5pt;stroke-linecap:round;stroke-linejoin:round;stroke-opacity:1" d="M 656.338,615.762 C 594.765,591.116 636.049,527.5 529.153,486.561"/>
   <path style="fill:none;stroke:#000000;stroke-width:0.5pt;stroke-linecap:round;stroke-linejoin:round;stroke-opacity:1" d="M 592.283,381.908 C 623.138,398.873 693.43,405.428 743.696,428.163"/>
   <path style="fill:none;stroke:#000000;stroke-width:0.5pt;stroke-linecap:round;stroke-linejoin:round;stroke-opacity:1" d="M 743.696,428.163 C 828.787,466.649 810.599,506.489 729.878,542.522"/>
   <path style="fill:none;stroke:#000000;stroke-width:0.5pt;stroke-linecap:round;stroke-linejoin:round;stroke-opacity:1" d="M 729.878,542.522 C 671.66,568.509 648.49,558.919 602.038,607.657"/>
   <path style="fill:none;stroke:#000000;stroke-width:0.5pt;stroke-linecap:round;stroke-linejoin:round;stroke-opacity:1" d="M 602.038,607.657 C 565.629,645.856 463.194,758.605 412.877,738.013"/>
   <path style="fill:none;stroke:#000000;stroke-width:0.5pt;stroke-linecap:round;stroke-linejoin:round;stroke-opacity:1" d="M 412.877,738.013 C 356.66,715.005 474.194,587.605 487.965,555.331"/>
   <path style="fill:none;stroke:#000000;stroke-width:0.5pt;stroke-linecap:round;stroke-linejoin:round;stroke-opacity:1" d="M 487.965,555.331 C 509.113,505.765 465.278,470.699 432.51,450.748"/>
   <path style="fill:none;stroke:#000000;stroke-width:0.5pt;stroke-linecap:round;stroke-linejoin:round;stroke-opacity:1" d="M 582.508,457.147 C 608.597,468.327 689.687,465.072 754.063,492.81"/>
   <path style="fill:none;stroke:#000000;stroke-width:0.5pt;stroke-linecap:round;stroke-linejoin:round;stroke-opacity:1" d="M 754.063,492.81 C 834.131,527.308 772.035,580.543 718.852,600.137"/>
   <path style="fill:none;stroke:#000000;stroke-width:0.5pt;stroke-linecap:round;stroke-linejoin:round;stroke-opacity:1" d="M 718.852,600.137 C 656.515,622.009 652.005,614.086 605.046,668.512"/>
   <path style="fill:none;stroke:#000000;stroke-width:0.5pt;stroke-linecap:round;stroke-linejoin:round;stroke-opacity:1" d="M 605.046,668.512 C 572.828,705.853 467.782,806.03 425.046,787.611"/>
   <path style="fill:none;stroke:#000000;stroke-width:0.5pt;stroke-linecap:round;stroke-linejoin:round;stroke-opacity:1" d="M 425.046,787.611 C 369.331,763.597 486.778,623.343 496.32,607.344"/>
   <path style="fill:none;stroke:#000000;stroke-width:0.5pt;stroke-linecap:round;stroke-linejoin:round;stroke-opacity:1" d="M 496.32,607.344 C 527.075,555.773 456.962,537.986 423.597,519.041"/>
   <path style="fill:none;stroke:#000000;stroke-width:0.5pt;stroke-linecap:round;stroke-linejoin:round;stroke-opacity:1" d="M 550.055,648.501 C 516.616,685.377 447.107,776.477 425.046,787.611"/>
   <path style="fill:none;stroke:#000000;stroke-width:0.5pt;stroke-linecap:round;stroke-linejoin:round;stroke-opacity:1" d="M 425.046,787.611 C 381.28,812.62 398.453,770.227 412.877,738.013"/>
   <path style="fill:none;stroke:#000000;stroke-width:0.5pt;stroke-linecap:round;stroke-linejoin:round;stroke-opacity:1" d="M 412.877,738.013 C 434.097,690.621 488.766,622.418 544.466,564.908"/>
   <path style="fill:none;stroke:#000000;stroke-width:0.5pt;stroke-linecap:round;stroke-linejoin:round;stroke-opacity:1" d="M 544.466,564.908 C 568.515,540.077 592.747,517.212 614.577,498.923"/>
   <path style="fill:none;stroke:#000000;stroke-width:0.5pt;stroke-linecap:round;stroke-linejoin:round;stroke-opacity:1" d="M 614.577,498.923 C 624.665,491.329 644.84,476.14 654.928,468.545"/>
   <path style="fill:none;stroke:#000000;stroke-width:0.5pt;stroke-linecap:round;stroke-linejoin:round;stroke-opacity:1" d="M 654.928,468.545 C 665.115,461.623 678.393,452.856 692.449,445.261"/>
   <path style="fill:none;stroke:#000000;stroke-width:0.5pt;stroke-linecap:round;stroke-linejoin:round;stroke-opacity:1" d="M 692.449,445.261 C 709.792,435.89 728.321,428.303 743.696,428.163"/>
   <path style="fill:none;stroke:#000000;stroke-width:0.5pt;stroke-linecap:round;stroke-linejoin:round;stroke-opacity:1" d="M 743.696,428.163 C 782.743,427.807 767.285,468.241 754.063,492.81"/>
   <path style="fill:none;stroke:#000000;stroke-width:0.5pt;stroke-linecap:round;stroke-linejoin:round;stroke-opacity:1" d="M 496.32,607.344 C 482.118,589.459 471.615,562.395 487.965,555.331"/>
   <path style="fill:none;stroke:#000000;stroke-width:0.5pt;stroke-linecap:round;stroke-linejoin:round;stroke-opacity:1" d="M 487.965,555.331 C 499.296,550.434 526.496,557.605 544.466,564.908"/>
   <path style="fill:none;stroke:#000000;stroke-width:0.5pt;stroke-linecap:round;stroke-linejoin:round;stroke-opacity:1" d="M 544.466,564.908 C 566.448,573.841 587.225,587.826 602.038,607.657"/>
   <path style="fill:none;stroke:#000000;stroke-width:0.5pt;stroke-linecap:round;stroke-linejoin:round;stroke-opacity:1" d="M 602.038,607.657 C 612.399,621.53 628.775,655.851 605.046,668.512"/>
   <path style="fill:none;stroke:#000000;stroke-width:0.5pt;stroke-linecap:round;stroke-linejoin:round;stroke-opacity:1" d="M 605.046,668.512 C 593.672,674.581 579.787,666.026 563.522,656.576"/>
   <path style="fill:none;stroke:#000000;stroke-width:0.5pt;stroke-linecap:round;stroke-linejoin:round;stroke-opacity:1" d="M 563.522,656.576 C 559.115,654.016 554.576,651.354 550.055,648.501"/>
   <path style="fill:none;stroke:#000000;stroke-width:0.5pt;stroke-linecap:round;stroke-linejoin:round;stroke-opacity:1" d="M 550.055,648.501 C 534.452,638.656 507.892,621.917 496.32,607.344"/>
   <path style="fill:none;stroke:#000000;stroke-width:0.5pt;stroke-linecap:round;stroke-linejoin:round;stroke-opacity:1" d="M 563.522,656.576 C 596.967,621.592 629.545,643.251 656.338,615.762"/>
   <path style="fill:none;stroke:#000000;stroke-width:0.5pt;stroke-linecap:round;stroke-linejoin:round;stroke-opacity:1" d="M 656.338,615.762 C 679.607,591.888 739.228,524.129 754.063,492.81"/>
   <path style="fill:none;stroke:#000000;stroke-width:0.5pt;stroke-linecap:round;stroke-linejoin:round;stroke-opacity:1" d="M 697.365,497.975 C 668.053,514.097 646.293,514.781 614.577,498.923"/>
   <path style="fill:none;stroke:#000000;stroke-width:0.5pt;stroke-linecap:round;stroke-linejoin:round;stroke-opacity:1" d="M 614.577,498.923 C 589.577,487.385 589.923,461.821 616.846,448.36"/>
   <path style="fill:none;stroke:#000000;stroke-width:0.5pt;stroke-linecap:round;stroke-linejoin:round;stroke-opacity:1" d="M 616.846,448.36 C 641.657,436.382 675.844,438.145 692.449,445.261"/>
   <path style="fill:none;stroke:#000000;stroke-width:0.5pt;stroke-linecap:round;stroke-linejoin:round;stroke-opacity:1" d="M 692.449,445.261 C 718.411,456.8 716.596,487.398 697.365,497.975"/>
  </g>
  <g id="intersections">
   <circle fill="black" cx="592.283" cy="381.908" stroke="none" r="2"/>
   <circle fill="black" cx="529.153" cy="486.561" stroke="none" r="2"/>
   <circle fill="black" cx="432.51" cy="450.748" stroke="none" r="2"/>
   <circle fill="black" cx="582.508" cy="457.147" stroke="none" r="2"/>
   <circle fill="black" cx="718.852" cy="600.137" stroke="none" r="2"/>
   <circle fill="black" cx="423.597" cy="519.041" stroke="none" r="2"/>
   <circle fill="black" cx="550.055" cy="648.501" stroke="none" r="2"/>
   <circle fill="black" cx="425.046" cy="787.611" stroke="none" r="2"/>
   <circle fill="black" cx="754.063" cy="492.81" stroke="none" r="2"/>
   <circle fill="black" cx="697.365" cy="497.975" stroke="none" r="2"/>
   <circle fill="black" cx="614.577" cy="498.923" stroke="none" r="2"/>
   <circle fill="black" cx="616.846" cy="448.36" stroke="none" r="2"/>
   <circle fill="black" cx="692.449" cy="445.261" stroke="none" r="2"/>
   <circle fill="black" cx="518.036" cy="399.106" stroke="none" r="2"/>
   <circle fill="black" cx="654.928" cy="468.545" stroke="none" r="2"/>
   <circle fill="black" cx="729.878" cy="542.522" stroke="none" r="2"/>
   <circle fill="black" cx="656.338" cy="615.762" stroke="none" r="2"/>
   <circle fill="black" cx="743.696" cy="428.163" stroke="none" r="2"/>
   <circle fill="black" cx="602.038" cy="607.657" stroke="none" r="2"/>
   <circle fill="black" cx="412.877" cy="738.013" stroke="none" r="2"/>
   <circle fill="black" cx="487.965" cy="555.331" stroke="none" r="2"/>
   <circle fill="black" cx="605.046" cy="668.512" stroke="none" r="2"/>
   <circle fill="black" cx="496.32" cy="607.344" stroke="none" r="2"/>
   <circle fill="black" cx="544.466" cy="564.908" stroke="none" r="2"/>
   <circle fill="black" cx="563.522" cy="656.576" stroke="none" r="2"/>
  </g>
 </g>
</svg>
