<!DOCTYPE svg>
<svg width="900" height="900">
 <g id="layer0">
  <g id="paths">
   <path style="fill:none;stroke:#000000;stroke-width:0.5pt;stroke-linecap:round;stroke-linejoin:round;stroke-opacity:1" d="M 493.914,300.795 C 491.341,305.115 477.293,318.06 470.459,330.634"/>
   <path style="fill:none;stroke:#000000;stroke-width:0.5pt;stroke-linecap:round;stroke-linejoin:round;stroke-opacity:1" d="M 470.459,330.634 C 445.158,374.327 431.681,420.162 417.512,469.845"/>
   <path style="fill:none;stroke:#000000;stroke-width:0.5pt;stroke-linecap:round;stroke-linejoin:round;stroke-opacity:1" d="M 417.512,469.845 C 408.617,502.563 390.826,567.997 381.931,600.715"/>
   <path style="fill:none;stroke:#000000;stroke-width:0.5pt;stroke-linecap:round;stroke-linejoin:round;stroke-opacity:1" d="M 219.055,390.427 C 211.408,375.775 215.3,366.643 223.802,351.012"/>
   <path style="fill:none;stroke:#000000;stroke-width:0.5pt;stroke-linecap:round;stroke-linejoin:round;stroke-opacity:1" d="M 223.802,351.012 C 230.347,338.978 239.491,326.791 246.093,322.692"/>
   <path style="fill:none;stroke:#000000;stroke-width:0.5pt;stroke-linecap:round;stroke-linejoin:round;stroke-opacity:1" d="M 706.553,395.72 C 715.019,408.606 708.208,420.844 700.172,434.722"/>
   <path style="fill:none;stroke:#000000;stroke-width:0.5pt;stroke-linecap:round;stroke-linejoin:round;stroke-opacity:1" d="M 700.172,434.722 C 688.751,454.446 680.716,461.771 665.142,469.982"/>
   <path style="fill:none;stroke:#000000;stroke-width:0.5pt;stroke-linecap:round;stroke-linejoin:round;stroke-opacity:1" d="M 819.561,548.521 C 787.465,515.907 731.382,461.107 700.172,434.722"/>
   <path style="fill:none;stroke:#000000;stroke-width:0.5pt;stroke-linecap:round;stroke-linejoin:round;stroke-opacity:1" d="M 700.172,434.722 C 624.782,370.99 565.968,347.606 470.459,330.634"/>
   <path style="fill:none;stroke:#000000;stroke-width:0.5pt;stroke-linecap:round;stroke-linejoin:round;stroke-opacity:1" d="M 470.459,330.634 C 371.528,313.054 310.322,316.61 223.802,351.012"/>
   <path style="fill:none;stroke:#000000;stroke-width:0.5pt;stroke-linecap:round;stroke-linejoin:round;stroke-opacity:1" d="M 223.802,351.012 C 176.079,369.987 120.582,398.242 81.3581,418.476"/>
   <path style="fill:none;stroke:#000000;stroke-width:0.5pt;stroke-linecap:round;stroke-linejoin:round;stroke-opacity:1" d="M 531.221,486.498 C 494.724,483.224 442.931,474.362 417.512,469.845"/>
   <path style="fill:none;stroke:#000000;stroke-width:0.5pt;stroke-linecap:round;stroke-linejoin:round;stroke-opacity:1" d="M 417.512,469.845 C 380.867,463.334 349.075,458.165 309.701,447.256"/>
   <path style="fill:none;stroke:#000000;stroke-width:0.5pt;stroke-linecap:round;stroke-linejoin:round;stroke-opacity:1" d="M 314.801,371.747 C 282.058,392.342 261.533,429.354 243.008,458.788"/>
   <path style="fill:none;stroke:#000000;stroke-width:0.5pt;stroke-linecap:round;stroke-linejoin:round;stroke-opacity:1" d="M 243.008,458.788 C 234.884,471.832 218.635,497.921 210.511,510.965"/>
   <path style="fill:none;stroke:#000000;stroke-width:0.5pt;stroke-linecap:round;stroke-linejoin:round;stroke-opacity:1" d="M 166.876,420.384 C 191.614,437.532 211.877,439.463 243.008,458.788"/>
   <path style="fill:none;stroke:#000000;stroke-width:0.5pt;stroke-linecap:round;stroke-linejoin:round;stroke-opacity:1" d="M 243.008,458.788 C 262.878,471.122 270.126,485.755 294.004,499.036"/>
   <path style="fill:none;stroke:#000000;stroke-width:0.5pt;stroke-linecap:round;stroke-linejoin:round;stroke-opacity:1" d="M 572.382,417.538 C 590.004,445.547 595.113,476.451 604.359,522.995"/>
   <path style="fill:none;stroke:#000000;stroke-width:0.5pt;stroke-linecap:round;stroke-linejoin:round;stroke-opacity:1" d="M 604.359,522.995 C 607.314,538.154 613.223,568.471 616.178,583.63"/>
   <path style="fill:none;stroke:#000000;stroke-width:0.5pt;stroke-linecap:round;stroke-linejoin:round;stroke-opacity:1" d="M 519.865,540.053 C 550.06,536.977 566.165,527.757 604.359,522.995"/>
   <path style="fill:none;stroke:#000000;stroke-width:0.5pt;stroke-linecap:round;stroke-linejoin:round;stroke-opacity:1" d="M 604.359,522.995 C 636.808,518.95 682.962,520.129 706.416,516.527"/>
   <path style="fill:none;stroke:#000000;stroke-width:0.5pt;stroke-linecap:round;stroke-linejoin:round;stroke-opacity:1" d="M 751.437,576.409 C 740.182,561.439 717.671,531.498 706.416,516.527"/>
   <path style="fill:none;stroke:#000000;stroke-width:0.5pt;stroke-linecap:round;stroke-linejoin:round;stroke-opacity:1" d="M 706.416,516.527 C 696.097,504.891 675.46,481.618 665.142,469.982"/>
   <path style="fill:none;stroke:#000000;stroke-width:0.5pt;stroke-linecap:round;stroke-linejoin:round;stroke-opacity:1" d="M 665.142,469.982 C 647.561,452.494 599.312,414.344 572.382,417.538"/>
   <path style="fill:none;stroke:#000000;stroke-width:0.5pt;stroke-linecap:round;stroke-linejoin:round;stroke-opacity:1" d="M 572.382,417.538 C 550.928,420.082 536.544,463.455 531.221,486.498"/>
   <path style="fill:none;stroke:#000000;stroke-width:0.5pt;stroke-linecap:round;stroke-linejoin:round;stroke-opacity:1" d="M 531.221,486.498 C 528.382,499.887 522.704,526.664 519.865,540.053"/>
   <path style="fill:none;stroke:#000000;stroke-width:0.5pt;stroke-linecap:round;stroke-linejoin:round;stroke-opacity:1" d="M 519.865,540.053 C 516.672,556.781 510.287,590.237 507.094,606.965"/>
   <path style="fill:none;stroke:#000000;stroke-width:0.5pt;stroke-linecap:round;stroke-linejoin:round;stroke-opacity:1" d="M 108.287,461.55 C 122.934,451.259 152.229,430.676 166.876,420.384"/>
   <path style="fill:none;stroke:#000000;stroke-width:0.5pt;stroke-linecap:round;stroke-linejoin:round;stroke-opacity:1" d="M 166.876,420.384 C 184.142,409.14 191.828,403.886 219.055,390.427"/>
   <path style="fill:none;stroke:#000000;stroke-width:0.5pt;stroke-linecap:round;stroke-linejoin:round;stroke-opacity:1" d="M 219.055,390.427 C 233.077,383.496 293.547,358.898 314.801,371.747"/>
   <path style="fill:none;stroke:#000000;stroke-width:0.5pt;stroke-linecap:round;stroke-linejoin:round;stroke-opacity:1" d="M 314.801,371.747 C 330.217,381.067 312.927,436.816 309.701,447.256"/>
   <path style="fill:none;stroke:#000000;stroke-width:0.5pt;stroke-linecap:round;stroke-linejoin:round;stroke-opacity:1" d="M 309.701,447.256 C 305.777,460.201 297.928,486.091 294.004,499.036"/>
   <path style="fill:none;stroke:#000000;stroke-width:0.5pt;stroke-linecap:round;stroke-linejoin:round;stroke-opacity:1" d="M 294.004,499.036 C 289.115,515.634 279.337,548.828 274.447,565.426"/>
   <path style="fill:none;stroke:#000000;stroke-width:0.5pt;stroke-linecap:round;stroke-linejoin:round;stroke-opacity:1" d="M 98.2503,396.604 C 182.094,350.055 221.675,332.68 246.093,322.692"/>
   <path style="fill:none;stroke:#000000;stroke-width:0.5pt;stroke-linecap:round;stroke-linejoin:round;stroke-opacity:1" d="M 246.093,322.692 C 354.933,278.172 382.617,280.332 493.914,300.795"/>
   <path style="fill:none;stroke:#000000;stroke-width:0.5pt;stroke-linecap:round;stroke-linejoin:round;stroke-opacity:1" d="M 493.914,300.795 C 597.285,319.801 633.061,324.585 706.553,395.72"/>
   <path style="fill:none;stroke:#000000;stroke-width:0.5pt;stroke-linecap:round;stroke-linejoin:round;stroke-opacity:1" d="M 706.553,395.72 C 733.551,421.852 769.386,459.497 825.231,524.206"/>
   <path style="fill:none;stroke:#000000;stroke-width:0.5pt;stroke-linecap:round;stroke-linejoin:round;stroke-opacity:1" d="M 98.2503,396.604 C 94.0272,402.072 85.5811,413.008 81.3581,418.476"/>
   <path style="fill:none;stroke:#000000;stroke-width:0.5pt;stroke-linecap:round;stroke-linejoin:round;stroke-opacity:1" d="M 81.3581,418.476 C 73.6418,436.838 92.5427,451.781 108.287,461.55"/>
   <path style="fill:none;stroke:#000000;stroke-width:0.5pt;stroke-linecap:round;stroke-linejoin:round;stroke-opacity:1" d="M 108.287,461.55 C 141.825,482.361 169.793,484.475 210.511,510.965"/>
   <path style="fill:none;stroke:#000000;stroke-width:0.5pt;stroke-linecap:round;stroke-linejoin:round;stroke-opacity:1" d="M 210.511,510.965 C 235,526.897 247.025,545.56 274.447,565.426"/>
   <path style="fill:none;stroke:#000000;stroke-width:0.5pt;stroke-linecap:round;stroke-linejoin:round;stroke-opacity:1" d="M 274.447,565.426 C 303.933,582.318 339.045,592.895 381.931,600.715"/>
   <path style="fill:none;stroke:#000000;stroke-width:0.5pt;stroke-linecap:round;stroke-linejoin:round;stroke-opacity:1" d="M 381.931,600.715 C 419.337,607.535 462.392,612.064 507.094,606.965"/>
   <path style="fill:none;stroke:#000000;stroke-width:0.5pt;stroke-linecap:round;stroke-linejoin:round;stroke-opacity:1" d="M 507.094,606.965 C 545.159,602.623 572.189,589.548 616.178,583.63"/>
   <path style="fill:none;stroke:#000000;stroke-width:0.5pt;stroke-linecap:round;stroke-linejoin:round;stroke-opacity:1" d="M 616.178,583.63 C 661.309,577.558 705.511,581.943 751.437,576.409"/>
   <path style="fill:none;stroke:#000000;stroke-width:0.5pt;stroke-linecap:round;stroke-linejoin:round;stroke-opacity:1" d="M 751.437,576.409 C 778.393,573.161 808.387,566.508 819.561,548.521"/>
   <path style="fill:none;stroke:#000000;stroke-width:0.5pt;stroke-linecap:round;stroke-linejoin:round;stroke-opacity:1" d="M 819.561,548.521 C 824.776,540.127 824.903,531.504 825.231,524.206"/>
  </g>
  <g id="intersections">
   <circle fill="black" cx="493.914" cy="300.795" stroke="none" r="2"/>
   <circle fill="black" cx="470.459" cy="330.634" stroke="none" r="2"/>
   <circle fill="black" cx="381.931" cy="600.715" stroke="none" r="2"/>
   <circle fill="black" cx="219.055" cy="390.427" stroke="none" r="2"/>
   <circle fill="black" cx="223.802" cy="351.012" stroke="none" r="2"/>
   <circle fill="black" cx="246.093" cy="322.692" stroke="none" r="2"/>
   <circle fill="black" cx="706.553" cy="395.72" stroke="none" r="2"/>
   <circle fill="black" cx="700.172" cy="434.722" stroke="none" r="2"/>
   <circle fill="black" cx="819.561" cy="548.521" stroke="none" r="2"/>
   <circle fill="black" cx="81.3581" cy="418.476" stroke="none" r="2"/>
   <circle fill="black" cx="417.512" cy="469.845" stroke="none" r="2"/>
   <circle fill="black" cx="314.801" cy="371.747" stroke="none" r="2"/>
   <circle fill="black" cx="243.008" cy="458.788" stroke="none" r="2"/>
   <circle fill="black" cx="572.382" cy="417.538" stroke="none" r="2"/>
   <circle fill="black" cx="604.359" cy="522.995" stroke="none" r="2"/>
   <circle fill="black" cx="706.416" cy="516.527" stroke="none" r="2"/>
   <circle fill="black" cx="665.142" cy="469.982" stroke="none" r="2"/>
   <circle fill="black" cx="531.221" cy="486.498" stroke="none" r="2"/>
   <circle fill="black" cx="519.865" cy="540.053" stroke="none" r="2"/>
   <circle fill="black" cx="166.876" cy="420.384" stroke="none" r="2"/>
   <circle fill="black" cx="309.701" cy="447.256" stroke="none" r="2"/>
   <circle fill="black" cx="294.004" cy="499.036" stroke="none" r="2"/>
   <circle fill="black" cx="274.447" cy="565.426" stroke="none" r="2"/>
   <circle fill="black" cx="210.511" cy="510.965" stroke="none" r="2"/>
   <circle fill="black" cx="616.178" cy="583.63" stroke="none" r="2"/>
   <circle fill="black" cx="751.437" cy="576.409" stroke="none" r="2"/>
   <circle fill="black" cx="507.094" cy="606.965" stroke="none" r="2"/>
   <circle fill="black" cx="108.287" cy="461.55" stroke="none" r="2"/>
  </g>
 </g>
</svg>
