<!DOCTYPE svg>
<svg width="900" height="900">
 <g id="layer0">
  <g id="paths">
   <path style="fill:none;stroke:#000000;stroke-width:0.5pt;stroke-linecap:round;stroke-linejoin:round;stroke-opacity:1" d="M 607.184,108.9 C 589.835,98.4623 571.957,90.5702 543.121,84.3168"/>
   <path style="fill:none;stroke:#000000;stroke-width:0.5pt;stroke-linecap:round;stroke-linejoin:round;stroke-opacity:1" d="M 543.121,84.3168 C 487.342,72.2203 420.885,73.234 374.532,81.9099"/>
   <path style="fill:none;stroke:#000000;stroke-width:0.5pt;stroke-linecap:round;stroke-linejoin:round;stroke-opacity:1" d="M 374.532,81.9099 C 351.965,86.1338 330.279,92.84 312.431,102.9"/>
   <path style="fill:none;stroke:#000000;stroke-width:0.5pt;stroke-linecap:round;stroke-linejoin:round;stroke-opacity:1" d="M 607.184,108.9 C 622.348,136.619 627.609,159.842 627.176,179.769"/>
   <path style="fill:none;stroke:#000000;stroke-width:0.5pt;stroke-linecap:round;stroke-linejoin:round;stroke-opacity:1" d="M 627.176,179.769 C 625.944,236.49 569.257,282.532 573.096,308.209"/>
   <path style="fill:none;stroke:#000000;stroke-width:0.5pt;stroke-linecap:round;stroke-linejoin:round;stroke-opacity:1" d="M 573.096,308.209 C 577.762,339.413 685.573,322.601 686.27,448.37"/>
   <path style="fill:none;stroke:#000000;stroke-width:0.5pt;stroke-linecap:round;stroke-linejoin:round;stroke-opacity:1" d="M 686.27,448.37 C 686.643,515.586 643.538,546.901 642.945,592.059"/>
   <path style="fill:none;stroke:#000000;stroke-width:0.5pt;stroke-linecap:round;stroke-linejoin:round;stroke-opacity:1" d="M 642.945,592.059 C 642.52,624.445 667.596,644.661 661.335,681.708"/>
   <path style="fill:none;stroke:#000000;stroke-width:0.5pt;stroke-linecap:round;stroke-linejoin:round;stroke-opacity:1" d="M 661.335,681.708 C 655.549,715.941 623.165,761.225 519.304,827.129"/>
   <path style="fill:none;stroke:#000000;stroke-width:0.5pt;stroke-linecap:round;stroke-linejoin:round;stroke-opacity:1" d="M 312.431,102.9 C 297.665,129.389 291.629,152.738 290.87,173.258"/>
   <path style="fill:none;stroke:#000000;stroke-width:0.5pt;stroke-linecap:round;stroke-linejoin:round;stroke-opacity:1" d="M 290.87,173.258 C 288.494,237.514 342.926,278.325 338.178,304.855"/>
   <path style="fill:none;stroke:#000000;stroke-width:0.5pt;stroke-linecap:round;stroke-linejoin:round;stroke-opacity:1" d="M 338.178,304.855 C 332.619,335.914 225.319,316.029 221.02,441.728"/>
   <path style="fill:none;stroke:#000000;stroke-width:0.5pt;stroke-linecap:round;stroke-linejoin:round;stroke-opacity:1" d="M 221.02,441.728 C 218.723,508.907 260.92,541.439 260.219,586.595"/>
   <path style="fill:none;stroke:#000000;stroke-width:0.5pt;stroke-linecap:round;stroke-linejoin:round;stroke-opacity:1" d="M 260.219,586.595 C 259.717,618.98 234.068,638.47 239.267,675.683"/>
   <path style="fill:none;stroke:#000000;stroke-width:0.5pt;stroke-linecap:round;stroke-linejoin:round;stroke-opacity:1" d="M 239.267,675.683 C 244.071,710.066 275.15,756.256 377.096,825.099"/>
   <path style="fill:none;stroke:#000000;stroke-width:0.5pt;stroke-linecap:round;stroke-linejoin:round;stroke-opacity:1" d="M 519.304,827.129 C 514.376,824.253 511.872,820.679 506.792,818.819"/>
   <path style="fill:none;stroke:#000000;stroke-width:0.5pt;stroke-linecap:round;stroke-linejoin:round;stroke-opacity:1" d="M 506.792,818.819 C 501.711,816.959 495.96,815.327 489.728,813.976"/>
   <path style="fill:none;stroke:#000000;stroke-width:0.5pt;stroke-linecap:round;stroke-linejoin:round;stroke-opacity:1" d="M 489.728,813.976 C 465.036,808.621 435.441,807.477 407.029,812.795"/>
   <path style="fill:none;stroke:#000000;stroke-width:0.5pt;stroke-linecap:round;stroke-linejoin:round;stroke-opacity:1" d="M 407.029,812.795 C 400.762,813.968 394.967,815.435 389.837,817.15"/>
   <path style="fill:none;stroke:#000000;stroke-width:0.5pt;stroke-linecap:round;stroke-linejoin:round;stroke-opacity:1" d="M 389.837,817.15 C 384.706,818.864 382.103,822.365 377.096,825.099"/>
   <path style="fill:none;stroke:#000000;stroke-width:0.5pt;stroke-linecap:round;stroke-linejoin:round;stroke-opacity:1" d="M 374.532,81.9099 C 364.061,108.62 360.14,131.803 359.927,152.356"/>
   <path style="fill:none;stroke:#000000;stroke-width:0.5pt;stroke-linecap:round;stroke-linejoin:round;stroke-opacity:1" d="M 359.927,152.356 C 359.452,197.981 390.553,267.083 388.047,288.344"/>
   <path style="fill:none;stroke:#000000;stroke-width:0.5pt;stroke-linecap:round;stroke-linejoin:round;stroke-opacity:1" d="M 388.047,288.344 C 384.524,318.238 322.962,283.916 319.815,408.916"/>
   <path style="fill:none;stroke:#000000;stroke-width:0.5pt;stroke-linecap:round;stroke-linejoin:round;stroke-opacity:1" d="M 319.815,408.916 C 318.211,472.598 342.278,511.9 341.491,559.616"/>
   <path style="fill:none;stroke:#000000;stroke-width:0.5pt;stroke-linecap:round;stroke-linejoin:round;stroke-opacity:1" d="M 341.491,559.616 C 340.992,589.876 325.874,605.262 328.791,644.948"/>
   <path style="fill:none;stroke:#000000;stroke-width:0.5pt;stroke-linecap:round;stroke-linejoin:round;stroke-opacity:1" d="M 328.791,644.948 C 331.33,679.489 348.902,729.52 407.029,812.795"/>
   <path style="fill:none;stroke:#000000;stroke-width:0.5pt;stroke-linecap:round;stroke-linejoin:round;stroke-opacity:1" d="M 543.121,84.3168 C 552.819,111.315 556.072,134.6 555.697,155.151"/>
   <path style="fill:none;stroke:#000000;stroke-width:0.5pt;stroke-linecap:round;stroke-linejoin:round;stroke-opacity:1" d="M 555.697,155.151 C 554.865,200.765 521.813,268.956 523.708,290.281"/>
   <path style="fill:none;stroke:#000000;stroke-width:0.5pt;stroke-linecap:round;stroke-linejoin:round;stroke-opacity:1" d="M 523.708,290.281 C 526.372,320.262 588.865,287.714 588.431,412.75"/>
   <path style="fill:none;stroke:#000000;stroke-width:0.5pt;stroke-linecap:round;stroke-linejoin:round;stroke-opacity:1" d="M 588.431,412.75 C 588.21,476.447 563.039,515.047 562.459,562.771"/>
   <path style="fill:none;stroke:#000000;stroke-width:0.5pt;stroke-linecap:round;stroke-linejoin:round;stroke-opacity:1" d="M 562.459,562.771 C 562.091,593.032 576.756,608.848 572.705,648.43"/>
   <path style="fill:none;stroke:#000000;stroke-width:0.5pt;stroke-linecap:round;stroke-linejoin:round;stroke-opacity:1" d="M 572.705,648.43 C 569.18,682.884 550.19,732.394 489.728,813.976"/>
   <path style="fill:none;stroke:#000000;stroke-width:0.5pt;stroke-linecap:round;stroke-linejoin:round;stroke-opacity:1" d="M 627.176,179.769 C 601.542,164.273 576.173,159.591 555.697,155.151"/>
   <path style="fill:none;stroke:#000000;stroke-width:0.5pt;stroke-linecap:round;stroke-linejoin:round;stroke-opacity:1" d="M 555.697,155.151 C 481.013,138.955 426.635,139.871 359.927,152.356"/>
   <path style="fill:none;stroke:#000000;stroke-width:0.5pt;stroke-linecap:round;stroke-linejoin:round;stroke-opacity:1" d="M 359.927,152.356 C 335.914,156.851 319.848,157.974 290.87,173.258"/>
   <path style="fill:none;stroke:#000000;stroke-width:0.5pt;stroke-linecap:round;stroke-linejoin:round;stroke-opacity:1" d="M 686.27,448.37 C 658.998,431.744 619.032,419.387 588.431,412.75"/>
   <path style="fill:none;stroke:#000000;stroke-width:0.5pt;stroke-linecap:round;stroke-linejoin:round;stroke-opacity:1" d="M 588.431,412.75 C 504.863,394.628 404.286,393.105 319.815,408.916"/>
   <path style="fill:none;stroke:#000000;stroke-width:0.5pt;stroke-linecap:round;stroke-linejoin:round;stroke-opacity:1" d="M 319.815,408.916 C 285.138,415.406 246.973,426.9 221.02,441.728"/>
   <path style="fill:none;stroke:#000000;stroke-width:0.5pt;stroke-linecap:round;stroke-linejoin:round;stroke-opacity:1" d="M 661.335,681.708 C 642.023,669.963 600.954,654.557 572.705,648.43"/>
   <path style="fill:none;stroke:#000000;stroke-width:0.5pt;stroke-linecap:round;stroke-linejoin:round;stroke-opacity:1" d="M 572.705,648.43 C 507.601,634.312 397.788,632.034 328.791,644.948"/>
   <path style="fill:none;stroke:#000000;stroke-width:0.5pt;stroke-linecap:round;stroke-linejoin:round;stroke-opacity:1" d="M 328.791,644.948 C 302.069,649.95 263.482,661.882 239.267,675.683"/>
   <path style="fill:none;stroke:#000000;stroke-width:0.5pt;stroke-linecap:round;stroke-linejoin:round;stroke-opacity:1" d="M 573.096,308.209 C 559.945,300.359 541.557,294.152 523.708,290.281"/>
   <path style="fill:none;stroke:#000000;stroke-width:0.5pt;stroke-linecap:round;stroke-linejoin:round;stroke-opacity:1" d="M 523.708,290.281 C 481.971,281.23 432.502,280.023 388.047,288.344"/>
   <path style="fill:none;stroke:#000000;stroke-width:0.5pt;stroke-linecap:round;stroke-linejoin:round;stroke-opacity:1" d="M 388.047,288.344 C 370.639,291.602 352.019,297.117 338.178,304.855"/>
   <path style="fill:none;stroke:#000000;stroke-width:0.5pt;stroke-linecap:round;stroke-linejoin:round;stroke-opacity:1" d="M 642.945,592.059 C 622.833,579.859 598.691,570.628 562.459,562.771"/>
   <path style="fill:none;stroke:#000000;stroke-width:0.5pt;stroke-linecap:round;stroke-linejoin:round;stroke-opacity:1" d="M 562.459,562.771 C 498.654,548.934 416.215,545.63 341.491,559.616"/>
   <path style="fill:none;stroke:#000000;stroke-width:0.5pt;stroke-linecap:round;stroke-linejoin:round;stroke-opacity:1" d="M 341.491,559.616 C 318.128,563.989 287.777,570.93 260.219,586.595"/>
  </g>
  <g id="intersections">
   <circle fill="black" cx="543.121" cy="84.3168" stroke="none" r="2"/>
   <circle fill="black" cx="374.532" cy="81.9099" stroke="none" r="2"/>
   <circle fill="black" cx="489.728" cy="813.976" stroke="none" r="2"/>
   <circle fill="black" cx="407.029" cy="812.795" stroke="none" r="2"/>
   <circle fill="black" cx="627.176" cy="179.769" stroke="none" r="2"/>
   <circle fill="black" cx="555.697" cy="155.151" stroke="none" r="2"/>
   <circle fill="black" cx="359.927" cy="152.356" stroke="none" r="2"/>
   <circle fill="black" cx="686.27" cy="448.37" stroke="none" r="2"/>
   <circle fill="black" cx="588.431" cy="412.75" stroke="none" r="2"/>
   <circle fill="black" cx="319.815" cy="408.916" stroke="none" r="2"/>
   <circle fill="black" cx="221.02" cy="441.728" stroke="none" r="2"/>
   <circle fill="black" cx="661.335" cy="681.708" stroke="none" r="2"/>
   <circle fill="black" cx="572.705" cy="648.43" stroke="none" r="2"/>
   <circle fill="black" cx="328.791" cy="644.948" stroke="none" r="2"/>
   <circle fill="black" cx="239.267" cy="675.683" stroke="none" r="2"/>
   <circle fill="black" cx="573.096" cy="308.209" stroke="none" r="2"/>
   <circle fill="black" cx="523.708" cy="290.281" stroke="none" r="2"/>
   <circle fill="black" cx="388.047" cy="288.344" stroke="none" r="2"/>
   <circle fill="black" cx="338.178" cy="304.855" stroke="none" r="2"/>
   <circle fill="black" cx="642.945" cy="592.059" stroke="none" r="2"/>
   <circle fill="black" cx="562.459" cy="562.771" stroke="none" r="2"/>
   <circle fill="black" cx="341.491" cy="559.616" stroke="none" r="2"/>
   <circle fill="black" cx="260.219" cy="586.595" stroke="none" r="2"/>
   <circle fill="black" cx="290.87" cy="173.258" stroke="none" r="2"/>
  </g>
 </g>
</svg>
