<!DOCTYPE svg>
<svg width="900" height="900">
 <g id="layer0">
  <g id="paths">
   <path style="fill:none;stroke:#000000;stroke-width:0.5pt;stroke-linecap:round;stroke-linejoin:round;stroke-opacity:1" d="M 609.141,245.17 C 623.073,255.724 641.296,271.329 642.508,289.908"/>
   <path style="fill:none;stroke:#000000;stroke-width:0.5pt;stroke-linecap:round;stroke-linejoin:round;stroke-opacity:1" d="M 642.508,289.908 C 643.922,311.573 621.526,328.655 597.819,341.663"/>
   <path style="fill:none;stroke:#000000;stroke-width:0.5pt;stroke-linecap:round;stroke-linejoin:round;stroke-opacity:1" d="M 597.819,341.663 C 564.097,360.168 521.563,370.986 483.337,377.16"/>
   <path style="fill:none;stroke:#000000;stroke-width:0.5pt;stroke-linecap:round;stroke-linejoin:round;stroke-opacity:1" d="M 483.337,377.16 C 433.877,385.148 382.02,386.795 340.477,382.324"/>
   <path style="fill:none;stroke:#000000;stroke-width:0.5pt;stroke-linecap:round;stroke-linejoin:round;stroke-opacity:1" d="M 340.477,382.324 C 300.305,378.001 269.755,368.853 254.963,358.137"/>
   <path style="fill:none;stroke:#000000;stroke-width:0.5pt;stroke-linecap:round;stroke-linejoin:round;stroke-opacity:1" d="M 254.963,358.137 C 243.183,349.604 242.648,339.218 254,330.358"/>
   <path style="fill:none;stroke:#000000;stroke-width:0.5pt;stroke-linecap:round;stroke-linejoin:round;stroke-opacity:1" d="M 254,330.358 C 263.522,322.694 283.74,317.454 309.868,313.288"/>
   <path style="fill:none;stroke:#000000;stroke-width:0.5pt;stroke-linecap:round;stroke-linejoin:round;stroke-opacity:1" d="M 309.868,313.288 C 337.352,308.906 369.929,306.697 399.108,307.06"/>
   <path style="fill:none;stroke:#000000;stroke-width:0.5pt;stroke-linecap:round;stroke-linejoin:round;stroke-opacity:1" d="M 399.108,307.06 C 433.84,307.491 473.992,313.952 502.913,321.717"/>
   <path style="fill:none;stroke:#000000;stroke-width:0.5pt;stroke-linecap:round;stroke-linejoin:round;stroke-opacity:1" d="M 502.913,321.717 C 539.012,331.408 585.743,349.087 603.527,381.498"/>
   <path style="fill:none;stroke:#000000;stroke-width:0.5pt;stroke-linecap:round;stroke-linejoin:round;stroke-opacity:1" d="M 603.527,381.498 C 616.019,404.266 618.545,438.289 592.537,467.48"/>
   <path style="fill:none;stroke:#000000;stroke-width:0.5pt;stroke-linecap:round;stroke-linejoin:round;stroke-opacity:1" d="M 592.537,467.48 C 569.088,493.799 534.029,506.276 492.807,515.844"/>
   <path style="fill:none;stroke:#000000;stroke-width:0.5pt;stroke-linecap:round;stroke-linejoin:round;stroke-opacity:1" d="M 492.807,515.844 C 440.605,527.961 394.454,529.098 355.948,522.95"/>
   <path style="fill:none;stroke:#000000;stroke-width:0.5pt;stroke-linecap:round;stroke-linejoin:round;stroke-opacity:1" d="M 355.948,522.95 C 323.702,517.802 296.823,507.588 276.202,494.498"/>
   <path style="fill:none;stroke:#000000;stroke-width:0.5pt;stroke-linecap:round;stroke-linejoin:round;stroke-opacity:1" d="M 761.18,221.278 C 800.953,237.47 858.053,266.146 882.924,305.571"/>
   <path style="fill:none;stroke:#000000;stroke-width:0.5pt;stroke-linecap:round;stroke-linejoin:round;stroke-opacity:1" d="M 882.924,305.571 C 908.74,346.495 870.096,392.21 834.37,416.518"/>
   <path style="fill:none;stroke:#000000;stroke-width:0.5pt;stroke-linecap:round;stroke-linejoin:round;stroke-opacity:1" d="M 834.37,416.518 C 756.175,469.724 646.602,493.527 552.803,504.343"/>
   <path style="fill:none;stroke:#000000;stroke-width:0.5pt;stroke-linecap:round;stroke-linejoin:round;stroke-opacity:1" d="M 552.803,504.343 C 425.792,518.989 298.813,518.495 182.362,490.581"/>
   <path style="fill:none;stroke:#000000;stroke-width:0.5pt;stroke-linecap:round;stroke-linejoin:round;stroke-opacity:1" d="M 182.362,490.581 C 122.367,476.201 37.4508,456.534 14.7479,399.194"/>
   <path style="fill:none;stroke:#000000;stroke-width:0.5pt;stroke-linecap:round;stroke-linejoin:round;stroke-opacity:1" d="M 14.7479,399.194 C 2.18455,367.463 26.8675,338.31 52.9873,319.301"/>
   <path style="fill:none;stroke:#000000;stroke-width:0.5pt;stroke-linecap:round;stroke-linejoin:round;stroke-opacity:1" d="M 52.9873,319.301 C 93.822,289.583 150.98,278.017 200.797,270.597"/>
   <path style="fill:none;stroke:#000000;stroke-width:0.5pt;stroke-linecap:round;stroke-linejoin:round;stroke-opacity:1" d="M 200.797,270.597 C 256.728,262.267 322.135,256.735 370.714,256.649"/>
   <path style="fill:none;stroke:#000000;stroke-width:0.5pt;stroke-linecap:round;stroke-linejoin:round;stroke-opacity:1" d="M 370.714,256.649 C 432.598,256.539 498.844,262.39 557.217,273.041"/>
   <path style="fill:none;stroke:#000000;stroke-width:0.5pt;stroke-linecap:round;stroke-linejoin:round;stroke-opacity:1" d="M 557.217,273.041 C 620.623,284.61 729.157,322.834 783.852,361.576"/>
   <path style="fill:none;stroke:#000000;stroke-width:0.5pt;stroke-linecap:round;stroke-linejoin:round;stroke-opacity:1" d="M 783.852,361.576 C 852.837,410.44 896.283,478.745 826.781,554.15"/>
   <path style="fill:none;stroke:#000000;stroke-width:0.5pt;stroke-linecap:round;stroke-linejoin:round;stroke-opacity:1" d="M 826.781,554.15 C 768.848,617.005 664.625,648.102 586.711,663.058"/>
   <path style="fill:none;stroke:#000000;stroke-width:0.5pt;stroke-linecap:round;stroke-linejoin:round;stroke-opacity:1" d="M 586.711,663.058 C 475.504,684.405 352.843,687.652 231.979,659.149"/>
   <path style="fill:none;stroke:#000000;stroke-width:0.5pt;stroke-linecap:round;stroke-linejoin:round;stroke-opacity:1" d="M 231.979,659.149 C 164.938,643.339 70.9515,611.444 40.7347,551.913"/>
   <path style="fill:none;stroke:#000000;stroke-width:0.5pt;stroke-linecap:round;stroke-linejoin:round;stroke-opacity:1" d="M 687.922,232.905 C 715.361,244.545 750.374,269.216 759.106,297.789"/>
   <path style="fill:none;stroke:#000000;stroke-width:0.5pt;stroke-linecap:round;stroke-linejoin:round;stroke-opacity:1" d="M 759.106,297.789 C 768.449,328.364 742.403,357.474 711.351,376.661"/>
   <path style="fill:none;stroke:#000000;stroke-width:0.5pt;stroke-linecap:round;stroke-linejoin:round;stroke-opacity:1" d="M 711.351,376.661 C 654.332,411.89 587.097,424.327 514.159,433.412"/>
   <path style="fill:none;stroke:#000000;stroke-width:0.5pt;stroke-linecap:round;stroke-linejoin:round;stroke-opacity:1" d="M 514.159,433.412 C 430.411,443.844 358.535,443.305 267.379,430.707"/>
   <path style="fill:none;stroke:#000000;stroke-width:0.5pt;stroke-linecap:round;stroke-linejoin:round;stroke-opacity:1" d="M 267.379,430.707 C 220.006,424.159 163.639,411.389 137.312,378.231"/>
   <path style="fill:none;stroke:#000000;stroke-width:0.5pt;stroke-linecap:round;stroke-linejoin:round;stroke-opacity:1" d="M 137.312,378.231 C 117.618,353.427 128.918,338.298 149.134,324.033"/>
   <path style="fill:none;stroke:#000000;stroke-width:0.5pt;stroke-linecap:round;stroke-linejoin:round;stroke-opacity:1" d="M 149.134,324.033 C 177.718,303.864 217.649,294.121 248.297,289.364"/>
   <path style="fill:none;stroke:#000000;stroke-width:0.5pt;stroke-linecap:round;stroke-linejoin:round;stroke-opacity:1" d="M 248.297,289.364 C 291.883,282.597 338.391,280.246 383.364,279.51"/>
   <path style="fill:none;stroke:#000000;stroke-width:0.5pt;stroke-linecap:round;stroke-linejoin:round;stroke-opacity:1" d="M 383.364,279.51 C 433.772,278.685 481.065,283.219 531.203,296.247"/>
   <path style="fill:none;stroke:#000000;stroke-width:0.5pt;stroke-linecap:round;stroke-linejoin:round;stroke-opacity:1" d="M 531.203,296.247 C 579.365,308.762 650.386,333.355 693.925,370.06"/>
   <path style="fill:none;stroke:#000000;stroke-width:0.5pt;stroke-linecap:round;stroke-linejoin:round;stroke-opacity:1" d="M 693.925,370.06 C 742.73,411.206 760.664,456.69 705.095,508.694"/>
   <path style="fill:none;stroke:#000000;stroke-width:0.5pt;stroke-linecap:round;stroke-linejoin:round;stroke-opacity:1" d="M 705.095,508.694 C 662.614,548.45 589.67,571.158 532.645,580.68"/>
   <path style="fill:none;stroke:#000000;stroke-width:0.5pt;stroke-linecap:round;stroke-linejoin:round;stroke-opacity:1" d="M 532.645,580.68 C 467.316,591.588 370.594,593.824 301.961,582.506"/>
   <path style="fill:none;stroke:#000000;stroke-width:0.5pt;stroke-linecap:round;stroke-linejoin:round;stroke-opacity:1" d="M 301.961,582.506 C 254.814,574.731 186.473,554.444 158.704,522.067"/>
   <path style="fill:none;stroke:#000000;stroke-width:0.5pt;stroke-linecap:round;stroke-linejoin:round;stroke-opacity:1" d="M 609.141,245.17 C 635.755,240.962 661.61,236.994 687.922,232.905"/>
   <path style="fill:none;stroke:#000000;stroke-width:0.5pt;stroke-linecap:round;stroke-linejoin:round;stroke-opacity:1" d="M 687.922,232.905 C 711.671,229.215 735.793,225.428 761.18,221.278"/>
   <path style="fill:none;stroke:#000000;stroke-width:0.5pt;stroke-linecap:round;stroke-linejoin:round;stroke-opacity:1" d="M 642.508,289.908 C 682.878,293.371 721.08,295.641 759.106,297.789"/>
   <path style="fill:none;stroke:#000000;stroke-width:0.5pt;stroke-linecap:round;stroke-linejoin:round;stroke-opacity:1" d="M 759.106,297.789 C 799.77,300.086 840.232,302.243 882.924,305.571"/>
   <path style="fill:none;stroke:#000000;stroke-width:0.5pt;stroke-linecap:round;stroke-linejoin:round;stroke-opacity:1" d="M 597.819,341.663 C 635.767,353.255 673.691,364.863 711.351,376.661"/>
   <path style="fill:none;stroke:#000000;stroke-width:0.5pt;stroke-linecap:round;stroke-linejoin:round;stroke-opacity:1" d="M 711.351,376.661 C 752.785,389.641 793.899,402.85 834.37,416.518"/>
   <path style="fill:none;stroke:#000000;stroke-width:0.5pt;stroke-linecap:round;stroke-linejoin:round;stroke-opacity:1" d="M 483.337,377.16 C 493.495,395.746 503.842,414.588 514.159,433.412"/>
   <path style="fill:none;stroke:#000000;stroke-width:0.5pt;stroke-linecap:round;stroke-linejoin:round;stroke-opacity:1" d="M 514.159,433.412 C 527.235,457.268 540.264,481.097 552.803,504.343"/>
   <path style="fill:none;stroke:#000000;stroke-width:0.5pt;stroke-linecap:round;stroke-linejoin:round;stroke-opacity:1" d="M 340.477,382.324 C 315.58,398.302 291.303,414.392 267.379,430.707"/>
   <path style="fill:none;stroke:#000000;stroke-width:0.5pt;stroke-linecap:round;stroke-linejoin:round;stroke-opacity:1" d="M 267.379,430.707 C 238.683,450.276 210.497,470.169 182.362,490.581"/>
   <path style="fill:none;stroke:#000000;stroke-width:0.5pt;stroke-linecap:round;stroke-linejoin:round;stroke-opacity:1" d="M 254.963,358.137 C 214.789,365.224 175.705,371.789 137.312,378.231"/>
   <path style="fill:none;stroke:#000000;stroke-width:0.5pt;stroke-linecap:round;stroke-linejoin:round;stroke-opacity:1" d="M 137.312,378.231 C 95.8201,385.192 55.1339,392.012 14.7479,399.194"/>
   <path style="fill:none;stroke:#000000;stroke-width:0.5pt;stroke-linecap:round;stroke-linejoin:round;stroke-opacity:1" d="M 254,330.358 C 219.17,327.811 184.309,325.834 149.134,324.033"/>
   <path style="fill:none;stroke:#000000;stroke-width:0.5pt;stroke-linecap:round;stroke-linejoin:round;stroke-opacity:1" d="M 149.134,324.033 C 117.409,322.409 85.4293,320.928 52.9873,319.301"/>
   <path style="fill:none;stroke:#000000;stroke-width:0.5pt;stroke-linecap:round;stroke-linejoin:round;stroke-opacity:1" d="M 309.868,313.288 C 288.524,305.092 268.614,297.344 248.297,289.364"/>
   <path style="fill:none;stroke:#000000;stroke-width:0.5pt;stroke-linecap:round;stroke-linejoin:round;stroke-opacity:1" d="M 248.297,289.364 C 232.959,283.338 217.39,277.181 200.797,270.597"/>
   <path style="fill:none;stroke:#000000;stroke-width:0.5pt;stroke-linecap:round;stroke-linejoin:round;stroke-opacity:1" d="M 399.108,307.06 C 393.766,297.993 388.547,288.796 383.364,279.51"/>
   <path style="fill:none;stroke:#000000;stroke-width:0.5pt;stroke-linecap:round;stroke-linejoin:round;stroke-opacity:1" d="M 383.364,279.51 C 379.139,271.942 374.938,264.314 370.714,256.649"/>
   <path style="fill:none;stroke:#000000;stroke-width:0.5pt;stroke-linecap:round;stroke-linejoin:round;stroke-opacity:1" d="M 502.913,321.717 C 512.471,313.222 521.855,304.696 531.203,296.247"/>
   <path style="fill:none;stroke:#000000;stroke-width:0.5pt;stroke-linecap:round;stroke-linejoin:round;stroke-opacity:1" d="M 531.203,296.247 C 539.868,288.415 548.503,280.65 557.217,273.041"/>
   <path style="fill:none;stroke:#000000;stroke-width:0.5pt;stroke-linecap:round;stroke-linejoin:round;stroke-opacity:1" d="M 603.527,381.498 C 634.132,376.824 663.858,373.215 693.925,370.06"/>
   <path style="fill:none;stroke:#000000;stroke-width:0.5pt;stroke-linecap:round;stroke-linejoin:round;stroke-opacity:1" d="M 693.925,370.06 C 723.203,366.989 752.803,364.348 783.852,361.576"/>
   <path style="fill:none;stroke:#000000;stroke-width:0.5pt;stroke-linecap:round;stroke-linejoin:round;stroke-opacity:1" d="M 826.781,554.15 C 785.718,538.124 745.489,523.373 705.095,508.694"/>
   <path style="fill:none;stroke:#000000;stroke-width:0.5pt;stroke-linecap:round;stroke-linejoin:round;stroke-opacity:1" d="M 705.095,508.694 C 667.975,495.206 630.715,481.779 592.537,467.48"/>
   <path style="fill:none;stroke:#000000;stroke-width:0.5pt;stroke-linecap:round;stroke-linejoin:round;stroke-opacity:1" d="M 586.711,663.058 C 566.898,633.945 549.456,607.306 532.645,580.68"/>
   <path style="fill:none;stroke:#000000;stroke-width:0.5pt;stroke-linecap:round;stroke-linejoin:round;stroke-opacity:1" d="M 532.645,580.68 C 519.258,559.474 506.271,538.277 492.807,515.844"/>
   <path style="fill:none;stroke:#000000;stroke-width:0.5pt;stroke-linecap:round;stroke-linejoin:round;stroke-opacity:1" d="M 231.979,659.149 C 257.527,630.854 279.543,606.981 301.961,582.506"/>
   <path style="fill:none;stroke:#000000;stroke-width:0.5pt;stroke-linecap:round;stroke-linejoin:round;stroke-opacity:1" d="M 301.961,582.506 C 319.132,563.759 336.538,544.66 355.948,522.95"/>
   <path style="fill:none;stroke:#000000;stroke-width:0.5pt;stroke-linecap:round;stroke-linejoin:round;stroke-opacity:1" d="M 40.7347,551.913 C 79.7302,541.286 118.982,531.552 158.704,522.067"/>
   <path style="fill:none;stroke:#000000;stroke-width:0.5pt;stroke-linecap:round;stroke-linejoin:round;stroke-opacity:1" d="M 158.704,522.067 C 197.359,512.838 236.459,503.845 276.202,494.498"/>
  </g>
  <g id="intersections">
   <circle fill="black" cx="254" cy="330.358" stroke="none" r="2"/>
   <circle fill="black" cx="783.852" cy="361.576" stroke="none" r="2"/>
   <circle fill="black" cx="642.508" cy="289.908" stroke="none" r="2"/>
   <circle fill="black" cx="597.819" cy="341.663" stroke="none" r="2"/>
   <circle fill="black" cx="483.337" cy="377.16" stroke="none" r="2"/>
   <circle fill="black" cx="340.477" cy="382.324" stroke="none" r="2"/>
   <circle fill="black" cx="254.963" cy="358.137" stroke="none" r="2"/>
   <circle fill="black" cx="309.868" cy="313.288" stroke="none" r="2"/>
   <circle fill="black" cx="399.108" cy="307.06" stroke="none" r="2"/>
   <circle fill="black" cx="502.913" cy="321.717" stroke="none" r="2"/>
   <circle fill="black" cx="603.527" cy="381.498" stroke="none" r="2"/>
   <circle fill="black" cx="592.537" cy="467.48" stroke="none" r="2"/>
   <circle fill="black" cx="492.807" cy="515.844" stroke="none" r="2"/>
   <circle fill="black" cx="355.948" cy="522.95" stroke="none" r="2"/>
   <circle fill="black" cx="882.924" cy="305.571" stroke="none" r="2"/>
   <circle fill="black" cx="834.37" cy="416.518" stroke="none" r="2"/>
   <circle fill="black" cx="552.803" cy="504.343" stroke="none" r="2"/>
   <circle fill="black" cx="182.362" cy="490.581" stroke="none" r="2"/>
   <circle fill="black" cx="14.7479" cy="399.194" stroke="none" r="2"/>
   <circle fill="black" cx="52.9873" cy="319.301" stroke="none" r="2"/>
   <circle fill="black" cx="200.797" cy="270.597" stroke="none" r="2"/>
   <circle fill="black" cx="370.714" cy="256.649" stroke="none" r="2"/>
   <circle fill="black" cx="557.217" cy="273.041" stroke="none" r="2"/>
   <circle fill="black" cx="826.781" cy="554.15" stroke="none" r="2"/>
   <circle fill="black" cx="586.711" cy="663.058" stroke="none" r="2"/>
   <circle fill="black" cx="231.979" cy="659.149" stroke="none" r="2"/>
   <circle fill="black" cx="687.922" cy="232.905" stroke="none" r="2"/>
   <circle fill="black" cx="759.106" cy="297.789" stroke="none" r="2"/>
   <circle fill="black" cx="711.351" cy="376.661" stroke="none" r="2"/>
   <circle fill="black" cx="514.159" cy="433.412" stroke="none" r="2"/>
   <circle fill="black" cx="267.379" cy="430.707" stroke="none" r="2"/>
   <circle fill="black" cx="137.312" cy="378.231" stroke="none" r="2"/>
   <circle fill="black" cx="149.134" cy="324.033" stroke="none" r="2"/>
   <circle fill="black" cx="248.297" cy="289.364" stroke="none" r="2"/>
   <circle fill="black" cx="383.364" cy="279.51" stroke="none" r="2"/>
   <circle fill="black" cx="531.203" cy="296.247" stroke="none" r="2"/>
   <circle fill="black" cx="693.925" cy="370.06" stroke="none" r="2"/>
   <circle fill="black" cx="705.095" cy="508.694" stroke="none" r="2"/>
   <circle fill="black" cx="532.645" cy="580.68" stroke="none" r="2"/>
   <circle fill="black" cx="301.961" cy="582.506" stroke="none" r="2"/>
   <circle fill="black" cx="158.704" cy="522.067" stroke="none" r="2"/>
  </g>
 </g>
</svg>
