<!DOCTYPE svg>
<svg width="900" height="900">
 <g id="layer0">
  <g id="paths">
   <path style="fill:none;stroke:#000000;stroke-width:0.5pt;stroke-linecap:round;stroke-linejoin:round;stroke-opacity:1" d="M 328.157,657.173 C 316.458,617.983 304.793,578.907 293.141,539.876"/>
   <path style="fill:none;stroke:#000000;stroke-width:0.5pt;stroke-linecap:round;stroke-linejoin:round;stroke-opacity:1" d="M 293.141,539.876 C 275.813,481.828 258.514,423.879 241.178,365.806"/>
   <path style="fill:none;stroke:#000000;stroke-width:0.5pt;stroke-linecap:round;stroke-linejoin:round;stroke-opacity:1" d="M 241.178,365.806 C 231.447,333.207 221.703,300.568 211.936,267.85"/>
   <path style="fill:none;stroke:#000000;stroke-width:0.5pt;stroke-linecap:round;stroke-linejoin:round;stroke-opacity:1" d="M 534.121,578.706 C 522.422,539.516 510.757,500.44 499.106,461.409"/>
   <path style="fill:none;stroke:#000000;stroke-width:0.5pt;stroke-linecap:round;stroke-linejoin:round;stroke-opacity:1" d="M 499.106,461.409 C 481.777,403.36 464.479,345.412 447.143,287.339"/>
   <path style="fill:none;stroke:#000000;stroke-width:0.5pt;stroke-linecap:round;stroke-linejoin:round;stroke-opacity:1" d="M 447.143,287.339 C 437.411,254.739 427.668,222.101 417.901,189.383"/>
   <path style="fill:none;stroke:#000000;stroke-width:0.5pt;stroke-linecap:round;stroke-linejoin:round;stroke-opacity:1" d="M 648.258,593.227 C 636.559,554.037 624.894,514.961 613.243,475.93"/>
   <path style="fill:none;stroke:#000000;stroke-width:0.5pt;stroke-linecap:round;stroke-linejoin:round;stroke-opacity:1" d="M 613.243,475.93 C 595.914,417.882 578.616,359.933 561.28,301.86"/>
   <path style="fill:none;stroke:#000000;stroke-width:0.5pt;stroke-linecap:round;stroke-linejoin:round;stroke-opacity:1" d="M 561.28,301.86 C 551.548,269.261 541.805,236.622 532.038,203.905"/>
   <path style="fill:none;stroke:#000000;stroke-width:0.5pt;stroke-linecap:round;stroke-linejoin:round;stroke-opacity:1" d="M 103.869,420.335 C 228.738,408.501 142.423,375.165 241.178,365.806"/>
   <path style="fill:none;stroke:#000000;stroke-width:0.5pt;stroke-linecap:round;stroke-linejoin:round;stroke-opacity:1" d="M 241.178,365.806 C 332.2,357.18 283.148,419.762 366.307,392.004"/>
   <path style="fill:none;stroke:#000000;stroke-width:0.5pt;stroke-linecap:round;stroke-linejoin:round;stroke-opacity:1" d="M 366.307,392.004 C 390.206,384.026 410.733,290.789 447.143,287.339"/>
   <path style="fill:none;stroke:#000000;stroke-width:0.5pt;stroke-linecap:round;stroke-linejoin:round;stroke-opacity:1" d="M 447.143,287.339 C 478.065,284.409 499.402,352.09 513.223,365.209"/>
   <path style="fill:none;stroke:#000000;stroke-width:0.5pt;stroke-linecap:round;stroke-linejoin:round;stroke-opacity:1" d="M 513.223,365.209 C 560.129,409.73 537.581,328.137 561.28,301.86"/>
   <path style="fill:none;stroke:#000000;stroke-width:0.5pt;stroke-linecap:round;stroke-linejoin:round;stroke-opacity:1" d="M 561.28,301.86 C 602.501,256.155 685.807,339.106 740.484,327.909"/>
   <path style="fill:none;stroke:#000000;stroke-width:0.5pt;stroke-linecap:round;stroke-linejoin:round;stroke-opacity:1" d="M 155.832,594.404 C 280.702,582.571 194.387,549.234 293.141,539.876"/>
   <path style="fill:none;stroke:#000000;stroke-width:0.5pt;stroke-linecap:round;stroke-linejoin:round;stroke-opacity:1" d="M 293.141,539.876 C 384.163,531.25 335.112,593.832 418.27,566.074"/>
   <path style="fill:none;stroke:#000000;stroke-width:0.5pt;stroke-linecap:round;stroke-linejoin:round;stroke-opacity:1" d="M 418.27,566.074 C 442.17,558.096 462.697,464.859 499.106,461.409"/>
   <path style="fill:none;stroke:#000000;stroke-width:0.5pt;stroke-linecap:round;stroke-linejoin:round;stroke-opacity:1" d="M 499.106,461.409 C 530.028,458.478 551.365,526.16 565.186,539.278"/>
   <path style="fill:none;stroke:#000000;stroke-width:0.5pt;stroke-linecap:round;stroke-linejoin:round;stroke-opacity:1" d="M 565.186,539.278 C 612.092,583.8 589.545,502.206 613.243,475.93"/>
   <path style="fill:none;stroke:#000000;stroke-width:0.5pt;stroke-linecap:round;stroke-linejoin:round;stroke-opacity:1" d="M 613.243,475.93 C 654.499,430.186 736.382,512.751 790.865,501.594"/>
   <path style="fill:none;stroke:#000000;stroke-width:0.5pt;stroke-linecap:round;stroke-linejoin:round;stroke-opacity:1" d="M 190.847,711.701 C 179.148,672.512 167.483,633.436 155.832,594.404"/>
   <path style="fill:none;stroke:#000000;stroke-width:0.5pt;stroke-linecap:round;stroke-linejoin:round;stroke-opacity:1" d="M 155.832,594.404 C 138.503,536.356 121.204,478.408 103.869,420.335"/>
   <path style="fill:none;stroke:#000000;stroke-width:0.5pt;stroke-linecap:round;stroke-linejoin:round;stroke-opacity:1" d="M 103.869,420.335 C 94.1369,387.735 84.3937,355.096 74.6268,322.379"/>
   <path style="fill:none;stroke:#000000;stroke-width:0.5pt;stroke-linecap:round;stroke-linejoin:round;stroke-opacity:1" d="M 74.6268,322.379 C 88.2881,321.084 97.8849,321.46 109.327,320.376"/>
   <path style="fill:none;stroke:#000000;stroke-width:0.5pt;stroke-linecap:round;stroke-linejoin:round;stroke-opacity:1" d="M 109.327,320.376 C 120.77,319.292 132.212,318.207 139.364,311.868"/>
   <path style="fill:none;stroke:#000000;stroke-width:0.5pt;stroke-linecap:round;stroke-linejoin:round;stroke-opacity:1" d="M 139.364,311.868 C 146.515,305.529 149.376,293.935 160.819,285.303"/>
   <path style="fill:none;stroke:#000000;stroke-width:0.5pt;stroke-linecap:round;stroke-linejoin:round;stroke-opacity:1" d="M 160.819,285.303 C 172.261,276.67 191.912,269.748 211.936,267.85"/>
   <path style="fill:none;stroke:#000000;stroke-width:0.5pt;stroke-linecap:round;stroke-linejoin:round;stroke-opacity:1" d="M 211.936,267.85 C 299.514,259.551 256.186,322.522 336.666,295.641"/>
   <path style="fill:none;stroke:#000000;stroke-width:0.5pt;stroke-linecap:round;stroke-linejoin:round;stroke-opacity:1" d="M 336.666,295.641 C 361.433,287.368 383.282,192.664 417.901,189.383"/>
   <path style="fill:none;stroke:#000000;stroke-width:0.5pt;stroke-linecap:round;stroke-linejoin:round;stroke-opacity:1" d="M 417.901,189.383 C 447.356,186.592 471.975,256.09 482.403,266.482"/>
   <path style="fill:none;stroke:#000000;stroke-width:0.5pt;stroke-linecap:round;stroke-linejoin:round;stroke-opacity:1" d="M 482.403,266.482 C 532.324,316.224 508.349,230.17 532.038,203.905"/>
   <path style="fill:none;stroke:#000000;stroke-width:0.5pt;stroke-linecap:round;stroke-linejoin:round;stroke-opacity:1" d="M 532.038,203.905 C 538.48,196.761 547.796,193.898 559.239,192.813"/>
   <path style="fill:none;stroke:#000000;stroke-width:0.5pt;stroke-linecap:round;stroke-linejoin:round;stroke-opacity:1" d="M 559.239,192.813 C 570.681,191.729 584.624,193.674 601.066,198.649"/>
   <path style="fill:none;stroke:#000000;stroke-width:0.5pt;stroke-linecap:round;stroke-linejoin:round;stroke-opacity:1" d="M 601.066,198.649 C 617.508,203.623 636.451,211.627 651.391,219.194"/>
   <path style="fill:none;stroke:#000000;stroke-width:0.5pt;stroke-linecap:round;stroke-linejoin:round;stroke-opacity:1" d="M 651.391,219.194 C 666.33,226.76 677.267,233.89 685.567,235.371"/>
   <path style="fill:none;stroke:#000000;stroke-width:0.5pt;stroke-linecap:round;stroke-linejoin:round;stroke-opacity:1" d="M 685.567,235.371 C 693.866,236.853 699.529,232.686 711.685,230.197"/>
   <path style="fill:none;stroke:#000000;stroke-width:0.5pt;stroke-linecap:round;stroke-linejoin:round;stroke-opacity:1" d="M 825.373,618.904 C 813.66,579.665 802.21,540.596 790.865,501.594"/>
   <path style="fill:none;stroke:#000000;stroke-width:0.5pt;stroke-linecap:round;stroke-linejoin:round;stroke-opacity:1" d="M 790.865,501.594 C 774.014,443.662 757.394,385.879 740.484,327.909"/>
   <path style="fill:none;stroke:#000000;stroke-width:0.5pt;stroke-linecap:round;stroke-linejoin:round;stroke-opacity:1" d="M 740.484,327.909 C 731.006,295.417 721.437,262.866 711.685,230.197"/>
   <path style="fill:none;stroke:#000000;stroke-width:0.5pt;stroke-linecap:round;stroke-linejoin:round;stroke-opacity:1" d="M 190.847,711.701 C 204.508,710.407 213.359,708.282 224.801,707.198"/>
   <path style="fill:none;stroke:#000000;stroke-width:0.5pt;stroke-linecap:round;stroke-linejoin:round;stroke-opacity:1" d="M 224.801,707.198 C 236.244,706.114 247.686,705.029 254.838,698.69"/>
   <path style="fill:none;stroke:#000000;stroke-width:0.5pt;stroke-linecap:round;stroke-linejoin:round;stroke-opacity:1" d="M 254.838,698.69 C 261.989,692.351 264.85,680.758 276.292,672.125"/>
   <path style="fill:none;stroke:#000000;stroke-width:0.5pt;stroke-linecap:round;stroke-linejoin:round;stroke-opacity:1" d="M 276.292,672.125 C 287.735,663.492 308.132,659.07 328.157,657.173"/>
   <path style="fill:none;stroke:#000000;stroke-width:0.5pt;stroke-linecap:round;stroke-linejoin:round;stroke-opacity:1" d="M 328.157,657.173 C 422.569,648.226 367.758,710.277 453.615,681.829"/>
   <path style="fill:none;stroke:#000000;stroke-width:0.5pt;stroke-linecap:round;stroke-linejoin:round;stroke-opacity:1" d="M 453.615,681.829 C 476.772,674.156 495.827,582.334 534.121,578.706"/>
   <path style="fill:none;stroke:#000000;stroke-width:0.5pt;stroke-linecap:round;stroke-linejoin:round;stroke-opacity:1" d="M 534.121,578.706 C 566.559,575.632 585.001,642.266 601.477,656.97"/>
   <path style="fill:none;stroke:#000000;stroke-width:0.5pt;stroke-linecap:round;stroke-linejoin:round;stroke-opacity:1" d="M 601.477,656.97 C 646.306,696.977 623.938,620.193 648.258,593.227"/>
   <path style="fill:none;stroke:#000000;stroke-width:0.5pt;stroke-linecap:round;stroke-linejoin:round;stroke-opacity:1" d="M 648.258,593.227 C 654.701,586.084 663.27,580.72 674.712,579.635"/>
   <path style="fill:none;stroke:#000000;stroke-width:0.5pt;stroke-linecap:round;stroke-linejoin:round;stroke-opacity:1" d="M 674.712,579.635 C 686.155,578.551 700.097,580.496 716.54,585.471"/>
   <path style="fill:none;stroke:#000000;stroke-width:0.5pt;stroke-linecap:round;stroke-linejoin:round;stroke-opacity:1" d="M 716.54,585.471 C 732.982,590.445 751.925,598.449 766.865,606.016"/>
   <path style="fill:none;stroke:#000000;stroke-width:0.5pt;stroke-linecap:round;stroke-linejoin:round;stroke-opacity:1" d="M 766.865,606.016 C 781.804,613.583 792.741,620.712 801.041,622.193"/>
   <path style="fill:none;stroke:#000000;stroke-width:0.5pt;stroke-linecap:round;stroke-linejoin:round;stroke-opacity:1" d="M 801.041,622.193 C 809.34,623.675 813.217,621.393 825.373,618.904"/>
  </g>
  <g id="intersections">
   <circle fill="black" cx="328.157" cy="657.173" stroke="none" r="2"/>
   <circle fill="black" cx="211.936" cy="267.85" stroke="none" r="2"/>
   <circle fill="black" cx="534.121" cy="578.706" stroke="none" r="2"/>
   <circle fill="black" cx="417.901" cy="189.383" stroke="none" r="2"/>
   <circle fill="black" cx="648.258" cy="593.227" stroke="none" r="2"/>
   <circle fill="black" cx="532.038" cy="203.905" stroke="none" r="2"/>
   <circle fill="black" cx="103.869" cy="420.335" stroke="none" r="2"/>
   <circle fill="black" cx="241.178" cy="365.806" stroke="none" r="2"/>
   <circle fill="black" cx="447.143" cy="287.339" stroke="none" r="2"/>
   <circle fill="black" cx="561.28" cy="301.86" stroke="none" r="2"/>
   <circle fill="black" cx="740.484" cy="327.909" stroke="none" r="2"/>
   <circle fill="black" cx="155.832" cy="594.404" stroke="none" r="2"/>
   <circle fill="black" cx="293.141" cy="539.876" stroke="none" r="2"/>
   <circle fill="black" cx="499.106" cy="461.409" stroke="none" r="2"/>
   <circle fill="black" cx="613.243" cy="475.93" stroke="none" r="2"/>
   <circle fill="black" cx="790.865" cy="501.594" stroke="none" r="2"/>
  </g>
 </g>
</svg>
