<!DOCTYPE svg>
<svg width="900" height="900">
 <g id="layer0">
  <g id="paths">
   <path style="fill:none;stroke:#000000;stroke-width:0.5pt;stroke-linecap:round;stroke-linejoin:round;stroke-opacity:1" d="M 867.359,506.976 C 913.126,434.124 893.091,374.773 815.952,351.562"/>
   <path style="fill:none;stroke:#000000;stroke-width:0.5pt;stroke-linecap:round;stroke-linejoin:round;stroke-opacity:1" d="M 815.952,351.562 C 737.802,328.048 661.381,349.33 621.336,331.715"/>
   <path style="fill:none;stroke:#000000;stroke-width:0.5pt;stroke-linecap:round;stroke-linejoin:round;stroke-opacity:1" d="M 621.336,331.715 C 542.222,296.916 502.533,264.46 424.374,333.934"/>
   <path style="fill:none;stroke:#000000;stroke-width:0.5pt;stroke-linecap:round;stroke-linejoin:round;stroke-opacity:1" d="M 424.374,333.934 C 399.05,325.92 331.237,303.518 267.272,282.295"/>
   <path style="fill:none;stroke:#000000;stroke-width:0.5pt;stroke-linecap:round;stroke-linejoin:round;stroke-opacity:1" d="M 267.272,282.295 C 214.775,264.877 164.833,248.286 142.996,241.182"/>
   <path style="fill:none;stroke:#000000;stroke-width:0.5pt;stroke-linecap:round;stroke-linejoin:round;stroke-opacity:1" d="M 142.996,241.182 C 135.406,229.798 124.366,223.027 101.85,217.598"/>
   <path style="fill:none;stroke:#000000;stroke-width:0.5pt;stroke-linecap:round;stroke-linejoin:round;stroke-opacity:1" d="M 101.85,217.598 C 89.735,214.677 75.3678,213.051 55.3586,210.396"/>
   <path style="fill:none;stroke:#000000;stroke-width:0.5pt;stroke-linecap:round;stroke-linejoin:round;stroke-opacity:1" d="M 55.3586,210.396 C 48.1966,218.135 33.8727,233.613 26.7107,241.351"/>
   <path style="fill:none;stroke:#000000;stroke-width:0.5pt;stroke-linecap:round;stroke-linejoin:round;stroke-opacity:1" d="M 26.7107,241.351 C 18.8178,250.566 11.7268,260.158 2.66159,270.597"/>
   <path style="fill:none;stroke:#000000;stroke-width:0.5pt;stroke-linecap:round;stroke-linejoin:round;stroke-opacity:1" d="M 2.66159,270.597 C 23.5286,275.814 39.1604,279.634 52.7454,282.476"/>
   <path style="fill:none;stroke:#000000;stroke-width:0.5pt;stroke-linecap:round;stroke-linejoin:round;stroke-opacity:1" d="M 52.7454,282.476 C 83.2376,288.854 98.8298,289.132 114.981,282.782"/>
   <path style="fill:none;stroke:#000000;stroke-width:0.5pt;stroke-linecap:round;stroke-linejoin:round;stroke-opacity:1" d="M 114.981,282.782 C 137.849,290.49 183.566,305.891 232.064,322.409"/>
   <path style="fill:none;stroke:#000000;stroke-width:0.5pt;stroke-linecap:round;stroke-linejoin:round;stroke-opacity:1" d="M 232.064,322.409 C 293.731,343.413 359.206,365.974 388.61,377.082"/>
   <path style="fill:none;stroke:#000000;stroke-width:0.5pt;stroke-linecap:round;stroke-linejoin:round;stroke-opacity:1" d="M 388.61,377.082 C 334.389,503.597 455.887,460.568 523.541,484.144"/>
   <path style="fill:none;stroke:#000000;stroke-width:0.5pt;stroke-linecap:round;stroke-linejoin:round;stroke-opacity:1" d="M 523.541,484.144 C 567.127,499.333 580.029,563.589 662.444,592.395"/>
   <path style="fill:none;stroke:#000000;stroke-width:0.5pt;stroke-linecap:round;stroke-linejoin:round;stroke-opacity:1" d="M 662.444,592.395 C 749.617,622.864 822.346,578.628 867.359,506.976"/>
   <path style="fill:none;stroke:#000000;stroke-width:0.5pt;stroke-linecap:round;stroke-linejoin:round;stroke-opacity:1" d="M 740.729,466.776 C 729.899,483.923 682.289,559.71 662.444,592.395"/>
   <path style="fill:none;stroke:#000000;stroke-width:0.5pt;stroke-linecap:round;stroke-linejoin:round;stroke-opacity:1" d="M 662.444,592.395 C 662.354,601.019 662.38,613.409 662.503,628.115"/>
   <path style="fill:none;stroke:#000000;stroke-width:0.5pt;stroke-linecap:round;stroke-linejoin:round;stroke-opacity:1" d="M 662.503,628.115 C 662.606,640.3 663.695,652.564 663.959,666.58"/>
   <path style="fill:none;stroke:#000000;stroke-width:0.5pt;stroke-linecap:round;stroke-linejoin:round;stroke-opacity:1" d="M 663.959,666.58 C 680.835,637.194 708.919,589.398 738.158,540.081"/>
   <path style="fill:none;stroke:#000000;stroke-width:0.5pt;stroke-linecap:round;stroke-linejoin:round;stroke-opacity:1" d="M 738.158,540.081 C 767.573,490.467 796.418,442.203 814.565,413.226"/>
   <path style="fill:none;stroke:#000000;stroke-width:0.5pt;stroke-linecap:round;stroke-linejoin:round;stroke-opacity:1" d="M 814.565,413.226 C 814.565,402.761 815.536,393.087 815.681,384.531"/>
   <path style="fill:none;stroke:#000000;stroke-width:0.5pt;stroke-linecap:round;stroke-linejoin:round;stroke-opacity:1" d="M 815.681,384.531 C 815.827,375.909 815.952,367.089 815.952,351.562"/>
   <path style="fill:none;stroke:#000000;stroke-width:0.5pt;stroke-linecap:round;stroke-linejoin:round;stroke-opacity:1" d="M 815.952,351.562 C 787.353,396.504 754.736,445.181 740.729,466.776"/>
   <path style="fill:none;stroke:#000000;stroke-width:0.5pt;stroke-linecap:round;stroke-linejoin:round;stroke-opacity:1" d="M 615.865,427.517 C 648.518,437.431 695.651,452.387 740.729,466.776"/>
   <path style="fill:none;stroke:#000000;stroke-width:0.5pt;stroke-linecap:round;stroke-linejoin:round;stroke-opacity:1" d="M 740.729,466.776 C 796.585,484.605 849.284,501.563 867.359,506.976"/>
   <path style="fill:none;stroke:#000000;stroke-width:0.5pt;stroke-linecap:round;stroke-linejoin:round;stroke-opacity:1" d="M 867.359,506.976 C 867.359,519.575 866.943,532.613 866.554,546.502"/>
   <path style="fill:none;stroke:#000000;stroke-width:0.5pt;stroke-linecap:round;stroke-linejoin:round;stroke-opacity:1" d="M 866.554,546.502 C 866.221,558.351 865.533,571 865.802,581.748"/>
   <path style="fill:none;stroke:#000000;stroke-width:0.5pt;stroke-linecap:round;stroke-linejoin:round;stroke-opacity:1" d="M 865.802,581.748 C 840.761,573.6 794.144,558.43 738.158,540.081"/>
   <path style="fill:none;stroke:#000000;stroke-width:0.5pt;stroke-linecap:round;stroke-linejoin:round;stroke-opacity:1" d="M 738.158,540.081 C 685.814,522.925 625.616,503.071 568.044,483.779"/>
   <path style="fill:none;stroke:#000000;stroke-width:0.5pt;stroke-linecap:round;stroke-linejoin:round;stroke-opacity:1" d="M 568.044,483.779 C 506.347,463.105 447.866,441.478 405.254,426.146"/>
   <path style="fill:none;stroke:#000000;stroke-width:0.5pt;stroke-linecap:round;stroke-linejoin:round;stroke-opacity:1" d="M 405.254,426.146 C 413.858,377.389 286.116,337.508 254.123,325.629"/>
   <path style="fill:none;stroke:#000000;stroke-width:0.5pt;stroke-linecap:round;stroke-linejoin:round;stroke-opacity:1" d="M 254.123,325.629 C 207.458,308.303 162.345,293.388 131.83,282.34"/>
   <path style="fill:none;stroke:#000000;stroke-width:0.5pt;stroke-linecap:round;stroke-linejoin:round;stroke-opacity:1" d="M 131.83,282.34 C 116.535,275.982 102.875,278.375 78.5643,276.798"/>
   <path style="fill:none;stroke:#000000;stroke-width:0.5pt;stroke-linecap:round;stroke-linejoin:round;stroke-opacity:1" d="M 78.5643,276.798 C 65.2601,275.934 48.3926,274.581 26.6099,269.086"/>
   <path style="fill:none;stroke:#000000;stroke-width:0.5pt;stroke-linecap:round;stroke-linejoin:round;stroke-opacity:1" d="M 26.6099,269.086 C 26.4507,264.786 26.0831,260.605 26.206,255.568"/>
   <path style="fill:none;stroke:#000000;stroke-width:0.5pt;stroke-linecap:round;stroke-linejoin:round;stroke-opacity:1" d="M 26.206,255.568 C 26.3031,251.587 26.7737,247.078 26.7107,241.351"/>
   <path style="fill:none;stroke:#000000;stroke-width:0.5pt;stroke-linecap:round;stroke-linejoin:round;stroke-opacity:1" d="M 26.7107,241.351 C 36.3199,242.616 56.3956,246.241 77.1423,250.361"/>
   <path style="fill:none;stroke:#000000;stroke-width:0.5pt;stroke-linecap:round;stroke-linejoin:round;stroke-opacity:1" d="M 77.1423,250.361 C 97.0085,254.307 117.49,258.708 129.986,261.926"/>
   <path style="fill:none;stroke:#000000;stroke-width:0.5pt;stroke-linecap:round;stroke-linejoin:round;stroke-opacity:1" d="M 129.986,261.926 C 159.499,272.378 218.524,293.283 248.036,303.735"/>
   <path style="fill:none;stroke:#000000;stroke-width:0.5pt;stroke-linecap:round;stroke-linejoin:round;stroke-opacity:1" d="M 248.036,303.735 C 346.413,338.489 474.749,382.97 519.864,398.089"/>
   <path style="fill:none;stroke:#000000;stroke-width:0.5pt;stroke-linecap:round;stroke-linejoin:round;stroke-opacity:1" d="M 545.272,446.596 C 536.793,460.026 534.281,467.302 523.541,484.144"/>
   <path style="fill:none;stroke:#000000;stroke-width:0.5pt;stroke-linecap:round;stroke-linejoin:round;stroke-opacity:1" d="M 523.541,484.144 C 522.68,498.489 522.102,511.193 521.666,523.731"/>
   <path style="fill:none;stroke:#000000;stroke-width:0.5pt;stroke-linecap:round;stroke-linejoin:round;stroke-opacity:1" d="M 521.666,523.731 C 521.216,536.701 520.919,549.492 520.623,563.737"/>
   <path style="fill:none;stroke:#000000;stroke-width:0.5pt;stroke-linecap:round;stroke-linejoin:round;stroke-opacity:1" d="M 520.623,563.737 C 529.427,549.063 548.597,516.706 568.044,483.779"/>
   <path style="fill:none;stroke:#000000;stroke-width:0.5pt;stroke-linecap:round;stroke-linejoin:round;stroke-opacity:1" d="M 568.044,483.779 C 591.14,444.674 614.624,404.718 621.595,392.677"/>
   <path style="fill:none;stroke:#000000;stroke-width:0.5pt;stroke-linecap:round;stroke-linejoin:round;stroke-opacity:1" d="M 621.595,392.677 C 621.827,387.1 622.28,376.327 622.169,365.437"/>
   <path style="fill:none;stroke:#000000;stroke-width:0.5pt;stroke-linecap:round;stroke-linejoin:round;stroke-opacity:1" d="M 622.169,365.437 C 622.044,353.076 621.336,340.431 621.336,331.715"/>
   <path style="fill:none;stroke:#000000;stroke-width:0.5pt;stroke-linecap:round;stroke-linejoin:round;stroke-opacity:1" d="M 621.336,331.715 C 608.015,350.16 600.035,363.544 591.325,376.865"/>
   <path style="fill:none;stroke:#000000;stroke-width:0.5pt;stroke-linecap:round;stroke-linejoin:round;stroke-opacity:1" d="M 866.554,546.502 C 911.003,477.628 893.498,413.469 815.681,384.531"/>
   <path style="fill:none;stroke:#000000;stroke-width:0.5pt;stroke-linecap:round;stroke-linejoin:round;stroke-opacity:1" d="M 815.681,384.531 C 731.545,353.244 667.038,378.636 622.169,365.437"/>
   <path style="fill:none;stroke:#000000;stroke-width:0.5pt;stroke-linecap:round;stroke-linejoin:round;stroke-opacity:1" d="M 622.169,365.437 C 545.185,342.789 529.241,276.23 424.374,361.872"/>
   <path style="fill:none;stroke:#000000;stroke-width:0.5pt;stroke-linecap:round;stroke-linejoin:round;stroke-opacity:1" d="M 424.374,361.872 C 387.29,350.088 328.918,330.879 267.146,310.239"/>
   <path style="fill:none;stroke:#000000;stroke-width:0.5pt;stroke-linecap:round;stroke-linejoin:round;stroke-opacity:1" d="M 267.146,310.239 C 224.891,296.12 181.293,281.41 142.412,268.134"/>
   <path style="fill:none;stroke:#000000;stroke-width:0.5pt;stroke-linecap:round;stroke-linejoin:round;stroke-opacity:1" d="M 142.412,268.134 C 137.659,258.007 125.733,251.779 101.671,245.286"/>
   <path style="fill:none;stroke:#000000;stroke-width:0.5pt;stroke-linecap:round;stroke-linejoin:round;stroke-opacity:1" d="M 101.671,245.286 C 89.6773,242.05 74.669,238.748 56.0311,234.865"/>
   <path style="fill:none;stroke:#000000;stroke-width:0.5pt;stroke-linecap:round;stroke-linejoin:round;stroke-opacity:1" d="M 56.0311,234.865 C 49.4234,242.864 38.4638,255.629 26.6099,269.086"/>
   <path style="fill:none;stroke:#000000;stroke-width:0.5pt;stroke-linecap:round;stroke-linejoin:round;stroke-opacity:1" d="M 26.6099,269.086 C 18.57,278.213 10.3922,287.733 2.60815,296.225"/>
   <path style="fill:none;stroke:#000000;stroke-width:0.5pt;stroke-linecap:round;stroke-linejoin:round;stroke-opacity:1" d="M 2.60815,296.225 C 22.9325,302.192 39.3497,306.534 53.3581,309.355"/>
   <path style="fill:none;stroke:#000000;stroke-width:0.5pt;stroke-linecap:round;stroke-linejoin:round;stroke-opacity:1" d="M 53.3581,309.355 C 83.1984,315.364 100.868,314.127 115.564,305.177"/>
   <path style="fill:none;stroke:#000000;stroke-width:0.5pt;stroke-linecap:round;stroke-linejoin:round;stroke-opacity:1" d="M 115.564,305.177 C 137.049,314.025 181.726,332.69 230.756,352.995"/>
   <path style="fill:none;stroke:#000000;stroke-width:0.5pt;stroke-linecap:round;stroke-linejoin:round;stroke-opacity:1" d="M 230.756,352.995 C 286.948,376.267 348.492,401.542 387.765,416.815"/>
   <path style="fill:none;stroke:#000000;stroke-width:0.5pt;stroke-linecap:round;stroke-linejoin:round;stroke-opacity:1" d="M 387.765,416.815 C 382.122,422.128 358.749,490.893 412.029,505.367"/>
   <path style="fill:none;stroke:#000000;stroke-width:0.5pt;stroke-linecap:round;stroke-linejoin:round;stroke-opacity:1" d="M 412.029,505.367 C 453.312,516.581 483.582,512.475 521.666,523.731"/>
   <path style="fill:none;stroke:#000000;stroke-width:0.5pt;stroke-linecap:round;stroke-linejoin:round;stroke-opacity:1" d="M 521.666,523.731 C 550.489,532.435 579.404,598.208 662.503,628.115"/>
   <path style="fill:none;stroke:#000000;stroke-width:0.5pt;stroke-linecap:round;stroke-linejoin:round;stroke-opacity:1" d="M 662.503,628.115 C 752.095,660.36 821.035,617.033 866.554,546.502"/>
   <path style="fill:none;stroke:#000000;stroke-width:0.5pt;stroke-linecap:round;stroke-linejoin:round;stroke-opacity:1" d="M 424.374,347.21 C 399.136,339.121 331.782,317.247 267.132,296.012"/>
   <path style="fill:none;stroke:#000000;stroke-width:0.5pt;stroke-linecap:round;stroke-linejoin:round;stroke-opacity:1" d="M 267.132,296.012 C 215.164,278.942 165.544,262.411 142.655,254.868"/>
   <path style="fill:none;stroke:#000000;stroke-width:0.5pt;stroke-linecap:round;stroke-linejoin:round;stroke-opacity:1" d="M 142.655,254.868 C 133.415,244.087 124.08,237.752 101.816,232.237"/>
   <path style="fill:none;stroke:#000000;stroke-width:0.5pt;stroke-linecap:round;stroke-linejoin:round;stroke-opacity:1" d="M 101.816,232.237 C 90.3314,229.392 75.5087,226.881 55.4475,223.902"/>
   <path style="fill:none;stroke:#000000;stroke-width:0.5pt;stroke-linecap:round;stroke-linejoin:round;stroke-opacity:1" d="M 55.4475,223.902 C 49.2115,229.791 38.0404,242.056 26.206,255.568"/>
   <path style="fill:none;stroke:#000000;stroke-width:0.5pt;stroke-linecap:round;stroke-linejoin:round;stroke-opacity:1" d="M 26.206,255.568 C 18.1026,264.82 10.1215,274.8 2.76776,283.577"/>
   <path style="fill:none;stroke:#000000;stroke-width:0.5pt;stroke-linecap:round;stroke-linejoin:round;stroke-opacity:1" d="M 2.76776,283.577 C 21.1898,289.841 37.8805,293.886 53.0765,296.608"/>
   <path style="fill:none;stroke:#000000;stroke-width:0.5pt;stroke-linecap:round;stroke-linejoin:round;stroke-opacity:1" d="M 53.0765,296.608 C 77.3593,300.957 97.7919,300.055 115.383,294.67"/>
   <path style="fill:none;stroke:#000000;stroke-width:0.5pt;stroke-linecap:round;stroke-linejoin:round;stroke-opacity:1" d="M 115.383,294.67 C 134.264,301.395 181.065,318.864 231.322,337.869"/>
   <path style="fill:none;stroke:#000000;stroke-width:0.5pt;stroke-linecap:round;stroke-linejoin:round;stroke-opacity:1" d="M 231.322,337.869 C 294.473,361.749 362.256,388.752 388.257,398.177"/>
   <path style="fill:none;stroke:#000000;stroke-width:0.5pt;stroke-linecap:round;stroke-linejoin:round;stroke-opacity:1" d="M 865.802,581.748 C 904.562,515.233 891.919,446.176 814.565,413.226"/>
   <path style="fill:none;stroke:#000000;stroke-width:0.5pt;stroke-linecap:round;stroke-linejoin:round;stroke-opacity:1" d="M 814.565,413.226 C 725.915,375.463 673.148,405.068 621.595,392.677"/>
   <path style="fill:none;stroke:#000000;stroke-width:0.5pt;stroke-linecap:round;stroke-linejoin:round;stroke-opacity:1" d="M 621.595,392.677 C 556.039,376.92 485.444,282.655 405.254,426.146"/>
   <path style="fill:none;stroke:#000000;stroke-width:0.5pt;stroke-linecap:round;stroke-linejoin:round;stroke-opacity:1" d="M 405.254,426.146 C 329.396,561.884 461.186,539.559 520.623,563.737"/>
   <path style="fill:none;stroke:#000000;stroke-width:0.5pt;stroke-linecap:round;stroke-linejoin:round;stroke-opacity:1" d="M 520.623,563.737 C 573.334,585.548 589.968,641.944 663.959,666.58"/>
   <path style="fill:none;stroke:#000000;stroke-width:0.5pt;stroke-linecap:round;stroke-linejoin:round;stroke-opacity:1" d="M 663.959,666.58 C 749.768,695.151 827.54,647.407 865.802,581.748"/>
   <path style="fill:none;stroke:#000000;stroke-width:0.5pt;stroke-linecap:round;stroke-linejoin:round;stroke-opacity:1" d="M 248.036,303.735 C 243.536,309.012 237.643,316.04 232.064,322.409"/>
   <path style="fill:none;stroke:#000000;stroke-width:0.5pt;stroke-linecap:round;stroke-linejoin:round;stroke-opacity:1" d="M 232.064,322.409 C 231.86,328.783 231.575,333.487 231.322,337.869"/>
   <path style="fill:none;stroke:#000000;stroke-width:0.5pt;stroke-linecap:round;stroke-linejoin:round;stroke-opacity:1" d="M 231.322,337.869 C 231.043,342.699 230.804,347.139 230.756,352.995"/>
   <path style="fill:none;stroke:#000000;stroke-width:0.5pt;stroke-linecap:round;stroke-linejoin:round;stroke-opacity:1" d="M 230.756,352.995 C 240.485,341.412 247.992,332.74 254.123,325.629"/>
   <path style="fill:none;stroke:#000000;stroke-width:0.5pt;stroke-linecap:round;stroke-linejoin:round;stroke-opacity:1" d="M 254.123,325.629 C 259.264,319.666 263.439,314.802 267.146,310.239"/>
   <path style="fill:none;stroke:#000000;stroke-width:0.5pt;stroke-linecap:round;stroke-linejoin:round;stroke-opacity:1" d="M 267.146,310.239 C 267.184,305.173 267.147,300.51 267.132,296.012"/>
   <path style="fill:none;stroke:#000000;stroke-width:0.5pt;stroke-linecap:round;stroke-linejoin:round;stroke-opacity:1" d="M 267.132,296.012 C 267.117,291.35 267.127,286.866 267.272,282.295"/>
   <path style="fill:none;stroke:#000000;stroke-width:0.5pt;stroke-linecap:round;stroke-linejoin:round;stroke-opacity:1" d="M 267.272,282.295 C 258.809,291.925 257.103,293.184 248.036,303.735"/>
   <path style="fill:none;stroke:#000000;stroke-width:0.5pt;stroke-linecap:round;stroke-linejoin:round;stroke-opacity:1" d="M 129.986,261.926 C 125.139,269.196 118.972,276.724 114.981,282.782"/>
   <path style="fill:none;stroke:#000000;stroke-width:0.5pt;stroke-linecap:round;stroke-linejoin:round;stroke-opacity:1" d="M 114.981,282.782 C 114.981,287.351 115.208,290.825 115.383,294.67"/>
   <path style="fill:none;stroke:#000000;stroke-width:0.5pt;stroke-linecap:round;stroke-linejoin:round;stroke-opacity:1" d="M 115.383,294.67 C 115.521,297.703 115.627,300.965 115.564,305.177"/>
   <path style="fill:none;stroke:#000000;stroke-width:0.5pt;stroke-linecap:round;stroke-linejoin:round;stroke-opacity:1" d="M 115.564,305.177 C 121.312,297.122 126.492,289.713 131.83,282.34"/>
   <path style="fill:none;stroke:#000000;stroke-width:0.5pt;stroke-linecap:round;stroke-linejoin:round;stroke-opacity:1" d="M 131.83,282.34 C 135.231,277.643 138.696,272.96 142.412,268.134"/>
   <path style="fill:none;stroke:#000000;stroke-width:0.5pt;stroke-linecap:round;stroke-linejoin:round;stroke-opacity:1" d="M 142.412,268.134 C 142.485,263.495 142.561,259.26 142.655,254.868"/>
   <path style="fill:none;stroke:#000000;stroke-width:0.5pt;stroke-linecap:round;stroke-linejoin:round;stroke-opacity:1" d="M 142.655,254.868 C 142.747,250.621 142.856,246.228 142.996,241.182"/>
   <path style="fill:none;stroke:#000000;stroke-width:0.5pt;stroke-linecap:round;stroke-linejoin:round;stroke-opacity:1" d="M 142.996,241.182 C 136.011,252.73 133.296,256.864 129.986,261.926"/>
   <path style="fill:none;stroke:#000000;stroke-width:0.5pt;stroke-linecap:round;stroke-linejoin:round;stroke-opacity:1" d="M 77.1423,250.361 C 69.2028,260.947 60.9166,272.554 52.7454,282.476"/>
   <path style="fill:none;stroke:#000000;stroke-width:0.5pt;stroke-linecap:round;stroke-linejoin:round;stroke-opacity:1" d="M 52.7454,282.476 C 52.6084,287.474 52.843,292.227 53.0765,296.608"/>
   <path style="fill:none;stroke:#000000;stroke-width:0.5pt;stroke-linecap:round;stroke-linejoin:round;stroke-opacity:1" d="M 53.0765,296.608 C 53.3291,301.347 53.5804,305.651 53.3581,309.355"/>
   <path style="fill:none;stroke:#000000;stroke-width:0.5pt;stroke-linecap:round;stroke-linejoin:round;stroke-opacity:1" d="M 53.3581,309.355 C 59.871,301.362 69.3534,289.049 78.5643,276.798"/>
   <path style="fill:none;stroke:#000000;stroke-width:0.5pt;stroke-linecap:round;stroke-linejoin:round;stroke-opacity:1" d="M 78.5643,276.798 C 87.5132,264.895 96.206,253.052 101.671,245.286"/>
   <path style="fill:none;stroke:#000000;stroke-width:0.5pt;stroke-linecap:round;stroke-linejoin:round;stroke-opacity:1" d="M 101.671,245.286 C 101.732,240.531 101.782,236.227 101.816,232.237"/>
   <path style="fill:none;stroke:#000000;stroke-width:0.5pt;stroke-linecap:round;stroke-linejoin:round;stroke-opacity:1" d="M 101.816,232.237 C 101.862,226.908 101.878,222.138 101.85,217.598"/>
   <path style="fill:none;stroke:#000000;stroke-width:0.5pt;stroke-linecap:round;stroke-linejoin:round;stroke-opacity:1" d="M 101.85,217.598 C 91.5854,231.569 83.9851,241.38 77.1423,250.361"/>
   <path style="fill:none;stroke:#000000;stroke-width:0.5pt;stroke-linecap:round;stroke-linejoin:round;stroke-opacity:1" d="M 2.66159,270.597 C 2.74197,275.096 2.77954,279.248 2.76776,283.577"/>
   <path style="fill:none;stroke:#000000;stroke-width:0.5pt;stroke-linecap:round;stroke-linejoin:round;stroke-opacity:1" d="M 2.76776,283.577 C 2.75704,287.515 2.70548,291.599 2.60815,296.225"/>
   <path style="fill:none;stroke:#000000;stroke-width:0.5pt;stroke-linecap:round;stroke-linejoin:round;stroke-opacity:1" d="M 55.3586,210.396 C 55.3976,215.113 55.4394,219.819 55.4475,223.902"/>
   <path style="fill:none;stroke:#000000;stroke-width:0.5pt;stroke-linecap:round;stroke-linejoin:round;stroke-opacity:1" d="M 55.4475,223.902 C 55.4604,230.437 55.7685,230.138 56.0311,234.865"/>
   <path style="fill:none;stroke:#000000;stroke-width:0.5pt;stroke-linecap:round;stroke-linejoin:round;stroke-opacity:1" d="M 388.61,377.082 C 388.564,384.546 388.428,391.325 388.257,398.177"/>
   <path style="fill:none;stroke:#000000;stroke-width:0.5pt;stroke-linecap:round;stroke-linejoin:round;stroke-opacity:1" d="M 388.257,398.177 C 388.107,404.166 387.931,410.21 387.765,416.815"/>
   <path style="fill:none;stroke:#000000;stroke-width:0.5pt;stroke-linecap:round;stroke-linejoin:round;stroke-opacity:1" d="M 424.374,333.934 C 424.374,338.316 424.374,342.8 424.374,347.21"/>
   <path style="fill:none;stroke:#000000;stroke-width:0.5pt;stroke-linecap:round;stroke-linejoin:round;stroke-opacity:1" d="M 424.374,347.21 C 424.374,352.285 424.374,357.262 424.374,361.872"/>
   <path style="fill:none;stroke:#000000;stroke-width:0.5pt;stroke-linecap:round;stroke-linejoin:round;stroke-opacity:1" d="M 545.272,446.596 C 569.386,454.96 601.275,455.656 615.865,427.517"/>
   <path style="fill:none;stroke:#000000;stroke-width:0.5pt;stroke-linecap:round;stroke-linejoin:round;stroke-opacity:1" d="M 615.865,427.517 C 624.564,410.43 611.647,389.012 591.325,376.865"/>
   <path style="fill:none;stroke:#000000;stroke-width:0.5pt;stroke-linecap:round;stroke-linejoin:round;stroke-opacity:1" d="M 591.325,376.865 C 569.03,363.537 534.894,360.548 519.864,398.089"/>
   <path style="fill:none;stroke:#000000;stroke-width:0.5pt;stroke-linecap:round;stroke-linejoin:round;stroke-opacity:1" d="M 519.864,398.089 C 508.392,426.742 527.323,440.37 545.272,446.596"/>
  </g>
  <g id="intersections">
   <circle fill="black" cx="424.374" cy="333.934" stroke="none" r="2"/>
   <circle fill="black" cx="142.996" cy="241.182" stroke="none" r="2"/>
   <circle fill="black" cx="55.3586" cy="210.396" stroke="none" r="2"/>
   <circle fill="black" cx="2.66159" cy="270.597" stroke="none" r="2"/>
   <circle fill="black" cx="114.981" cy="282.782" stroke="none" r="2"/>
   <circle fill="black" cx="388.61" cy="377.082" stroke="none" r="2"/>
   <circle fill="black" cx="523.541" cy="484.144" stroke="none" r="2"/>
   <circle fill="black" cx="740.729" cy="466.776" stroke="none" r="2"/>
   <circle fill="black" cx="662.444" cy="592.395" stroke="none" r="2"/>
   <circle fill="black" cx="663.959" cy="666.58" stroke="none" r="2"/>
   <circle fill="black" cx="814.565" cy="413.226" stroke="none" r="2"/>
   <circle fill="black" cx="815.952" cy="351.562" stroke="none" r="2"/>
   <circle fill="black" cx="867.359" cy="506.976" stroke="none" r="2"/>
   <circle fill="black" cx="865.802" cy="581.748" stroke="none" r="2"/>
   <circle fill="black" cx="405.254" cy="426.146" stroke="none" r="2"/>
   <circle fill="black" cx="131.83" cy="282.34" stroke="none" r="2"/>
   <circle fill="black" cx="26.6099" cy="269.086" stroke="none" r="2"/>
   <circle fill="black" cx="26.7107" cy="241.351" stroke="none" r="2"/>
   <circle fill="black" cx="520.623" cy="563.737" stroke="none" r="2"/>
   <circle fill="black" cx="621.595" cy="392.677" stroke="none" r="2"/>
   <circle fill="black" cx="621.336" cy="331.715" stroke="none" r="2"/>
   <circle fill="black" cx="591.325" cy="376.865" stroke="none" r="2"/>
   <circle fill="black" cx="424.374" cy="361.872" stroke="none" r="2"/>
   <circle fill="black" cx="142.412" cy="268.134" stroke="none" r="2"/>
   <circle fill="black" cx="56.0311" cy="234.865" stroke="none" r="2"/>
   <circle fill="black" cx="2.60815" cy="296.225" stroke="none" r="2"/>
   <circle fill="black" cx="115.564" cy="305.177" stroke="none" r="2"/>
   <circle fill="black" cx="387.765" cy="416.815" stroke="none" r="2"/>
   <circle fill="black" cx="521.666" cy="523.731" stroke="none" r="2"/>
   <circle fill="black" cx="424.374" cy="347.21" stroke="none" r="2"/>
   <circle fill="black" cx="142.655" cy="254.868" stroke="none" r="2"/>
   <circle fill="black" cx="55.4475" cy="223.902" stroke="none" r="2"/>
   <circle fill="black" cx="2.76776" cy="283.577" stroke="none" r="2"/>
   <circle fill="black" cx="115.383" cy="294.67" stroke="none" r="2"/>
   <circle fill="black" cx="388.257" cy="398.177" stroke="none" r="2"/>
   <circle fill="black" cx="248.036" cy="303.735" stroke="none" r="2"/>
   <circle fill="black" cx="232.064" cy="322.409" stroke="none" r="2"/>
   <circle fill="black" cx="230.756" cy="352.995" stroke="none" r="2"/>
   <circle fill="black" cx="267.146" cy="310.239" stroke="none" r="2"/>
   <circle fill="black" cx="267.272" cy="282.295" stroke="none" r="2"/>
   <circle fill="black" cx="129.986" cy="261.926" stroke="none" r="2"/>
   <circle fill="black" cx="77.1423" cy="250.361" stroke="none" r="2"/>
   <circle fill="black" cx="52.7454" cy="282.476" stroke="none" r="2"/>
   <circle fill="black" cx="53.3581" cy="309.355" stroke="none" r="2"/>
   <circle fill="black" cx="101.671" cy="245.286" stroke="none" r="2"/>
   <circle fill="black" cx="101.85" cy="217.598" stroke="none" r="2"/>
   <circle fill="black" cx="615.865" cy="427.517" stroke="none" r="2"/>
   <circle fill="black" cx="662.503" cy="628.115" stroke="none" r="2"/>
   <circle fill="black" cx="738.158" cy="540.081" stroke="none" r="2"/>
   <circle fill="black" cx="815.681" cy="384.531" stroke="none" r="2"/>
   <circle fill="black" cx="866.554" cy="546.502" stroke="none" r="2"/>
   <circle fill="black" cx="568.044" cy="483.779" stroke="none" r="2"/>
   <circle fill="black" cx="254.123" cy="325.629" stroke="none" r="2"/>
   <circle fill="black" cx="78.5643" cy="276.798" stroke="none" r="2"/>
   <circle fill="black" cx="26.206" cy="255.568" stroke="none" r="2"/>
   <circle fill="black" cx="519.864" cy="398.089" stroke="none" r="2"/>
   <circle fill="black" cx="545.272" cy="446.596" stroke="none" r="2"/>
   <circle fill="black" cx="622.169" cy="365.437" stroke="none" r="2"/>
   <circle fill="black" cx="267.132" cy="296.012" stroke="none" r="2"/>
   <circle fill="black" cx="101.816" cy="232.237" stroke="none" r="2"/>
   <circle fill="black" cx="53.0765" cy="296.608" stroke="none" r="2"/>
   <circle fill="black" cx="231.322" cy="337.869" stroke="none" r="2"/>
  </g>
 </g>
</svg>
