<!DOCTYPE svg>
<svg width="900" height="900">
 <g id="layer0">
  <g id="paths">
   <path style="fill:none;stroke:#000000;stroke-width:0.5pt;stroke-linecap:round;stroke-linejoin:round;stroke-opacity:1" d="M 742.908,445.328 C 853.229,503.476 869.423,589.3 763.958,655.349"/>
   <path style="fill:none;stroke:#000000;stroke-width:0.5pt;stroke-linecap:round;stroke-linejoin:round;stroke-opacity:1" d="M 763.958,655.349 C 668.889,714.887 510.828,749.507 409.124,759.682"/>
   <path style="fill:none;stroke:#000000;stroke-width:0.5pt;stroke-linecap:round;stroke-linejoin:round;stroke-opacity:1" d="M 409.124,759.682 C 353.701,765.227 108.723,780.248 78.0153,740.741"/>
   <path style="fill:none;stroke:#000000;stroke-width:0.5pt;stroke-linecap:round;stroke-linejoin:round;stroke-opacity:1" d="M 301.462,516.245 C 382.762,443.054 468.441,383.072 561.332,320.371"/>
   <path style="fill:none;stroke:#000000;stroke-width:0.5pt;stroke-linecap:round;stroke-linejoin:round;stroke-opacity:1" d="M 561.332,320.371 C 637.558,268.919 698.475,229.122 699.824,221.311"/>
   <path style="fill:none;stroke:#000000;stroke-width:0.5pt;stroke-linecap:round;stroke-linejoin:round;stroke-opacity:1" d="M 699.824,221.311 C 702.271,207.15 679.382,131.194 667.613,129.36"/>
   <path style="fill:none;stroke:#000000;stroke-width:0.5pt;stroke-linecap:round;stroke-linejoin:round;stroke-opacity:1" d="M 667.613,129.36 C 648.125,126.323 551.275,202.598 533.603,217.18"/>
   <path style="fill:none;stroke:#000000;stroke-width:0.5pt;stroke-linecap:round;stroke-linejoin:round;stroke-opacity:1" d="M 533.603,217.18 C 457.885,279.659 362.208,367.395 293.837,438.18"/>
   <path style="fill:none;stroke:#000000;stroke-width:0.5pt;stroke-linecap:round;stroke-linejoin:round;stroke-opacity:1" d="M 293.837,438.18 C 222.197,512.35 176.755,580.987 126.75,660.111"/>
   <path style="fill:none;stroke:#000000;stroke-width:0.5pt;stroke-linecap:round;stroke-linejoin:round;stroke-opacity:1" d="M 126.75,660.111 C 101.834,699.534 83.4461,730.543 78.0153,740.741"/>
   <path style="fill:none;stroke:#000000;stroke-width:0.5pt;stroke-linecap:round;stroke-linejoin:round;stroke-opacity:1" d="M 78.0153,740.741 C 137.689,717.536 209.797,687.629 260.306,666.194"/>
   <path style="fill:none;stroke:#000000;stroke-width:0.5pt;stroke-linecap:round;stroke-linejoin:round;stroke-opacity:1" d="M 260.306,666.194 C 354.933,626.034 452.42,585.623 544.399,543.088"/>
   <path style="fill:none;stroke:#000000;stroke-width:0.5pt;stroke-linecap:round;stroke-linejoin:round;stroke-opacity:1" d="M 544.399,543.088 C 594.027,518.648 693.281,469.768 742.908,445.328"/>
   <path style="fill:none;stroke:#000000;stroke-width:0.5pt;stroke-linecap:round;stroke-linejoin:round;stroke-opacity:1" d="M 742.908,445.328 C 743.704,433.988 743.826,411.113 742.871,387.456"/>
   <path style="fill:none;stroke:#000000;stroke-width:0.5pt;stroke-linecap:round;stroke-linejoin:round;stroke-opacity:1" d="M 742.871,387.456 C 742.13,369.076 741.877,316.918 726.161,319.077"/>
   <path style="fill:none;stroke:#000000;stroke-width:0.5pt;stroke-linecap:round;stroke-linejoin:round;stroke-opacity:1" d="M 726.161,319.077 C 716.367,320.422 607.246,387.363 582.994,401.735"/>
   <path style="fill:none;stroke:#000000;stroke-width:0.5pt;stroke-linecap:round;stroke-linejoin:round;stroke-opacity:1" d="M 582.994,401.735 C 515.011,442.195 379.044,523.116 311.061,563.577"/>
   <path style="fill:none;stroke:#000000;stroke-width:0.5pt;stroke-linecap:round;stroke-linejoin:round;stroke-opacity:1" d="M 311.061,563.577 C 172.232,642.435 218.685,590.766 301.462,516.245"/>
   <path style="fill:none;stroke:#000000;stroke-width:0.5pt;stroke-linecap:round;stroke-linejoin:round;stroke-opacity:1" d="M 533.603,217.18 C 573.926,231.726 611.966,255.113 618.365,261.511"/>
   <path style="fill:none;stroke:#000000;stroke-width:0.5pt;stroke-linecap:round;stroke-linejoin:round;stroke-opacity:1" d="M 618.365,261.511 C 638.36,281.507 640.907,315.544 643.659,353.379"/>
   <path style="fill:none;stroke:#000000;stroke-width:0.5pt;stroke-linecap:round;stroke-linejoin:round;stroke-opacity:1" d="M 643.659,353.379 C 619.283,341.957 588.624,332.281 561.332,320.371"/>
   <path style="fill:none;stroke:#000000;stroke-width:0.5pt;stroke-linecap:round;stroke-linejoin:round;stroke-opacity:1" d="M 742.871,387.456 C 837.608,437.507 851.897,512.393 756.639,574.553"/>
   <path style="fill:none;stroke:#000000;stroke-width:0.5pt;stroke-linecap:round;stroke-linejoin:round;stroke-opacity:1" d="M 756.639,574.553 C 669.661,631.309 516.265,665.559 405.045,677.21"/>
   <path style="fill:none;stroke:#000000;stroke-width:0.5pt;stroke-linecap:round;stroke-linejoin:round;stroke-opacity:1" d="M 405.045,677.21 C 357.006,682.242 154.83,701.654 126.75,660.111"/>
   <path style="fill:none;stroke:#000000;stroke-width:0.5pt;stroke-linecap:round;stroke-linejoin:round;stroke-opacity:1" d="M 582.994,401.735 C 674.864,450.979 703.111,462.196 721.804,473.394"/>
   <path style="fill:none;stroke:#000000;stroke-width:0.5pt;stroke-linecap:round;stroke-linejoin:round;stroke-opacity:1" d="M 721.804,473.394 C 733.651,479.915 748.294,534.544 756.639,574.553"/>
   <path style="fill:none;stroke:#000000;stroke-width:0.5pt;stroke-linecap:round;stroke-linejoin:round;stroke-opacity:1" d="M 756.639,574.553 C 761.767,599.134 769.294,629.526 763.958,655.349"/>
   <path style="fill:none;stroke:#000000;stroke-width:0.5pt;stroke-linecap:round;stroke-linejoin:round;stroke-opacity:1" d="M 763.958,655.349 C 726.142,635.982 605.345,574.281 544.399,543.088"/>
   <path style="fill:none;stroke:#000000;stroke-width:0.5pt;stroke-linecap:round;stroke-linejoin:round;stroke-opacity:1" d="M 699.824,221.311 C 797.521,257.603 710.762,308.332 643.659,353.379"/>
   <path style="fill:none;stroke:#000000;stroke-width:0.5pt;stroke-linecap:round;stroke-linejoin:round;stroke-opacity:1" d="M 643.659,353.379 C 547.198,418.134 457.624,466.301 357.787,543.777"/>
   <path style="fill:none;stroke:#000000;stroke-width:0.5pt;stroke-linecap:round;stroke-linejoin:round;stroke-opacity:1" d="M 357.787,543.777 C 238.039,636.706 229.857,660.703 392.514,619.596"/>
   <path style="fill:none;stroke:#000000;stroke-width:0.5pt;stroke-linecap:round;stroke-linejoin:round;stroke-opacity:1" d="M 392.514,619.596 C 488.422,595.358 651.342,538.649 721.804,473.394"/>
   <path style="fill:none;stroke:#000000;stroke-width:0.5pt;stroke-linecap:round;stroke-linejoin:round;stroke-opacity:1" d="M 721.804,473.394 C 776.355,422.874 811.539,350.091 726.161,319.077"/>
   <path style="fill:none;stroke:#000000;stroke-width:0.5pt;stroke-linecap:round;stroke-linejoin:round;stroke-opacity:1" d="M 311.061,563.577 C 377.317,604.042 386.263,610.566 392.514,619.596"/>
   <path style="fill:none;stroke:#000000;stroke-width:0.5pt;stroke-linecap:round;stroke-linejoin:round;stroke-opacity:1" d="M 392.514,619.596 C 397.262,626.454 401.7,651.616 405.045,677.21"/>
   <path style="fill:none;stroke:#000000;stroke-width:0.5pt;stroke-linecap:round;stroke-linejoin:round;stroke-opacity:1" d="M 405.045,677.21 C 408.403,702.901 413.287,731.235 409.124,759.682"/>
   <path style="fill:none;stroke:#000000;stroke-width:0.5pt;stroke-linecap:round;stroke-linejoin:round;stroke-opacity:1" d="M 409.124,759.682 C 360.202,727.661 297.489,690.424 260.306,666.194"/>
   <path style="fill:none;stroke:#000000;stroke-width:0.5pt;stroke-linecap:round;stroke-linejoin:round;stroke-opacity:1" d="M 293.837,438.18 C 315.33,448.561 325.226,456.683 331.778,463.235"/>
   <path style="fill:none;stroke:#000000;stroke-width:0.5pt;stroke-linecap:round;stroke-linejoin:round;stroke-opacity:1" d="M 331.778,463.235 C 353.468,484.926 351.843,505.083 357.787,543.777"/>
   <path style="fill:none;stroke:#000000;stroke-width:0.5pt;stroke-linecap:round;stroke-linejoin:round;stroke-opacity:1" d="M 357.787,543.777 C 336.231,532.23 320.498,526.589 301.462,516.245"/>
   <path style="fill:none;stroke:#000000;stroke-width:0.5pt;stroke-linecap:round;stroke-linejoin:round;stroke-opacity:1" d="M 331.778,463.235 C 441.171,369.913 507.763,338.27 618.365,261.511"/>
   <path style="fill:none;stroke:#000000;stroke-width:0.5pt;stroke-linecap:round;stroke-linejoin:round;stroke-opacity:1" d="M 618.365,261.511 C 658.233,233.842 782.242,160.134 667.613,129.36"/>
  </g>
  <g id="intersections">
   <circle fill="black" cx="699.824" cy="221.311" stroke="none" r="2"/>
   <circle fill="black" cx="667.613" cy="129.36" stroke="none" r="2"/>
   <circle fill="black" cx="78.0153" cy="740.741" stroke="none" r="2"/>
   <circle fill="black" cx="742.908" cy="445.328" stroke="none" r="2"/>
   <circle fill="black" cx="618.365" cy="261.511" stroke="none" r="2"/>
   <circle fill="black" cx="643.659" cy="353.379" stroke="none" r="2"/>
   <circle fill="black" cx="582.994" cy="401.735" stroke="none" r="2"/>
   <circle fill="black" cx="721.804" cy="473.394" stroke="none" r="2"/>
   <circle fill="black" cx="763.958" cy="655.349" stroke="none" r="2"/>
   <circle fill="black" cx="392.514" cy="619.596" stroke="none" r="2"/>
   <circle fill="black" cx="409.124" cy="759.682" stroke="none" r="2"/>
   <circle fill="black" cx="331.778" cy="463.235" stroke="none" r="2"/>
   <circle fill="black" cx="357.787" cy="543.777" stroke="none" r="2"/>
   <circle fill="black" cx="301.462" cy="516.245" stroke="none" r="2"/>
   <circle fill="black" cx="561.332" cy="320.371" stroke="none" r="2"/>
   <circle fill="black" cx="533.603" cy="217.18" stroke="none" r="2"/>
   <circle fill="black" cx="293.837" cy="438.18" stroke="none" r="2"/>
   <circle fill="black" cx="126.75" cy="660.111" stroke="none" r="2"/>
   <circle fill="black" cx="260.306" cy="666.194" stroke="none" r="2"/>
   <circle fill="black" cx="544.399" cy="543.088" stroke="none" r="2"/>
   <circle fill="black" cx="742.871" cy="387.456" stroke="none" r="2"/>
   <circle fill="black" cx="726.161" cy="319.077" stroke="none" r="2"/>
   <circle fill="black" cx="311.061" cy="563.577" stroke="none" r="2"/>
   <circle fill="black" cx="756.639" cy="574.553" stroke="none" r="2"/>
   <circle fill="black" cx="405.045" cy="677.21" stroke="none" r="2"/>
  </g>
 </g>
</svg>
