<!DOCTYPE svg>
<svg width="800" height="788">
 <g id="layer0">
  <g id="paths">
   <path style="fill:none;stroke:#000000;stroke-width:0.5pt;stroke-linecap:round;stroke-linejoin:round;stroke-opacity:1" d="M 264.524,60.5485 C 273.968,65.6699 278.958,74.4327 282.011,86.1738"/>
   <path style="fill:none;stroke:#000000;stroke-width:0.5pt;stroke-linecap:round;stroke-linejoin:round;stroke-opacity:1" d="M 282.011,86.1738 C 283.437,95.6995 286.289,114.751 287.714,124.276"/>
   <path style="fill:none;stroke:#000000;stroke-width:0.5pt;stroke-linecap:round;stroke-linejoin:round;stroke-opacity:1" d="M 287.714,124.276 C 293.287,191.732 288.252,358.979 279.014,423.935"/>
   <path style="fill:none;stroke:#000000;stroke-width:0.5pt;stroke-linecap:round;stroke-linejoin:round;stroke-opacity:1" d="M 279.014,423.935 C 267.595,504.234 202.352,428.822 195.398,521.752"/>
   <path style="fill:none;stroke:#000000;stroke-width:0.5pt;stroke-linecap:round;stroke-linejoin:round;stroke-opacity:1" d="M 195.398,521.752 C 191.782,570.081 189.745,625.601 204.776,652.563"/>
   <path style="fill:none;stroke:#000000;stroke-width:0.5pt;stroke-linecap:round;stroke-linejoin:round;stroke-opacity:1" d="M 204.776,652.563 C 210.715,663.215 219.003,672.758 228.662,681.259"/>
   <path style="fill:none;stroke:#000000;stroke-width:0.5pt;stroke-linecap:round;stroke-linejoin:round;stroke-opacity:1" d="M 228.662,681.259 C 242.814,693.715 259.682,703.969 276.502,712.081"/>
   <path style="fill:none;stroke:#000000;stroke-width:0.5pt;stroke-linecap:round;stroke-linejoin:round;stroke-opacity:1" d="M 422.008,46.5452 C 432.074,52.8926 439.014,61.524 443.821,71.519"/>
   <path style="fill:none;stroke:#000000;stroke-width:0.5pt;stroke-linecap:round;stroke-linejoin:round;stroke-opacity:1" d="M 443.821,71.519 C 449.439,83.1983 452.181,96.6996 453.836,110.44"/>
   <path style="fill:none;stroke:#000000;stroke-width:0.5pt;stroke-linecap:round;stroke-linejoin:round;stroke-opacity:1" d="M 453.836,110.44 C 461.679,175.54 454.457,327.414 448.619,400.047"/>
   <path style="fill:none;stroke:#000000;stroke-width:0.5pt;stroke-linecap:round;stroke-linejoin:round;stroke-opacity:1" d="M 448.619,400.047 C 442.53,475.82 391.861,413.77 372.501,503.165"/>
   <path style="fill:none;stroke:#000000;stroke-width:0.5pt;stroke-linecap:round;stroke-linejoin:round;stroke-opacity:1" d="M 372.501,503.165 C 367.219,527.554 370.464,597.243 379.961,621.288"/>
   <path style="fill:none;stroke:#000000;stroke-width:0.5pt;stroke-linecap:round;stroke-linejoin:round;stroke-opacity:1" d="M 379.961,621.288 C 384.294,632.261 391.117,641.371 402.149,649.947"/>
   <path style="fill:none;stroke:#000000;stroke-width:0.5pt;stroke-linecap:round;stroke-linejoin:round;stroke-opacity:1" d="M 402.149,649.947 C 414.351,659.434 431.901,668.285 457.234,678.185"/>
   <path style="fill:none;stroke:#000000;stroke-width:0.5pt;stroke-linecap:round;stroke-linejoin:round;stroke-opacity:1" d="M 565.651,36.9284 C 575.434,42.3881 582.903,50.6442 588.519,60.772"/>
   <path style="fill:none;stroke:#000000;stroke-width:0.5pt;stroke-linecap:round;stroke-linejoin:round;stroke-opacity:1" d="M 588.519,60.772 C 594.682,71.8887 598.383,85.2868 600.342,99.7772"/>
   <path style="fill:none;stroke:#000000;stroke-width:0.5pt;stroke-linecap:round;stroke-linejoin:round;stroke-opacity:1" d="M 600.342,99.7772 C 607.602,153.479 596.949,315.978 591.515,375.01"/>
   <path style="fill:none;stroke:#000000;stroke-width:0.5pt;stroke-linecap:round;stroke-linejoin:round;stroke-opacity:1" d="M 591.515,375.01 C 582.356,474.519 542.778,388.683 511.084,475.597"/>
   <path style="fill:none;stroke:#000000;stroke-width:0.5pt;stroke-linecap:round;stroke-linejoin:round;stroke-opacity:1" d="M 511.084,475.597 C 507.84,484.494 502.422,561.223 520.655,597.22"/>
   <path style="fill:none;stroke:#000000;stroke-width:0.5pt;stroke-linecap:round;stroke-linejoin:round;stroke-opacity:1" d="M 520.655,597.22 C 526.59,608.935 535.201,617.83 547.974,625.673"/>
   <path style="fill:none;stroke:#000000;stroke-width:0.5pt;stroke-linecap:round;stroke-linejoin:round;stroke-opacity:1" d="M 547.974,625.673 C 561.636,634.061 580.122,641.293 605.015,649.661"/>
   <path style="fill:none;stroke:#000000;stroke-width:0.5pt;stroke-linecap:round;stroke-linejoin:round;stroke-opacity:1" d="M 240.4,90.4052 C 253.718,89.0125 267.541,87.6045 282.011,86.1738"/>
   <path style="fill:none;stroke:#000000;stroke-width:0.5pt;stroke-linecap:round;stroke-linejoin:round;stroke-opacity:1" d="M 282.011,86.1738 C 332.369,81.195 388.679,76.0838 443.821,71.519"/>
   <path style="fill:none;stroke:#000000;stroke-width:0.5pt;stroke-linecap:round;stroke-linejoin:round;stroke-opacity:1" d="M 443.821,71.519 C 494.948,67.2866 545.072,63.5239 588.519,60.772"/>
   <path style="fill:none;stroke:#000000;stroke-width:0.5pt;stroke-linecap:round;stroke-linejoin:round;stroke-opacity:1" d="M 588.519,60.772 C 605.952,59.6677 622.14,58.7451 637.057,58.0013"/>
   <path style="fill:none;stroke:#000000;stroke-width:0.5pt;stroke-linecap:round;stroke-linejoin:round;stroke-opacity:1" d="M 245.974,127.876 C 259.975,126.599 273.884,125.503 287.714,124.276"/>
   <path style="fill:none;stroke:#000000;stroke-width:0.5pt;stroke-linecap:round;stroke-linejoin:round;stroke-opacity:1" d="M 287.714,124.276 C 343.868,119.298 398.78,114.719 453.836,110.44"/>
   <path style="fill:none;stroke:#000000;stroke-width:0.5pt;stroke-linecap:round;stroke-linejoin:round;stroke-opacity:1" d="M 453.836,110.44 C 502.245,106.677 550.767,103.146 600.342,99.7772"/>
   <path style="fill:none;stroke:#000000;stroke-width:0.5pt;stroke-linecap:round;stroke-linejoin:round;stroke-opacity:1" d="M 600.342,99.7772 C 615.301,98.7607 630.393,97.7353 645.57,96.7465"/>
   <path style="fill:none;stroke:#000000;stroke-width:0.5pt;stroke-linecap:round;stroke-linejoin:round;stroke-opacity:1" d="M 236.347,429.831 C 250.821,427.89 265.056,425.8 279.014,423.935"/>
   <path style="fill:none;stroke:#000000;stroke-width:0.5pt;stroke-linecap:round;stroke-linejoin:round;stroke-opacity:1" d="M 279.014,423.935 C 338.165,416.035 393.207,408.625 448.619,400.047"/>
   <path style="fill:none;stroke:#000000;stroke-width:0.5pt;stroke-linecap:round;stroke-linejoin:round;stroke-opacity:1" d="M 448.619,400.047 C 495.109,392.85 541.859,384.831 591.515,375.01"/>
   <path style="fill:none;stroke:#000000;stroke-width:0.5pt;stroke-linecap:round;stroke-linejoin:round;stroke-opacity:1" d="M 591.515,375.01 C 606.873,371.972 622.557,368.868 638.549,365.456"/>
   <path style="fill:none;stroke:#000000;stroke-width:0.5pt;stroke-linecap:round;stroke-linejoin:round;stroke-opacity:1" d="M 166.474,660.305 C 179.24,657.658 192.026,655.059 204.776,652.563"/>
   <path style="fill:none;stroke:#000000;stroke-width:0.5pt;stroke-linecap:round;stroke-linejoin:round;stroke-opacity:1" d="M 204.776,652.563 C 263.778,641.01 322.501,630.958 379.961,621.288"/>
   <path style="fill:none;stroke:#000000;stroke-width:0.5pt;stroke-linecap:round;stroke-linejoin:round;stroke-opacity:1" d="M 379.961,621.288 C 427.931,613.215 475.02,605.409 520.655,597.22"/>
   <path style="fill:none;stroke:#000000;stroke-width:0.5pt;stroke-linecap:round;stroke-linejoin:round;stroke-opacity:1" d="M 520.655,597.22 C 537.198,594.251 552.811,591.431 568.944,588.331"/>
   <path style="fill:none;stroke:#000000;stroke-width:0.5pt;stroke-linecap:round;stroke-linejoin:round;stroke-opacity:1" d="M 188.741,689.704 C 202.09,686.794 215.42,683.948 228.662,681.259"/>
   <path style="fill:none;stroke:#000000;stroke-width:0.5pt;stroke-linecap:round;stroke-linejoin:round;stroke-opacity:1" d="M 228.662,681.259 C 287.01,669.41 344.445,659.52 402.149,649.947"/>
   <path style="fill:none;stroke:#000000;stroke-width:0.5pt;stroke-linecap:round;stroke-linejoin:round;stroke-opacity:1" d="M 402.149,649.947 C 450.34,641.953 498.718,634.18 547.974,625.673"/>
   <path style="fill:none;stroke:#000000;stroke-width:0.5pt;stroke-linecap:round;stroke-linejoin:round;stroke-opacity:1" d="M 547.974,625.673 C 565.115,622.712 582.278,619.673 599.661,616.494"/>
   <path style="fill:none;stroke:#000000;stroke-width:0.5pt;stroke-linecap:round;stroke-linejoin:round;stroke-opacity:1" d="M 230.488,720.714 C 245.021,717.984 260.301,715.111 276.502,712.081"/>
   <path style="fill:none;stroke:#000000;stroke-width:0.5pt;stroke-linecap:round;stroke-linejoin:round;stroke-opacity:1" d="M 276.502,712.081 C 332.39,701.626 396.513,689.668 457.234,678.185"/>
   <path style="fill:none;stroke:#000000;stroke-width:0.5pt;stroke-linecap:round;stroke-linejoin:round;stroke-opacity:1" d="M 457.234,678.185 C 512.146,667.801 564.276,657.805 605.015,649.661"/>
   <path style="fill:none;stroke:#000000;stroke-width:0.5pt;stroke-linecap:round;stroke-linejoin:round;stroke-opacity:1" d="M 605.015,649.661 C 625.072,645.651 641.809,642.123 655.318,639.185"/>
   <path style="fill:none;stroke:#000000;stroke-width:0.5pt;stroke-linecap:round;stroke-linejoin:round;stroke-opacity:1" d="M 219.66,65.8437 C 232.886,64.0778 247.945,62.3304 264.524,60.5485"/>
   <path style="fill:none;stroke:#000000;stroke-width:0.5pt;stroke-linecap:round;stroke-linejoin:round;stroke-opacity:1" d="M 264.524,60.5485 C 310.405,55.6175 366.935,50.7394 422.008,46.5452"/>
   <path style="fill:none;stroke:#000000;stroke-width:0.5pt;stroke-linecap:round;stroke-linejoin:round;stroke-opacity:1" d="M 422.008,46.5452 C 474.775,42.5267 526.205,39.1361 565.651,36.9284"/>
   <path style="fill:none;stroke:#000000;stroke-width:0.5pt;stroke-linecap:round;stroke-linejoin:round;stroke-opacity:1" d="M 565.651,36.9284 C 586.84,35.7425 604.598,34.8717 617.22,34.4545"/>
   <path style="fill:none;stroke:#000000;stroke-width:0.5pt;stroke-linecap:round;stroke-linejoin:round;stroke-opacity:1" d="M 219.66,65.8437 C 230.894,70.0692 236.856,78.6257 240.4,90.4052"/>
   <path style="fill:none;stroke:#000000;stroke-width:0.5pt;stroke-linecap:round;stroke-linejoin:round;stroke-opacity:1" d="M 240.4,90.4052 C 243.947,102.196 244.846,112.707 245.974,127.876"/>
   <path style="fill:none;stroke:#000000;stroke-width:0.5pt;stroke-linecap:round;stroke-linejoin:round;stroke-opacity:1" d="M 245.974,127.876 C 251.522,202.516 245.775,370.686 236.347,429.831"/>
   <path style="fill:none;stroke:#000000;stroke-width:0.5pt;stroke-linecap:round;stroke-linejoin:round;stroke-opacity:1" d="M 236.347,429.831 C 225.621,497.111 159.302,418.594 156.504,530.326"/>
   <path style="fill:none;stroke:#000000;stroke-width:0.5pt;stroke-linecap:round;stroke-linejoin:round;stroke-opacity:1" d="M 156.504,530.326 C 155.401,574.361 152.612,634.697 166.474,660.305"/>
   <path style="fill:none;stroke:#000000;stroke-width:0.5pt;stroke-linecap:round;stroke-linejoin:round;stroke-opacity:1" d="M 166.474,660.305 C 172.329,671.121 179.919,680.889 188.741,689.704"/>
   <path style="fill:none;stroke:#000000;stroke-width:0.5pt;stroke-linecap:round;stroke-linejoin:round;stroke-opacity:1" d="M 188.741,689.704 C 200.786,701.738 215.128,711.995 230.488,720.714"/>
   <path style="fill:none;stroke:#000000;stroke-width:0.5pt;stroke-linecap:round;stroke-linejoin:round;stroke-opacity:1" d="M 617.22,34.4545 C 626.388,39.8939 632.68,47.8239 637.057,58.0013"/>
   <path style="fill:none;stroke:#000000;stroke-width:0.5pt;stroke-linecap:round;stroke-linejoin:round;stroke-opacity:1" d="M 637.057,58.0013 C 641.605,68.5795 644.084,81.5856 645.57,96.7465"/>
   <path style="fill:none;stroke:#000000;stroke-width:0.5pt;stroke-linecap:round;stroke-linejoin:round;stroke-opacity:1" d="M 645.57,96.7465 C 651.761,159.918 645.726,291.021 638.549,365.456"/>
   <path style="fill:none;stroke:#000000;stroke-width:0.5pt;stroke-linecap:round;stroke-linejoin:round;stroke-opacity:1" d="M 638.549,365.456 C 627.606,478.951 594.154,381.125 557.542,468.257"/>
   <path style="fill:none;stroke:#000000;stroke-width:0.5pt;stroke-linecap:round;stroke-linejoin:round;stroke-opacity:1" d="M 557.542,468.257 C 557.42,468.548 547.472,549.751 568.944,588.331"/>
   <path style="fill:none;stroke:#000000;stroke-width:0.5pt;stroke-linecap:round;stroke-linejoin:round;stroke-opacity:1" d="M 568.944,588.331 C 575.679,600.431 585.427,608.859 599.661,616.494"/>
   <path style="fill:none;stroke:#000000;stroke-width:0.5pt;stroke-linecap:round;stroke-linejoin:round;stroke-opacity:1" d="M 599.661,616.494 C 613.513,623.924 631.613,630.603 655.318,639.185"/>
  </g>
  <g id="intersections">
   <circle fill="black" cx="568.944" cy="588.331" stroke="none" r="2"/>
   <circle fill="black" cx="264.524" cy="60.5485" stroke="none" r="2"/>
   <circle fill="black" cx="282.011" cy="86.1738" stroke="none" r="2"/>
   <circle fill="black" cx="287.714" cy="124.276" stroke="none" r="2"/>
   <circle fill="black" cx="279.014" cy="423.935" stroke="none" r="2"/>
   <circle fill="black" cx="204.776" cy="652.563" stroke="none" r="2"/>
   <circle fill="black" cx="228.662" cy="681.259" stroke="none" r="2"/>
   <circle fill="black" cx="276.502" cy="712.081" stroke="none" r="2"/>
   <circle fill="black" cx="422.008" cy="46.5452" stroke="none" r="2"/>
   <circle fill="black" cx="443.821" cy="71.519" stroke="none" r="2"/>
   <circle fill="black" cx="453.836" cy="110.44" stroke="none" r="2"/>
   <circle fill="black" cx="448.619" cy="400.047" stroke="none" r="2"/>
   <circle fill="black" cx="379.961" cy="621.288" stroke="none" r="2"/>
   <circle fill="black" cx="402.149" cy="649.947" stroke="none" r="2"/>
   <circle fill="black" cx="457.234" cy="678.185" stroke="none" r="2"/>
   <circle fill="black" cx="565.651" cy="36.9284" stroke="none" r="2"/>
   <circle fill="black" cx="588.519" cy="60.772" stroke="none" r="2"/>
   <circle fill="black" cx="600.342" cy="99.7772" stroke="none" r="2"/>
   <circle fill="black" cx="591.515" cy="375.01" stroke="none" r="2"/>
   <circle fill="black" cx="520.655" cy="597.22" stroke="none" r="2"/>
   <circle fill="black" cx="547.974" cy="625.673" stroke="none" r="2"/>
   <circle fill="black" cx="605.015" cy="649.661" stroke="none" r="2"/>
   <circle fill="black" cx="240.4" cy="90.4052" stroke="none" r="2"/>
   <circle fill="black" cx="637.057" cy="58.0013" stroke="none" r="2"/>
   <circle fill="black" cx="245.974" cy="127.876" stroke="none" r="2"/>
   <circle fill="black" cx="645.57" cy="96.7465" stroke="none" r="2"/>
   <circle fill="black" cx="236.347" cy="429.831" stroke="none" r="2"/>
   <circle fill="black" cx="638.549" cy="365.456" stroke="none" r="2"/>
   <circle fill="black" cx="166.474" cy="660.305" stroke="none" r="2"/>
   <circle fill="black" cx="188.741" cy="689.704" stroke="none" r="2"/>
   <circle fill="black" cx="599.661" cy="616.494" stroke="none" r="2"/>
  </g>
 </g>
</svg>
