<!DOCTYPE svg>
<svg width="900" height="900">
 <g id="layer0">
  <g id="paths">
   <path style="fill:none;stroke:#000000;stroke-width:0.5pt;stroke-linecap:round;stroke-linejoin:round;stroke-opacity:1" d="M 97.9097,601.104 C 109.001,615.494 118.797,628.431 128.614,639.883"/>
   <path style="fill:none;stroke:#000000;stroke-width:0.5pt;stroke-linecap:round;stroke-linejoin:round;stroke-opacity:1" d="M 128.614,639.883 C 144.698,658.647 160.87,673.382 182.837,684.023"/>
   <path style="fill:none;stroke:#000000;stroke-width:0.5pt;stroke-linecap:round;stroke-linejoin:round;stroke-opacity:1" d="M 182.837,684.023 C 213.724,698.986 244.535,702.973 268.684,691.568"/>
   <path style="fill:none;stroke:#000000;stroke-width:0.5pt;stroke-linecap:round;stroke-linejoin:round;stroke-opacity:1" d="M 268.684,691.568 C 301.844,675.907 288.235,654.018 302.864,648.227"/>
   <path style="fill:none;stroke:#000000;stroke-width:0.5pt;stroke-linecap:round;stroke-linejoin:round;stroke-opacity:1" d="M 302.864,648.227 C 335.901,635.148 455.484,604.942 500.773,594.417"/>
   <path style="fill:none;stroke:#000000;stroke-width:0.5pt;stroke-linecap:round;stroke-linejoin:round;stroke-opacity:1" d="M 500.773,594.417 C 568.396,578.702 626.935,557.665 654.265,516.911"/>
   <path style="fill:none;stroke:#000000;stroke-width:0.5pt;stroke-linecap:round;stroke-linejoin:round;stroke-opacity:1" d="M 654.265,516.911 C 656.766,488.056 660.061,443.326 662.493,400.143"/>
   <path style="fill:none;stroke:#000000;stroke-width:0.5pt;stroke-linecap:round;stroke-linejoin:round;stroke-opacity:1" d="M 662.493,400.143 C 665.897,339.721 667.701,283.327 662.746,279.83"/>
   <path style="fill:none;stroke:#000000;stroke-width:0.5pt;stroke-linecap:round;stroke-linejoin:round;stroke-opacity:1" d="M 662.746,279.83 C 641.982,266.394 609.387,277.776 577.343,288.969"/>
   <path style="fill:none;stroke:#000000;stroke-width:0.5pt;stroke-linecap:round;stroke-linejoin:round;stroke-opacity:1" d="M 577.343,288.969 C 559.393,294.215 523.493,304.706 505.542,309.951"/>
   <path style="fill:none;stroke:#000000;stroke-width:0.5pt;stroke-linecap:round;stroke-linejoin:round;stroke-opacity:1" d="M 505.542,309.951 C 480.907,316.793 456.375,323.872 432.701,330.716"/>
   <path style="fill:none;stroke:#000000;stroke-width:0.5pt;stroke-linecap:round;stroke-linejoin:round;stroke-opacity:1" d="M 432.701,330.716 C 416.902,335.283 295.742,366.785 285.354,376.02"/>
   <path style="fill:none;stroke:#000000;stroke-width:0.5pt;stroke-linecap:round;stroke-linejoin:round;stroke-opacity:1" d="M 285.354,376.02 C 286.343,393.831 279.387,424.536 250.018,434.903"/>
   <path style="fill:none;stroke:#000000;stroke-width:0.5pt;stroke-linecap:round;stroke-linejoin:round;stroke-opacity:1" d="M 250.018,434.903 C 197.623,453.399 178.098,411.971 157.189,382.839"/>
   <path style="fill:none;stroke:#000000;stroke-width:0.5pt;stroke-linecap:round;stroke-linejoin:round;stroke-opacity:1" d="M 157.189,382.839 C 146.733,368.271 131.439,358.738 114.527,347.951"/>
   <path style="fill:none;stroke:#000000;stroke-width:0.5pt;stroke-linecap:round;stroke-linejoin:round;stroke-opacity:1" d="M 114.527,347.951 C 104.038,341.262 92.2644,334.13 79.7657,326.5"/>
   <path style="fill:none;stroke:#000000;stroke-width:0.5pt;stroke-linecap:round;stroke-linejoin:round;stroke-opacity:1" d="M 115.478,517.465 C 138.758,542.807 147.715,553.416 174.524,563.357"/>
   <path style="fill:none;stroke:#000000;stroke-width:0.5pt;stroke-linecap:round;stroke-linejoin:round;stroke-opacity:1" d="M 174.524,563.357 C 196.677,571.572 225.4,574.384 262.062,563.521"/>
   <path style="fill:none;stroke:#000000;stroke-width:0.5pt;stroke-linecap:round;stroke-linejoin:round;stroke-opacity:1" d="M 262.062,563.521 C 287.109,556.694 294.88,530.345 295.876,514.466"/>
   <path style="fill:none;stroke:#000000;stroke-width:0.5pt;stroke-linecap:round;stroke-linejoin:round;stroke-opacity:1" d="M 295.876,514.466 C 296.935,497.588 462.583,454.706 500.804,444.029"/>
   <path style="fill:none;stroke:#000000;stroke-width:0.5pt;stroke-linecap:round;stroke-linejoin:round;stroke-opacity:1" d="M 500.804,444.029 C 569.351,424.879 642.082,405.95 662.493,400.143"/>
   <path style="fill:none;stroke:#000000;stroke-width:0.5pt;stroke-linecap:round;stroke-linejoin:round;stroke-opacity:1" d="M 662.493,400.143 C 646.409,389.688 633.329,377.684 620.307,366.962"/>
   <path style="fill:none;stroke:#000000;stroke-width:0.5pt;stroke-linecap:round;stroke-linejoin:round;stroke-opacity:1" d="M 620.307,366.962 C 604.977,354.339 589.574,343.543 576.635,337.231"/>
   <path style="fill:none;stroke:#000000;stroke-width:0.5pt;stroke-linecap:round;stroke-linejoin:round;stroke-opacity:1" d="M 576.635,337.231 C 552.096,344.388 473.928,366.172 384.564,391.067"/>
   <path style="fill:none;stroke:#000000;stroke-width:0.5pt;stroke-linecap:round;stroke-linejoin:round;stroke-opacity:1" d="M 384.564,391.067 C 305.369,413.128 218.206,437.085 152.587,455.576"/>
   <path style="fill:none;stroke:#000000;stroke-width:0.5pt;stroke-linecap:round;stroke-linejoin:round;stroke-opacity:1" d="M 152.587,455.576 C 123.175,463.864 99.6746,472.84 81.8055,478.017"/>
   <path style="fill:none;stroke:#000000;stroke-width:0.5pt;stroke-linecap:round;stroke-linejoin:round;stroke-opacity:1" d="M 81.8055,478.017 C 93.3084,490.489 105.969,507.113 115.478,517.465"/>
   <path style="fill:none;stroke:#000000;stroke-width:0.5pt;stroke-linecap:round;stroke-linejoin:round;stroke-opacity:1" d="M 285.354,376.02 C 290.52,437.881 293.484,476.375 295.876,514.466"/>
   <path style="fill:none;stroke:#000000;stroke-width:0.5pt;stroke-linecap:round;stroke-linejoin:round;stroke-opacity:1" d="M 295.876,514.466 C 298.239,552.077 300.044,589.295 302.864,648.227"/>
   <path style="fill:none;stroke:#000000;stroke-width:0.5pt;stroke-linecap:round;stroke-linejoin:round;stroke-opacity:1" d="M 71.4117,340.291 C 83.8127,347.796 95.971,355.366 107.24,363.645"/>
   <path style="fill:none;stroke:#000000;stroke-width:0.5pt;stroke-linecap:round;stroke-linejoin:round;stroke-opacity:1" d="M 107.24,363.645 C 177.065,414.944 168.424,477.273 174.524,563.357"/>
   <path style="fill:none;stroke:#000000;stroke-width:0.5pt;stroke-linecap:round;stroke-linejoin:round;stroke-opacity:1" d="M 174.524,563.357 C 177.277,602.203 179.845,641.468 182.837,684.023"/>
   <path style="fill:none;stroke:#000000;stroke-width:0.5pt;stroke-linecap:round;stroke-linejoin:round;stroke-opacity:1" d="M 386.732,509.77 C 446.429,491.646 537.472,463.238 575.431,452.045"/>
   <path style="fill:none;stroke:#000000;stroke-width:0.5pt;stroke-linecap:round;stroke-linejoin:round;stroke-opacity:1" d="M 575.431,452.045 C 576.34,415.997 576.832,376.174 576.635,337.231"/>
   <path style="fill:none;stroke:#000000;stroke-width:0.5pt;stroke-linecap:round;stroke-linejoin:round;stroke-opacity:1" d="M 576.635,337.231 C 576.507,312.06 580.787,231.652 564.373,224.935"/>
   <path style="fill:none;stroke:#000000;stroke-width:0.5pt;stroke-linecap:round;stroke-linejoin:round;stroke-opacity:1" d="M 564.373,224.935 C 547.617,218.077 481.17,233.981 456.129,238.923"/>
   <path style="fill:none;stroke:#000000;stroke-width:0.5pt;stroke-linecap:round;stroke-linejoin:round;stroke-opacity:1" d="M 456.129,238.923 C 433.415,243.406 408.838,248.39 383.522,253.625"/>
   <path style="fill:none;stroke:#000000;stroke-width:0.5pt;stroke-linecap:round;stroke-linejoin:round;stroke-opacity:1" d="M 383.522,253.625 C 362.728,257.925 341.435,262.394 320.264,266.893"/>
   <path style="fill:none;stroke:#000000;stroke-width:0.5pt;stroke-linecap:round;stroke-linejoin:round;stroke-opacity:1" d="M 320.264,266.893 C 248.709,282.103 178.555,297.663 133.826,308.226"/>
   <path style="fill:none;stroke:#000000;stroke-width:0.5pt;stroke-linecap:round;stroke-linejoin:round;stroke-opacity:1" d="M 133.826,308.226 C 124.74,310.372 88.7191,316.678 79.7657,326.5"/>
   <path style="fill:none;stroke:#000000;stroke-width:0.5pt;stroke-linecap:round;stroke-linejoin:round;stroke-opacity:1" d="M 79.7657,326.5 C 76.4604,330.126 73.9089,334.703 71.4117,340.291"/>
   <path style="fill:none;stroke:#000000;stroke-width:0.5pt;stroke-linecap:round;stroke-linejoin:round;stroke-opacity:1" d="M 71.4117,340.291 C 61.0728,363.428 76.3758,439.173 81.8055,478.017"/>
   <path style="fill:none;stroke:#000000;stroke-width:0.5pt;stroke-linecap:round;stroke-linejoin:round;stroke-opacity:1" d="M 81.8055,478.017 C 88.3285,524.683 94.4988,568.856 97.9097,601.104"/>
   <path style="fill:none;stroke:#000000;stroke-width:0.5pt;stroke-linecap:round;stroke-linejoin:round;stroke-opacity:1" d="M 97.9097,601.104 C 114.377,595.886 139.007,588.055 166.719,579.236"/>
   <path style="fill:none;stroke:#000000;stroke-width:0.5pt;stroke-linecap:round;stroke-linejoin:round;stroke-opacity:1" d="M 166.719,579.236 C 221.722,561.87 331.728,527.136 386.732,509.77"/>
   <path style="fill:none;stroke:#000000;stroke-width:0.5pt;stroke-linecap:round;stroke-linejoin:round;stroke-opacity:1" d="M 575.431,452.045 C 587.059,461.679 599.396,471.902 611.483,481.879"/>
   <path style="fill:none;stroke:#000000;stroke-width:0.5pt;stroke-linecap:round;stroke-linejoin:round;stroke-opacity:1" d="M 611.483,481.879 C 626.796,494.518 641.707,506.762 654.265,516.911"/>
   <path style="fill:none;stroke:#000000;stroke-width:0.5pt;stroke-linecap:round;stroke-linejoin:round;stroke-opacity:1" d="M 564.373,224.935 C 581.806,234.297 599.061,243.78 616.082,253.355"/>
   <path style="fill:none;stroke:#000000;stroke-width:0.5pt;stroke-linecap:round;stroke-linejoin:round;stroke-opacity:1" d="M 616.082,253.355 C 631.832,262.216 647.38,271.172 662.746,279.83"/>
   <path style="fill:none;stroke:#000000;stroke-width:0.5pt;stroke-linecap:round;stroke-linejoin:round;stroke-opacity:1" d="M 164.763,306.22 C 168.179,309.366 173.117,321.802 174.865,325.181"/>
   <path style="fill:none;stroke:#000000;stroke-width:0.5pt;stroke-linecap:round;stroke-linejoin:round;stroke-opacity:1" d="M 174.865,325.181 C 176.809,327.071 179.27,329.642 179.97,332.963"/>
   <path style="fill:none;stroke:#000000;stroke-width:0.5pt;stroke-linecap:round;stroke-linejoin:round;stroke-opacity:1" d="M 179.97,332.963 C 188.696,337.569 194.335,342.519 198.227,347.184"/>
   <path style="fill:none;stroke:#000000;stroke-width:0.5pt;stroke-linecap:round;stroke-linejoin:round;stroke-opacity:1" d="M 198.227,347.184 C 203.706,353.752 205.075,358.593 207.156,362.175"/>
   <path style="fill:none;stroke:#000000;stroke-width:0.5pt;stroke-linecap:round;stroke-linejoin:round;stroke-opacity:1" d="M 207.156,362.175 C 213.412,364.678 219.09,370.253 223.068,375.673"/>
   <path style="fill:none;stroke:#000000;stroke-width:0.5pt;stroke-linecap:round;stroke-linejoin:round;stroke-opacity:1" d="M 223.068,375.673 C 232.704,388.799 231.611,404.099 238.627,414.063"/>
   <path style="fill:none;stroke:#000000;stroke-width:0.5pt;stroke-linecap:round;stroke-linejoin:round;stroke-opacity:1" d="M 238.627,414.063 C 240.806,417.158 242.995,420.717 244.893,423.98"/>
   <path style="fill:none;stroke:#000000;stroke-width:0.5pt;stroke-linecap:round;stroke-linejoin:round;stroke-opacity:1" d="M 244.893,423.98 C 247.161,427.878 249.028,431.686 250.018,434.903"/>
   <path style="fill:none;stroke:#000000;stroke-width:0.5pt;stroke-linecap:round;stroke-linejoin:round;stroke-opacity:1" d="M 250.018,434.903 C 251.769,454.747 261.479,516.245 262.062,563.521"/>
   <path style="fill:none;stroke:#000000;stroke-width:0.5pt;stroke-linecap:round;stroke-linejoin:round;stroke-opacity:1" d="M 262.062,563.521 C 260.311,602.626 261.096,640.206 268.684,691.568"/>
   <path style="fill:none;stroke:#000000;stroke-width:0.5pt;stroke-linecap:round;stroke-linejoin:round;stroke-opacity:1" d="M 268.684,691.568 C 250.402,668.532 225.366,639.572 202.801,615.558"/>
   <path style="fill:none;stroke:#000000;stroke-width:0.5pt;stroke-linecap:round;stroke-linejoin:round;stroke-opacity:1" d="M 202.801,615.558 C 189.347,601.239 177.183,589.919 166.719,579.236"/>
   <path style="fill:none;stroke:#000000;stroke-width:0.5pt;stroke-linecap:round;stroke-linejoin:round;stroke-opacity:1" d="M 166.719,579.236 C 164.477,554.862 158.826,506.505 152.587,455.576"/>
   <path style="fill:none;stroke:#000000;stroke-width:0.5pt;stroke-linecap:round;stroke-linejoin:round;stroke-opacity:1" d="M 152.587,455.576 C 145.828,400.406 138.379,342.217 133.826,308.226"/>
   <path style="fill:none;stroke:#000000;stroke-width:0.5pt;stroke-linecap:round;stroke-linejoin:round;stroke-opacity:1" d="M 133.826,308.226 C 133.885,306.041 140.559,308.323 140.928,305.199"/>
   <path style="fill:none;stroke:#000000;stroke-width:0.5pt;stroke-linecap:round;stroke-linejoin:round;stroke-opacity:1" d="M 140.928,305.199 C 143.048,301.634 140.963,303.62 145.224,301.085"/>
   <path style="fill:none;stroke:#000000;stroke-width:0.5pt;stroke-linecap:round;stroke-linejoin:round;stroke-opacity:1" d="M 145.224,301.085 C 152.156,296.961 160.724,302.083 164.763,306.22"/>
   <path style="fill:none;stroke:#000000;stroke-width:0.5pt;stroke-linecap:round;stroke-linejoin:round;stroke-opacity:1" d="M 383.522,253.625 C 431.297,248.351 472.585,252.261 498.624,259.774"/>
   <path style="fill:none;stroke:#000000;stroke-width:0.5pt;stroke-linecap:round;stroke-linejoin:round;stroke-opacity:1" d="M 498.624,259.774 C 503.2,261.094 519.498,269.514 530.634,281.146"/>
   <path style="fill:none;stroke:#000000;stroke-width:0.5pt;stroke-linecap:round;stroke-linejoin:round;stroke-opacity:1" d="M 530.634,281.146 C 520.351,291.579 515.034,299.919 505.542,309.951"/>
   <path style="fill:none;stroke:#000000;stroke-width:0.5pt;stroke-linecap:round;stroke-linejoin:round;stroke-opacity:1" d="M 505.542,309.951 C 498.729,317.154 500.877,423.881 500.804,444.029"/>
   <path style="fill:none;stroke:#000000;stroke-width:0.5pt;stroke-linecap:round;stroke-linejoin:round;stroke-opacity:1" d="M 500.804,444.029 C 500.592,502.083 500.467,564.038 500.773,594.417"/>
   <path style="fill:none;stroke:#000000;stroke-width:0.5pt;stroke-linecap:round;stroke-linejoin:round;stroke-opacity:1" d="M 500.773,594.417 C 473.555,574.502 449.166,556.94 428.747,541.942"/>
   <path style="fill:none;stroke:#000000;stroke-width:0.5pt;stroke-linecap:round;stroke-linejoin:round;stroke-opacity:1" d="M 428.747,541.942 C 413.26,530.568 400.829,521.35 386.732,509.77"/>
   <path style="fill:none;stroke:#000000;stroke-width:0.5pt;stroke-linecap:round;stroke-linejoin:round;stroke-opacity:1" d="M 386.732,509.77 C 387.278,467.705 384.449,419.553 384.564,391.067"/>
   <path style="fill:none;stroke:#000000;stroke-width:0.5pt;stroke-linecap:round;stroke-linejoin:round;stroke-opacity:1" d="M 384.564,391.067 C 384.303,356.706 383.782,287.985 383.522,253.625"/>
   <path style="fill:none;stroke:#000000;stroke-width:0.5pt;stroke-linecap:round;stroke-linejoin:round;stroke-opacity:1" d="M 430.104,275.738 C 449.954,283.181 459.11,291.845 462.46,298.545"/>
   <path style="fill:none;stroke:#000000;stroke-width:0.5pt;stroke-linecap:round;stroke-linejoin:round;stroke-opacity:1" d="M 462.46,298.545 C 454.399,308.399 441.237,318.636 432.701,330.716"/>
   <path style="fill:none;stroke:#000000;stroke-width:0.5pt;stroke-linecap:round;stroke-linejoin:round;stroke-opacity:1" d="M 432.701,330.716 C 428.826,320.811 419.172,315.552 410.819,311.893"/>
   <path style="fill:none;stroke:#000000;stroke-width:0.5pt;stroke-linecap:round;stroke-linejoin:round;stroke-opacity:1" d="M 410.819,311.893 C 388.18,300.643 342.903,278.143 320.264,266.893"/>
   <path style="fill:none;stroke:#000000;stroke-width:0.5pt;stroke-linecap:round;stroke-linejoin:round;stroke-opacity:1" d="M 320.264,266.893 C 357.801,264.808 389.002,260.326 430.104,275.738"/>
   <path style="fill:none;stroke:#000000;stroke-width:0.5pt;stroke-linecap:round;stroke-linejoin:round;stroke-opacity:1" d="M 573.497,244.009 C 588.926,249.464 597.957,256.637 603.502,262.938"/>
   <path style="fill:none;stroke:#000000;stroke-width:0.5pt;stroke-linecap:round;stroke-linejoin:round;stroke-opacity:1" d="M 603.502,262.938 C 595.838,276.736 583.854,279.742 577.343,288.969"/>
   <path style="fill:none;stroke:#000000;stroke-width:0.5pt;stroke-linecap:round;stroke-linejoin:round;stroke-opacity:1" d="M 577.343,288.969 C 575.003,278.439 570.532,273.747 558.071,269.18"/>
   <path style="fill:none;stroke:#000000;stroke-width:0.5pt;stroke-linecap:round;stroke-linejoin:round;stroke-opacity:1" d="M 558.071,269.18 C 531.001,259.259 481.504,243.505 456.129,238.923"/>
   <path style="fill:none;stroke:#000000;stroke-width:0.5pt;stroke-linecap:round;stroke-linejoin:round;stroke-opacity:1" d="M 456.129,238.923 C 493.982,233.666 541.779,232.793 573.497,244.009"/>
   <path style="fill:none;stroke:#000000;stroke-width:0.5pt;stroke-linecap:round;stroke-linejoin:round;stroke-opacity:1" d="M 462.46,298.545 C 485.577,292.588 508.09,286.841 530.634,281.146"/>
   <path style="fill:none;stroke:#000000;stroke-width:0.5pt;stroke-linecap:round;stroke-linejoin:round;stroke-opacity:1" d="M 530.634,281.146 C 554.633,275.082 578.667,269.077 603.502,262.938"/>
   <path style="fill:none;stroke:#000000;stroke-width:0.5pt;stroke-linecap:round;stroke-linejoin:round;stroke-opacity:1" d="M 157.189,382.839 C 163.426,383.359 166.99,384.499 171.337,386.584"/>
   <path style="fill:none;stroke:#000000;stroke-width:0.5pt;stroke-linecap:round;stroke-linejoin:round;stroke-opacity:1" d="M 171.337,386.584 C 176.751,389.181 184.055,391.618 188.264,396.798"/>
   <path style="fill:none;stroke:#000000;stroke-width:0.5pt;stroke-linecap:round;stroke-linejoin:round;stroke-opacity:1" d="M 188.264,396.798 C 196.821,387.688 208.848,381.04 223.068,375.673"/>
   <path style="fill:none;stroke:#000000;stroke-width:0.5pt;stroke-linecap:round;stroke-linejoin:round;stroke-opacity:1" d="M 223.068,375.673 C 238.913,369.692 254.269,366.855 265.958,370.546"/>
   <path style="fill:none;stroke:#000000;stroke-width:0.5pt;stroke-linecap:round;stroke-linejoin:round;stroke-opacity:1" d="M 265.958,370.546 C 267.661,362.88 270.104,358.069 272.152,353.561"/>
   <path style="fill:none;stroke:#000000;stroke-width:0.5pt;stroke-linecap:round;stroke-linejoin:round;stroke-opacity:1" d="M 272.152,353.561 C 276.33,344.362 395.685,316.122 410.819,311.893"/>
   <path style="fill:none;stroke:#000000;stroke-width:0.5pt;stroke-linecap:round;stroke-linejoin:round;stroke-opacity:1" d="M 410.819,311.893 C 409.074,306.713 429.832,282.15 430.104,275.738"/>
   <path style="fill:none;stroke:#000000;stroke-width:0.5pt;stroke-linecap:round;stroke-linejoin:round;stroke-opacity:1" d="M 430.104,275.738 C 441.73,272.619 469.843,266.144 498.624,259.774"/>
   <path style="fill:none;stroke:#000000;stroke-width:0.5pt;stroke-linecap:round;stroke-linejoin:round;stroke-opacity:1" d="M 498.624,259.774 C 529.084,253.032 560.293,246.409 573.497,244.009"/>
   <path style="fill:none;stroke:#000000;stroke-width:0.5pt;stroke-linecap:round;stroke-linejoin:round;stroke-opacity:1" d="M 573.497,244.009 C 573.185,257.167 560.433,255.995 558.071,269.18"/>
   <path style="fill:none;stroke:#000000;stroke-width:0.5pt;stroke-linecap:round;stroke-linejoin:round;stroke-opacity:1" d="M 198.227,347.184 C 181.85,356.515 169.361,372.207 171.337,386.584"/>
   <path style="fill:none;stroke:#000000;stroke-width:0.5pt;stroke-linecap:round;stroke-linejoin:round;stroke-opacity:1" d="M 171.337,386.584 C 176.155,421.648 220.856,430.657 244.893,423.98"/>
   <path style="fill:none;stroke:#000000;stroke-width:0.5pt;stroke-linecap:round;stroke-linejoin:round;stroke-opacity:1" d="M 244.893,423.98 C 265.639,418.053 292.024,382.148 272.152,353.561"/>
   <path style="fill:none;stroke:#000000;stroke-width:0.5pt;stroke-linecap:round;stroke-linejoin:round;stroke-opacity:1" d="M 272.152,353.561 C 256.197,330.609 219.12,335.282 198.227,347.184"/>
   <path style="fill:none;stroke:#000000;stroke-width:0.5pt;stroke-linecap:round;stroke-linejoin:round;stroke-opacity:1" d="M 116.39,329.189 C 98.099,314.379 128.605,304.409 145.224,301.085"/>
   <path style="fill:none;stroke:#000000;stroke-width:0.5pt;stroke-linecap:round;stroke-linejoin:round;stroke-opacity:1" d="M 145.224,301.085 C 165.139,297.048 181.686,300.193 186.267,306.487"/>
   <path style="fill:none;stroke:#000000;stroke-width:0.5pt;stroke-linecap:round;stroke-linejoin:round;stroke-opacity:1" d="M 186.267,306.487 C 190.265,311.982 184.263,320.087 174.865,325.181"/>
   <path style="fill:none;stroke:#000000;stroke-width:0.5pt;stroke-linecap:round;stroke-linejoin:round;stroke-opacity:1" d="M 174.865,325.181 C 169.092,328.31 130.474,340.592 116.39,329.189"/>
   <path style="fill:none;stroke:#000000;stroke-width:0.5pt;stroke-linecap:round;stroke-linejoin:round;stroke-opacity:1" d="M 179.97,332.963 C 153.08,343.163 126.06,349.064 107.187,336.171"/>
   <path style="fill:none;stroke:#000000;stroke-width:0.5pt;stroke-linecap:round;stroke-linejoin:round;stroke-opacity:1" d="M 107.187,336.171 C 87.0084,322.386 126.548,308.05 140.928,305.199"/>
   <path style="fill:none;stroke:#000000;stroke-width:0.5pt;stroke-linecap:round;stroke-linejoin:round;stroke-opacity:1" d="M 140.928,305.199 C 162.052,301.01 193.82,301.386 198.485,309.318"/>
   <path style="fill:none;stroke:#000000;stroke-width:0.5pt;stroke-linecap:round;stroke-linejoin:round;stroke-opacity:1" d="M 198.485,309.318 C 207.639,323.464 191.62,328.691 179.97,332.963"/>
   <path style="fill:none;stroke:#000000;stroke-width:0.5pt;stroke-linecap:round;stroke-linejoin:round;stroke-opacity:1" d="M 207.156,362.175 C 195.261,370.329 187.181,384.761 188.264,396.798"/>
   <path style="fill:none;stroke:#000000;stroke-width:0.5pt;stroke-linecap:round;stroke-linejoin:round;stroke-opacity:1" d="M 188.264,396.798 C 190.776,424.737 232.491,416.026 238.627,414.063"/>
   <path style="fill:none;stroke:#000000;stroke-width:0.5pt;stroke-linecap:round;stroke-linejoin:round;stroke-opacity:1" d="M 238.627,414.063 C 249.307,410.646 280.88,394.452 265.958,370.546"/>
   <path style="fill:none;stroke:#000000;stroke-width:0.5pt;stroke-linecap:round;stroke-linejoin:round;stroke-opacity:1" d="M 265.958,370.546 C 254.063,351.49 219.479,353.727 207.156,362.175"/>
   <path style="fill:none;stroke:#000000;stroke-width:0.5pt;stroke-linecap:round;stroke-linejoin:round;stroke-opacity:1" d="M 114.527,347.951 C 111.028,351.382 108.706,356.917 107.24,363.645"/>
   <path style="fill:none;stroke:#000000;stroke-width:0.5pt;stroke-linecap:round;stroke-linejoin:round;stroke-opacity:1" d="M 107.24,363.645 C 101.417,390.363 111.107,474.796 115.478,517.465"/>
   <path style="fill:none;stroke:#000000;stroke-width:0.5pt;stroke-linecap:round;stroke-linejoin:round;stroke-opacity:1" d="M 115.478,517.465 C 120.213,563.696 125.29,607.308 128.614,639.883"/>
   <path style="fill:none;stroke:#000000;stroke-width:0.5pt;stroke-linecap:round;stroke-linejoin:round;stroke-opacity:1" d="M 128.614,639.883 C 148.795,633.22 174.15,624.913 202.801,615.558"/>
   <path style="fill:none;stroke:#000000;stroke-width:0.5pt;stroke-linecap:round;stroke-linejoin:round;stroke-opacity:1" d="M 202.801,615.558 C 268.369,594.146 351.195,567.238 428.747,541.942"/>
   <path style="fill:none;stroke:#000000;stroke-width:0.5pt;stroke-linecap:round;stroke-linejoin:round;stroke-opacity:1" d="M 428.747,541.942 C 499.897,518.734 566.609,496.883 611.483,481.879"/>
   <path style="fill:none;stroke:#000000;stroke-width:0.5pt;stroke-linecap:round;stroke-linejoin:round;stroke-opacity:1" d="M 611.483,481.879 C 613.759,448.776 617.926,406.936 620.307,366.962"/>
   <path style="fill:none;stroke:#000000;stroke-width:0.5pt;stroke-linecap:round;stroke-linejoin:round;stroke-opacity:1" d="M 620.307,366.962 C 623.018,321.468 623.416,278.39 616.082,253.355"/>
   <path style="fill:none;stroke:#000000;stroke-width:0.5pt;stroke-linecap:round;stroke-linejoin:round;stroke-opacity:1" d="M 107.187,336.171 C 108.239,335.362 111.446,332.69 116.39,329.189"/>
   <path style="fill:none;stroke:#000000;stroke-width:0.5pt;stroke-linecap:round;stroke-linejoin:round;stroke-opacity:1" d="M 116.39,329.189 C 126.472,322.05 143.776,311.467 164.763,306.22"/>
   <path style="fill:none;stroke:#000000;stroke-width:0.5pt;stroke-linecap:round;stroke-linejoin:round;stroke-opacity:1" d="M 164.763,306.22 C 176.755,303.145 181.927,304.653 186.267,306.487"/>
   <path style="fill:none;stroke:#000000;stroke-width:0.5pt;stroke-linecap:round;stroke-linejoin:round;stroke-opacity:1" d="M 186.267,306.487 C 189.809,307.984 192.796,309.699 198.485,309.318"/>
  </g>
  <g id="intersections">
   <circle fill="black" cx="662.746" cy="279.83" stroke="none" r="2"/>
   <circle fill="black" cx="285.354" cy="376.02" stroke="none" r="2"/>
   <circle fill="black" cx="262.062" cy="563.521" stroke="none" r="2"/>
   <circle fill="black" cx="662.493" cy="400.143" stroke="none" r="2"/>
   <circle fill="black" cx="576.635" cy="337.231" stroke="none" r="2"/>
   <circle fill="black" cx="81.8055" cy="478.017" stroke="none" r="2"/>
   <circle fill="black" cx="575.431" cy="452.045" stroke="none" r="2"/>
   <circle fill="black" cx="97.9097" cy="601.104" stroke="none" r="2"/>
   <circle fill="black" cx="164.763" cy="306.22" stroke="none" r="2"/>
   <circle fill="black" cx="174.865" cy="325.181" stroke="none" r="2"/>
   <circle fill="black" cx="179.97" cy="332.963" stroke="none" r="2"/>
   <circle fill="black" cx="207.156" cy="362.175" stroke="none" r="2"/>
   <circle fill="black" cx="250.018" cy="434.903" stroke="none" r="2"/>
   <circle fill="black" cx="268.684" cy="691.568" stroke="none" r="2"/>
   <circle fill="black" cx="166.719" cy="579.236" stroke="none" r="2"/>
   <circle fill="black" cx="133.826" cy="308.226" stroke="none" r="2"/>
   <circle fill="black" cx="140.928" cy="305.199" stroke="none" r="2"/>
   <circle fill="black" cx="145.224" cy="301.085" stroke="none" r="2"/>
   <circle fill="black" cx="383.522" cy="253.625" stroke="none" r="2"/>
   <circle fill="black" cx="498.624" cy="259.774" stroke="none" r="2"/>
   <circle fill="black" cx="530.634" cy="281.146" stroke="none" r="2"/>
   <circle fill="black" cx="500.773" cy="594.417" stroke="none" r="2"/>
   <circle fill="black" cx="386.732" cy="509.77" stroke="none" r="2"/>
   <circle fill="black" cx="462.46" cy="298.545" stroke="none" r="2"/>
   <circle fill="black" cx="432.701" cy="330.716" stroke="none" r="2"/>
   <circle fill="black" cx="320.264" cy="266.893" stroke="none" r="2"/>
   <circle fill="black" cx="603.502" cy="262.938" stroke="none" r="2"/>
   <circle fill="black" cx="577.343" cy="288.969" stroke="none" r="2"/>
   <circle fill="black" cx="456.129" cy="238.923" stroke="none" r="2"/>
   <circle fill="black" cx="157.189" cy="382.839" stroke="none" r="2"/>
   <circle fill="black" cx="188.264" cy="396.798" stroke="none" r="2"/>
   <circle fill="black" cx="265.958" cy="370.546" stroke="none" r="2"/>
   <circle fill="black" cx="410.819" cy="311.893" stroke="none" r="2"/>
   <circle fill="black" cx="430.104" cy="275.738" stroke="none" r="2"/>
   <circle fill="black" cx="573.497" cy="244.009" stroke="none" r="2"/>
   <circle fill="black" cx="558.071" cy="269.18" stroke="none" r="2"/>
   <circle fill="black" cx="244.893" cy="423.98" stroke="none" r="2"/>
   <circle fill="black" cx="198.485" cy="309.318" stroke="none" r="2"/>
   <circle fill="black" cx="128.614" cy="639.883" stroke="none" r="2"/>
   <circle fill="black" cx="611.483" cy="481.879" stroke="none" r="2"/>
   <circle fill="black" cx="107.187" cy="336.171" stroke="none" r="2"/>
   <circle fill="black" cx="182.837" cy="684.023" stroke="none" r="2"/>
   <circle fill="black" cx="302.864" cy="648.227" stroke="none" r="2"/>
   <circle fill="black" cx="654.265" cy="516.911" stroke="none" r="2"/>
   <circle fill="black" cx="505.542" cy="309.951" stroke="none" r="2"/>
   <circle fill="black" cx="114.527" cy="347.951" stroke="none" r="2"/>
   <circle fill="black" cx="79.7657" cy="326.5" stroke="none" r="2"/>
   <circle fill="black" cx="115.478" cy="517.465" stroke="none" r="2"/>
   <circle fill="black" cx="174.524" cy="563.357" stroke="none" r="2"/>
   <circle fill="black" cx="295.876" cy="514.466" stroke="none" r="2"/>
   <circle fill="black" cx="500.804" cy="444.029" stroke="none" r="2"/>
   <circle fill="black" cx="620.307" cy="366.962" stroke="none" r="2"/>
   <circle fill="black" cx="384.564" cy="391.067" stroke="none" r="2"/>
   <circle fill="black" cx="152.587" cy="455.576" stroke="none" r="2"/>
   <circle fill="black" cx="71.4117" cy="340.291" stroke="none" r="2"/>
   <circle fill="black" cx="107.24" cy="363.645" stroke="none" r="2"/>
   <circle fill="black" cx="564.373" cy="224.935" stroke="none" r="2"/>
   <circle fill="black" cx="616.082" cy="253.355" stroke="none" r="2"/>
   <circle fill="black" cx="198.227" cy="347.184" stroke="none" r="2"/>
   <circle fill="black" cx="223.068" cy="375.673" stroke="none" r="2"/>
   <circle fill="black" cx="238.627" cy="414.063" stroke="none" r="2"/>
   <circle fill="black" cx="202.801" cy="615.558" stroke="none" r="2"/>
   <circle fill="black" cx="428.747" cy="541.942" stroke="none" r="2"/>
   <circle fill="black" cx="171.337" cy="386.584" stroke="none" r="2"/>
   <circle fill="black" cx="272.152" cy="353.561" stroke="none" r="2"/>
   <circle fill="black" cx="116.39" cy="329.189" stroke="none" r="2"/>
   <circle fill="black" cx="186.267" cy="306.487" stroke="none" r="2"/>
  </g>
 </g>
 <g id="layer1">
  <g id="paths">
   <path style="fill:none;stroke:#000000;stroke-width:0.5pt;stroke-linecap:round;stroke-linejoin:round;stroke-opacity:1" d="M 720.154,477.282 C 655.469,498.876 601.234,559.016 611.239,625.719"/>
   <path style="fill:none;stroke:#000000;stroke-width:0.5pt;stroke-linecap:round;stroke-linejoin:round;stroke-opacity:1" d="M 611.239,625.719 C 622.105,698.155 679.77,722.447 737.047,689.253"/>
   <path style="fill:none;stroke:#000000;stroke-width:0.5pt;stroke-linecap:round;stroke-linejoin:round;stroke-opacity:1" d="M 737.047,689.253 C 786.199,660.769 808.61,625.161 816.275,573.985"/>
   <path style="fill:none;stroke:#000000;stroke-width:0.5pt;stroke-linecap:round;stroke-linejoin:round;stroke-opacity:1" d="M 816.275,573.985 C 826.736,504.149 790.094,453.933 720.154,477.282"/>
   <path style="fill:none;stroke:#000000;stroke-width:0.5pt;stroke-linecap:round;stroke-linejoin:round;stroke-opacity:1" d="M 594.64,624.383 C 602.552,692.727 666.182,736.307 734.969,706.643"/>
   <path style="fill:none;stroke:#000000;stroke-width:0.5pt;stroke-linecap:round;stroke-linejoin:round;stroke-opacity:1" d="M 734.969,706.643 C 794.291,681.061 830.761,615.238 833.565,562.598"/>
   <path style="fill:none;stroke:#000000;stroke-width:0.5pt;stroke-linecap:round;stroke-linejoin:round;stroke-opacity:1" d="M 833.565,562.598 C 838.03,478.778 779.462,437.351 705.167,460.227"/>
   <path style="fill:none;stroke:#000000;stroke-width:0.5pt;stroke-linecap:round;stroke-linejoin:round;stroke-opacity:1" d="M 705.167,460.227 C 635.319,481.733 586.699,555.795 594.64,624.383"/>
   <path style="fill:none;stroke:#000000;stroke-width:0.5pt;stroke-linecap:round;stroke-linejoin:round;stroke-opacity:1" d="M 409.732,499.446 C 423.864,562.725 483.12,594.394 545.55,573.301"/>
   <path style="fill:none;stroke:#000000;stroke-width:0.5pt;stroke-linecap:round;stroke-linejoin:round;stroke-opacity:1" d="M 545.55,573.301 C 595.611,556.386 629.111,495.98 631.071,447.013"/>
   <path style="fill:none;stroke:#000000;stroke-width:0.5pt;stroke-linecap:round;stroke-linejoin:round;stroke-opacity:1" d="M 631.071,447.013 C 633.944,375.197 583.574,327.292 507.951,339.069"/>
   <path style="fill:none;stroke:#000000;stroke-width:0.5pt;stroke-linecap:round;stroke-linejoin:round;stroke-opacity:1" d="M 507.951,339.069 C 427.756,351.558 395.818,437.144 409.732,499.446"/>
   <path style="fill:none;stroke:#000000;stroke-width:0.5pt;stroke-linecap:round;stroke-linejoin:round;stroke-opacity:1" d="M 531.043,580.378 C 529.754,650.776 590.794,666.432 645.111,644.613"/>
   <path style="fill:none;stroke:#000000;stroke-width:0.5pt;stroke-linecap:round;stroke-linejoin:round;stroke-opacity:1" d="M 645.111,644.613 C 701.146,622.105 741.473,573.15 748.974,515.495"/>
   <path style="fill:none;stroke:#000000;stroke-width:0.5pt;stroke-linecap:round;stroke-linejoin:round;stroke-opacity:1" d="M 748.974,515.495 C 759.668,433.301 707.747,395.657 641.523,419.584"/>
   <path style="fill:none;stroke:#000000;stroke-width:0.5pt;stroke-linecap:round;stroke-linejoin:round;stroke-opacity:1" d="M 641.523,419.584 C 580.754,441.54 532.354,508.814 531.043,580.378"/>
   <path style="fill:none;stroke:#000000;stroke-width:0.5pt;stroke-linecap:round;stroke-linejoin:round;stroke-opacity:1" d="M 631.071,447.013 C 652.208,458.98 688.792,479.549 726.048,501.212"/>
   <path style="fill:none;stroke:#000000;stroke-width:0.5pt;stroke-linecap:round;stroke-linejoin:round;stroke-opacity:1" d="M 726.048,501.212 C 733.937,505.799 741.076,510.938 748.974,515.495"/>
   <path style="fill:none;stroke:#000000;stroke-width:0.5pt;stroke-linecap:round;stroke-linejoin:round;stroke-opacity:1" d="M 748.974,515.495 C 780.85,533.887 811.782,551.37 833.565,562.598"/>
   <path style="fill:none;stroke:#000000;stroke-width:0.5pt;stroke-linecap:round;stroke-linejoin:round;stroke-opacity:1" d="M 833.565,562.598 C 828.587,565.939 822.693,569.843 816.275,573.985"/>
   <path style="fill:none;stroke:#000000;stroke-width:0.5pt;stroke-linecap:round;stroke-linejoin:round;stroke-opacity:1" d="M 816.275,573.985 C 792.064,589.613 760.757,608.45 742.764,613.525"/>
   <path style="fill:none;stroke:#000000;stroke-width:0.5pt;stroke-linecap:round;stroke-linejoin:round;stroke-opacity:1" d="M 742.764,613.525 C 694.086,628.503 642.182,627.8 611.239,625.719"/>
   <path style="fill:none;stroke:#000000;stroke-width:0.5pt;stroke-linecap:round;stroke-linejoin:round;stroke-opacity:1" d="M 611.239,625.719 C 604.717,625.281 599.11,624.79 594.64,624.383"/>
   <path style="fill:none;stroke:#000000;stroke-width:0.5pt;stroke-linecap:round;stroke-linejoin:round;stroke-opacity:1" d="M 594.64,624.383 C 581.994,615.135 558.201,598.767 531.043,580.378"/>
   <path style="fill:none;stroke:#000000;stroke-width:0.5pt;stroke-linecap:round;stroke-linejoin:round;stroke-opacity:1" d="M 531.043,580.378 C 522.561,574.634 514.123,568.953 505.221,562.971"/>
   <path style="fill:none;stroke:#000000;stroke-width:0.5pt;stroke-linecap:round;stroke-linejoin:round;stroke-opacity:1" d="M 505.221,562.971 C 470.071,539.347 433.127,514.811 409.732,499.446"/>
   <path style="fill:none;stroke:#000000;stroke-width:0.5pt;stroke-linecap:round;stroke-linejoin:round;stroke-opacity:1" d="M 507.951,339.069 C 544.214,361.188 582.47,383.711 619.7,406.289"/>
   <path style="fill:none;stroke:#000000;stroke-width:0.5pt;stroke-linecap:round;stroke-linejoin:round;stroke-opacity:1" d="M 619.7,406.289 C 626.998,410.714 634.335,415.158 641.523,419.584"/>
   <path style="fill:none;stroke:#000000;stroke-width:0.5pt;stroke-linecap:round;stroke-linejoin:round;stroke-opacity:1" d="M 641.523,419.584 C 663.596,433.173 685.043,446.749 705.167,460.227"/>
   <path style="fill:none;stroke:#000000;stroke-width:0.5pt;stroke-linecap:round;stroke-linejoin:round;stroke-opacity:1" d="M 705.167,460.227 C 710.961,463.458 715.92,469.452 720.154,477.282"/>
   <path style="fill:none;stroke:#000000;stroke-width:0.5pt;stroke-linecap:round;stroke-linejoin:round;stroke-opacity:1" d="M 720.154,477.282 C 736.357,507.247 744.278,571.693 742.764,613.525"/>
   <path style="fill:none;stroke:#000000;stroke-width:0.5pt;stroke-linecap:round;stroke-linejoin:round;stroke-opacity:1" d="M 742.764,613.525 C 741.898,637.448 739.166,669.085 737.047,689.253"/>
   <path style="fill:none;stroke:#000000;stroke-width:0.5pt;stroke-linecap:round;stroke-linejoin:round;stroke-opacity:1" d="M 737.047,689.253 C 736.206,697.253 735.462,703.449 734.969,706.643"/>
   <path style="fill:none;stroke:#000000;stroke-width:0.5pt;stroke-linecap:round;stroke-linejoin:round;stroke-opacity:1" d="M 734.969,706.643 C 713.679,693.707 679.902,669.727 645.111,644.613"/>
   <path style="fill:none;stroke:#000000;stroke-width:0.5pt;stroke-linecap:round;stroke-linejoin:round;stroke-opacity:1" d="M 645.111,644.613 C 638.191,639.618 632.35,635.285 625.44,630.278"/>
   <path style="fill:none;stroke:#000000;stroke-width:0.5pt;stroke-linecap:round;stroke-linejoin:round;stroke-opacity:1" d="M 625.44,630.278 C 595.92,608.888 566.197,587.397 545.55,573.301"/>
   <path style="fill:none;stroke:#000000;stroke-width:0.5pt;stroke-linecap:round;stroke-linejoin:round;stroke-opacity:1" d="M 505.221,562.971 C 504.455,627.364 562.472,653.388 625.44,630.278"/>
   <path style="fill:none;stroke:#000000;stroke-width:0.5pt;stroke-linecap:round;stroke-linejoin:round;stroke-opacity:1" d="M 625.44,630.278 C 683.259,609.057 722.362,559.62 726.048,501.212"/>
   <path style="fill:none;stroke:#000000;stroke-width:0.5pt;stroke-linecap:round;stroke-linejoin:round;stroke-opacity:1" d="M 726.048,501.212 C 730.363,432.834 695.721,381.889 619.7,406.289"/>
   <path style="fill:none;stroke:#000000;stroke-width:0.5pt;stroke-linecap:round;stroke-linejoin:round;stroke-opacity:1" d="M 619.7,406.289 C 559.17,425.717 506.056,492.835 505.221,562.971"/>
  </g>
  <g id="intersections">
   <circle fill="black" cx="833.565" cy="562.598" stroke="none" r="2"/>
   <circle fill="black" cx="742.764" cy="613.525" stroke="none" r="2"/>
   <circle fill="black" cx="594.64" cy="624.383" stroke="none" r="2"/>
   <circle fill="black" cx="705.167" cy="460.227" stroke="none" r="2"/>
   <circle fill="black" cx="734.969" cy="706.643" stroke="none" r="2"/>
   <circle fill="black" cx="720.154" cy="477.282" stroke="none" r="2"/>
   <circle fill="black" cx="611.239" cy="625.719" stroke="none" r="2"/>
   <circle fill="black" cx="737.047" cy="689.253" stroke="none" r="2"/>
   <circle fill="black" cx="816.275" cy="573.985" stroke="none" r="2"/>
   <circle fill="black" cx="409.732" cy="499.446" stroke="none" r="2"/>
   <circle fill="black" cx="545.55" cy="573.301" stroke="none" r="2"/>
   <circle fill="black" cx="631.071" cy="447.013" stroke="none" r="2"/>
   <circle fill="black" cx="507.951" cy="339.069" stroke="none" r="2"/>
   <circle fill="black" cx="531.043" cy="580.378" stroke="none" r="2"/>
   <circle fill="black" cx="645.111" cy="644.613" stroke="none" r="2"/>
   <circle fill="black" cx="748.974" cy="515.495" stroke="none" r="2"/>
   <circle fill="black" cx="641.523" cy="419.584" stroke="none" r="2"/>
   <circle fill="black" cx="726.048" cy="501.212" stroke="none" r="2"/>
   <circle fill="black" cx="505.221" cy="562.971" stroke="none" r="2"/>
   <circle fill="black" cx="619.7" cy="406.289" stroke="none" r="2"/>
   <circle fill="black" cx="625.44" cy="630.278" stroke="none" r="2"/>
  </g>
 </g>
</svg>
