<!DOCTYPE svg>
<svg width="900" height="900">
 <g id="layer0">
  <g id="paths">
   <path style="fill:none;stroke:#000000;stroke-width:0.5pt;stroke-linecap:round;stroke-linejoin:round;stroke-opacity:1" d="M 701.223,695.317 C 633.827,710.428 550.777,717.775 494.571,671.03"/>
   <path style="fill:none;stroke:#000000;stroke-width:0.5pt;stroke-linecap:round;stroke-linejoin:round;stroke-opacity:1" d="M 494.571,671.03 C 463.22,644.955 456.163,609.419 481.593,577.786"/>
   <path style="fill:none;stroke:#000000;stroke-width:0.5pt;stroke-linecap:round;stroke-linejoin:round;stroke-opacity:1" d="M 374.608,89.1816 C 329.089,129.616 195.114,123.281 170.163,163.176"/>
   <path style="fill:none;stroke:#000000;stroke-width:0.5pt;stroke-linecap:round;stroke-linejoin:round;stroke-opacity:1" d="M 170.163,163.176 C 197.151,177.794 225.566,193.855 255.27,209.898"/>
   <path style="fill:none;stroke:#000000;stroke-width:0.5pt;stroke-linecap:round;stroke-linejoin:round;stroke-opacity:1" d="M 255.27,209.898 C 279.639,223.059 305.089,234.509 331.116,246.839"/>
   <path style="fill:none;stroke:#000000;stroke-width:0.5pt;stroke-linecap:round;stroke-linejoin:round;stroke-opacity:1" d="M 331.116,246.839 C 361.722,261.338 393.208,276.404 425.876,287.325"/>
   <path style="fill:none;stroke:#000000;stroke-width:0.5pt;stroke-linecap:round;stroke-linejoin:round;stroke-opacity:1" d="M 425.876,287.325 C 539.143,325.193 634.953,323.541 735.269,274.548"/>
   <path style="fill:none;stroke:#000000;stroke-width:0.5pt;stroke-linecap:round;stroke-linejoin:round;stroke-opacity:1" d="M 479.582,103.53 C 446.939,141.613 454.688,191.341 492.871,224.172"/>
   <path style="fill:none;stroke:#000000;stroke-width:0.5pt;stroke-linecap:round;stroke-linejoin:round;stroke-opacity:1" d="M 492.871,224.172 C 549.85,273.163 676.089,258.39 700.064,224.606"/>
   <path style="fill:none;stroke:#000000;stroke-width:0.5pt;stroke-linecap:round;stroke-linejoin:round;stroke-opacity:1" d="M 170.163,163.176 C 170.746,228.639 171.437,371.867 171.849,489.696"/>
   <path style="fill:none;stroke:#000000;stroke-width:0.5pt;stroke-linecap:round;stroke-linejoin:round;stroke-opacity:1" d="M 171.849,489.696 C 172.083,556.966 172.227,615.957 172.207,647.473"/>
   <path style="fill:none;stroke:#000000;stroke-width:0.5pt;stroke-linecap:round;stroke-linejoin:round;stroke-opacity:1" d="M 376.875,577.827 C 348.303,596.068 204.595,621.2 172.207,647.473"/>
   <path style="fill:none;stroke:#000000;stroke-width:0.5pt;stroke-linecap:round;stroke-linejoin:round;stroke-opacity:1" d="M 172.207,647.473 C 164.163,655.014 301.461,736.135 425.41,785.318"/>
   <path style="fill:none;stroke:#000000;stroke-width:0.5pt;stroke-linecap:round;stroke-linejoin:round;stroke-opacity:1" d="M 425.41,785.318 C 545.739,833.064 620.779,843.576 730.994,766.733"/>
   <path style="fill:none;stroke:#000000;stroke-width:0.5pt;stroke-linecap:round;stroke-linejoin:round;stroke-opacity:1" d="M 374.608,89.1816 C 374.359,112.529 374.468,186.463 374.804,272.527"/>
   <path style="fill:none;stroke:#000000;stroke-width:0.5pt;stroke-linecap:round;stroke-linejoin:round;stroke-opacity:1" d="M 374.804,272.527 C 374.848,283.901 374.897,295.486 374.949,307.194"/>
   <path style="fill:none;stroke:#000000;stroke-width:0.5pt;stroke-linecap:round;stroke-linejoin:round;stroke-opacity:1" d="M 374.949,307.194 C 375.105,342.535 375.295,378.998 375.51,414.141"/>
   <path style="fill:none;stroke:#000000;stroke-width:0.5pt;stroke-linecap:round;stroke-linejoin:round;stroke-opacity:1" d="M 375.51,414.141 C 375.9,477.905 376.372,537.326 376.875,577.827"/>
   <path style="fill:none;stroke:#000000;stroke-width:0.5pt;stroke-linecap:round;stroke-linejoin:round;stroke-opacity:1" d="M 376.875,577.827 C 447.069,614.795 692.374,746.366 730.994,766.733"/>
   <path style="fill:none;stroke:#000000;stroke-width:0.5pt;stroke-linecap:round;stroke-linejoin:round;stroke-opacity:1" d="M 730.994,766.733 C 731.117,742.379 731.767,678.579 732.527,603.068"/>
   <path style="fill:none;stroke:#000000;stroke-width:0.5pt;stroke-linecap:round;stroke-linejoin:round;stroke-opacity:1" d="M 732.527,603.068 C 733.678,488.659 735.07,346.263 735.269,274.548"/>
   <path style="fill:none;stroke:#000000;stroke-width:0.5pt;stroke-linecap:round;stroke-linejoin:round;stroke-opacity:1" d="M 735.269,274.548 C 735.309,262.457 734.805,247.671 734.836,240.97"/>
   <path style="fill:none;stroke:#000000;stroke-width:0.5pt;stroke-linecap:round;stroke-linejoin:round;stroke-opacity:1" d="M 734.836,240.97 C 724.984,236.914 712.234,230.981 700.064,224.606"/>
   <path style="fill:none;stroke:#000000;stroke-width:0.5pt;stroke-linecap:round;stroke-linejoin:round;stroke-opacity:1" d="M 700.064,224.606 C 706.077,308.789 700.23,492.641 700.865,589.314"/>
   <path style="fill:none;stroke:#000000;stroke-width:0.5pt;stroke-linecap:round;stroke-linejoin:round;stroke-opacity:1" d="M 700.865,589.314 C 701.175,636.467 701.371,676.658 701.223,695.317"/>
   <path style="fill:none;stroke:#000000;stroke-width:0.5pt;stroke-linecap:round;stroke-linejoin:round;stroke-opacity:1" d="M 701.223,695.317 C 682.004,684.166 504.574,594.065 481.593,577.786"/>
   <path style="fill:none;stroke:#000000;stroke-width:0.5pt;stroke-linecap:round;stroke-linejoin:round;stroke-opacity:1" d="M 481.593,577.786 C 481.053,563.212 480.458,521.432 479.941,468.269"/>
   <path style="fill:none;stroke:#000000;stroke-width:0.5pt;stroke-linecap:round;stroke-linejoin:round;stroke-opacity:1" d="M 479.941,468.269 C 478.651,335.668 477.845,132.249 479.582,103.53"/>
   <path style="fill:none;stroke:#000000;stroke-width:0.5pt;stroke-linecap:round;stroke-linejoin:round;stroke-opacity:1" d="M 479.582,103.53 C 466.519,96.6425 446.259,89.7166 426.931,78.3112"/>
   <path style="fill:none;stroke:#000000;stroke-width:0.5pt;stroke-linecap:round;stroke-linejoin:round;stroke-opacity:1" d="M 426.931,78.3112 C 425.789,91.4383 426.922,117.849 426.533,115.477"/>
   <path style="fill:none;stroke:#000000;stroke-width:0.5pt;stroke-linecap:round;stroke-linejoin:round;stroke-opacity:1" d="M 426.533,115.477 C 409.102,105.34 398.511,101.133 374.608,89.1816"/>
   <path style="fill:none;stroke:#000000;stroke-width:0.5pt;stroke-linecap:round;stroke-linejoin:round;stroke-opacity:1" d="M 425.876,287.325 C 425.876,295.019 425.903,312.93 425.94,337.676"/>
   <path style="fill:none;stroke:#000000;stroke-width:0.5pt;stroke-linecap:round;stroke-linejoin:round;stroke-opacity:1" d="M 425.94,337.676 C 425.995,374.137 426.161,422.458 426.205,477.771"/>
   <path style="fill:none;stroke:#000000;stroke-width:0.5pt;stroke-linecap:round;stroke-linejoin:round;stroke-opacity:1" d="M 426.205,477.771 C 426.215,490.098 426.219,502.994 426.225,515.6"/>
   <path style="fill:none;stroke:#000000;stroke-width:0.5pt;stroke-linecap:round;stroke-linejoin:round;stroke-opacity:1" d="M 426.225,515.6 C 426.235,537.892 426.199,561.048 426.192,583.176"/>
   <path style="fill:none;stroke:#000000;stroke-width:0.5pt;stroke-linecap:round;stroke-linejoin:round;stroke-opacity:1" d="M 426.192,583.176 C 426.188,596.214 426.15,609.733 426.139,622.348"/>
   <path style="fill:none;stroke:#000000;stroke-width:0.5pt;stroke-linecap:round;stroke-linejoin:round;stroke-opacity:1" d="M 426.139,622.348 C 426.073,692.77 425.86,755.864 425.41,785.318"/>
   <path style="fill:none;stroke:#000000;stroke-width:0.5pt;stroke-linecap:round;stroke-linejoin:round;stroke-opacity:1" d="M 171.849,489.696 C 163.427,497.79 238.176,543.579 329.099,583.896"/>
   <path style="fill:none;stroke:#000000;stroke-width:0.5pt;stroke-linecap:round;stroke-linejoin:round;stroke-opacity:1" d="M 329.099,583.896 C 360.479,597.81 393.588,611.764 426.139,622.348"/>
   <path style="fill:none;stroke:#000000;stroke-width:0.5pt;stroke-linecap:round;stroke-linejoin:round;stroke-opacity:1" d="M 426.139,622.348 C 526.542,654.995 650.702,662.577 732.527,603.068"/>
   <path style="fill:none;stroke:#000000;stroke-width:0.5pt;stroke-linecap:round;stroke-linejoin:round;stroke-opacity:1" d="M 732.527,603.068 C 713.355,585.6 700.846,589.326 700.865,589.314"/>
   <path style="fill:none;stroke:#000000;stroke-width:0.5pt;stroke-linecap:round;stroke-linejoin:round;stroke-opacity:1" d="M 700.865,589.314 C 641.346,613.122 545.216,603.244 493.886,565.588"/>
   <path style="fill:none;stroke:#000000;stroke-width:0.5pt;stroke-linecap:round;stroke-linejoin:round;stroke-opacity:1" d="M 493.886,565.588 C 455.4,537.354 451.82,503.14 479.941,468.269"/>
   <path style="fill:none;stroke:#000000;stroke-width:0.5pt;stroke-linecap:round;stroke-linejoin:round;stroke-opacity:1" d="M 479.941,468.269 C 442.827,446.01 381.679,410.19 375.51,414.141"/>
   <path style="fill:none;stroke:#000000;stroke-width:0.5pt;stroke-linecap:round;stroke-linejoin:round;stroke-opacity:1" d="M 375.51,414.141 C 331.529,442.318 207.529,460.295 171.849,489.696"/>
   <path style="fill:none;stroke:#000000;stroke-width:0.5pt;stroke-linecap:round;stroke-linejoin:round;stroke-opacity:1" d="M 492.871,224.172 C 490.508,343.519 492.675,453.075 493.886,565.588"/>
   <path style="fill:none;stroke:#000000;stroke-width:0.5pt;stroke-linecap:round;stroke-linejoin:round;stroke-opacity:1" d="M 493.886,565.588 C 494.259,600.328 494.542,635.35 494.571,671.03"/>
   <path style="fill:none;stroke:#000000;stroke-width:0.5pt;stroke-linecap:round;stroke-linejoin:round;stroke-opacity:1" d="M 734.836,240.97 C 495.725,371.805 316.212,144.962 426.931,78.3112"/>
   <path style="fill:none;stroke:#000000;stroke-width:0.5pt;stroke-linecap:round;stroke-linejoin:round;stroke-opacity:1" d="M 735.269,274.548 C 484.34,393.434 318.633,173.688 426.533,115.477"/>
   <path style="fill:none;stroke:#000000;stroke-width:0.5pt;stroke-linecap:round;stroke-linejoin:round;stroke-opacity:1" d="M 426.533,115.477 C 352.813,155.038 296.936,187.626 255.27,209.898"/>
   <path style="fill:none;stroke:#000000;stroke-width:0.5pt;stroke-linecap:round;stroke-linejoin:round;stroke-opacity:1" d="M 331.116,246.839 C 330.982,265.214 331.206,285.401 331.049,301.76"/>
   <path style="fill:none;stroke:#000000;stroke-width:0.5pt;stroke-linecap:round;stroke-linejoin:round;stroke-opacity:1" d="M 331.049,301.76 C 330.541,354.621 329.529,395.588 329.174,440.944"/>
   <path style="fill:none;stroke:#000000;stroke-width:0.5pt;stroke-linecap:round;stroke-linejoin:round;stroke-opacity:1" d="M 329.174,440.944 C 329.088,451.97 329.016,463.098 328.961,474.441"/>
   <path style="fill:none;stroke:#000000;stroke-width:0.5pt;stroke-linecap:round;stroke-linejoin:round;stroke-opacity:1" d="M 328.961,474.441 C 328.848,497.642 329.098,522.145 329.171,548.566"/>
   <path style="fill:none;stroke:#000000;stroke-width:0.5pt;stroke-linecap:round;stroke-linejoin:round;stroke-opacity:1" d="M 329.171,548.566 C 329.203,560.004 329.023,571.512 329.099,583.896"/>
   <path style="fill:none;stroke:#000000;stroke-width:0.5pt;stroke-linecap:round;stroke-linejoin:round;stroke-opacity:1" d="M 426.205,477.771 C 396.544,469.501 356.123,454.036 329.174,440.944"/>
   <path style="fill:none;stroke:#000000;stroke-width:0.5pt;stroke-linecap:round;stroke-linejoin:round;stroke-opacity:1" d="M 329.174,440.944 C 290.144,421.984 259.66,390.684 284.754,343.915"/>
   <path style="fill:none;stroke:#000000;stroke-width:0.5pt;stroke-linecap:round;stroke-linejoin:round;stroke-opacity:1" d="M 284.754,343.915 C 297.451,320.25 324.952,295.599 374.804,272.527"/>
   <path style="fill:none;stroke:#000000;stroke-width:0.5pt;stroke-linecap:round;stroke-linejoin:round;stroke-opacity:1" d="M 206.344,232.448 C 222.026,218.638 281.306,257.069 284.754,343.915"/>
   <path style="fill:none;stroke:#000000;stroke-width:0.5pt;stroke-linecap:round;stroke-linejoin:round;stroke-opacity:1" d="M 284.754,343.915 C 285.258,356.621 285.117,369.809 284.55,382.453"/>
   <path style="fill:none;stroke:#000000;stroke-width:0.5pt;stroke-linecap:round;stroke-linejoin:round;stroke-opacity:1" d="M 284.55,382.453 C 283.471,406.512 281.386,429.523 270.735,449.41"/>
   <path style="fill:none;stroke:#000000;stroke-width:0.5pt;stroke-linecap:round;stroke-linejoin:round;stroke-opacity:1" d="M 270.735,449.41 C 268.166,454.207 219.245,483.71 205.793,475.411"/>
   <path style="fill:none;stroke:#000000;stroke-width:0.5pt;stroke-linecap:round;stroke-linejoin:round;stroke-opacity:1" d="M 205.793,475.411 C 203.026,473.704 203.063,235.338 206.344,232.448"/>
   <path style="fill:none;stroke:#000000;stroke-width:0.5pt;stroke-linecap:round;stroke-linejoin:round;stroke-opacity:1" d="M 426.225,515.6 C 396.01,506.252 355.981,488.364 328.961,474.441"/>
   <path style="fill:none;stroke:#000000;stroke-width:0.5pt;stroke-linecap:round;stroke-linejoin:round;stroke-opacity:1" d="M 328.961,474.441 C 286.895,452.764 260.932,426.213 284.55,382.453"/>
   <path style="fill:none;stroke:#000000;stroke-width:0.5pt;stroke-linecap:round;stroke-linejoin:round;stroke-opacity:1" d="M 284.55,382.453 C 297.284,358.86 325.389,332.927 374.949,307.194"/>
   <path style="fill:none;stroke:#000000;stroke-width:0.5pt;stroke-linecap:round;stroke-linejoin:round;stroke-opacity:1" d="M 206.344,232.448 C 262.09,266.469 292.528,284.701 331.049,301.76"/>
   <path style="fill:none;stroke:#000000;stroke-width:0.5pt;stroke-linecap:round;stroke-linejoin:round;stroke-opacity:1" d="M 331.049,301.76 C 356.161,312.88 384.708,323.503 425.94,337.676"/>
   <path style="fill:none;stroke:#000000;stroke-width:0.5pt;stroke-linecap:round;stroke-linejoin:round;stroke-opacity:1" d="M 205.793,475.411 C 245.459,505.767 286.208,529.523 329.171,548.566"/>
   <path style="fill:none;stroke:#000000;stroke-width:0.5pt;stroke-linecap:round;stroke-linejoin:round;stroke-opacity:1" d="M 329.171,548.566 C 360.214,562.325 392.412,573.625 426.192,583.176"/>
  </g>
  <g id="intersections">
   <circle fill="black" cx="701.223" cy="695.317" stroke="none" r="2"/>
   <circle fill="black" cx="481.593" cy="577.786" stroke="none" r="2"/>
   <circle fill="black" cx="170.163" cy="163.176" stroke="none" r="2"/>
   <circle fill="black" cx="479.582" cy="103.53" stroke="none" r="2"/>
   <circle fill="black" cx="700.064" cy="224.606" stroke="none" r="2"/>
   <circle fill="black" cx="376.875" cy="577.827" stroke="none" r="2"/>
   <circle fill="black" cx="172.207" cy="647.473" stroke="none" r="2"/>
   <circle fill="black" cx="374.608" cy="89.1816" stroke="none" r="2"/>
   <circle fill="black" cx="730.994" cy="766.733" stroke="none" r="2"/>
   <circle fill="black" cx="735.269" cy="274.548" stroke="none" r="2"/>
   <circle fill="black" cx="734.836" cy="240.97" stroke="none" r="2"/>
   <circle fill="black" cx="426.931" cy="78.3112" stroke="none" r="2"/>
   <circle fill="black" cx="426.533" cy="115.477" stroke="none" r="2"/>
   <circle fill="black" cx="425.876" cy="287.325" stroke="none" r="2"/>
   <circle fill="black" cx="171.849" cy="489.696" stroke="none" r="2"/>
   <circle fill="black" cx="732.527" cy="603.068" stroke="none" r="2"/>
   <circle fill="black" cx="700.865" cy="589.314" stroke="none" r="2"/>
   <circle fill="black" cx="479.941" cy="468.269" stroke="none" r="2"/>
   <circle fill="black" cx="375.51" cy="414.141" stroke="none" r="2"/>
   <circle fill="black" cx="492.871" cy="224.172" stroke="none" r="2"/>
   <circle fill="black" cx="255.27" cy="209.898" stroke="none" r="2"/>
   <circle fill="black" cx="374.804" cy="272.527" stroke="none" r="2"/>
   <circle fill="black" cx="374.949" cy="307.194" stroke="none" r="2"/>
   <circle fill="black" cx="206.344" cy="232.448" stroke="none" r="2"/>
   <circle fill="black" cx="425.94" cy="337.676" stroke="none" r="2"/>
   <circle fill="black" cx="205.793" cy="475.411" stroke="none" r="2"/>
   <circle fill="black" cx="494.571" cy="671.03" stroke="none" r="2"/>
   <circle fill="black" cx="331.116" cy="246.839" stroke="none" r="2"/>
   <circle fill="black" cx="425.41" cy="785.318" stroke="none" r="2"/>
   <circle fill="black" cx="426.205" cy="477.771" stroke="none" r="2"/>
   <circle fill="black" cx="426.225" cy="515.6" stroke="none" r="2"/>
   <circle fill="black" cx="426.192" cy="583.176" stroke="none" r="2"/>
   <circle fill="black" cx="426.139" cy="622.348" stroke="none" r="2"/>
   <circle fill="black" cx="329.099" cy="583.896" stroke="none" r="2"/>
   <circle fill="black" cx="493.886" cy="565.588" stroke="none" r="2"/>
   <circle fill="black" cx="331.049" cy="301.76" stroke="none" r="2"/>
   <circle fill="black" cx="329.174" cy="440.944" stroke="none" r="2"/>
   <circle fill="black" cx="328.961" cy="474.441" stroke="none" r="2"/>
   <circle fill="black" cx="329.171" cy="548.566" stroke="none" r="2"/>
   <circle fill="black" cx="284.754" cy="343.915" stroke="none" r="2"/>
   <circle fill="black" cx="284.55" cy="382.453" stroke="none" r="2"/>
  </g>
 </g>
</svg>
