<!DOCTYPE svg>
<svg width="960" height="859">
 <g id="layer0">
  <g id="paths">
   <path style="fill:none;stroke:#000000;stroke-width:0.5pt;stroke-linecap:round;stroke-linejoin:round;stroke-opacity:1" d="M 493.807,417.044 C 468.726,411.168 448.866,408.447 434.921,408.148"/>
   <path style="fill:none;stroke:#000000;stroke-width:0.5pt;stroke-linecap:round;stroke-linejoin:round;stroke-opacity:1" d="M 434.921,408.148 C 414.793,407.717 402.812,411.372 395.824,415.786"/>
   <path style="fill:none;stroke:#000000;stroke-width:0.5pt;stroke-linecap:round;stroke-linejoin:round;stroke-opacity:1" d="M 395.824,415.786 C 387.819,414.092 342.353,400.019 299.309,394.646"/>
   <path style="fill:none;stroke:#000000;stroke-width:0.5pt;stroke-linecap:round;stroke-linejoin:round;stroke-opacity:1" d="M 299.309,394.646 C 268.703,390.825 222.925,383.734 216.314,435.004"/>
   <path style="fill:none;stroke:#000000;stroke-width:0.5pt;stroke-linecap:round;stroke-linejoin:round;stroke-opacity:1" d="M 216.314,435.004 C 207.485,503.48 263.037,505.565 306.099,514.268"/>
   <path style="fill:none;stroke:#000000;stroke-width:0.5pt;stroke-linecap:round;stroke-linejoin:round;stroke-opacity:1" d="M 306.099,514.268 C 423.602,538.015 544.785,542.722 663.993,547.238"/>
   <path style="fill:none;stroke:#000000;stroke-width:0.5pt;stroke-linecap:round;stroke-linejoin:round;stroke-opacity:1" d="M 663.993,547.238 C 689.875,548.218 713.701,548.939 733.286,549.316"/>
   <path style="fill:none;stroke:#000000;stroke-width:0.5pt;stroke-linecap:round;stroke-linejoin:round;stroke-opacity:1" d="M 733.286,549.316 C 761.748,549.865 842.381,552.598 853.843,527.447"/>
   <path style="fill:none;stroke:#000000;stroke-width:0.5pt;stroke-linecap:round;stroke-linejoin:round;stroke-opacity:1" d="M 853.843,527.447 C 864.625,503.787 875.615,429.865 849.855,413.945"/>
   <path style="fill:none;stroke:#000000;stroke-width:0.5pt;stroke-linecap:round;stroke-linejoin:round;stroke-opacity:1" d="M 849.855,413.945 C 809.014,388.704 759.587,491.559 737.194,487.383"/>
   <path style="fill:none;stroke:#000000;stroke-width:0.5pt;stroke-linecap:round;stroke-linejoin:round;stroke-opacity:1" d="M 737.194,487.383 C 720.291,484.231 693.261,478.737 665.834,473.059"/>
   <path style="fill:none;stroke:#000000;stroke-width:0.5pt;stroke-linecap:round;stroke-linejoin:round;stroke-opacity:1" d="M 665.834,473.059 C 628.072,465.241 589.802,457.095 577.121,454.091"/>
   <path style="fill:none;stroke:#000000;stroke-width:0.5pt;stroke-linecap:round;stroke-linejoin:round;stroke-opacity:1" d="M 577.121,454.091 C 567.676,440.151 522.054,423.495 493.807,417.044"/>
   <path style="fill:none;stroke:#000000;stroke-width:0.5pt;stroke-linecap:round;stroke-linejoin:round;stroke-opacity:1" d="M 434.921,408.148 C 425.613,415.58 421.945,426.552 421.066,437.634"/>
   <path style="fill:none;stroke:#000000;stroke-width:0.5pt;stroke-linecap:round;stroke-linejoin:round;stroke-opacity:1" d="M 493.807,417.044 C 481.456,424.877 472.029,439.921 468.917,453.586"/>
   <path style="fill:none;stroke:#000000;stroke-width:0.5pt;stroke-linecap:round;stroke-linejoin:round;stroke-opacity:1" d="M 395.824,415.786 C 397.794,422.476 405.791,430.204 421.066,437.634"/>
   <path style="fill:none;stroke:#000000;stroke-width:0.5pt;stroke-linecap:round;stroke-linejoin:round;stroke-opacity:1" d="M 421.066,437.634 C 435.998,444.897 463.687,452.33 468.917,453.586"/>
   <path style="fill:none;stroke:#000000;stroke-width:0.5pt;stroke-linecap:round;stroke-linejoin:round;stroke-opacity:1" d="M 468.917,453.586 C 495.229,459.901 528.613,463.118 553.028,460.283"/>
   <path style="fill:none;stroke:#000000;stroke-width:0.5pt;stroke-linecap:round;stroke-linejoin:round;stroke-opacity:1" d="M 553.028,460.283 C 563.07,459.117 570.736,458.299 577.121,454.091"/>
   <path style="fill:none;stroke:#000000;stroke-width:0.5pt;stroke-linecap:round;stroke-linejoin:round;stroke-opacity:1" d="M 853.843,527.447 C 835.684,543.523 741.789,535.736 708.624,534.154"/>
   <path style="fill:none;stroke:#000000;stroke-width:0.5pt;stroke-linecap:round;stroke-linejoin:round;stroke-opacity:1" d="M 708.624,534.154 C 683.686,532.965 658.613,531.504 634.677,530.018"/>
   <path style="fill:none;stroke:#000000;stroke-width:0.5pt;stroke-linecap:round;stroke-linejoin:round;stroke-opacity:1" d="M 634.677,530.018 C 613.135,528.502 570.051,525.47 548.508,523.953"/>
   <path style="fill:none;stroke:#000000;stroke-width:0.5pt;stroke-linecap:round;stroke-linejoin:round;stroke-opacity:1" d="M 548.508,523.953 C 469.563,519.82 420.735,537.17 358.776,561.113"/>
   <path style="fill:none;stroke:#000000;stroke-width:0.5pt;stroke-linecap:round;stroke-linejoin:round;stroke-opacity:1" d="M 358.776,561.113 C 325.297,574.049 72.8544,675.595 51.8714,626.476"/>
   <path style="fill:none;stroke:#000000;stroke-width:0.5pt;stroke-linecap:round;stroke-linejoin:round;stroke-opacity:1" d="M 51.8714,626.476 C 43.2945,606.398 163.396,528.05 178.63,518.068"/>
   <path style="fill:none;stroke:#000000;stroke-width:0.5pt;stroke-linecap:round;stroke-linejoin:round;stroke-opacity:1" d="M 178.63,518.068 C 209.791,497.652 238.759,480.972 257.94,470.582"/>
   <path style="fill:none;stroke:#000000;stroke-width:0.5pt;stroke-linecap:round;stroke-linejoin:round;stroke-opacity:1" d="M 257.94,470.582 C 238.108,468.495 173.029,465.056 216.314,435.004"/>
   <path style="fill:none;stroke:#000000;stroke-width:0.5pt;stroke-linecap:round;stroke-linejoin:round;stroke-opacity:1" d="M 306.099,514.268 C 280.573,524.694 257.42,496.9 257.94,470.582"/>
   <path style="fill:none;stroke:#000000;stroke-width:0.5pt;stroke-linecap:round;stroke-linejoin:round;stroke-opacity:1" d="M 257.94,470.582 C 259.319,426.975 281.759,398.265 299.309,394.646"/>
   <path style="fill:none;stroke:#000000;stroke-width:0.5pt;stroke-linecap:round;stroke-linejoin:round;stroke-opacity:1" d="M 663.993,547.238 C 655.045,554.582 639.623,543.356 634.677,530.018"/>
   <path style="fill:none;stroke:#000000;stroke-width:0.5pt;stroke-linecap:round;stroke-linejoin:round;stroke-opacity:1" d="M 634.677,530.018 C 628.407,513.109 649.28,487.65 651.848,484.728"/>
   <path style="fill:none;stroke:#000000;stroke-width:0.5pt;stroke-linecap:round;stroke-linejoin:round;stroke-opacity:1" d="M 651.848,484.728 C 656.378,479.575 661.23,475.394 665.834,473.059"/>
   <path style="fill:none;stroke:#000000;stroke-width:0.5pt;stroke-linecap:round;stroke-linejoin:round;stroke-opacity:1" d="M 358.776,561.113 C 333.113,564.7 293.025,560.005 255.787,552.554"/>
   <path style="fill:none;stroke:#000000;stroke-width:0.5pt;stroke-linecap:round;stroke-linejoin:round;stroke-opacity:1" d="M 255.787,552.554 C 209.008,543.194 167.885,529.16 178.63,518.068"/>
   <path style="fill:none;stroke:#000000;stroke-width:0.5pt;stroke-linecap:round;stroke-linejoin:round;stroke-opacity:1" d="M 178.63,518.068 C 188.053,508.018 220.672,511.113 244.035,515.195"/>
   <path style="fill:none;stroke:#000000;stroke-width:0.5pt;stroke-linecap:round;stroke-linejoin:round;stroke-opacity:1" d="M 244.035,515.195 C 283.914,522.162 332.558,543.262 358.776,561.113"/>
   <path style="fill:none;stroke:#000000;stroke-width:0.5pt;stroke-linecap:round;stroke-linejoin:round;stroke-opacity:1" d="M 354.129,464.358 C 323.969,477.302 284.157,495.711 244.035,515.195"/>
   <path style="fill:none;stroke:#000000;stroke-width:0.5pt;stroke-linecap:round;stroke-linejoin:round;stroke-opacity:1" d="M 244.035,515.195 C 223.248,525.29 35.5196,618.052 51.8714,626.476"/>
   <path style="fill:none;stroke:#000000;stroke-width:0.5pt;stroke-linecap:round;stroke-linejoin:round;stroke-opacity:1" d="M 51.8714,626.476 C 64.4747,633.435 159.814,595.889 255.787,552.554"/>
   <path style="fill:none;stroke:#000000;stroke-width:0.5pt;stroke-linecap:round;stroke-linejoin:round;stroke-opacity:1" d="M 255.787,552.554 C 284.693,539.502 312.391,526.037 339.168,512.992"/>
   <path style="fill:none;stroke:#000000;stroke-width:0.5pt;stroke-linecap:round;stroke-linejoin:round;stroke-opacity:1" d="M 548.508,523.953 C 470.575,527.514 395.588,524.754 339.168,512.992"/>
   <path style="fill:none;stroke:#000000;stroke-width:0.5pt;stroke-linecap:round;stroke-linejoin:round;stroke-opacity:1" d="M 339.168,512.992 C 325.664,510.177 243.301,487.07 257.94,470.582"/>
   <path style="fill:none;stroke:#000000;stroke-width:0.5pt;stroke-linecap:round;stroke-linejoin:round;stroke-opacity:1" d="M 257.94,470.582 C 267.194,460.159 320.694,461.199 354.129,464.358"/>
   <path style="fill:none;stroke:#000000;stroke-width:0.5pt;stroke-linecap:round;stroke-linejoin:round;stroke-opacity:1" d="M 354.129,464.358 C 418.194,470.409 484.989,498.658 548.508,523.953"/>
   <path style="fill:none;stroke:#000000;stroke-width:0.5pt;stroke-linecap:round;stroke-linejoin:round;stroke-opacity:1" d="M 737.755,507.031 C 732.775,518.859 758.911,552.457 772.607,556.815"/>
   <path style="fill:none;stroke:#000000;stroke-width:0.5pt;stroke-linecap:round;stroke-linejoin:round;stroke-opacity:1" d="M 772.607,556.815 C 788.302,562.047 835.508,549.552 850.543,532.436"/>
   <path style="fill:none;stroke:#000000;stroke-width:0.5pt;stroke-linecap:round;stroke-linejoin:round;stroke-opacity:1" d="M 850.543,532.436 C 852.687,529.994 853.143,530.167 853.843,527.447"/>
   <path style="fill:none;stroke:#000000;stroke-width:0.5pt;stroke-linecap:round;stroke-linejoin:round;stroke-opacity:1" d="M 849.855,413.945 C 836.781,410.209 816.096,492.894 812.983,514.684"/>
   <path style="fill:none;stroke:#000000;stroke-width:0.5pt;stroke-linecap:round;stroke-linejoin:round;stroke-opacity:1" d="M 812.983,514.684 C 804.423,517.081 761.401,552.457 772.607,556.815"/>
   <path style="fill:none;stroke:#000000;stroke-width:0.5pt;stroke-linecap:round;stroke-linejoin:round;stroke-opacity:1" d="M 772.607,556.815 C 775.924,558.29 806.033,541.928 813.504,535.079"/>
   <path style="fill:none;stroke:#000000;stroke-width:0.5pt;stroke-linecap:round;stroke-linejoin:round;stroke-opacity:1" d="M 737.292,506.909 C 737.439,506.859 737.607,507.079 737.755,507.031"/>
   <path style="fill:none;stroke:#000000;stroke-width:0.5pt;stroke-linecap:round;stroke-linejoin:round;stroke-opacity:1" d="M 737.755,507.031 C 758.877,500.174 788.424,505.829 812.983,514.684"/>
   <path style="fill:none;stroke:#000000;stroke-width:0.5pt;stroke-linecap:round;stroke-linejoin:round;stroke-opacity:1" d="M 812.983,514.684 C 828.667,520.338 842.464,526.987 850.543,532.436"/>
   <path style="fill:none;stroke:#000000;stroke-width:0.5pt;stroke-linecap:round;stroke-linejoin:round;stroke-opacity:1" d="M 737.194,487.383 C 730.343,489.158 723.359,494.628 717.984,501.846"/>
   <path style="fill:none;stroke:#000000;stroke-width:0.5pt;stroke-linecap:round;stroke-linejoin:round;stroke-opacity:1" d="M 717.984,501.846 C 713.951,507.262 706.743,519.219 708.624,534.154"/>
   <path style="fill:none;stroke:#000000;stroke-width:0.5pt;stroke-linecap:round;stroke-linejoin:round;stroke-opacity:1" d="M 708.624,534.154 C 710.776,551.248 724.599,562.348 733.286,549.316"/>
   <path style="fill:none;stroke:#000000;stroke-width:0.5pt;stroke-linecap:round;stroke-linejoin:round;stroke-opacity:1" d="M 737.755,507.031 C 757.872,522.232 785.927,532.765 813.504,535.079"/>
   <path style="fill:none;stroke:#000000;stroke-width:0.5pt;stroke-linecap:round;stroke-linejoin:round;stroke-opacity:1" d="M 813.504,535.079 C 826.238,536.148 838.862,535.402 850.543,532.436"/>
   <path style="fill:none;stroke:#000000;stroke-width:0.5pt;stroke-linecap:round;stroke-linejoin:round;stroke-opacity:1" d="M 553.028,460.283 C 586.364,468.22 619.181,476.389 651.848,484.728"/>
   <path style="fill:none;stroke:#000000;stroke-width:0.5pt;stroke-linecap:round;stroke-linejoin:round;stroke-opacity:1" d="M 651.848,484.728 C 673.923,490.364 695.93,496.076 717.984,501.846"/>
   <path style="fill:none;stroke:#000000;stroke-width:0.5pt;stroke-linecap:round;stroke-linejoin:round;stroke-opacity:1" d="M 717.984,501.846 C 724.415,503.529 730.85,505.217 737.292,506.909"/>
   <path style="fill:none;stroke:#000000;stroke-width:0.5pt;stroke-linecap:round;stroke-linejoin:round;stroke-opacity:1" d="M 737.292,506.909 C 737.439,506.859 737.607,507.079 737.755,507.031"/>
  </g>
  <g id="intersections">
   <circle fill="black" cx="493.807" cy="417.044" stroke="none" r="2"/>
   <circle fill="black" cx="395.824" cy="415.786" stroke="none" r="2"/>
   <circle fill="black" cx="577.121" cy="454.091" stroke="none" r="2"/>
   <circle fill="black" cx="257.94" cy="470.582" stroke="none" r="2"/>
   <circle fill="black" cx="663.993" cy="547.238" stroke="none" r="2"/>
   <circle fill="black" cx="358.776" cy="561.113" stroke="none" r="2"/>
   <circle fill="black" cx="178.63" cy="518.068" stroke="none" r="2"/>
   <circle fill="black" cx="51.8714" cy="626.476" stroke="none" r="2"/>
   <circle fill="black" cx="548.508" cy="523.953" stroke="none" r="2"/>
   <circle fill="black" cx="737.755" cy="507.031" stroke="none" r="2"/>
   <circle fill="black" cx="772.607" cy="556.815" stroke="none" r="2"/>
   <circle fill="black" cx="853.843" cy="527.447" stroke="none" r="2"/>
   <circle fill="black" cx="849.855" cy="413.945" stroke="none" r="2"/>
   <circle fill="black" cx="812.983" cy="514.684" stroke="none" r="2"/>
   <circle fill="black" cx="813.504" cy="535.079" stroke="none" r="2"/>
   <circle fill="black" cx="733.286" cy="549.316" stroke="none" r="2"/>
   <circle fill="black" cx="434.921" cy="408.148" stroke="none" r="2"/>
   <circle fill="black" cx="299.309" cy="394.646" stroke="none" r="2"/>
   <circle fill="black" cx="216.314" cy="435.004" stroke="none" r="2"/>
   <circle fill="black" cx="306.099" cy="514.268" stroke="none" r="2"/>
   <circle fill="black" cx="737.194" cy="487.383" stroke="none" r="2"/>
   <circle fill="black" cx="665.834" cy="473.059" stroke="none" r="2"/>
   <circle fill="black" cx="421.066" cy="437.634" stroke="none" r="2"/>
   <circle fill="black" cx="468.917" cy="453.586" stroke="none" r="2"/>
   <circle fill="black" cx="553.028" cy="460.283" stroke="none" r="2"/>
   <circle fill="black" cx="708.624" cy="534.154" stroke="none" r="2"/>
   <circle fill="black" cx="634.677" cy="530.018" stroke="none" r="2"/>
   <circle fill="black" cx="651.848" cy="484.728" stroke="none" r="2"/>
   <circle fill="black" cx="255.787" cy="552.554" stroke="none" r="2"/>
   <circle fill="black" cx="244.035" cy="515.195" stroke="none" r="2"/>
   <circle fill="black" cx="354.129" cy="464.358" stroke="none" r="2"/>
   <circle fill="black" cx="339.168" cy="512.992" stroke="none" r="2"/>
   <circle fill="black" cx="850.543" cy="532.436" stroke="none" r="2"/>
   <circle fill="black" cx="717.984" cy="501.846" stroke="none" r="2"/>
  </g>
 </g>
</svg>
