<!DOCTYPE svg>
<svg width="900" height="900">
 <g id="layer0">
  <g id="paths">
   <path style="fill:none;stroke:#000000;stroke-width:0.5pt;stroke-linecap:round;stroke-linejoin:round;stroke-opacity:1" d="M 179.109,691.053 C 184.089,666.156 193.169,646.216 206.207,626.54"/>
   <path style="fill:none;stroke:#000000;stroke-width:0.5pt;stroke-linecap:round;stroke-linejoin:round;stroke-opacity:1" d="M 206.207,626.54 C 265.772,536.645 465.756,460.817 580.497,386.581"/>
   <path style="fill:none;stroke:#000000;stroke-width:0.5pt;stroke-linecap:round;stroke-linejoin:round;stroke-opacity:1" d="M 580.497,386.581 C 653.188,339.551 743.919,293.221 771.741,200.506"/>
   <path style="fill:none;stroke:#000000;stroke-width:0.5pt;stroke-linecap:round;stroke-linejoin:round;stroke-opacity:1" d="M 771.741,200.506 C 774.487,210.803 785.647,235.197 784.285,260.627"/>
   <path style="fill:none;stroke:#000000;stroke-width:0.5pt;stroke-linecap:round;stroke-linejoin:round;stroke-opacity:1" d="M 784.285,260.627 C 781.411,314.261 632.837,426.273 591.33,458.844"/>
   <path style="fill:none;stroke:#000000;stroke-width:0.5pt;stroke-linecap:round;stroke-linejoin:round;stroke-opacity:1" d="M 591.33,458.844 C 483.795,543.23 320.872,664.209 179.109,691.053"/>
   <path style="fill:none;stroke:#000000;stroke-width:0.5pt;stroke-linecap:round;stroke-linejoin:round;stroke-opacity:1" d="M 83.353,647.907 C 84.1188,623.401 93.7951,603.355 109.879,579.866"/>
   <path style="fill:none;stroke:#000000;stroke-width:0.5pt;stroke-linecap:round;stroke-linejoin:round;stroke-opacity:1" d="M 109.879,579.866 C 156.801,511.338 254.73,450.092 320.147,415.703"/>
   <path style="fill:none;stroke:#000000;stroke-width:0.5pt;stroke-linecap:round;stroke-linejoin:round;stroke-opacity:1" d="M 320.147,415.703 C 336.847,381.685 404.494,329.661 468.219,298.872"/>
   <path style="fill:none;stroke:#000000;stroke-width:0.5pt;stroke-linecap:round;stroke-linejoin:round;stroke-opacity:1" d="M 468.219,298.872 C 507.524,279.881 545.354,268.976 568.625,275.843"/>
   <path style="fill:none;stroke:#000000;stroke-width:0.5pt;stroke-linecap:round;stroke-linejoin:round;stroke-opacity:1" d="M 568.625,275.843 C 647.565,240.242 656.751,244.999 698.388,173.211"/>
   <path style="fill:none;stroke:#000000;stroke-width:0.5pt;stroke-linecap:round;stroke-linejoin:round;stroke-opacity:1" d="M 698.388,173.211 C 700.609,179.429 707.719,203.483 700.689,231.282"/>
   <path style="fill:none;stroke:#000000;stroke-width:0.5pt;stroke-linecap:round;stroke-linejoin:round;stroke-opacity:1" d="M 700.689,231.282 C 682.529,303.099 547.655,377.772 492.515,408.76"/>
   <path style="fill:none;stroke:#000000;stroke-width:0.5pt;stroke-linecap:round;stroke-linejoin:round;stroke-opacity:1" d="M 492.515,408.76 C 421.091,448.901 355.123,491.595 280.118,529.576"/>
   <path style="fill:none;stroke:#000000;stroke-width:0.5pt;stroke-linecap:round;stroke-linejoin:round;stroke-opacity:1" d="M 280.118,529.576 C 217.234,561.418 128.873,623.499 83.353,647.907"/>
   <path style="fill:none;stroke:#000000;stroke-width:0.5pt;stroke-linecap:round;stroke-linejoin:round;stroke-opacity:1" d="M 320.147,415.703 C 389.092,447.569 475.393,384.844 528.49,354.567"/>
   <path style="fill:none;stroke:#000000;stroke-width:0.5pt;stroke-linecap:round;stroke-linejoin:round;stroke-opacity:1" d="M 528.49,354.567 C 565.363,333.541 635.005,304.845 568.625,275.843"/>
   <path style="fill:none;stroke:#000000;stroke-width:0.5pt;stroke-linecap:round;stroke-linejoin:round;stroke-opacity:1" d="M 698.388,173.211 C 723.727,181.617 748.639,190.913 771.741,200.506"/>
   <path style="fill:none;stroke:#000000;stroke-width:0.5pt;stroke-linecap:round;stroke-linejoin:round;stroke-opacity:1" d="M 83.353,647.907 C 119.418,664.432 144.56,675.891 179.109,691.053"/>
   <path style="fill:none;stroke:#000000;stroke-width:0.5pt;stroke-linecap:round;stroke-linejoin:round;stroke-opacity:1" d="M 468.219,298.872 C 499.773,316.067 519.349,332.63 528.49,354.567"/>
   <path style="fill:none;stroke:#000000;stroke-width:0.5pt;stroke-linecap:round;stroke-linejoin:round;stroke-opacity:1" d="M 528.49,354.567 C 545.496,365.805 566.753,374.11 580.497,386.581"/>
   <path style="fill:none;stroke:#000000;stroke-width:0.5pt;stroke-linecap:round;stroke-linejoin:round;stroke-opacity:1" d="M 580.497,386.581 C 582.399,391.264 583.816,397.71 585.11,405.483"/>
   <path style="fill:none;stroke:#000000;stroke-width:0.5pt;stroke-linecap:round;stroke-linejoin:round;stroke-opacity:1" d="M 585.11,405.483 C 586.665,418.823 589.775,445.504 591.33,458.844"/>
   <path style="fill:none;stroke:#000000;stroke-width:0.5pt;stroke-linecap:round;stroke-linejoin:round;stroke-opacity:1" d="M 591.33,458.844 C 558.376,440.811 529.74,430.721 492.515,408.76"/>
   <path style="fill:none;stroke:#000000;stroke-width:0.5pt;stroke-linecap:round;stroke-linejoin:round;stroke-opacity:1" d="M 109.879,579.866 C 146.187,597.659 170.64,611.161 206.207,626.54"/>
   <path style="fill:none;stroke:#000000;stroke-width:0.5pt;stroke-linecap:round;stroke-linejoin:round;stroke-opacity:1" d="M 206.207,626.54 C 329.44,568.346 479.779,474.24 585.11,405.483"/>
   <path style="fill:none;stroke:#000000;stroke-width:0.5pt;stroke-linecap:round;stroke-linejoin:round;stroke-opacity:1" d="M 585.11,405.483 C 636.696,371.809 739.818,305.983 784.285,260.627"/>
   <path style="fill:none;stroke:#000000;stroke-width:0.5pt;stroke-linecap:round;stroke-linejoin:round;stroke-opacity:1" d="M 784.285,260.627 C 763.386,253.291 721.588,238.618 700.689,231.282"/>
  </g>
  <g id="intersections">
   <circle fill="black" cx="179.109" cy="691.053" stroke="none" r="2"/>
   <circle fill="black" cx="771.741" cy="200.506" stroke="none" r="2"/>
   <circle fill="black" cx="83.353" cy="647.907" stroke="none" r="2"/>
   <circle fill="black" cx="320.147" cy="415.703" stroke="none" r="2"/>
   <circle fill="black" cx="568.625" cy="275.843" stroke="none" r="2"/>
   <circle fill="black" cx="698.388" cy="173.211" stroke="none" r="2"/>
   <circle fill="black" cx="528.49" cy="354.567" stroke="none" r="2"/>
   <circle fill="black" cx="580.497" cy="386.581" stroke="none" r="2"/>
   <circle fill="black" cx="591.33" cy="458.844" stroke="none" r="2"/>
   <circle fill="black" cx="206.207" cy="626.54" stroke="none" r="2"/>
   <circle fill="black" cx="784.285" cy="260.627" stroke="none" r="2"/>
   <circle fill="black" cx="109.879" cy="579.866" stroke="none" r="2"/>
   <circle fill="black" cx="468.219" cy="298.872" stroke="none" r="2"/>
   <circle fill="black" cx="700.689" cy="231.282" stroke="none" r="2"/>
   <circle fill="black" cx="492.515" cy="408.76" stroke="none" r="2"/>
   <circle fill="black" cx="585.11" cy="405.483" stroke="none" r="2"/>
  </g>
 </g>
 <g id="layer1">
  <g id="paths">
   <path style="fill:none;stroke:#000000;stroke-width:0.5pt;stroke-linecap:round;stroke-linejoin:round;stroke-opacity:1" d="M 280.521,689.226 C 267.205,676.993 268.78,649.328 281.956,620.162"/>
   <path style="fill:none;stroke:#000000;stroke-width:0.5pt;stroke-linecap:round;stroke-linejoin:round;stroke-opacity:1" d="M 281.956,620.162 C 298.669,583.163 337.218,540.597 379.002,532.056"/>
   <path style="fill:none;stroke:#000000;stroke-width:0.5pt;stroke-linecap:round;stroke-linejoin:round;stroke-opacity:1" d="M 379.002,532.056 C 390.235,529.76 400.979,530.213 410.539,533.891"/>
   <path style="fill:none;stroke:#000000;stroke-width:0.5pt;stroke-linecap:round;stroke-linejoin:round;stroke-opacity:1" d="M 410.539,533.891 C 433.849,542.861 427.393,575.924 422.708,593.017"/>
   <path style="fill:none;stroke:#000000;stroke-width:0.5pt;stroke-linecap:round;stroke-linejoin:round;stroke-opacity:1" d="M 422.708,593.017 C 410.212,638.613 379.505,674.08 340.051,689.926"/>
   <path style="fill:none;stroke:#000000;stroke-width:0.5pt;stroke-linecap:round;stroke-linejoin:round;stroke-opacity:1" d="M 340.051,689.926 C 318.415,698.616 292.936,700.631 280.521,689.226"/>
   <path style="fill:none;stroke:#000000;stroke-width:0.5pt;stroke-linecap:round;stroke-linejoin:round;stroke-opacity:1" d="M 410.539,533.891 C 426.403,542.823 441.139,551.412 457.493,561.074"/>
   <path style="fill:none;stroke:#000000;stroke-width:0.5pt;stroke-linecap:round;stroke-linejoin:round;stroke-opacity:1" d="M 318.187,646.072 C 333.663,610.462 372.203,565.597 416.182,554.624"/>
   <path style="fill:none;stroke:#000000;stroke-width:0.5pt;stroke-linecap:round;stroke-linejoin:round;stroke-opacity:1" d="M 416.182,554.624 C 426.609,552.022 445.457,550.318 457.493,561.074"/>
   <path style="fill:none;stroke:#000000;stroke-width:0.5pt;stroke-linecap:round;stroke-linejoin:round;stroke-opacity:1" d="M 457.493,561.074 C 469.833,572.103 469.574,595.057 464.596,615.887"/>
   <path style="fill:none;stroke:#000000;stroke-width:0.5pt;stroke-linecap:round;stroke-linejoin:round;stroke-opacity:1" d="M 464.596,615.887 C 454.135,659.665 418.127,697.21 381.815,713.532"/>
   <path style="fill:none;stroke:#000000;stroke-width:0.5pt;stroke-linecap:round;stroke-linejoin:round;stroke-opacity:1" d="M 381.815,713.532 C 363.689,721.68 346.1,723.943 332.189,718.989"/>
   <path style="fill:none;stroke:#000000;stroke-width:0.5pt;stroke-linecap:round;stroke-linejoin:round;stroke-opacity:1" d="M 332.189,718.989 C 302.693,708.483 305.726,674.743 318.187,646.072"/>
   <path style="fill:none;stroke:#000000;stroke-width:0.5pt;stroke-linecap:round;stroke-linejoin:round;stroke-opacity:1" d="M 281.956,620.162 C 290.509,626.291 295.434,629.891 302.03,634.605"/>
   <path style="fill:none;stroke:#000000;stroke-width:0.5pt;stroke-linecap:round;stroke-linejoin:round;stroke-opacity:1" d="M 302.03,634.605 C 306.529,637.821 312.509,642.017 318.187,646.072"/>
   <path style="fill:none;stroke:#000000;stroke-width:0.5pt;stroke-linecap:round;stroke-linejoin:round;stroke-opacity:1" d="M 318.187,646.072 C 338.779,651.081 380.431,647.766 413.692,639.114"/>
   <path style="fill:none;stroke:#000000;stroke-width:0.5pt;stroke-linecap:round;stroke-linejoin:round;stroke-opacity:1" d="M 413.692,639.114 C 425.569,636.024 454.119,627.861 464.596,615.887"/>
   <path style="fill:none;stroke:#000000;stroke-width:0.5pt;stroke-linecap:round;stroke-linejoin:round;stroke-opacity:1" d="M 464.596,615.887 C 454.124,610.17 433.18,598.735 422.708,593.017"/>
   <path style="fill:none;stroke:#000000;stroke-width:0.5pt;stroke-linecap:round;stroke-linejoin:round;stroke-opacity:1" d="M 340.051,689.926 C 352.472,697.316 377.539,710.547 381.815,713.532"/>
   <path style="fill:none;stroke:#000000;stroke-width:0.5pt;stroke-linecap:round;stroke-linejoin:round;stroke-opacity:1" d="M 381.815,713.532 C 398.3,691.086 407.888,667.394 413.692,639.114"/>
   <path style="fill:none;stroke:#000000;stroke-width:0.5pt;stroke-linecap:round;stroke-linejoin:round;stroke-opacity:1" d="M 413.692,639.114 C 419.674,609.962 420.195,580.283 416.182,554.624"/>
   <path style="fill:none;stroke:#000000;stroke-width:0.5pt;stroke-linecap:round;stroke-linejoin:round;stroke-opacity:1" d="M 416.182,554.624 C 409.085,550.304 403.282,546.718 397.735,543.381"/>
   <path style="fill:none;stroke:#000000;stroke-width:0.5pt;stroke-linecap:round;stroke-linejoin:round;stroke-opacity:1" d="M 397.735,543.381 C 391.438,539.594 385.505,536.118 379.002,532.056"/>
   <path style="fill:none;stroke:#000000;stroke-width:0.5pt;stroke-linecap:round;stroke-linejoin:round;stroke-opacity:1" d="M 280.521,689.226 C 287.324,693.018 293.634,696.676 300.101,700.381"/>
   <path style="fill:none;stroke:#000000;stroke-width:0.5pt;stroke-linecap:round;stroke-linejoin:round;stroke-opacity:1" d="M 300.101,700.381 C 310.609,706.401 321.164,712.482 332.189,718.989"/>
   <path style="fill:none;stroke:#000000;stroke-width:0.5pt;stroke-linecap:round;stroke-linejoin:round;stroke-opacity:1" d="M 397.735,543.381 C 361.817,555.992 318.051,589.485 302.03,634.605"/>
   <path style="fill:none;stroke:#000000;stroke-width:0.5pt;stroke-linecap:round;stroke-linejoin:round;stroke-opacity:1" d="M 302.03,634.605 C 294.955,654.529 293.291,676.72 300.101,700.381"/>
  </g>
  <g id="intersections">
   <circle fill="black" cx="281.956" cy="620.162" stroke="none" r="2"/>
   <circle fill="black" cx="318.187" cy="646.072" stroke="none" r="2"/>
   <circle fill="black" cx="464.596" cy="615.887" stroke="none" r="2"/>
   <circle fill="black" cx="381.815" cy="713.532" stroke="none" r="2"/>
   <circle fill="black" cx="416.182" cy="554.624" stroke="none" r="2"/>
   <circle fill="black" cx="280.521" cy="689.226" stroke="none" r="2"/>
   <circle fill="black" cx="379.002" cy="532.056" stroke="none" r="2"/>
   <circle fill="black" cx="410.539" cy="533.891" stroke="none" r="2"/>
   <circle fill="black" cx="422.708" cy="593.017" stroke="none" r="2"/>
   <circle fill="black" cx="340.051" cy="689.926" stroke="none" r="2"/>
   <circle fill="black" cx="457.493" cy="561.074" stroke="none" r="2"/>
   <circle fill="black" cx="332.189" cy="718.989" stroke="none" r="2"/>
   <circle fill="black" cx="302.03" cy="634.605" stroke="none" r="2"/>
   <circle fill="black" cx="413.692" cy="639.114" stroke="none" r="2"/>
   <circle fill="black" cx="397.735" cy="543.381" stroke="none" r="2"/>
   <circle fill="black" cx="300.101" cy="700.381" stroke="none" r="2"/>
  </g>
 </g>
 <g id="layer2">
  <g id="paths">
   <path style="fill:none;stroke:#000000;stroke-width:0.5pt;stroke-linecap:round;stroke-linejoin:round;stroke-opacity:1" d="M 680.901,390.059 C 668.371,378.88 668.828,353.947 679.636,326.886"/>
   <path style="fill:none;stroke:#000000;stroke-width:0.5pt;stroke-linecap:round;stroke-linejoin:round;stroke-opacity:1" d="M 679.636,326.886 C 694.681,289.216 731.855,245.806 773.665,234.625"/>
   <path style="fill:none;stroke:#000000;stroke-width:0.5pt;stroke-linecap:round;stroke-linejoin:round;stroke-opacity:1" d="M 773.665,234.625 C 783.865,231.897 793.755,231.404 802.889,233.338"/>
   <path style="fill:none;stroke:#000000;stroke-width:0.5pt;stroke-linecap:round;stroke-linejoin:round;stroke-opacity:1" d="M 802.889,233.338 C 829.885,239.055 831.336,261.357 823.069,292.683"/>
   <path style="fill:none;stroke:#000000;stroke-width:0.5pt;stroke-linecap:round;stroke-linejoin:round;stroke-opacity:1" d="M 823.069,292.683 C 811.642,335.984 782.249,375.395 737.176,391.692"/>
   <path style="fill:none;stroke:#000000;stroke-width:0.5pt;stroke-linecap:round;stroke-linejoin:round;stroke-opacity:1" d="M 737.176,391.692 C 726.315,395.619 696.232,403.738 680.901,390.059"/>
   <path style="fill:none;stroke:#000000;stroke-width:0.5pt;stroke-linecap:round;stroke-linejoin:round;stroke-opacity:1" d="M 680.901,390.059 C 685.583,392.424 689.928,394.635 694.2,396.751"/>
   <path style="fill:none;stroke:#000000;stroke-width:0.5pt;stroke-linecap:round;stroke-linejoin:round;stroke-opacity:1" d="M 694.2,396.751 C 704.19,401.7 713.454,406.163 723.517,410.898"/>
   <path style="fill:none;stroke:#000000;stroke-width:0.5pt;stroke-linecap:round;stroke-linejoin:round;stroke-opacity:1" d="M 802.889,233.338 C 823.175,241.971 833.334,246.449 857.115,256.823"/>
   <path style="fill:none;stroke:#000000;stroke-width:0.5pt;stroke-linecap:round;stroke-linejoin:round;stroke-opacity:1" d="M 723.517,410.898 C 707.389,399.214 708.16,372.787 718.647,345.724"/>
   <path style="fill:none;stroke:#000000;stroke-width:0.5pt;stroke-linecap:round;stroke-linejoin:round;stroke-opacity:1" d="M 718.647,345.724 C 733.155,308.288 770.464,264.617 813.29,252.781"/>
   <path style="fill:none;stroke:#000000;stroke-width:0.5pt;stroke-linecap:round;stroke-linejoin:round;stroke-opacity:1" d="M 813.29,252.781 C 821.39,250.542 843.908,247.044 857.115,256.823"/>
   <path style="fill:none;stroke:#000000;stroke-width:0.5pt;stroke-linecap:round;stroke-linejoin:round;stroke-opacity:1" d="M 857.115,256.823 C 874.698,269.842 866.81,306.66 864.483,315.552"/>
   <path style="fill:none;stroke:#000000;stroke-width:0.5pt;stroke-linecap:round;stroke-linejoin:round;stroke-opacity:1" d="M 864.483,315.552 C 853.324,358.179 816.925,396.717 778.71,411.812"/>
   <path style="fill:none;stroke:#000000;stroke-width:0.5pt;stroke-linecap:round;stroke-linejoin:round;stroke-opacity:1" d="M 778.71,411.812 C 765.534,417.017 740.44,423.158 723.517,410.898"/>
   <path style="fill:none;stroke:#000000;stroke-width:0.5pt;stroke-linecap:round;stroke-linejoin:round;stroke-opacity:1" d="M 737.176,391.692 C 748.609,397.217 768.23,405.346 778.71,411.812"/>
   <path style="fill:none;stroke:#000000;stroke-width:0.5pt;stroke-linecap:round;stroke-linejoin:round;stroke-opacity:1" d="M 778.71,411.812 C 795.816,388.521 804.717,365.202 810.248,339.674"/>
   <path style="fill:none;stroke:#000000;stroke-width:0.5pt;stroke-linecap:round;stroke-linejoin:round;stroke-opacity:1" d="M 810.248,339.674 C 816.728,309.761 817.415,279.153 813.29,252.781"/>
   <path style="fill:none;stroke:#000000;stroke-width:0.5pt;stroke-linecap:round;stroke-linejoin:round;stroke-opacity:1" d="M 813.29,252.781 C 806.166,249.577 800.702,247.072 795.56,244.752"/>
   <path style="fill:none;stroke:#000000;stroke-width:0.5pt;stroke-linecap:round;stroke-linejoin:round;stroke-opacity:1" d="M 795.56,244.752 C 788.72,241.667 782.455,238.855 773.665,234.625"/>
   <path style="fill:none;stroke:#000000;stroke-width:0.5pt;stroke-linecap:round;stroke-linejoin:round;stroke-opacity:1" d="M 679.636,326.886 C 688.073,331.274 692.982,333.718 698.873,336.509"/>
   <path style="fill:none;stroke:#000000;stroke-width:0.5pt;stroke-linecap:round;stroke-linejoin:round;stroke-opacity:1" d="M 698.873,336.509 C 704.416,339.135 710.94,342.119 718.647,345.724"/>
   <path style="fill:none;stroke:#000000;stroke-width:0.5pt;stroke-linecap:round;stroke-linejoin:round;stroke-opacity:1" d="M 718.647,345.724 C 738.481,350.548 777.694,347.633 810.248,339.674"/>
   <path style="fill:none;stroke:#000000;stroke-width:0.5pt;stroke-linecap:round;stroke-linejoin:round;stroke-opacity:1" d="M 810.248,339.674 C 819.099,337.51 852.875,328.817 864.483,315.552"/>
   <path style="fill:none;stroke:#000000;stroke-width:0.5pt;stroke-linecap:round;stroke-linejoin:round;stroke-opacity:1" d="M 864.483,315.552 C 854.129,309.835 833.423,298.4 823.069,292.683"/>
   <path style="fill:none;stroke:#000000;stroke-width:0.5pt;stroke-linecap:round;stroke-linejoin:round;stroke-opacity:1" d="M 795.56,244.752 C 750.389,254.461 713.356,292.525 698.873,336.509"/>
   <path style="fill:none;stroke:#000000;stroke-width:0.5pt;stroke-linecap:round;stroke-linejoin:round;stroke-opacity:1" d="M 698.873,336.509 C 692.429,356.077 690.449,376.816 694.2,396.751"/>
  </g>
  <g id="intersections">
   <circle fill="black" cx="778.71" cy="411.812" stroke="none" r="2"/>
   <circle fill="black" cx="813.29" cy="252.781" stroke="none" r="2"/>
   <circle fill="black" cx="679.636" cy="326.886" stroke="none" r="2"/>
   <circle fill="black" cx="718.647" cy="345.724" stroke="none" r="2"/>
   <circle fill="black" cx="864.483" cy="315.552" stroke="none" r="2"/>
   <circle fill="black" cx="680.901" cy="390.059" stroke="none" r="2"/>
   <circle fill="black" cx="773.665" cy="234.625" stroke="none" r="2"/>
   <circle fill="black" cx="802.889" cy="233.338" stroke="none" r="2"/>
   <circle fill="black" cx="823.069" cy="292.683" stroke="none" r="2"/>
   <circle fill="black" cx="737.176" cy="391.692" stroke="none" r="2"/>
   <circle fill="black" cx="694.2" cy="396.751" stroke="none" r="2"/>
   <circle fill="black" cx="723.517" cy="410.898" stroke="none" r="2"/>
   <circle fill="black" cx="857.115" cy="256.823" stroke="none" r="2"/>
   <circle fill="black" cx="810.248" cy="339.674" stroke="none" r="2"/>
   <circle fill="black" cx="795.56" cy="244.752" stroke="none" r="2"/>
   <circle fill="black" cx="698.873" cy="336.509" stroke="none" r="2"/>
  </g>
 </g>
</svg>
