<!DOCTYPE svg>
<svg width="900" height="900">
 <g id="layer0">
  <g id="paths">
   <path style="fill:none;stroke:#000000;stroke-width:0.5pt;stroke-linecap:round;stroke-linejoin:round;stroke-opacity:1" d="M 219.78,405.438 C 221.832,404.438 224.455,402.514 226.992,400.225"/>
   <path style="fill:none;stroke:#000000;stroke-width:0.5pt;stroke-linecap:round;stroke-linejoin:round;stroke-opacity:1" d="M 226.992,400.225 C 248.211,381.075 285.338,320.954 321.914,286.032"/>
   <path style="fill:none;stroke:#000000;stroke-width:0.5pt;stroke-linecap:round;stroke-linejoin:round;stroke-opacity:1" d="M 321.914,286.032 C 372.659,237.581 503.336,245.735 567.633,248.655"/>
   <path style="fill:none;stroke:#000000;stroke-width:0.5pt;stroke-linecap:round;stroke-linejoin:round;stroke-opacity:1" d="M 567.633,248.655 C 610.393,250.597 720.818,260.508 754.859,246.106"/>
   <path style="fill:none;stroke:#000000;stroke-width:0.5pt;stroke-linecap:round;stroke-linejoin:round;stroke-opacity:1" d="M 754.859,246.106 C 758.179,295.916 746.587,345.042 705.368,382.635"/>
   <path style="fill:none;stroke:#000000;stroke-width:0.5pt;stroke-linecap:round;stroke-linejoin:round;stroke-opacity:1" d="M 705.368,382.635 C 672.69,412.44 62.1686,596.838 60.3171,595.613"/>
   <path style="fill:none;stroke:#000000;stroke-width:0.5pt;stroke-linecap:round;stroke-linejoin:round;stroke-opacity:1" d="M 60.3171,595.613 C 41.7994,583.367 32.0244,558.657 29.3332,532.694"/>
   <path style="fill:none;stroke:#000000;stroke-width:0.5pt;stroke-linecap:round;stroke-linejoin:round;stroke-opacity:1" d="M 29.3332,532.694 C 33.1541,513.59 49.8507,495.731 64.7915,484.513"/>
   <path style="fill:none;stroke:#000000;stroke-width:0.5pt;stroke-linecap:round;stroke-linejoin:round;stroke-opacity:1" d="M 64.7915,484.513 C 102.673,456.07 176.264,419.943 219.78,405.438"/>
   <path style="fill:none;stroke:#000000;stroke-width:0.5pt;stroke-linecap:round;stroke-linejoin:round;stroke-opacity:1" d="M 64.7915,484.513 C 102.317,502.344 150.554,524.027 171.009,561.194"/>
   <path style="fill:none;stroke:#000000;stroke-width:0.5pt;stroke-linecap:round;stroke-linejoin:round;stroke-opacity:1" d="M 171.009,561.194 C 183.519,583.922 184.398,610.916 182.959,645.793"/>
   <path style="fill:none;stroke:#000000;stroke-width:0.5pt;stroke-linecap:round;stroke-linejoin:round;stroke-opacity:1" d="M 60.3171,595.613 C 81.6582,614.114 136.931,638.305 182.959,645.793"/>
   <path style="fill:none;stroke:#000000;stroke-width:0.5pt;stroke-linecap:round;stroke-linejoin:round;stroke-opacity:1" d="M 182.959,645.793 C 220.683,651.93 251.309,638.561 290.622,627.329"/>
   <path style="fill:none;stroke:#000000;stroke-width:0.5pt;stroke-linecap:round;stroke-linejoin:round;stroke-opacity:1" d="M 290.622,627.329 C 282.896,624.01 290.817,626.334 282.374,622.115"/>
   <path style="fill:none;stroke:#000000;stroke-width:0.5pt;stroke-linecap:round;stroke-linejoin:round;stroke-opacity:1" d="M 282.374,622.115 C 290.283,619.779 308.098,613.896 327.606,607.269"/>
   <path style="fill:none;stroke:#000000;stroke-width:0.5pt;stroke-linecap:round;stroke-linejoin:round;stroke-opacity:1" d="M 327.606,607.269 C 347.338,600.566 367.254,593.57 375.728,590.118"/>
   <path style="fill:none;stroke:#000000;stroke-width:0.5pt;stroke-linecap:round;stroke-linejoin:round;stroke-opacity:1" d="M 375.728,590.118 C 380.023,593.696 384.692,593.544 388.227,596.071"/>
   <path style="fill:none;stroke:#000000;stroke-width:0.5pt;stroke-linecap:round;stroke-linejoin:round;stroke-opacity:1" d="M 388.227,596.071 C 396.36,590.261 406.917,582.661 423.721,573.332"/>
   <path style="fill:none;stroke:#000000;stroke-width:0.5pt;stroke-linecap:round;stroke-linejoin:round;stroke-opacity:1" d="M 423.721,573.332 C 465.851,549.942 599.862,516.739 642.557,518.116"/>
   <path style="fill:none;stroke:#000000;stroke-width:0.5pt;stroke-linecap:round;stroke-linejoin:round;stroke-opacity:1" d="M 642.557,518.116 C 631.816,512.967 637.89,515.417 625.877,507.59"/>
   <path style="fill:none;stroke:#000000;stroke-width:0.5pt;stroke-linecap:round;stroke-linejoin:round;stroke-opacity:1" d="M 625.877,507.59 C 635.064,504.839 653.674,500.845 673.131,496.293"/>
   <path style="fill:none;stroke:#000000;stroke-width:0.5pt;stroke-linecap:round;stroke-linejoin:round;stroke-opacity:1" d="M 673.131,496.293 C 691.012,492.109 709.456,487.644 720.515,483.459"/>
   <path style="fill:none;stroke:#000000;stroke-width:0.5pt;stroke-linecap:round;stroke-linejoin:round;stroke-opacity:1" d="M 720.515,483.459 C 726.132,485.955 731.71,488.748 738.594,492.638"/>
   <path style="fill:none;stroke:#000000;stroke-width:0.5pt;stroke-linecap:round;stroke-linejoin:round;stroke-opacity:1" d="M 738.594,492.638 C 747.123,489.825 753.533,485.88 759.381,480.726"/>
   <path style="fill:none;stroke:#000000;stroke-width:0.5pt;stroke-linecap:round;stroke-linejoin:round;stroke-opacity:1" d="M 759.381,480.726 C 791.02,452.84 781.171,397.093 705.368,382.635"/>
   <path style="fill:none;stroke:#000000;stroke-width:0.5pt;stroke-linecap:round;stroke-linejoin:round;stroke-opacity:1" d="M 226.992,400.225 C 267.413,408.063 298.518,436.644 320.185,471.216"/>
   <path style="fill:none;stroke:#000000;stroke-width:0.5pt;stroke-linecap:round;stroke-linejoin:round;stroke-opacity:1" d="M 320.185,471.216 C 322.686,475.182 327.686,483.113 330.187,487.079"/>
   <path style="fill:none;stroke:#000000;stroke-width:0.5pt;stroke-linecap:round;stroke-linejoin:round;stroke-opacity:1" d="M 330.187,487.079 C 352.217,521.335 337.087,525.841 339.02,558.696"/>
   <path style="fill:none;stroke:#000000;stroke-width:0.5pt;stroke-linecap:round;stroke-linejoin:round;stroke-opacity:1" d="M 339.02,558.696 C 335.744,555.186 330.65,554.9 328.297,552.68"/>
   <path style="fill:none;stroke:#000000;stroke-width:0.5pt;stroke-linecap:round;stroke-linejoin:round;stroke-opacity:1" d="M 328.297,552.68 C 328.101,565.654 327.831,586.416 327.606,607.269"/>
   <path style="fill:none;stroke:#000000;stroke-width:0.5pt;stroke-linecap:round;stroke-linejoin:round;stroke-opacity:1" d="M 327.606,607.269 C 327.371,629.131 327.189,649.95 327.189,663.14"/>
   <path style="fill:none;stroke:#000000;stroke-width:0.5pt;stroke-linecap:round;stroke-linejoin:round;stroke-opacity:1" d="M 328.297,552.68 C 354.699,541.365 375.728,563.403 375.728,590.118"/>
   <path style="fill:none;stroke:#000000;stroke-width:0.5pt;stroke-linecap:round;stroke-linejoin:round;stroke-opacity:1" d="M 375.728,590.118 C 375.728,619.742 355.651,655.892 327.189,663.14"/>
   <path style="fill:none;stroke:#000000;stroke-width:0.5pt;stroke-linecap:round;stroke-linejoin:round;stroke-opacity:1" d="M 327.189,663.14 C 304.22,668.99 282.248,651.267 282.374,622.115"/>
   <path style="fill:none;stroke:#000000;stroke-width:0.5pt;stroke-linecap:round;stroke-linejoin:round;stroke-opacity:1" d="M 282.374,622.115 C 282.529,586.044 305.478,561.808 328.297,552.68"/>
   <path style="fill:none;stroke:#000000;stroke-width:0.5pt;stroke-linecap:round;stroke-linejoin:round;stroke-opacity:1" d="M 29.3332,532.694 C 74.5318,559.419 119.126,571.776 171.009,561.194"/>
   <path style="fill:none;stroke:#000000;stroke-width:0.5pt;stroke-linecap:round;stroke-linejoin:round;stroke-opacity:1" d="M 171.009,561.194 C 227.877,549.595 278.305,514.838 330.187,487.079"/>
   <path style="fill:none;stroke:#000000;stroke-width:0.5pt;stroke-linecap:round;stroke-linejoin:round;stroke-opacity:1" d="M 330.187,487.079 C 353.636,474.79 400.535,450.212 423.985,437.923"/>
   <path style="fill:none;stroke:#000000;stroke-width:0.5pt;stroke-linecap:round;stroke-linejoin:round;stroke-opacity:1" d="M 423.985,437.923 C 483.73,408.929 537.429,388.411 600.975,369.848"/>
   <path style="fill:none;stroke:#000000;stroke-width:0.5pt;stroke-linecap:round;stroke-linejoin:round;stroke-opacity:1" d="M 600.975,369.848 C 624.848,362.873 651.347,358.144 674.781,355.24"/>
   <path style="fill:none;stroke:#000000;stroke-width:0.5pt;stroke-linecap:round;stroke-linejoin:round;stroke-opacity:1" d="M 674.781,355.24 C 707.716,351.159 840.09,338.122 857.599,320.062"/>
   <path style="fill:none;stroke:#000000;stroke-width:0.5pt;stroke-linecap:round;stroke-linejoin:round;stroke-opacity:1" d="M 857.599,320.062 C 874.966,302.146 762.561,249.079 754.859,246.106"/>
   <path style="fill:none;stroke:#000000;stroke-width:0.5pt;stroke-linecap:round;stroke-linejoin:round;stroke-opacity:1" d="M 567.633,248.655 C 598.729,269.94 630.975,294.579 654.69,324.448"/>
   <path style="fill:none;stroke:#000000;stroke-width:0.5pt;stroke-linecap:round;stroke-linejoin:round;stroke-opacity:1" d="M 654.69,324.448 C 656.375,326.571 658.088,328.701 659.683,330.877"/>
   <path style="fill:none;stroke:#000000;stroke-width:0.5pt;stroke-linecap:round;stroke-linejoin:round;stroke-opacity:1" d="M 659.683,330.877 C 665.374,338.641 670.44,346.753 674.781,355.24"/>
   <path style="fill:none;stroke:#000000;stroke-width:0.5pt;stroke-linecap:round;stroke-linejoin:round;stroke-opacity:1" d="M 674.781,355.24 C 692.342,389.582 692.858,426.59 692.012,455.338"/>
   <path style="fill:none;stroke:#000000;stroke-width:0.5pt;stroke-linecap:round;stroke-linejoin:round;stroke-opacity:1" d="M 692.012,455.338 C 682.806,448.922 682.232,449.967 673.026,443.551"/>
   <path style="fill:none;stroke:#000000;stroke-width:0.5pt;stroke-linecap:round;stroke-linejoin:round;stroke-opacity:1" d="M 673.026,443.551 C 673.321,449.749 673.28,471.517 673.131,496.293"/>
   <path style="fill:none;stroke:#000000;stroke-width:0.5pt;stroke-linecap:round;stroke-linejoin:round;stroke-opacity:1" d="M 673.131,496.293 C 673.012,515.99 672.802,536.887 672.571,551.418"/>
   <path style="fill:none;stroke:#000000;stroke-width:0.5pt;stroke-linecap:round;stroke-linejoin:round;stroke-opacity:1" d="M 625.877,507.59 C 626.872,485.109 642.597,450.207 673.026,443.551"/>
   <path style="fill:none;stroke:#000000;stroke-width:0.5pt;stroke-linecap:round;stroke-linejoin:round;stroke-opacity:1" d="M 673.026,443.551 C 694.029,438.956 721.457,451.237 720.515,483.459"/>
   <path style="fill:none;stroke:#000000;stroke-width:0.5pt;stroke-linecap:round;stroke-linejoin:round;stroke-opacity:1" d="M 720.515,483.459 C 719.64,513.416 696.699,544.267 672.571,551.418"/>
   <path style="fill:none;stroke:#000000;stroke-width:0.5pt;stroke-linecap:round;stroke-linejoin:round;stroke-opacity:1" d="M 672.571,551.418 C 639.107,561.337 625.159,523.828 625.877,507.59"/>
   <path style="fill:none;stroke:#000000;stroke-width:0.5pt;stroke-linecap:round;stroke-linejoin:round;stroke-opacity:1" d="M 321.914,286.032 C 351.518,298.546 394.613,316.578 407.477,346.607"/>
   <path style="fill:none;stroke:#000000;stroke-width:0.5pt;stroke-linecap:round;stroke-linejoin:round;stroke-opacity:1" d="M 407.477,346.607 C 409.779,351.815 412.631,379.445 421.138,425.661"/>
   <path style="fill:none;stroke:#000000;stroke-width:0.5pt;stroke-linecap:round;stroke-linejoin:round;stroke-opacity:1" d="M 421.138,425.661 C 421.763,429.57 422.924,434.095 423.985,437.923"/>
   <path style="fill:none;stroke:#000000;stroke-width:0.5pt;stroke-linecap:round;stroke-linejoin:round;stroke-opacity:1" d="M 423.985,437.923 C 438.974,491.998 453.884,494.006 429.255,559.151"/>
   <path style="fill:none;stroke:#000000;stroke-width:0.5pt;stroke-linecap:round;stroke-linejoin:round;stroke-opacity:1" d="M 429.255,559.151 C 427.449,563.927 425.578,568.665 423.721,573.332"/>
   <path style="fill:none;stroke:#000000;stroke-width:0.5pt;stroke-linecap:round;stroke-linejoin:round;stroke-opacity:1" d="M 429.255,559.151 C 531.46,537.558 608.681,485.943 600.975,369.848"/>
   <path style="fill:none;stroke:#000000;stroke-width:0.5pt;stroke-linecap:round;stroke-linejoin:round;stroke-opacity:1" d="M 64.7915,484.513 C 170.002,529.827 222.743,511.708 320.185,471.216"/>
   <path style="fill:none;stroke:#000000;stroke-width:0.5pt;stroke-linecap:round;stroke-linejoin:round;stroke-opacity:1" d="M 320.185,471.216 C 345.423,459.827 395.9,437.05 421.138,425.661"/>
   <path style="fill:none;stroke:#000000;stroke-width:0.5pt;stroke-linecap:round;stroke-linejoin:round;stroke-opacity:1" d="M 421.138,425.661 C 485.696,398.031 617.135,346.773 659.683,330.877"/>
   <path style="fill:none;stroke:#000000;stroke-width:0.5pt;stroke-linecap:round;stroke-linejoin:round;stroke-opacity:1" d="M 219.78,405.438 C 360.629,488.898 347.115,424.327 407.477,346.607"/>
   <path style="fill:none;stroke:#000000;stroke-width:0.5pt;stroke-linecap:round;stroke-linejoin:round;stroke-opacity:1" d="M 407.477,346.607 C 455.514,284.756 581.055,304.772 654.69,324.448"/>
   <path style="fill:none;stroke:#000000;stroke-width:0.5pt;stroke-linecap:round;stroke-linejoin:round;stroke-opacity:1" d="M 857.599,320.062 C 881.713,365.675 812.159,471.507 759.381,480.726"/>
   <path style="fill:none;stroke:#000000;stroke-width:0.5pt;stroke-linecap:round;stroke-linejoin:round;stroke-opacity:1" d="M 290.622,627.329 C 291.447,599.014 310.541,565.071 339.02,558.696"/>
   <path style="fill:none;stroke:#000000;stroke-width:0.5pt;stroke-linecap:round;stroke-linejoin:round;stroke-opacity:1" d="M 339.02,558.696 C 363.744,553.162 382.877,567.097 388.227,596.071"/>
   <path style="fill:none;stroke:#000000;stroke-width:0.5pt;stroke-linecap:round;stroke-linejoin:round;stroke-opacity:1" d="M 642.557,518.116 C 642.089,491.633 665.317,456.406 692.012,455.338"/>
   <path style="fill:none;stroke:#000000;stroke-width:0.5pt;stroke-linecap:round;stroke-linejoin:round;stroke-opacity:1" d="M 692.012,455.338 C 720.357,454.205 735.688,469.169 738.594,492.638"/>
  </g>
  <g id="intersections">
   <circle fill="black" cx="219.78" cy="405.438" stroke="none" r="2"/>
   <circle fill="black" cx="754.859" cy="246.106" stroke="none" r="2"/>
   <circle fill="black" cx="29.3332" cy="532.694" stroke="none" r="2"/>
   <circle fill="black" cx="182.959" cy="645.793" stroke="none" r="2"/>
   <circle fill="black" cx="290.622" cy="627.329" stroke="none" r="2"/>
   <circle fill="black" cx="282.374" cy="622.115" stroke="none" r="2"/>
   <circle fill="black" cx="375.728" cy="590.118" stroke="none" r="2"/>
   <circle fill="black" cx="388.227" cy="596.071" stroke="none" r="2"/>
   <circle fill="black" cx="642.557" cy="518.116" stroke="none" r="2"/>
   <circle fill="black" cx="625.877" cy="507.59" stroke="none" r="2"/>
   <circle fill="black" cx="720.515" cy="483.459" stroke="none" r="2"/>
   <circle fill="black" cx="738.594" cy="492.638" stroke="none" r="2"/>
   <circle fill="black" cx="339.02" cy="558.696" stroke="none" r="2"/>
   <circle fill="black" cx="328.297" cy="552.68" stroke="none" r="2"/>
   <circle fill="black" cx="327.189" cy="663.14" stroke="none" r="2"/>
   <circle fill="black" cx="600.975" cy="369.848" stroke="none" r="2"/>
   <circle fill="black" cx="692.012" cy="455.338" stroke="none" r="2"/>
   <circle fill="black" cx="673.026" cy="443.551" stroke="none" r="2"/>
   <circle fill="black" cx="407.477" cy="346.607" stroke="none" r="2"/>
   <circle fill="black" cx="421.138" cy="425.661" stroke="none" r="2"/>
   <circle fill="black" cx="226.992" cy="400.225" stroke="none" r="2"/>
   <circle fill="black" cx="321.914" cy="286.032" stroke="none" r="2"/>
   <circle fill="black" cx="567.633" cy="248.655" stroke="none" r="2"/>
   <circle fill="black" cx="705.368" cy="382.635" stroke="none" r="2"/>
   <circle fill="black" cx="60.3171" cy="595.613" stroke="none" r="2"/>
   <circle fill="black" cx="64.7915" cy="484.513" stroke="none" r="2"/>
   <circle fill="black" cx="171.009" cy="561.194" stroke="none" r="2"/>
   <circle fill="black" cx="327.606" cy="607.269" stroke="none" r="2"/>
   <circle fill="black" cx="423.721" cy="573.332" stroke="none" r="2"/>
   <circle fill="black" cx="673.131" cy="496.293" stroke="none" r="2"/>
   <circle fill="black" cx="759.381" cy="480.726" stroke="none" r="2"/>
   <circle fill="black" cx="320.185" cy="471.216" stroke="none" r="2"/>
   <circle fill="black" cx="330.187" cy="487.079" stroke="none" r="2"/>
   <circle fill="black" cx="423.985" cy="437.923" stroke="none" r="2"/>
   <circle fill="black" cx="674.781" cy="355.24" stroke="none" r="2"/>
   <circle fill="black" cx="857.599" cy="320.062" stroke="none" r="2"/>
   <circle fill="black" cx="654.69" cy="324.448" stroke="none" r="2"/>
   <circle fill="black" cx="659.683" cy="330.877" stroke="none" r="2"/>
   <circle fill="black" cx="672.571" cy="551.418" stroke="none" r="2"/>
   <circle fill="black" cx="429.255" cy="559.151" stroke="none" r="2"/>
  </g>
 </g>
</svg>
