<!DOCTYPE svg>
<svg width="900" height="900">
 <g id="layer0">
  <g id="paths">
   <path style="fill:none;stroke:#000000;stroke-width:0.5pt;stroke-linecap:round;stroke-linejoin:round;stroke-opacity:1" d="M 723.597,493.48 C 806.677,545.745 814.855,549.699 755.12,599.484"/>
   <path style="fill:none;stroke:#000000;stroke-width:0.5pt;stroke-linecap:round;stroke-linejoin:round;stroke-opacity:1" d="M 755.12,599.484 C 700.342,645.138 301.585,876.076 249.771,879.303"/>
   <path style="fill:none;stroke:#000000;stroke-width:0.5pt;stroke-linecap:round;stroke-linejoin:round;stroke-opacity:1" d="M 249.771,879.303 C 231.526,879.911 162.468,840.535 110.968,801.737"/>
   <path style="fill:none;stroke:#000000;stroke-width:0.5pt;stroke-linecap:round;stroke-linejoin:round;stroke-opacity:1" d="M 110.968,801.737 C 110.44,786.966 110.176,775.783 109.675,763.205"/>
   <path style="fill:none;stroke:#000000;stroke-width:0.5pt;stroke-linecap:round;stroke-linejoin:round;stroke-opacity:1" d="M 109.675,763.205 C 109.225,751.939 108.564,739.485 107.461,727.348"/>
   <path style="fill:none;stroke:#000000;stroke-width:0.5pt;stroke-linecap:round;stroke-linejoin:round;stroke-opacity:1" d="M 107.461,727.348 C 208.95,681.016 315.224,637.659 414.649,591.285"/>
   <path style="fill:none;stroke:#000000;stroke-width:0.5pt;stroke-linecap:round;stroke-linejoin:round;stroke-opacity:1" d="M 414.649,591.285 C 519.577,542.344 650.939,506.82 649.527,399.561"/>
   <path style="fill:none;stroke:#000000;stroke-width:0.5pt;stroke-linecap:round;stroke-linejoin:round;stroke-opacity:1" d="M 649.527,399.561 C 647.15,218.948 329.094,243.287 287.594,450.786"/>
   <path style="fill:none;stroke:#000000;stroke-width:0.5pt;stroke-linecap:round;stroke-linejoin:round;stroke-opacity:1" d="M 287.594,450.786 C 252.648,462.167 182.756,484.931 147.81,496.312"/>
   <path style="fill:none;stroke:#000000;stroke-width:0.5pt;stroke-linecap:round;stroke-linejoin:round;stroke-opacity:1" d="M 147.81,496.312 C 134.524,444.828 132.261,364.872 133.164,304.908"/>
   <path style="fill:none;stroke:#000000;stroke-width:0.5pt;stroke-linecap:round;stroke-linejoin:round;stroke-opacity:1" d="M 133.164,304.908 C 133.82,261.317 136.395,216.794 143.953,177.922"/>
   <path style="fill:none;stroke:#000000;stroke-width:0.5pt;stroke-linecap:round;stroke-linejoin:round;stroke-opacity:1" d="M 143.953,177.922 C 308.03,112.291 481.357,71.4184 650.591,62.2388"/>
   <path style="fill:none;stroke:#000000;stroke-width:0.5pt;stroke-linecap:round;stroke-linejoin:round;stroke-opacity:1" d="M 650.591,62.2388 C 737.206,57.5405 750.833,45.3998 753.469,127.723"/>
   <path style="fill:none;stroke:#000000;stroke-width:0.5pt;stroke-linecap:round;stroke-linejoin:round;stroke-opacity:1" d="M 753.469,127.723 C 755.449,189.553 751.398,271.395 748.307,325.182"/>
   <path style="fill:none;stroke:#000000;stroke-width:0.5pt;stroke-linecap:round;stroke-linejoin:round;stroke-opacity:1" d="M 748.307,325.182 C 745.892,367.209 741.821,410.379 734.046,450.315"/>
   <path style="fill:none;stroke:#000000;stroke-width:0.5pt;stroke-linecap:round;stroke-linejoin:round;stroke-opacity:1" d="M 734.046,450.315 C 731.149,465.194 727.542,479.774 723.597,493.48"/>
   <path style="fill:none;stroke:#000000;stroke-width:0.5pt;stroke-linecap:round;stroke-linejoin:round;stroke-opacity:1" d="M 723.597,493.48 C 707.399,503.93 685.205,516.371 656.624,530.636"/>
   <path style="fill:none;stroke:#000000;stroke-width:0.5pt;stroke-linecap:round;stroke-linejoin:round;stroke-opacity:1" d="M 656.624,530.636 C 474.278,621.646 296.324,709.909 110.968,801.737"/>
   <path style="fill:none;stroke:#000000;stroke-width:0.5pt;stroke-linecap:round;stroke-linejoin:round;stroke-opacity:1" d="M 734.046,450.315 C 828.29,503.947 809.428,511.14 761.565,552.613"/>
   <path style="fill:none;stroke:#000000;stroke-width:0.5pt;stroke-linecap:round;stroke-linejoin:round;stroke-opacity:1" d="M 761.565,552.613 C 694.52,610.708 323.479,836.222 249.23,849.754"/>
   <path style="fill:none;stroke:#000000;stroke-width:0.5pt;stroke-linecap:round;stroke-linejoin:round;stroke-opacity:1" d="M 249.23,849.754 C 225.179,854.137 137.63,785.722 109.675,763.205"/>
   <path style="fill:none;stroke:#000000;stroke-width:0.5pt;stroke-linecap:round;stroke-linejoin:round;stroke-opacity:1" d="M 753.469,127.723 C 825.752,160.359 869.674,179.761 770.382,215.999"/>
   <path style="fill:none;stroke:#000000;stroke-width:0.5pt;stroke-linecap:round;stroke-linejoin:round;stroke-opacity:1" d="M 770.382,215.999 C 694.782,243.591 314.917,352.215 245.404,353.957"/>
   <path style="fill:none;stroke:#000000;stroke-width:0.5pt;stroke-linecap:round;stroke-linejoin:round;stroke-opacity:1" d="M 245.404,353.957 C 216.398,354.165 169.408,328.696 133.164,304.908"/>
   <path style="fill:none;stroke:#000000;stroke-width:0.5pt;stroke-linecap:round;stroke-linejoin:round;stroke-opacity:1" d="M 147.81,496.312 C 167.35,505.784 188.064,514.997 206.287,522.554"/>
   <path style="fill:none;stroke:#000000;stroke-width:0.5pt;stroke-linecap:round;stroke-linejoin:round;stroke-opacity:1" d="M 206.287,522.554 C 248.733,510.546 307.556,495.726 338.043,483.748"/>
   <path style="fill:none;stroke:#000000;stroke-width:0.5pt;stroke-linecap:round;stroke-linejoin:round;stroke-opacity:1" d="M 338.043,483.748 C 470.601,240.724 729.662,309.524 724.693,443.839"/>
   <path style="fill:none;stroke:#000000;stroke-width:0.5pt;stroke-linecap:round;stroke-linejoin:round;stroke-opacity:1" d="M 724.693,443.839 C 720.225,564.104 570.883,648.733 536.904,667.341"/>
   <path style="fill:none;stroke:#000000;stroke-width:0.5pt;stroke-linecap:round;stroke-linejoin:round;stroke-opacity:1" d="M 536.904,667.341 C 430.692,725.506 287.911,812.673 248.186,814.407"/>
   <path style="fill:none;stroke:#000000;stroke-width:0.5pt;stroke-linecap:round;stroke-linejoin:round;stroke-opacity:1" d="M 248.186,814.407 C 231.586,814.961 161.17,770.429 107.461,727.348"/>
   <path style="fill:none;stroke:#000000;stroke-width:0.5pt;stroke-linecap:round;stroke-linejoin:round;stroke-opacity:1" d="M 143.953,177.922 C 245.474,226.87 257.246,245.779 245.404,353.957"/>
   <path style="fill:none;stroke:#000000;stroke-width:0.5pt;stroke-linecap:round;stroke-linejoin:round;stroke-opacity:1" d="M 245.404,353.957 C 239.038,412.109 224.849,480.31 206.287,522.554"/>
   <path style="fill:none;stroke:#000000;stroke-width:0.5pt;stroke-linecap:round;stroke-linejoin:round;stroke-opacity:1" d="M 287.594,450.786 C 303.931,461.042 318.56,471.101 338.043,483.748"/>
   <path style="fill:none;stroke:#000000;stroke-width:0.5pt;stroke-linecap:round;stroke-linejoin:round;stroke-opacity:1" d="M 649.527,399.561 C 671.146,412.894 690.032,424.338 724.693,443.839"/>
   <path style="fill:none;stroke:#000000;stroke-width:0.5pt;stroke-linecap:round;stroke-linejoin:round;stroke-opacity:1" d="M 724.693,443.839 C 741.887,434.233 758.832,423.993 772.904,414.737"/>
   <path style="fill:none;stroke:#000000;stroke-width:0.5pt;stroke-linecap:round;stroke-linejoin:round;stroke-opacity:1" d="M 772.904,414.737 C 838.983,371.27 829.293,362.109 748.307,325.182"/>
   <path style="fill:none;stroke:#000000;stroke-width:0.5pt;stroke-linecap:round;stroke-linejoin:round;stroke-opacity:1" d="M 650.591,62.2388 C 757.171,111.231 760.582,111.564 770.382,215.999"/>
   <path style="fill:none;stroke:#000000;stroke-width:0.5pt;stroke-linecap:round;stroke-linejoin:round;stroke-opacity:1" d="M 770.382,215.999 C 776.976,286.259 776.492,350.325 772.904,414.737"/>
   <path style="fill:none;stroke:#000000;stroke-width:0.5pt;stroke-linecap:round;stroke-linejoin:round;stroke-opacity:1" d="M 772.904,414.737 C 769.904,468.596 765.52,517.606 761.565,552.613"/>
   <path style="fill:none;stroke:#000000;stroke-width:0.5pt;stroke-linecap:round;stroke-linejoin:round;stroke-opacity:1" d="M 761.565,552.613 C 759.105,574.389 756.811,590.747 755.12,599.484"/>
   <path style="fill:none;stroke:#000000;stroke-width:0.5pt;stroke-linecap:round;stroke-linejoin:round;stroke-opacity:1" d="M 755.12,599.484 C 736.12,584.181 679.735,547.43 656.624,530.636"/>
   <path style="fill:none;stroke:#000000;stroke-width:0.5pt;stroke-linecap:round;stroke-linejoin:round;stroke-opacity:1" d="M 248.186,814.407 C 248.79,831.897 248.9,832.912 249.23,849.754"/>
   <path style="fill:none;stroke:#000000;stroke-width:0.5pt;stroke-linecap:round;stroke-linejoin:round;stroke-opacity:1" d="M 249.23,849.754 C 249.361,856.438 249.526,865.615 249.771,879.303"/>
  </g>
  <g id="intersections">
   <circle fill="black" cx="249.771" cy="879.303" stroke="none" r="2"/>
   <circle fill="black" cx="110.968" cy="801.737" stroke="none" r="2"/>
   <circle fill="black" cx="107.461" cy="727.348" stroke="none" r="2"/>
   <circle fill="black" cx="287.594" cy="450.786" stroke="none" r="2"/>
   <circle fill="black" cx="147.81" cy="496.312" stroke="none" r="2"/>
   <circle fill="black" cx="143.953" cy="177.922" stroke="none" r="2"/>
   <circle fill="black" cx="753.469" cy="127.723" stroke="none" r="2"/>
   <circle fill="black" cx="723.597" cy="493.48" stroke="none" r="2"/>
   <circle fill="black" cx="245.404" cy="353.957" stroke="none" r="2"/>
   <circle fill="black" cx="206.287" cy="522.554" stroke="none" r="2"/>
   <circle fill="black" cx="338.043" cy="483.748" stroke="none" r="2"/>
   <circle fill="black" cx="724.693" cy="443.839" stroke="none" r="2"/>
   <circle fill="black" cx="248.186" cy="814.407" stroke="none" r="2"/>
   <circle fill="black" cx="755.12" cy="599.484" stroke="none" r="2"/>
   <circle fill="black" cx="109.675" cy="763.205" stroke="none" r="2"/>
   <circle fill="black" cx="649.527" cy="399.561" stroke="none" r="2"/>
   <circle fill="black" cx="133.164" cy="304.908" stroke="none" r="2"/>
   <circle fill="black" cx="650.591" cy="62.2388" stroke="none" r="2"/>
   <circle fill="black" cx="748.307" cy="325.182" stroke="none" r="2"/>
   <circle fill="black" cx="734.046" cy="450.315" stroke="none" r="2"/>
   <circle fill="black" cx="656.624" cy="530.636" stroke="none" r="2"/>
   <circle fill="black" cx="761.565" cy="552.613" stroke="none" r="2"/>
   <circle fill="black" cx="249.23" cy="849.754" stroke="none" r="2"/>
   <circle fill="black" cx="770.382" cy="215.999" stroke="none" r="2"/>
   <circle fill="black" cx="772.904" cy="414.737" stroke="none" r="2"/>
  </g>
 </g>
 <g id="layer1">
  <g id="paths">
   <path style="fill:none;stroke:#000000;stroke-width:0.5pt;stroke-linecap:round;stroke-linejoin:round;stroke-opacity:1" d="M 793.959,179.704 C 794.358,204.156 779.591,223.554 758.034,229.497"/>
   <path style="fill:none;stroke:#000000;stroke-width:0.5pt;stroke-linecap:round;stroke-linejoin:round;stroke-opacity:1" d="M 758.034,229.497 C 749.538,231.839 726.162,234.395 717.363,222.613"/>
   <path style="fill:none;stroke:#000000;stroke-width:0.5pt;stroke-linecap:round;stroke-linejoin:round;stroke-opacity:1" d="M 717.363,222.613 C 712.874,216.603 711.138,206.626 712.355,196.016"/>
   <path style="fill:none;stroke:#000000;stroke-width:0.5pt;stroke-linecap:round;stroke-linejoin:round;stroke-opacity:1" d="M 712.355,196.016 C 714.931,173.561 732.403,152.788 748.371,145.223"/>
   <path style="fill:none;stroke:#000000;stroke-width:0.5pt;stroke-linecap:round;stroke-linejoin:round;stroke-opacity:1" d="M 748.371,145.223 C 754.862,142.147 761.421,141.18 767.694,142.888"/>
   <path style="fill:none;stroke:#000000;stroke-width:0.5pt;stroke-linecap:round;stroke-linejoin:round;stroke-opacity:1" d="M 767.694,142.888 C 788.151,148.458 793.803,170.168 793.959,179.704"/>
   <path style="fill:none;stroke:#000000;stroke-width:0.5pt;stroke-linecap:round;stroke-linejoin:round;stroke-opacity:1" d="M 767.694,142.888 C 773,145.711 781.304,149.871 784.856,151.763"/>
   <path style="fill:none;stroke:#000000;stroke-width:0.5pt;stroke-linecap:round;stroke-linejoin:round;stroke-opacity:1" d="M 784.856,151.763 C 790.271,154.624 801.1,160.347 806.515,163.208"/>
   <path style="fill:none;stroke:#000000;stroke-width:0.5pt;stroke-linecap:round;stroke-linejoin:round;stroke-opacity:1" d="M 717.363,222.613 C 721.719,225.328 730.43,230.757 734.786,233.472"/>
   <path style="fill:none;stroke:#000000;stroke-width:0.5pt;stroke-linecap:round;stroke-linejoin:round;stroke-opacity:1" d="M 734.786,233.472 C 739.716,236.111 749.574,241.388 754.504,244.027"/>
   <path style="fill:none;stroke:#000000;stroke-width:0.5pt;stroke-linecap:round;stroke-linejoin:round;stroke-opacity:1" d="M 804.851,184.796 C 801.34,208.223 787.126,228.294 770.096,235.701"/>
   <path style="fill:none;stroke:#000000;stroke-width:0.5pt;stroke-linecap:round;stroke-linejoin:round;stroke-opacity:1" d="M 770.096,235.701 C 756.864,241.456 742.191,241.237 734.786,233.472"/>
   <path style="fill:none;stroke:#000000;stroke-width:0.5pt;stroke-linecap:round;stroke-linejoin:round;stroke-opacity:1" d="M 734.786,233.472 C 728.737,227.128 725.194,215.57 725.718,203.113"/>
   <path style="fill:none;stroke:#000000;stroke-width:0.5pt;stroke-linecap:round;stroke-linejoin:round;stroke-opacity:1" d="M 725.718,203.113 C 726.718,179.373 741.394,160.885 766.709,153.492"/>
   <path style="fill:none;stroke:#000000;stroke-width:0.5pt;stroke-linecap:round;stroke-linejoin:round;stroke-opacity:1" d="M 766.709,153.492 C 773.227,151.588 779.594,150.897 784.856,151.763"/>
   <path style="fill:none;stroke:#000000;stroke-width:0.5pt;stroke-linecap:round;stroke-linejoin:round;stroke-opacity:1" d="M 784.856,151.763 C 798.514,154.011 807.383,167.899 804.851,184.796"/>
   <path style="fill:none;stroke:#000000;stroke-width:0.5pt;stroke-linecap:round;stroke-linejoin:round;stroke-opacity:1" d="M 748.371,145.223 C 753.675,147.627 759.916,150.341 766.709,153.492"/>
   <path style="fill:none;stroke:#000000;stroke-width:0.5pt;stroke-linecap:round;stroke-linejoin:round;stroke-opacity:1" d="M 766.709,153.492 C 773.665,156.717 781.002,160.271 788.704,164.55"/>
   <path style="fill:none;stroke:#000000;stroke-width:0.5pt;stroke-linecap:round;stroke-linejoin:round;stroke-opacity:1" d="M 788.704,164.55 C 792.856,173.959 799.295,193.575 800.852,210.643"/>
   <path style="fill:none;stroke:#000000;stroke-width:0.5pt;stroke-linecap:round;stroke-linejoin:round;stroke-opacity:1" d="M 800.852,210.643 C 802.239,225.853 800.517,240.165 797.863,247.745"/>
   <path style="fill:none;stroke:#000000;stroke-width:0.5pt;stroke-linecap:round;stroke-linejoin:round;stroke-opacity:1" d="M 797.863,247.745 C 790.922,244.734 777.038,238.712 770.096,235.701"/>
   <path style="fill:none;stroke:#000000;stroke-width:0.5pt;stroke-linecap:round;stroke-linejoin:round;stroke-opacity:1" d="M 770.096,235.701 C 765.278,233.416 761.561,231.634 758.034,229.497"/>
   <path style="fill:none;stroke:#000000;stroke-width:0.5pt;stroke-linecap:round;stroke-linejoin:round;stroke-opacity:1" d="M 712.355,196.016 C 716.477,198.275 720.968,200.635 725.718,203.113"/>
   <path style="fill:none;stroke:#000000;stroke-width:0.5pt;stroke-linecap:round;stroke-linejoin:round;stroke-opacity:1" d="M 725.718,203.113 C 732.625,206.715 740.637,210.638 748.311,214.795"/>
   <path style="fill:none;stroke:#000000;stroke-width:0.5pt;stroke-linecap:round;stroke-linejoin:round;stroke-opacity:1" d="M 748.311,214.795 C 765.254,217.121 786.647,214.292 800.852,210.643"/>
   <path style="fill:none;stroke:#000000;stroke-width:0.5pt;stroke-linecap:round;stroke-linejoin:round;stroke-opacity:1" d="M 800.852,210.643 C 811.699,207.857 814.643,206.68 829.248,196.596"/>
   <path style="fill:none;stroke:#000000;stroke-width:0.5pt;stroke-linecap:round;stroke-linejoin:round;stroke-opacity:1" d="M 829.248,196.596 C 823.149,193.646 810.95,187.746 804.851,184.796"/>
   <path style="fill:none;stroke:#000000;stroke-width:0.5pt;stroke-linecap:round;stroke-linejoin:round;stroke-opacity:1" d="M 804.851,184.796 C 801.145,183.047 797.498,181.354 793.959,179.704"/>
   <path style="fill:none;stroke:#000000;stroke-width:0.5pt;stroke-linecap:round;stroke-linejoin:round;stroke-opacity:1" d="M 829.248,196.596 C 830.394,222.087 816.917,240.76 797.863,247.745"/>
   <path style="fill:none;stroke:#000000;stroke-width:0.5pt;stroke-linecap:round;stroke-linejoin:round;stroke-opacity:1" d="M 797.863,247.745 C 791.818,249.961 764.904,256.61 754.504,244.027"/>
   <path style="fill:none;stroke:#000000;stroke-width:0.5pt;stroke-linecap:round;stroke-linejoin:round;stroke-opacity:1" d="M 754.504,244.027 C 749.305,237.738 747.041,226.506 748.311,214.795"/>
   <path style="fill:none;stroke:#000000;stroke-width:0.5pt;stroke-linecap:round;stroke-linejoin:round;stroke-opacity:1" d="M 748.311,214.795 C 750.683,192.918 767.199,171.836 788.704,164.55"/>
   <path style="fill:none;stroke:#000000;stroke-width:0.5pt;stroke-linecap:round;stroke-linejoin:round;stroke-opacity:1" d="M 788.704,164.55 C 794.868,162.462 800.973,161.91 806.515,163.208"/>
   <path style="fill:none;stroke:#000000;stroke-width:0.5pt;stroke-linecap:round;stroke-linejoin:round;stroke-opacity:1" d="M 806.515,163.208 C 819.478,166.243 828.472,179.339 829.248,196.596"/>
  </g>
  <g id="intersections">
   <circle fill="black" cx="784.856" cy="151.763" stroke="none" r="2"/>
   <circle fill="black" cx="788.704" cy="164.55" stroke="none" r="2"/>
   <circle fill="black" cx="800.852" cy="210.643" stroke="none" r="2"/>
   <circle fill="black" cx="797.863" cy="247.745" stroke="none" r="2"/>
   <circle fill="black" cx="748.311" cy="214.795" stroke="none" r="2"/>
   <circle fill="black" cx="829.248" cy="196.596" stroke="none" r="2"/>
   <circle fill="black" cx="793.959" cy="179.704" stroke="none" r="2"/>
   <circle fill="black" cx="758.034" cy="229.497" stroke="none" r="2"/>
   <circle fill="black" cx="717.363" cy="222.613" stroke="none" r="2"/>
   <circle fill="black" cx="712.355" cy="196.016" stroke="none" r="2"/>
   <circle fill="black" cx="748.371" cy="145.223" stroke="none" r="2"/>
   <circle fill="black" cx="767.694" cy="142.888" stroke="none" r="2"/>
   <circle fill="black" cx="806.515" cy="163.208" stroke="none" r="2"/>
   <circle fill="black" cx="734.786" cy="233.472" stroke="none" r="2"/>
   <circle fill="black" cx="754.504" cy="244.027" stroke="none" r="2"/>
   <circle fill="black" cx="804.851" cy="184.796" stroke="none" r="2"/>
   <circle fill="black" cx="770.096" cy="235.701" stroke="none" r="2"/>
   <circle fill="black" cx="725.718" cy="203.113" stroke="none" r="2"/>
   <circle fill="black" cx="766.709" cy="153.492" stroke="none" r="2"/>
  </g>
 </g>
</svg>
