<!DOCTYPE svg>
<svg width="900" height="900">
 <g id="layer0">
  <g id="paths">
   <path style="fill:none;stroke:#000000;stroke-width:0.5pt;stroke-linecap:round;stroke-linejoin:round;stroke-opacity:1" d="M 518.751,473.643 C 560.566,450.55 608.094,423.41 667.801,389.363"/>
   <path style="fill:none;stroke:#000000;stroke-width:0.5pt;stroke-linecap:round;stroke-linejoin:round;stroke-opacity:1" d="M 667.801,389.363 C 699.474,371.303 734.513,351.353 774.02,328.946"/>
   <path style="fill:none;stroke:#000000;stroke-width:0.5pt;stroke-linecap:round;stroke-linejoin:round;stroke-opacity:1" d="M 774.02,328.946 C 776.499,326.742 753.944,288.742 726.954,248.301"/>
   <path style="fill:none;stroke:#000000;stroke-width:0.5pt;stroke-linecap:round;stroke-linejoin:round;stroke-opacity:1" d="M 726.954,248.301 C 717.779,234.554 708.092,220.524 698.702,207.523"/>
   <path style="fill:none;stroke:#000000;stroke-width:0.5pt;stroke-linecap:round;stroke-linejoin:round;stroke-opacity:1" d="M 698.702,207.523 C 672.887,171.781 649.624,143.793 645.106,150.808"/>
   <path style="fill:none;stroke:#000000;stroke-width:0.5pt;stroke-linecap:round;stroke-linejoin:round;stroke-opacity:1" d="M 645.106,150.808 C 637.03,161.333 601.849,209.97 592.607,222.236"/>
   <path style="fill:none;stroke:#000000;stroke-width:0.5pt;stroke-linecap:round;stroke-linejoin:round;stroke-opacity:1" d="M 592.607,222.236 C 625.384,278.724 619.396,362.286 578.217,414.184"/>
   <path style="fill:none;stroke:#000000;stroke-width:0.5pt;stroke-linecap:round;stroke-linejoin:round;stroke-opacity:1" d="M 578.217,414.184 C 539.065,463.528 477.342,490.259 435.365,500.366"/>
   <path style="fill:none;stroke:#000000;stroke-width:0.5pt;stroke-linecap:round;stroke-linejoin:round;stroke-opacity:1" d="M 435.365,500.366 C 386.463,512.141 331.755,492.861 307.046,453.561"/>
   <path style="fill:none;stroke:#000000;stroke-width:0.5pt;stroke-linecap:round;stroke-linejoin:round;stroke-opacity:1" d="M 307.046,453.561 C 238.012,471.106 226.317,448.254 191.236,389.819"/>
   <path style="fill:none;stroke:#000000;stroke-width:0.5pt;stroke-linecap:round;stroke-linejoin:round;stroke-opacity:1" d="M 191.236,389.819 C 186.743,403.614 183.934,408.776 180.765,419.718"/>
   <path style="fill:none;stroke:#000000;stroke-width:0.5pt;stroke-linecap:round;stroke-linejoin:round;stroke-opacity:1" d="M 180.765,419.718 C 186.434,433.273 195.348,468.367 199.11,486.427"/>
   <path style="fill:none;stroke:#000000;stroke-width:0.5pt;stroke-linecap:round;stroke-linejoin:round;stroke-opacity:1" d="M 199.11,486.427 C 201.74,499.056 203.614,511.743 205.679,524.598"/>
   <path style="fill:none;stroke:#000000;stroke-width:0.5pt;stroke-linecap:round;stroke-linejoin:round;stroke-opacity:1" d="M 205.679,524.598 C 207.973,538.882 210.541,553.395 215.589,568.811"/>
   <path style="fill:none;stroke:#000000;stroke-width:0.5pt;stroke-linecap:round;stroke-linejoin:round;stroke-opacity:1" d="M 215.589,568.811 C 220.962,585.216 228.922,602.515 241.661,621.249"/>
   <path style="fill:none;stroke:#000000;stroke-width:0.5pt;stroke-linecap:round;stroke-linejoin:round;stroke-opacity:1" d="M 241.661,621.249 C 261.258,611.323 280.302,601.522 298.747,591.917"/>
   <path style="fill:none;stroke:#000000;stroke-width:0.5pt;stroke-linecap:round;stroke-linejoin:round;stroke-opacity:1" d="M 298.747,591.917 C 322.363,579.619 344.989,567.646 366.435,556.182"/>
   <path style="fill:none;stroke:#000000;stroke-width:0.5pt;stroke-linecap:round;stroke-linejoin:round;stroke-opacity:1" d="M 366.435,556.182 C 416.744,529.292 472.089,499.413 518.751,473.643"/>
   <path style="fill:none;stroke:#000000;stroke-width:0.5pt;stroke-linecap:round;stroke-linejoin:round;stroke-opacity:1" d="M 241.661,621.249 C 262.572,631.822 297.123,626.968 340.343,614.222"/>
   <path style="fill:none;stroke:#000000;stroke-width:0.5pt;stroke-linecap:round;stroke-linejoin:round;stroke-opacity:1" d="M 340.343,614.222 C 365.128,606.912 393.472,597.919 421.93,585.431"/>
   <path style="fill:none;stroke:#000000;stroke-width:0.5pt;stroke-linecap:round;stroke-linejoin:round;stroke-opacity:1" d="M 421.93,585.431 C 472.466,563.255 526.687,534.346 577.114,503.789"/>
   <path style="fill:none;stroke:#000000;stroke-width:0.5pt;stroke-linecap:round;stroke-linejoin:round;stroke-opacity:1" d="M 577.114,503.789 C 628.678,472.543 676.274,439.573 711.908,410.316"/>
   <path style="fill:none;stroke:#000000;stroke-width:0.5pt;stroke-linecap:round;stroke-linejoin:round;stroke-opacity:1" d="M 711.908,410.316 C 756.12,374.016 781.915,343.431 774.02,328.946"/>
   <path style="fill:none;stroke:#000000;stroke-width:0.5pt;stroke-linecap:round;stroke-linejoin:round;stroke-opacity:1" d="M 199.11,486.427 C 205.695,490.332 209.75,492.573 216.152,496.178"/>
   <path style="fill:none;stroke:#000000;stroke-width:0.5pt;stroke-linecap:round;stroke-linejoin:round;stroke-opacity:1" d="M 216.152,496.178 C 257.643,491.006 299.151,482.665 339.891,471.089"/>
   <path style="fill:none;stroke:#000000;stroke-width:0.5pt;stroke-linecap:round;stroke-linejoin:round;stroke-opacity:1" d="M 339.891,471.089 C 351.669,467.742 362.084,464.609 373.715,460.72"/>
   <path style="fill:none;stroke:#000000;stroke-width:0.5pt;stroke-linecap:round;stroke-linejoin:round;stroke-opacity:1" d="M 373.715,460.72 C 428.41,442.43 482.574,417.522 531.622,387.031"/>
   <path style="fill:none;stroke:#000000;stroke-width:0.5pt;stroke-linecap:round;stroke-linejoin:round;stroke-opacity:1" d="M 531.622,387.031 C 568.24,364.266 615.893,329.953 652.546,291.17"/>
   <path style="fill:none;stroke:#000000;stroke-width:0.5pt;stroke-linecap:round;stroke-linejoin:round;stroke-opacity:1" d="M 652.546,291.17 C 677.09,265.2 698.702,234.46 698.702,207.523"/>
   <path style="fill:none;stroke:#000000;stroke-width:0.5pt;stroke-linecap:round;stroke-linejoin:round;stroke-opacity:1" d="M 215.589,568.811 C 218.484,569.667 218.643,535.726 218.612,531.802"/>
   <path style="fill:none;stroke:#000000;stroke-width:0.5pt;stroke-linecap:round;stroke-linejoin:round;stroke-opacity:1" d="M 218.612,531.802 C 218.515,519.441 217.458,508.689 216.152,496.178"/>
   <path style="fill:none;stroke:#000000;stroke-width:0.5pt;stroke-linecap:round;stroke-linejoin:round;stroke-opacity:1" d="M 216.152,496.178 C 213.727,472.943 209.913,448.251 204.567,432.523"/>
   <path style="fill:none;stroke:#000000;stroke-width:0.5pt;stroke-linecap:round;stroke-linejoin:round;stroke-opacity:1" d="M 204.567,432.523 C 210.881,415.501 214.653,412.797 217.644,404.741"/>
   <path style="fill:none;stroke:#000000;stroke-width:0.5pt;stroke-linecap:round;stroke-linejoin:round;stroke-opacity:1" d="M 217.644,404.741 C 260.831,474.326 276.289,482.22 339.891,471.089"/>
   <path style="fill:none;stroke:#000000;stroke-width:0.5pt;stroke-linecap:round;stroke-linejoin:round;stroke-opacity:1" d="M 339.891,471.089 C 351.669,467.742 362.084,464.609 373.715,460.72"/>
   <path style="fill:none;stroke:#000000;stroke-width:0.5pt;stroke-linecap:round;stroke-linejoin:round;stroke-opacity:1" d="M 373.715,460.72 C 427.728,441.326 480.841,407.756 520.685,369.142"/>
   <path style="fill:none;stroke:#000000;stroke-width:0.5pt;stroke-linecap:round;stroke-linejoin:round;stroke-opacity:1" d="M 520.685,369.142 C 553.808,337.041 586.681,293.695 614.293,233.403"/>
   <path style="fill:none;stroke:#000000;stroke-width:0.5pt;stroke-linecap:round;stroke-linejoin:round;stroke-opacity:1" d="M 614.293,233.403 C 625.558,208.805 635.943,181.399 645.106,150.808"/>
   <path style="fill:none;stroke:#000000;stroke-width:0.5pt;stroke-linecap:round;stroke-linejoin:round;stroke-opacity:1" d="M 180.765,419.718 C 188.147,423.522 196.022,427.644 204.567,432.523"/>
   <path style="fill:none;stroke:#000000;stroke-width:0.5pt;stroke-linecap:round;stroke-linejoin:round;stroke-opacity:1" d="M 191.236,389.819 C 200.917,395.365 209.233,399.941 217.644,404.741"/>
   <path style="fill:none;stroke:#000000;stroke-width:0.5pt;stroke-linecap:round;stroke-linejoin:round;stroke-opacity:1" d="M 366.435,556.182 C 391.439,569.723 400.566,573.887 421.93,585.431"/>
   <path style="fill:none;stroke:#000000;stroke-width:0.5pt;stroke-linecap:round;stroke-linejoin:round;stroke-opacity:1" d="M 421.93,585.431 C 422.348,560.494 412.82,522.58 393.275,488.19"/>
   <path style="fill:none;stroke:#000000;stroke-width:0.5pt;stroke-linecap:round;stroke-linejoin:round;stroke-opacity:1" d="M 393.275,488.19 C 387.63,478.256 380.999,469.991 373.715,460.72"/>
   <path style="fill:none;stroke:#000000;stroke-width:0.5pt;stroke-linecap:round;stroke-linejoin:round;stroke-opacity:1" d="M 518.751,473.643 C 540.407,484.922 556.836,492.662 577.114,503.789"/>
   <path style="fill:none;stroke:#000000;stroke-width:0.5pt;stroke-linecap:round;stroke-linejoin:round;stroke-opacity:1" d="M 577.114,503.789 C 576.427,488.683 565.591,455.753 548.387,419.807"/>
   <path style="fill:none;stroke:#000000;stroke-width:0.5pt;stroke-linecap:round;stroke-linejoin:round;stroke-opacity:1" d="M 548.387,419.807 C 543.278,409.131 537.805,397.737 531.622,387.031"/>
   <path style="fill:none;stroke:#000000;stroke-width:0.5pt;stroke-linecap:round;stroke-linejoin:round;stroke-opacity:1" d="M 531.622,387.031 C 528.129,380.982 524.477,374.994 520.685,369.142"/>
   <path style="fill:none;stroke:#000000;stroke-width:0.5pt;stroke-linecap:round;stroke-linejoin:round;stroke-opacity:1" d="M 307.046,453.561 C 316.335,458.65 326.656,464.311 339.891,471.089"/>
   <path style="fill:none;stroke:#000000;stroke-width:0.5pt;stroke-linecap:round;stroke-linejoin:round;stroke-opacity:1" d="M 339.891,471.089 C 366.586,515.604 415.948,532.669 474.952,520.498"/>
   <path style="fill:none;stroke:#000000;stroke-width:0.5pt;stroke-linecap:round;stroke-linejoin:round;stroke-opacity:1" d="M 474.952,520.498 C 522.047,510.783 582.1,480.59 609.89,431.667"/>
   <path style="fill:none;stroke:#000000;stroke-width:0.5pt;stroke-linecap:round;stroke-linejoin:round;stroke-opacity:1" d="M 609.89,431.667 C 634.965,387.522 648.822,281.092 614.293,233.403"/>
   <path style="fill:none;stroke:#000000;stroke-width:0.5pt;stroke-linecap:round;stroke-linejoin:round;stroke-opacity:1" d="M 205.679,524.598 C 210.025,527.047 214.404,529.49 218.612,531.802"/>
   <path style="fill:none;stroke:#000000;stroke-width:0.5pt;stroke-linecap:round;stroke-linejoin:round;stroke-opacity:1" d="M 218.612,531.802 C 237.301,536.804 312.932,517.254 393.275,488.19"/>
   <path style="fill:none;stroke:#000000;stroke-width:0.5pt;stroke-linecap:round;stroke-linejoin:round;stroke-opacity:1" d="M 393.275,488.19 C 445.109,469.439 508.607,441.981 548.387,419.807"/>
   <path style="fill:none;stroke:#000000;stroke-width:0.5pt;stroke-linecap:round;stroke-linejoin:round;stroke-opacity:1" d="M 548.387,419.807 C 594.754,393.96 640.775,359.878 674.213,328.432"/>
   <path style="fill:none;stroke:#000000;stroke-width:0.5pt;stroke-linecap:round;stroke-linejoin:round;stroke-opacity:1" d="M 674.213,328.432 C 705.393,299.107 725.553,272.392 726.954,248.301"/>
   <path style="fill:none;stroke:#000000;stroke-width:0.5pt;stroke-linecap:round;stroke-linejoin:round;stroke-opacity:1" d="M 592.607,222.236 C 600.515,226.251 607.926,230.22 614.293,233.403"/>
   <path style="fill:none;stroke:#000000;stroke-width:0.5pt;stroke-linecap:round;stroke-linejoin:round;stroke-opacity:1" d="M 614.293,233.403 C 623.689,246.089 637.746,266.917 652.546,291.17"/>
   <path style="fill:none;stroke:#000000;stroke-width:0.5pt;stroke-linecap:round;stroke-linejoin:round;stroke-opacity:1" d="M 652.546,291.17 C 659.742,302.962 667.115,315.563 674.213,328.432"/>
   <path style="fill:none;stroke:#000000;stroke-width:0.5pt;stroke-linecap:round;stroke-linejoin:round;stroke-opacity:1" d="M 674.213,328.432 C 689.59,356.311 703.68,385.443 711.908,410.316"/>
   <path style="fill:none;stroke:#000000;stroke-width:0.5pt;stroke-linecap:round;stroke-linejoin:round;stroke-opacity:1" d="M 711.908,410.316 C 699.734,403.499 683.038,396.577 667.801,389.363"/>
   <path style="fill:none;stroke:#000000;stroke-width:0.5pt;stroke-linecap:round;stroke-linejoin:round;stroke-opacity:1" d="M 298.747,591.917 C 312.828,599.406 326.452,606.78 340.343,614.222"/>
   <path style="fill:none;stroke:#000000;stroke-width:0.5pt;stroke-linecap:round;stroke-linejoin:round;stroke-opacity:1" d="M 435.365,500.366 C 450.959,508.255 455.838,510.872 474.952,520.498"/>
   <path style="fill:none;stroke:#000000;stroke-width:0.5pt;stroke-linecap:round;stroke-linejoin:round;stroke-opacity:1" d="M 578.217,414.184 C 586.85,418.885 597.862,425.102 609.89,431.667"/>
  </g>
  <g id="intersections">
   <circle fill="black" cx="774.02" cy="328.946" stroke="none" r="2"/>
   <circle fill="black" cx="645.106" cy="150.808" stroke="none" r="2"/>
   <circle fill="black" cx="592.607" cy="222.236" stroke="none" r="2"/>
   <circle fill="black" cx="307.046" cy="453.561" stroke="none" r="2"/>
   <circle fill="black" cx="191.236" cy="389.819" stroke="none" r="2"/>
   <circle fill="black" cx="180.765" cy="419.718" stroke="none" r="2"/>
   <circle fill="black" cx="241.661" cy="621.249" stroke="none" r="2"/>
   <circle fill="black" cx="216.152" cy="496.178" stroke="none" r="2"/>
   <circle fill="black" cx="698.702" cy="207.523" stroke="none" r="2"/>
   <circle fill="black" cx="215.589" cy="568.811" stroke="none" r="2"/>
   <circle fill="black" cx="218.612" cy="531.802" stroke="none" r="2"/>
   <circle fill="black" cx="204.567" cy="432.523" stroke="none" r="2"/>
   <circle fill="black" cx="217.644" cy="404.741" stroke="none" r="2"/>
   <circle fill="black" cx="339.891" cy="471.089" stroke="none" r="2"/>
   <circle fill="black" cx="366.435" cy="556.182" stroke="none" r="2"/>
   <circle fill="black" cx="421.93" cy="585.431" stroke="none" r="2"/>
   <circle fill="black" cx="373.715" cy="460.72" stroke="none" r="2"/>
   <circle fill="black" cx="577.114" cy="503.789" stroke="none" r="2"/>
   <circle fill="black" cx="726.954" cy="248.301" stroke="none" r="2"/>
   <circle fill="black" cx="614.293" cy="233.403" stroke="none" r="2"/>
   <circle fill="black" cx="711.908" cy="410.316" stroke="none" r="2"/>
   <circle fill="black" cx="518.751" cy="473.643" stroke="none" r="2"/>
   <circle fill="black" cx="667.801" cy="389.363" stroke="none" r="2"/>
   <circle fill="black" cx="578.217" cy="414.184" stroke="none" r="2"/>
   <circle fill="black" cx="435.365" cy="500.366" stroke="none" r="2"/>
   <circle fill="black" cx="199.11" cy="486.427" stroke="none" r="2"/>
   <circle fill="black" cx="205.679" cy="524.598" stroke="none" r="2"/>
   <circle fill="black" cx="298.747" cy="591.917" stroke="none" r="2"/>
   <circle fill="black" cx="340.343" cy="614.222" stroke="none" r="2"/>
   <circle fill="black" cx="531.622" cy="387.031" stroke="none" r="2"/>
   <circle fill="black" cx="652.546" cy="291.17" stroke="none" r="2"/>
   <circle fill="black" cx="520.685" cy="369.142" stroke="none" r="2"/>
   <circle fill="black" cx="393.275" cy="488.19" stroke="none" r="2"/>
   <circle fill="black" cx="548.387" cy="419.807" stroke="none" r="2"/>
   <circle fill="black" cx="474.952" cy="520.498" stroke="none" r="2"/>
   <circle fill="black" cx="609.89" cy="431.667" stroke="none" r="2"/>
   <circle fill="black" cx="674.213" cy="328.432" stroke="none" r="2"/>
  </g>
 </g>
</svg>
