<!DOCTYPE svg>
<svg width="1028" height="1028">
 <g id="layer0">
  <g id="paths">
   <path style="fill:none;stroke:#000000;stroke-width:0.5pt;stroke-linecap:round;stroke-linejoin:round;stroke-opacity:1" d="M 568.021,791.419 C 525.842,764.108 440.548,753.738 381.99,776.987"/>
   <path style="fill:none;stroke:#000000;stroke-width:0.5pt;stroke-linecap:round;stroke-linejoin:round;stroke-opacity:1" d="M 381.99,776.987 C 339.599,793.816 303.108,829.025 346.829,859.762"/>
   <path style="fill:none;stroke:#000000;stroke-width:0.5pt;stroke-linecap:round;stroke-linejoin:round;stroke-opacity:1" d="M 346.829,859.762 C 398.866,896.347 500.721,895.579 551.996,872.888"/>
   <path style="fill:none;stroke:#000000;stroke-width:0.5pt;stroke-linecap:round;stroke-linejoin:round;stroke-opacity:1" d="M 551.996,872.888 C 588.379,856.788 615.114,821.912 568.021,791.419"/>
   <path style="fill:none;stroke:#000000;stroke-width:0.5pt;stroke-linecap:round;stroke-linejoin:round;stroke-opacity:1" d="M 570.892,715.435 C 517.648,677.74 435.232,678.734 380.997,697.167"/>
   <path style="fill:none;stroke:#000000;stroke-width:0.5pt;stroke-linecap:round;stroke-linejoin:round;stroke-opacity:1" d="M 380.997,697.167 C 339.116,711.401 299.447,744.728 343.982,783.949"/>
   <path style="fill:none;stroke:#000000;stroke-width:0.5pt;stroke-linecap:round;stroke-linejoin:round;stroke-opacity:1" d="M 343.982,783.949 C 369.824,806.707 419.253,826.525 483.542,816.857"/>
   <path style="fill:none;stroke:#000000;stroke-width:0.5pt;stroke-linecap:round;stroke-linejoin:round;stroke-opacity:1" d="M 483.542,816.857 C 495.478,797.011 504.996,793.348 517.251,787.808"/>
   <path style="fill:none;stroke:#000000;stroke-width:0.5pt;stroke-linecap:round;stroke-linejoin:round;stroke-opacity:1" d="M 517.251,787.808 C 536.168,779.255 556.222,778.207 579.308,779.681"/>
   <path style="fill:none;stroke:#000000;stroke-width:0.5pt;stroke-linecap:round;stroke-linejoin:round;stroke-opacity:1" d="M 579.308,779.681 C 604.304,758.994 597.717,734.426 570.892,715.435"/>
   <path style="fill:none;stroke:#000000;stroke-width:0.5pt;stroke-linecap:round;stroke-linejoin:round;stroke-opacity:1" d="M 574.389,632.153 C 523.554,602.354 432.508,605.388 380.193,618.862"/>
   <path style="fill:none;stroke:#000000;stroke-width:0.5pt;stroke-linecap:round;stroke-linejoin:round;stroke-opacity:1" d="M 380.193,618.862 C 335.047,630.49 294.763,661.001 340.309,694.803"/>
   <path style="fill:none;stroke:#000000;stroke-width:0.5pt;stroke-linecap:round;stroke-linejoin:round;stroke-opacity:1" d="M 340.309,694.803 C 387.356,729.718 474.949,737.721 538.512,716.01"/>
   <path style="fill:none;stroke:#000000;stroke-width:0.5pt;stroke-linecap:round;stroke-linejoin:round;stroke-opacity:1" d="M 538.512,716.01 C 575.22,703.472 626.548,662.728 574.389,632.153"/>
   <path style="fill:none;stroke:#000000;stroke-width:0.5pt;stroke-linecap:round;stroke-linejoin:round;stroke-opacity:1" d="M 586.87,356.906 C 552.211,329.743 442.701,358.634 411.744,366.098"/>
   <path style="fill:none;stroke:#000000;stroke-width:0.5pt;stroke-linecap:round;stroke-linejoin:round;stroke-opacity:1" d="M 411.744,366.098 C 397.864,369.444 286.525,394.617 328.629,429.726"/>
   <path style="fill:none;stroke:#000000;stroke-width:0.5pt;stroke-linecap:round;stroke-linejoin:round;stroke-opacity:1" d="M 328.629,429.726 C 367.418,462.071 465.495,433.46 507.041,421.664"/>
   <path style="fill:none;stroke:#000000;stroke-width:0.5pt;stroke-linecap:round;stroke-linejoin:round;stroke-opacity:1" d="M 507.041,421.664 C 523.298,417.048 628.66,389.656 586.87,356.906"/>
   <path style="fill:none;stroke:#000000;stroke-width:0.5pt;stroke-linecap:round;stroke-linejoin:round;stroke-opacity:1" d="M 463.695,825.331 C 422.523,801.379 406.51,793.16 381.99,776.987"/>
   <path style="fill:none;stroke:#000000;stroke-width:0.5pt;stroke-linecap:round;stroke-linejoin:round;stroke-opacity:1" d="M 381.99,776.987 C 381.504,757.555 381.23,727.003 380.997,697.167"/>
   <path style="fill:none;stroke:#000000;stroke-width:0.5pt;stroke-linecap:round;stroke-linejoin:round;stroke-opacity:1" d="M 380.997,697.167 C 380.751,665.587 380.55,634.807 380.193,618.862"/>
   <path style="fill:none;stroke:#000000;stroke-width:0.5pt;stroke-linecap:round;stroke-linejoin:round;stroke-opacity:1" d="M 380.193,618.862 C 383.958,579.107 394.258,493.593 411.744,366.098"/>
   <path style="fill:none;stroke:#000000;stroke-width:0.5pt;stroke-linecap:round;stroke-linejoin:round;stroke-opacity:1" d="M 411.744,366.098 C 424.14,275.715 440.483,166.61 460.335,35.3771"/>
   <path style="fill:none;stroke:#000000;stroke-width:0.5pt;stroke-linecap:round;stroke-linejoin:round;stroke-opacity:1" d="M 460.335,35.3771 C 479.307,165.018 491.996,285.429 507.041,421.664"/>
   <path style="fill:none;stroke:#000000;stroke-width:0.5pt;stroke-linecap:round;stroke-linejoin:round;stroke-opacity:1" d="M 507.041,421.664 C 518.845,528.543 530.497,635.551 538.512,716.01"/>
   <path style="fill:none;stroke:#000000;stroke-width:0.5pt;stroke-linecap:round;stroke-linejoin:round;stroke-opacity:1" d="M 538.512,716.01 C 539.345,724.37 540.138,732.443 540.889,740.199"/>
   <path style="fill:none;stroke:#000000;stroke-width:0.5pt;stroke-linecap:round;stroke-linejoin:round;stroke-opacity:1" d="M 540.889,740.199 C 524.961,761.99 513.578,777.563 517.251,787.808"/>
   <path style="fill:none;stroke:#000000;stroke-width:0.5pt;stroke-linecap:round;stroke-linejoin:round;stroke-opacity:1" d="M 517.251,787.808 C 519.344,793.649 530.203,798.572 543.799,812.944"/>
   <path style="fill:none;stroke:#000000;stroke-width:0.5pt;stroke-linecap:round;stroke-linejoin:round;stroke-opacity:1" d="M 543.799,812.944 C 547.277,835.311 548.392,842.611 551.996,872.888"/>
   <path style="fill:none;stroke:#000000;stroke-width:0.5pt;stroke-linecap:round;stroke-linejoin:round;stroke-opacity:1" d="M 551.996,872.888 C 512.452,853.798 490.509,840.931 463.695,825.331"/>
   <path style="fill:none;stroke:#000000;stroke-width:0.5pt;stroke-linecap:round;stroke-linejoin:round;stroke-opacity:1" d="M 606.552,-8.46314 C 601.631,82.8791 591.791,265.563 586.87,356.906"/>
   <path style="fill:none;stroke:#000000;stroke-width:0.5pt;stroke-linecap:round;stroke-linejoin:round;stroke-opacity:1" d="M 586.87,356.906 C 582.309,452.202 577.841,551.774 574.389,632.153"/>
   <path style="fill:none;stroke:#000000;stroke-width:0.5pt;stroke-linecap:round;stroke-linejoin:round;stroke-opacity:1" d="M 574.389,632.153 C 573.054,663.236 571.871,691.449 570.892,715.435"/>
   <path style="fill:none;stroke:#000000;stroke-width:0.5pt;stroke-linecap:round;stroke-linejoin:round;stroke-opacity:1" d="M 570.892,715.435 C 569.378,752.583 568.355,779.591 568.021,791.419"/>
   <path style="fill:none;stroke:#000000;stroke-width:0.5pt;stroke-linecap:round;stroke-linejoin:round;stroke-opacity:1" d="M 568.021,791.419 C 546.376,800.922 507.118,812.75 463.695,825.331"/>
   <path style="fill:none;stroke:#000000;stroke-width:0.5pt;stroke-linecap:round;stroke-linejoin:round;stroke-opacity:1" d="M 463.695,825.331 C 424.866,836.581 382.706,848.433 346.829,859.762"/>
   <path style="fill:none;stroke:#000000;stroke-width:0.5pt;stroke-linecap:round;stroke-linejoin:round;stroke-opacity:1" d="M 346.829,859.762 C 346.118,840.809 344.694,802.902 343.982,783.949"/>
   <path style="fill:none;stroke:#000000;stroke-width:0.5pt;stroke-linecap:round;stroke-linejoin:round;stroke-opacity:1" d="M 343.982,783.949 C 343.086,763.152 341.825,731.918 340.309,694.803"/>
   <path style="fill:none;stroke:#000000;stroke-width:0.5pt;stroke-linecap:round;stroke-linejoin:round;stroke-opacity:1" d="M 340.309,694.803 C 337.18,618.162 332.965,516.438 328.629,429.726"/>
   <path style="fill:none;stroke:#000000;stroke-width:0.5pt;stroke-linecap:round;stroke-linejoin:round;stroke-opacity:1" d="M 328.629,429.726 C 323.832,342.008 314.238,166.572 309.441,78.8539"/>
   <path style="fill:none;stroke:#000000;stroke-width:0.5pt;stroke-linecap:round;stroke-linejoin:round;stroke-opacity:1" d="M 540.889,740.199 C 508.625,748.956 482.269,797.63 483.542,816.857"/>
   <path style="fill:none;stroke:#000000;stroke-width:0.5pt;stroke-linecap:round;stroke-linejoin:round;stroke-opacity:1" d="M 483.542,816.857 C 484.68,834.036 525.058,823.251 543.799,812.944"/>
   <path style="fill:none;stroke:#000000;stroke-width:0.5pt;stroke-linecap:round;stroke-linejoin:round;stroke-opacity:1" d="M 543.799,812.944 C 549.925,809.575 578.256,792.688 579.308,779.681"/>
   <path style="fill:none;stroke:#000000;stroke-width:0.5pt;stroke-linecap:round;stroke-linejoin:round;stroke-opacity:1" d="M 579.308,779.681 C 580.796,761.295 560.581,734.854 540.889,740.199"/>
   <path style="fill:none;stroke:#000000;stroke-width:0.5pt;stroke-linecap:round;stroke-linejoin:round;stroke-opacity:1" d="M 606.552,-8.46314 C 572.404,2.55524 515.839,19.2636 460.335,35.3771"/>
   <path style="fill:none;stroke:#000000;stroke-width:0.5pt;stroke-linecap:round;stroke-linejoin:round;stroke-opacity:1" d="M 460.335,35.3771 C 397.064,53.7455 335.173,71.341 309.441,78.8539"/>
  </g>
  <g id="intersections">
   <circle fill="black" cx="483.542" cy="816.857" stroke="none" r="2"/>
   <circle fill="black" cx="579.308" cy="779.681" stroke="none" r="2"/>
   <circle fill="black" cx="381.99" cy="776.987" stroke="none" r="2"/>
   <circle fill="black" cx="380.193" cy="618.862" stroke="none" r="2"/>
   <circle fill="black" cx="460.335" cy="35.3771" stroke="none" r="2"/>
   <circle fill="black" cx="540.889" cy="740.199" stroke="none" r="2"/>
   <circle fill="black" cx="517.251" cy="787.808" stroke="none" r="2"/>
   <circle fill="black" cx="543.799" cy="812.944" stroke="none" r="2"/>
   <circle fill="black" cx="551.996" cy="872.888" stroke="none" r="2"/>
   <circle fill="black" cx="568.021" cy="791.419" stroke="none" r="2"/>
   <circle fill="black" cx="346.829" cy="859.762" stroke="none" r="2"/>
   <circle fill="black" cx="570.892" cy="715.435" stroke="none" r="2"/>
   <circle fill="black" cx="380.997" cy="697.167" stroke="none" r="2"/>
   <circle fill="black" cx="343.982" cy="783.949" stroke="none" r="2"/>
   <circle fill="black" cx="574.389" cy="632.153" stroke="none" r="2"/>
   <circle fill="black" cx="340.309" cy="694.803" stroke="none" r="2"/>
   <circle fill="black" cx="538.512" cy="716.01" stroke="none" r="2"/>
   <circle fill="black" cx="586.87" cy="356.906" stroke="none" r="2"/>
   <circle fill="black" cx="411.744" cy="366.098" stroke="none" r="2"/>
   <circle fill="black" cx="328.629" cy="429.726" stroke="none" r="2"/>
   <circle fill="black" cx="507.041" cy="421.664" stroke="none" r="2"/>
   <circle fill="black" cx="463.695" cy="825.331" stroke="none" r="2"/>
  </g>
 </g>
</svg>
