<!DOCTYPE svg>
<svg width="900" height="900">
 <g id="layer0">
  <g id="paths">
   <path style="fill:none;stroke:#000000;stroke-width:0.5pt;stroke-linecap:round;stroke-linejoin:round;stroke-opacity:1" d="M 474.842,325.538 C 522.058,299.869 559.175,283.672 612.239,267.235"/>
   <path style="fill:none;stroke:#000000;stroke-width:0.5pt;stroke-linecap:round;stroke-linejoin:round;stroke-opacity:1" d="M 612.239,267.235 C 657.018,253.364 708.535,239.168 741.396,230.14"/>
   <path style="fill:none;stroke:#000000;stroke-width:0.5pt;stroke-linecap:round;stroke-linejoin:round;stroke-opacity:1" d="M 741.396,230.14 C 740.011,272.385 742.178,398.042 707.784,430.79"/>
   <path style="fill:none;stroke:#000000;stroke-width:0.5pt;stroke-linecap:round;stroke-linejoin:round;stroke-opacity:1" d="M 707.784,430.79 C 689.85,447.867 657.764,464.443 615.231,486.035"/>
   <path style="fill:none;stroke:#000000;stroke-width:0.5pt;stroke-linecap:round;stroke-linejoin:round;stroke-opacity:1" d="M 615.231,486.035 C 539.956,524.248 475.605,554.246 390.464,590.091"/>
   <path style="fill:none;stroke:#000000;stroke-width:0.5pt;stroke-linecap:round;stroke-linejoin:round;stroke-opacity:1" d="M 390.464,590.091 C 296.094,629.821 215.188,665.542 108.449,700.075"/>
   <path style="fill:none;stroke:#000000;stroke-width:0.5pt;stroke-linecap:round;stroke-linejoin:round;stroke-opacity:1" d="M 108.449,700.075 C 142.44,627.562 272.532,490.117 332.176,431.884"/>
   <path style="fill:none;stroke:#000000;stroke-width:0.5pt;stroke-linecap:round;stroke-linejoin:round;stroke-opacity:1" d="M 332.176,431.884 C 378.482,386.672 413.141,359.082 474.842,325.538"/>
   <path style="fill:none;stroke:#000000;stroke-width:0.5pt;stroke-linecap:round;stroke-linejoin:round;stroke-opacity:1" d="M 108.449,700.075 C 142.482,712.036 158.753,717.731 192.919,728.097"/>
   <path style="fill:none;stroke:#000000;stroke-width:0.5pt;stroke-linecap:round;stroke-linejoin:round;stroke-opacity:1" d="M 192.919,728.097 C 255.431,726.819 422.854,644.078 477.611,614.445"/>
   <path style="fill:none;stroke:#000000;stroke-width:0.5pt;stroke-linecap:round;stroke-linejoin:round;stroke-opacity:1" d="M 477.611,614.445 C 483.128,611.459 488.613,608.439 494.084,605.415"/>
   <path style="fill:none;stroke:#000000;stroke-width:0.5pt;stroke-linecap:round;stroke-linejoin:round;stroke-opacity:1" d="M 494.084,605.415 C 559.967,569 622.263,530.172 674.19,497.37"/>
   <path style="fill:none;stroke:#000000;stroke-width:0.5pt;stroke-linecap:round;stroke-linejoin:round;stroke-opacity:1" d="M 674.19,497.37 C 693.838,484.959 736.328,460.973 754.307,440.462"/>
   <path style="fill:none;stroke:#000000;stroke-width:0.5pt;stroke-linecap:round;stroke-linejoin:round;stroke-opacity:1" d="M 192.919,728.097 C 252.84,652.491 350.294,540.458 424.373,486.469"/>
   <path style="fill:none;stroke:#000000;stroke-width:0.5pt;stroke-linecap:round;stroke-linejoin:round;stroke-opacity:1" d="M 424.373,486.469 C 467.417,455.098 533.965,420.616 554.291,378.697"/>
   <path style="fill:none;stroke:#000000;stroke-width:0.5pt;stroke-linecap:round;stroke-linejoin:round;stroke-opacity:1" d="M 554.291,378.697 C 583.461,318.541 584.113,315.527 641.691,286.439"/>
   <path style="fill:none;stroke:#000000;stroke-width:0.5pt;stroke-linecap:round;stroke-linejoin:round;stroke-opacity:1" d="M 641.691,286.439 C 670.011,272.131 700.312,260.643 730.611,249.697"/>
   <path style="fill:none;stroke:#000000;stroke-width:0.5pt;stroke-linecap:round;stroke-linejoin:round;stroke-opacity:1" d="M 730.611,249.697 C 739.2,246.594 747.788,243.535 756.331,240.468"/>
   <path style="fill:none;stroke:#000000;stroke-width:0.5pt;stroke-linecap:round;stroke-linejoin:round;stroke-opacity:1" d="M 332.176,431.884 C 364.13,444.612 413.527,470.319 424.373,486.469"/>
   <path style="fill:none;stroke:#000000;stroke-width:0.5pt;stroke-linecap:round;stroke-linejoin:round;stroke-opacity:1" d="M 424.373,486.469 C 426.165,491.645 467.376,555.593 477.611,614.445"/>
   <path style="fill:none;stroke:#000000;stroke-width:0.5pt;stroke-linecap:round;stroke-linejoin:round;stroke-opacity:1" d="M 477.611,614.445 C 446.251,608.326 417.062,599.937 390.464,590.091"/>
   <path style="fill:none;stroke:#000000;stroke-width:0.5pt;stroke-linecap:round;stroke-linejoin:round;stroke-opacity:1" d="M 466.319,552.131 C 472.253,553.088 474.631,556.959 478.907,563.332"/>
   <path style="fill:none;stroke:#000000;stroke-width:0.5pt;stroke-linecap:round;stroke-linejoin:round;stroke-opacity:1" d="M 478.907,563.332 C 484.202,571.222 492.713,588.948 494.084,605.415"/>
   <path style="fill:none;stroke:#000000;stroke-width:0.5pt;stroke-linecap:round;stroke-linejoin:round;stroke-opacity:1" d="M 466.319,552.131 C 489.388,537.358 552.181,506.035 581.837,477.677"/>
   <path style="fill:none;stroke:#000000;stroke-width:0.5pt;stroke-linecap:round;stroke-linejoin:round;stroke-opacity:1" d="M 581.837,477.677 C 599.455,460.829 605.38,444.95 584.324,434.422"/>
   <path style="fill:none;stroke:#000000;stroke-width:0.5pt;stroke-linecap:round;stroke-linejoin:round;stroke-opacity:1" d="M 478.907,563.332 C 533.209,532.641 616.804,486.771 662.953,455.968"/>
   <path style="fill:none;stroke:#000000;stroke-width:0.5pt;stroke-linecap:round;stroke-linejoin:round;stroke-opacity:1" d="M 662.953,455.968 C 718.873,418.643 724.8,368.734 730.448,295.834"/>
   <path style="fill:none;stroke:#000000;stroke-width:0.5pt;stroke-linecap:round;stroke-linejoin:round;stroke-opacity:1" d="M 730.448,295.834 C 731.865,277.543 730.288,264.264 730.611,249.697"/>
   <path style="fill:none;stroke:#000000;stroke-width:0.5pt;stroke-linecap:round;stroke-linejoin:round;stroke-opacity:1" d="M 741.396,230.14 C 749.392,233.281 755.588,236.744 756.331,240.468"/>
   <path style="fill:none;stroke:#000000;stroke-width:0.5pt;stroke-linecap:round;stroke-linejoin:round;stroke-opacity:1" d="M 756.331,240.468 C 759.07,255.016 761.455,269.943 763.084,284.637"/>
   <path style="fill:none;stroke:#000000;stroke-width:0.5pt;stroke-linecap:round;stroke-linejoin:round;stroke-opacity:1" d="M 763.084,284.637 C 768.525,333.713 766.974,383.913 754.307,440.462"/>
   <path style="fill:none;stroke:#000000;stroke-width:0.5pt;stroke-linecap:round;stroke-linejoin:round;stroke-opacity:1" d="M 754.307,440.462 C 738.99,439.696 723.126,436.015 707.784,430.79"/>
   <path style="fill:none;stroke:#000000;stroke-width:0.5pt;stroke-linecap:round;stroke-linejoin:round;stroke-opacity:1" d="M 697.347,288.194 C 675.194,296.206 643.657,314.909 611.401,337.83"/>
   <path style="fill:none;stroke:#000000;stroke-width:0.5pt;stroke-linecap:round;stroke-linejoin:round;stroke-opacity:1" d="M 611.401,337.83 C 596.637,348.321 581.729,359.68 567.49,371.33"/>
   <path style="fill:none;stroke:#000000;stroke-width:0.5pt;stroke-linecap:round;stroke-linejoin:round;stroke-opacity:1" d="M 567.49,371.33 C 577.247,395.645 585.649,415.664 584.324,434.422"/>
   <path style="fill:none;stroke:#000000;stroke-width:0.5pt;stroke-linecap:round;stroke-linejoin:round;stroke-opacity:1" d="M 584.324,434.422 C 593.391,429.742 604.367,428.683 612.837,424.667"/>
   <path style="fill:none;stroke:#000000;stroke-width:0.5pt;stroke-linecap:round;stroke-linejoin:round;stroke-opacity:1" d="M 612.837,424.667 C 715.632,375.932 692.286,289.881 697.347,288.194"/>
   <path style="fill:none;stroke:#000000;stroke-width:0.5pt;stroke-linecap:round;stroke-linejoin:round;stroke-opacity:1" d="M 612.239,267.235 C 626.353,273.902 639.626,282.22 641.691,286.439"/>
   <path style="fill:none;stroke:#000000;stroke-width:0.5pt;stroke-linecap:round;stroke-linejoin:round;stroke-opacity:1" d="M 641.691,286.439 C 649.639,310.504 645.026,342.707 611.401,337.83"/>
   <path style="fill:none;stroke:#000000;stroke-width:0.5pt;stroke-linecap:round;stroke-linejoin:round;stroke-opacity:1" d="M 612.837,424.667 C 642.002,436.023 655.743,445.29 662.953,455.968"/>
   <path style="fill:none;stroke:#000000;stroke-width:0.5pt;stroke-linecap:round;stroke-linejoin:round;stroke-opacity:1" d="M 662.953,455.968 C 670.394,466.986 670.882,479.505 674.19,497.37"/>
   <path style="fill:none;stroke:#000000;stroke-width:0.5pt;stroke-linecap:round;stroke-linejoin:round;stroke-opacity:1" d="M 674.19,497.37 C 651.57,502.692 629.724,493.715 615.231,486.035"/>
   <path style="fill:none;stroke:#000000;stroke-width:0.5pt;stroke-linecap:round;stroke-linejoin:round;stroke-opacity:1" d="M 697.347,288.194 C 711.763,293.9 721.499,296.262 730.448,295.834"/>
   <path style="fill:none;stroke:#000000;stroke-width:0.5pt;stroke-linecap:round;stroke-linejoin:round;stroke-opacity:1" d="M 730.448,295.834 C 740.485,295.353 749.532,291.361 763.084,284.637"/>
   <path style="fill:none;stroke:#000000;stroke-width:0.5pt;stroke-linecap:round;stroke-linejoin:round;stroke-opacity:1" d="M 474.842,325.538 C 506.012,334.453 536.861,356.008 554.291,378.697"/>
   <path style="fill:none;stroke:#000000;stroke-width:0.5pt;stroke-linecap:round;stroke-linejoin:round;stroke-opacity:1" d="M 554.291,378.697 C 558.041,383.578 558.212,385.099 561.02,390.2"/>
   <path style="fill:none;stroke:#000000;stroke-width:0.5pt;stroke-linecap:round;stroke-linejoin:round;stroke-opacity:1" d="M 561.02,390.2 C 575.184,415.927 581.3,447.804 581.837,477.677"/>
   <path style="fill:none;stroke:#000000;stroke-width:0.5pt;stroke-linecap:round;stroke-linejoin:round;stroke-opacity:1" d="M 567.49,371.33 C 567.319,378.113 564.804,384.792 561.02,390.2"/>
  </g>
  <g id="intersections">
   <circle fill="black" cx="741.396" cy="230.14" stroke="none" r="2"/>
   <circle fill="black" cx="108.449" cy="700.075" stroke="none" r="2"/>
   <circle fill="black" cx="192.919" cy="728.097" stroke="none" r="2"/>
   <circle fill="black" cx="424.373" cy="486.469" stroke="none" r="2"/>
   <circle fill="black" cx="477.611" cy="614.445" stroke="none" r="2"/>
   <circle fill="black" cx="584.324" cy="434.422" stroke="none" r="2"/>
   <circle fill="black" cx="730.611" cy="249.697" stroke="none" r="2"/>
   <circle fill="black" cx="756.331" cy="240.468" stroke="none" r="2"/>
   <circle fill="black" cx="754.307" cy="440.462" stroke="none" r="2"/>
   <circle fill="black" cx="697.347" cy="288.194" stroke="none" r="2"/>
   <circle fill="black" cx="567.49" cy="371.33" stroke="none" r="2"/>
   <circle fill="black" cx="641.691" cy="286.439" stroke="none" r="2"/>
   <circle fill="black" cx="674.19" cy="497.37" stroke="none" r="2"/>
   <circle fill="black" cx="554.291" cy="378.697" stroke="none" r="2"/>
   <circle fill="black" cx="474.842" cy="325.538" stroke="none" r="2"/>
   <circle fill="black" cx="612.239" cy="267.235" stroke="none" r="2"/>
   <circle fill="black" cx="707.784" cy="430.79" stroke="none" r="2"/>
   <circle fill="black" cx="615.231" cy="486.035" stroke="none" r="2"/>
   <circle fill="black" cx="390.464" cy="590.091" stroke="none" r="2"/>
   <circle fill="black" cx="332.176" cy="431.884" stroke="none" r="2"/>
   <circle fill="black" cx="494.084" cy="605.415" stroke="none" r="2"/>
   <circle fill="black" cx="478.907" cy="563.332" stroke="none" r="2"/>
   <circle fill="black" cx="581.837" cy="477.677" stroke="none" r="2"/>
   <circle fill="black" cx="662.953" cy="455.968" stroke="none" r="2"/>
   <circle fill="black" cx="730.448" cy="295.834" stroke="none" r="2"/>
   <circle fill="black" cx="763.084" cy="284.637" stroke="none" r="2"/>
   <circle fill="black" cx="611.401" cy="337.83" stroke="none" r="2"/>
   <circle fill="black" cx="612.837" cy="424.667" stroke="none" r="2"/>
   <circle fill="black" cx="561.02" cy="390.2" stroke="none" r="2"/>
  </g>
 </g>
</svg>
