<!DOCTYPE svg>
<svg width="900" height="900">
 <g id="layer0">
  <g id="paths">
   <path style="fill:none;stroke:#000000;stroke-width:0.5pt;stroke-linecap:round;stroke-linejoin:round;stroke-opacity:1" d="M 274.386,25.679 C 275.075,21.0076 286.521,24.0869 303.02,31.6205"/>
   <path style="fill:none;stroke:#000000;stroke-width:0.5pt;stroke-linecap:round;stroke-linejoin:round;stroke-opacity:1" d="M 303.02,31.6205 C 360.604,57.9137 412.979,95.9515 453.227,141.559"/>
   <path style="fill:none;stroke:#000000;stroke-width:0.5pt;stroke-linecap:round;stroke-linejoin:round;stroke-opacity:1" d="M 453.227,141.559 C 476.372,167.786 497.593,196.358 510.41,218.506"/>
   <path style="fill:none;stroke:#000000;stroke-width:0.5pt;stroke-linecap:round;stroke-linejoin:round;stroke-opacity:1" d="M 510.41,218.506 C 515.263,226.892 518.87,234.523 520.981,240.525"/>
   <path style="fill:none;stroke:#000000;stroke-width:0.5pt;stroke-linecap:round;stroke-linejoin:round;stroke-opacity:1" d="M 520.981,240.525 C 530.809,268.48 489.31,349.413 489.573,379.947"/>
   <path style="fill:none;stroke:#000000;stroke-width:0.5pt;stroke-linecap:round;stroke-linejoin:round;stroke-opacity:1" d="M 489.573,379.947 C 489.743,399.657 515,466.335 517.666,487.668"/>
   <path style="fill:none;stroke:#000000;stroke-width:0.5pt;stroke-linecap:round;stroke-linejoin:round;stroke-opacity:1" d="M 517.666,487.668 C 518.259,492.412 518.456,497.538 518.331,502.925"/>
   <path style="fill:none;stroke:#000000;stroke-width:0.5pt;stroke-linecap:round;stroke-linejoin:round;stroke-opacity:1" d="M 518.331,502.925 C 517.222,550.548 490.898,618.61 490,624"/>
   <path style="fill:none;stroke:#000000;stroke-width:0.5pt;stroke-linecap:round;stroke-linejoin:round;stroke-opacity:1" d="M 490,624 C 489,630 518.128,700.334 515.795,728.668"/>
   <path style="fill:none;stroke:#000000;stroke-width:0.5pt;stroke-linecap:round;stroke-linejoin:round;stroke-opacity:1" d="M 515.795,728.668 C 515.57,731.376 541.245,756.314 560.984,783.428"/>
   <path style="fill:none;stroke:#000000;stroke-width:0.5pt;stroke-linecap:round;stroke-linejoin:round;stroke-opacity:1" d="M 560.984,783.428 C 575.908,803.93 587.438,825.677 581.809,840"/>
   <path style="fill:none;stroke:#000000;stroke-width:0.5pt;stroke-linecap:round;stroke-linejoin:round;stroke-opacity:1" d="M 581.809,840 C 577.272,837.204 567.58,831.698 554.505,824.366"/>
   <path style="fill:none;stroke:#000000;stroke-width:0.5pt;stroke-linecap:round;stroke-linejoin:round;stroke-opacity:1" d="M 554.505,824.366 C 520.034,805.037 462.044,773.018 412.961,744.502"/>
   <path style="fill:none;stroke:#000000;stroke-width:0.5pt;stroke-linecap:round;stroke-linejoin:round;stroke-opacity:1" d="M 412.961,744.502 C 397.621,735.592 382.497,696.502 402.704,658.366"/>
   <path style="fill:none;stroke:#000000;stroke-width:0.5pt;stroke-linecap:round;stroke-linejoin:round;stroke-opacity:1" d="M 402.704,658.366 C 400.277,649.128 395.276,637.649 389.694,623.238"/>
   <path style="fill:none;stroke:#000000;stroke-width:0.5pt;stroke-linecap:round;stroke-linejoin:round;stroke-opacity:1" d="M 389.694,623.238 C 354.776,533.089 358.247,439.934 393.294,340.723"/>
   <path style="fill:none;stroke:#000000;stroke-width:0.5pt;stroke-linecap:round;stroke-linejoin:round;stroke-opacity:1" d="M 393.294,340.723 C 416.919,273.845 466.744,219.516 438.928,168.543"/>
   <path style="fill:none;stroke:#000000;stroke-width:0.5pt;stroke-linecap:round;stroke-linejoin:round;stroke-opacity:1" d="M 438.928,168.543 C 402.413,101.632 359.389,106.076 294.025,48.3578"/>
   <path style="fill:none;stroke:#000000;stroke-width:0.5pt;stroke-linecap:round;stroke-linejoin:round;stroke-opacity:1" d="M 294.025,48.3578 C 282.021,37.758 273.898,28.9854 274.386,25.679"/>
   <path style="fill:none;stroke:#000000;stroke-width:0.5pt;stroke-linecap:round;stroke-linejoin:round;stroke-opacity:1" d="M 490,624 C 474.267,623.607 461.854,627.45 448.127,632.746"/>
   <path style="fill:none;stroke:#000000;stroke-width:0.5pt;stroke-linecap:round;stroke-linejoin:round;stroke-opacity:1" d="M 448.127,632.746 C 413.167,646.235 383.67,669.05 371.504,655.773"/>
   <path style="fill:none;stroke:#000000;stroke-width:0.5pt;stroke-linecap:round;stroke-linejoin:round;stroke-opacity:1" d="M 371.504,655.773 C 362.045,645.45 371.742,628.189 389.694,623.238"/>
   <path style="fill:none;stroke:#000000;stroke-width:0.5pt;stroke-linecap:round;stroke-linejoin:round;stroke-opacity:1" d="M 274.386,25.679 C 270.45,28.2092 265.392,31.8568 281.555,47.144"/>
   <path style="fill:none;stroke:#000000;stroke-width:0.5pt;stroke-linecap:round;stroke-linejoin:round;stroke-opacity:1" d="M 281.555,47.144 C 342.742,105.018 387.979,97.6374 421.785,158.207"/>
   <path style="fill:none;stroke:#000000;stroke-width:0.5pt;stroke-linecap:round;stroke-linejoin:round;stroke-opacity:1" d="M 421.785,158.207 C 458.511,224.006 384.798,268.289 342.178,361.751"/>
   <path style="fill:none;stroke:#000000;stroke-width:0.5pt;stroke-linecap:round;stroke-linejoin:round;stroke-opacity:1" d="M 342.178,361.751 C 322.062,405.863 306.822,460.074 310.871,517.74"/>
   <path style="fill:none;stroke:#000000;stroke-width:0.5pt;stroke-linecap:round;stroke-linejoin:round;stroke-opacity:1" d="M 310.871,517.74 C 315.766,587.435 360.146,628.87 371.504,655.773"/>
   <path style="fill:none;stroke:#000000;stroke-width:0.5pt;stroke-linecap:round;stroke-linejoin:round;stroke-opacity:1" d="M 371.504,655.773 C 379.647,675.06 388.739,681.804 385,689"/>
   <path style="fill:none;stroke:#000000;stroke-width:0.5pt;stroke-linecap:round;stroke-linejoin:round;stroke-opacity:1" d="M 385,689 C 381.563,695.61 347.197,719.694 330.659,728.634"/>
   <path style="fill:none;stroke:#000000;stroke-width:0.5pt;stroke-linecap:round;stroke-linejoin:round;stroke-opacity:1" d="M 515.795,728.668 C 506.545,733.348 495.569,733.766 481.758,722.829"/>
   <path style="fill:none;stroke:#000000;stroke-width:0.5pt;stroke-linecap:round;stroke-linejoin:round;stroke-opacity:1" d="M 481.758,722.829 C 456.092,702.496 389.5,702.583 385,689"/>
   <path style="fill:none;stroke:#000000;stroke-width:0.5pt;stroke-linecap:round;stroke-linejoin:round;stroke-opacity:1" d="M 385,689 C 382.628,682.075 374.038,665.7 402.704,658.366"/>
   <path style="fill:none;stroke:#000000;stroke-width:0.5pt;stroke-linecap:round;stroke-linejoin:round;stroke-opacity:1" d="M 448.127,632.746 C 471.731,653.787 480.278,692.256 481.758,722.829"/>
   <path style="fill:none;stroke:#000000;stroke-width:0.5pt;stroke-linecap:round;stroke-linejoin:round;stroke-opacity:1" d="M 330.659,728.634 C 362.405,725.502 457.038,801.105 473.349,817.418"/>
   <path style="fill:none;stroke:#000000;stroke-width:0.5pt;stroke-linecap:round;stroke-linejoin:round;stroke-opacity:1" d="M 473.349,817.418 C 494.929,839.001 505.747,854.97 503.707,859.067"/>
   <path style="fill:none;stroke:#000000;stroke-width:0.5pt;stroke-linecap:round;stroke-linejoin:round;stroke-opacity:1" d="M 503.707,859.067 C 497.953,856.451 485.721,851.27 470.533,843.209"/>
   <path style="fill:none;stroke:#000000;stroke-width:0.5pt;stroke-linecap:round;stroke-linejoin:round;stroke-opacity:1" d="M 470.533,843.209 C 451.55,833.133 337.509,773.418 328.417,761.577"/>
   <path style="fill:none;stroke:#000000;stroke-width:0.5pt;stroke-linecap:round;stroke-linejoin:round;stroke-opacity:1" d="M 328.417,761.577 C 321.545,752.628 317.658,729.917 330.659,728.634"/>
   <path style="fill:none;stroke:#000000;stroke-width:0.5pt;stroke-linecap:round;stroke-linejoin:round;stroke-opacity:1" d="M 503.707,859.067 C 548.507,847.487 560.53,844.701 581.809,840"/>
   <path style="fill:none;stroke:#000000;stroke-width:0.5pt;stroke-linecap:round;stroke-linejoin:round;stroke-opacity:1" d="M 520.981,240.525 C 480.587,229.12 440.283,333.424 436.359,378.918"/>
   <path style="fill:none;stroke:#000000;stroke-width:0.5pt;stroke-linecap:round;stroke-linejoin:round;stroke-opacity:1" d="M 436.359,378.918 C 432.73,421.008 479.768,497.183 517.666,487.668"/>
   <path style="fill:none;stroke:#000000;stroke-width:0.5pt;stroke-linecap:round;stroke-linejoin:round;stroke-opacity:1" d="M 510.41,218.506 C 463.308,214.825 363.38,327.347 355.258,368.843"/>
   <path style="fill:none;stroke:#000000;stroke-width:0.5pt;stroke-linecap:round;stroke-linejoin:round;stroke-opacity:1" d="M 355.258,368.843 C 344.122,425.733 466.331,517.169 518.331,502.925"/>
   <path style="fill:none;stroke:#000000;stroke-width:0.5pt;stroke-linecap:round;stroke-linejoin:round;stroke-opacity:1" d="M 489.573,379.947 C 474.029,380.474 455.243,380.037 436.359,378.918"/>
   <path style="fill:none;stroke:#000000;stroke-width:0.5pt;stroke-linecap:round;stroke-linejoin:round;stroke-opacity:1" d="M 436.359,378.918 C 404.619,377.039 372.605,373.234 355.258,368.843"/>
   <path style="fill:none;stroke:#000000;stroke-width:0.5pt;stroke-linecap:round;stroke-linejoin:round;stroke-opacity:1" d="M 355.258,368.843 C 346.294,366.574 341.246,364.148 342.178,361.751"/>
   <path style="fill:none;stroke:#000000;stroke-width:0.5pt;stroke-linecap:round;stroke-linejoin:round;stroke-opacity:1" d="M 342.178,361.751 C 345.626,352.883 370.856,342.808 393.294,340.723"/>
   <path style="fill:none;stroke:#000000;stroke-width:0.5pt;stroke-linecap:round;stroke-linejoin:round;stroke-opacity:1" d="M 560.984,783.428 C 528.65,791.262 485.578,809.947 473.349,817.418"/>
   <path style="fill:none;stroke:#000000;stroke-width:0.5pt;stroke-linecap:round;stroke-linejoin:round;stroke-opacity:1" d="M 473.349,817.418 C 470.974,825.539 470.157,831.129 470.533,843.209"/>
   <path style="fill:none;stroke:#000000;stroke-width:0.5pt;stroke-linecap:round;stroke-linejoin:round;stroke-opacity:1" d="M 470.533,843.209 C 482.132,840.584 540.147,827.701 554.505,824.366"/>
   <path style="fill:none;stroke:#000000;stroke-width:0.5pt;stroke-linecap:round;stroke-linejoin:round;stroke-opacity:1" d="M 328.417,761.577 C 368.67,752.924 383.62,751.755 412.961,744.502"/>
   <path style="fill:none;stroke:#000000;stroke-width:0.5pt;stroke-linecap:round;stroke-linejoin:round;stroke-opacity:1" d="M 453.227,141.559 C 440.163,143.119 424.606,151.22 421.785,158.207"/>
   <path style="fill:none;stroke:#000000;stroke-width:0.5pt;stroke-linecap:round;stroke-linejoin:round;stroke-opacity:1" d="M 421.785,158.207 C 419.848,163.004 423.918,167.276 438.928,168.543"/>
   <path style="fill:none;stroke:#000000;stroke-width:0.5pt;stroke-linecap:round;stroke-linejoin:round;stroke-opacity:1" d="M 303.02,31.6205 C 292.483,30.2688 279.269,42.1239 281.555,47.144"/>
   <path style="fill:none;stroke:#000000;stroke-width:0.5pt;stroke-linecap:round;stroke-linejoin:round;stroke-opacity:1" d="M 281.555,47.144 C 282.516,49.2563 286.222,50.1585 294.025,48.3578"/>
  </g>
  <g id="intersections">
   <circle fill="black" cx="274.386" cy="25.679" stroke="none" r="2"/>
   <circle fill="black" cx="489.573" cy="379.947" stroke="none" r="2"/>
   <circle fill="black" cx="517.666" cy="487.668" stroke="none" r="2"/>
   <circle fill="black" cx="490" cy="624" stroke="none" r="2"/>
   <circle fill="black" cx="515.795" cy="728.668" stroke="none" r="2"/>
   <circle fill="black" cx="581.809" cy="840" stroke="none" r="2"/>
   <circle fill="black" cx="412.961" cy="744.502" stroke="none" r="2"/>
   <circle fill="black" cx="402.704" cy="658.366" stroke="none" r="2"/>
   <circle fill="black" cx="389.694" cy="623.238" stroke="none" r="2"/>
   <circle fill="black" cx="385" cy="689" stroke="none" r="2"/>
   <circle fill="black" cx="481.758" cy="722.829" stroke="none" r="2"/>
   <circle fill="black" cx="503.707" cy="859.067" stroke="none" r="2"/>
   <circle fill="black" cx="520.981" cy="240.525" stroke="none" r="2"/>
   <circle fill="black" cx="355.258" cy="368.843" stroke="none" r="2"/>
   <circle fill="black" cx="518.331" cy="502.925" stroke="none" r="2"/>
   <circle fill="black" cx="342.178" cy="361.751" stroke="none" r="2"/>
   <circle fill="black" cx="560.984" cy="783.428" stroke="none" r="2"/>
   <circle fill="black" cx="473.349" cy="817.418" stroke="none" r="2"/>
   <circle fill="black" cx="470.533" cy="843.209" stroke="none" r="2"/>
   <circle fill="black" cx="554.505" cy="824.366" stroke="none" r="2"/>
   <circle fill="black" cx="303.02" cy="31.6205" stroke="none" r="2"/>
   <circle fill="black" cx="294.025" cy="48.3578" stroke="none" r="2"/>
   <circle fill="black" cx="453.227" cy="141.559" stroke="none" r="2"/>
   <circle fill="black" cx="510.41" cy="218.506" stroke="none" r="2"/>
   <circle fill="black" cx="393.294" cy="340.723" stroke="none" r="2"/>
   <circle fill="black" cx="438.928" cy="168.543" stroke="none" r="2"/>
   <circle fill="black" cx="448.127" cy="632.746" stroke="none" r="2"/>
   <circle fill="black" cx="371.504" cy="655.773" stroke="none" r="2"/>
   <circle fill="black" cx="281.555" cy="47.144" stroke="none" r="2"/>
   <circle fill="black" cx="421.785" cy="158.207" stroke="none" r="2"/>
   <circle fill="black" cx="330.659" cy="728.634" stroke="none" r="2"/>
   <circle fill="black" cx="328.417" cy="761.577" stroke="none" r="2"/>
   <circle fill="black" cx="436.359" cy="378.918" stroke="none" r="2"/>
  </g>
 </g>
</svg>
