<!DOCTYPE svg>
<svg width="900" height="900">
 <g id="layer0">
  <g id="paths">
   <path style="fill:none;stroke:#000000;stroke-width:0.5pt;stroke-linecap:round;stroke-linejoin:round;stroke-opacity:1" d="M 211.782,420.137 C 235.118,413.673 257,408.378 281.577,402.566"/>
   <path style="fill:none;stroke:#000000;stroke-width:0.5pt;stroke-linecap:round;stroke-linejoin:round;stroke-opacity:1" d="M 281.577,402.566 C 299.14,398.412 318.09,394 339.958,388.722"/>
   <path style="fill:none;stroke:#000000;stroke-width:0.5pt;stroke-linecap:round;stroke-linejoin:round;stroke-opacity:1" d="M 339.958,388.722 C 377.864,361.394 424.705,327.091 459.891,309.289"/>
   <path style="fill:none;stroke:#000000;stroke-width:0.5pt;stroke-linecap:round;stroke-linejoin:round;stroke-opacity:1" d="M 459.891,309.289 C 509.984,283.944 544.07,271.939 578.988,268.191"/>
   <path style="fill:none;stroke:#000000;stroke-width:0.5pt;stroke-linecap:round;stroke-linejoin:round;stroke-opacity:1" d="M 578.988,268.191 C 631.083,262.616 659.372,268.418 690.745,271.7"/>
   <path style="fill:none;stroke:#000000;stroke-width:0.5pt;stroke-linecap:round;stroke-linejoin:round;stroke-opacity:1" d="M 690.745,271.7 C 699.384,272.604 708.215,273.333 717.884,273.563"/>
   <path style="fill:none;stroke:#000000;stroke-width:0.5pt;stroke-linecap:round;stroke-linejoin:round;stroke-opacity:1" d="M 717.884,273.563 C 727.105,273.783 736.291,273.58 745.449,273.132"/>
   <path style="fill:none;stroke:#000000;stroke-width:0.5pt;stroke-linecap:round;stroke-linejoin:round;stroke-opacity:1" d="M 745.449,273.132 C 776.061,271.634 806.755,267.282 840.449,265.934"/>
   <path style="fill:none;stroke:#000000;stroke-width:0.5pt;stroke-linecap:round;stroke-linejoin:round;stroke-opacity:1" d="M 840.449,265.934 C 840.062,270.473 839.623,274.868 839.137,279.135"/>
   <path style="fill:none;stroke:#000000;stroke-width:0.5pt;stroke-linecap:round;stroke-linejoin:round;stroke-opacity:1" d="M 839.137,279.135 C 838.074,288.485 836.788,297.228 835.335,305.556"/>
   <path style="fill:none;stroke:#000000;stroke-width:0.5pt;stroke-linecap:round;stroke-linejoin:round;stroke-opacity:1" d="M 835.335,305.556 C 831.758,326.055 827.166,344.035 822.379,362.349"/>
   <path style="fill:none;stroke:#000000;stroke-width:0.5pt;stroke-linecap:round;stroke-linejoin:round;stroke-opacity:1" d="M 822.379,362.349 C 820.639,369.005 818.873,375.706 817.121,382.588"/>
   <path style="fill:none;stroke:#000000;stroke-width:0.5pt;stroke-linecap:round;stroke-linejoin:round;stroke-opacity:1" d="M 817.121,382.588 C 792.784,391.528 740.807,408.583 681.334,427.25"/>
   <path style="fill:none;stroke:#000000;stroke-width:0.5pt;stroke-linecap:round;stroke-linejoin:round;stroke-opacity:1" d="M 681.334,427.25 C 500.556,483.992 229.303,561.815 35.089,595.514"/>
   <path style="fill:none;stroke:#000000;stroke-width:0.5pt;stroke-linecap:round;stroke-linejoin:round;stroke-opacity:1" d="M 35.089,595.514 C 36.3932,586.095 37.4047,576.603 39.4374,566.798"/>
   <path style="fill:none;stroke:#000000;stroke-width:0.5pt;stroke-linecap:round;stroke-linejoin:round;stroke-opacity:1" d="M 39.4374,566.798 C 40.4791,561.773 41.6168,556.694 42.8533,551.557"/>
   <path style="fill:none;stroke:#000000;stroke-width:0.5pt;stroke-linecap:round;stroke-linejoin:round;stroke-opacity:1" d="M 42.8533,551.557 C 43.9084,547.174 45.0372,542.739 46.2358,538.269"/>
   <path style="fill:none;stroke:#000000;stroke-width:0.5pt;stroke-linecap:round;stroke-linejoin:round;stroke-opacity:1" d="M 46.2358,538.269 C 47.9159,532.003 49.7249,525.641 51.6906,519.194"/>
   <path style="fill:none;stroke:#000000;stroke-width:0.5pt;stroke-linecap:round;stroke-linejoin:round;stroke-opacity:1" d="M 51.6906,519.194 C 53.351,513.748 55.0622,508.194 56.9291,502.612"/>
   <path style="fill:none;stroke:#000000;stroke-width:0.5pt;stroke-linecap:round;stroke-linejoin:round;stroke-opacity:1" d="M 56.9291,502.612 C 58.4907,497.942 60.1874,493.284 61.895,488.513"/>
   <path style="fill:none;stroke:#000000;stroke-width:0.5pt;stroke-linecap:round;stroke-linejoin:round;stroke-opacity:1" d="M 61.895,488.513 C 63.9222,482.85 65.2832,478.803 67.5184,472.992"/>
   <path style="fill:none;stroke:#000000;stroke-width:0.5pt;stroke-linecap:round;stroke-linejoin:round;stroke-opacity:1" d="M 67.5184,472.992 C 77.899,467.225 89.9865,460.286 101.834,455.438"/>
   <path style="fill:none;stroke:#000000;stroke-width:0.5pt;stroke-linecap:round;stroke-linejoin:round;stroke-opacity:1" d="M 101.834,455.438 C 135.937,441.481 185.811,427.331 211.782,420.137"/>
   <path style="fill:none;stroke:#000000;stroke-width:0.5pt;stroke-linecap:round;stroke-linejoin:round;stroke-opacity:1" d="M 690.745,271.7 C 696.297,278.166 702.057,285.037 707.648,292.013"/>
   <path style="fill:none;stroke:#000000;stroke-width:0.5pt;stroke-linecap:round;stroke-linejoin:round;stroke-opacity:1" d="M 707.648,292.013 C 716.297,302.805 724.444,313.853 730.049,324.072"/>
   <path style="fill:none;stroke:#000000;stroke-width:0.5pt;stroke-linecap:round;stroke-linejoin:round;stroke-opacity:1" d="M 730.049,324.072 C 731.951,327.539 733.568,330.911 734.825,334.144"/>
   <path style="fill:none;stroke:#000000;stroke-width:0.5pt;stroke-linecap:round;stroke-linejoin:round;stroke-opacity:1" d="M 734.825,334.144 C 737.496,340.732 741.32,355.03 743.864,367.188"/>
   <path style="fill:none;stroke:#000000;stroke-width:0.5pt;stroke-linecap:round;stroke-linejoin:round;stroke-opacity:1" d="M 743.864,367.188 C 745.273,373.927 746.29,380.009 746.498,383.755"/>
   <path style="fill:none;stroke:#000000;stroke-width:0.5pt;stroke-linecap:round;stroke-linejoin:round;stroke-opacity:1" d="M 746.498,383.755 C 754.086,396.012 761.39,407.851 768.978,421.275"/>
   <path style="fill:none;stroke:#000000;stroke-width:0.5pt;stroke-linecap:round;stroke-linejoin:round;stroke-opacity:1" d="M 768.978,421.275 C 770.145,469.135 765.759,499.319 758.171,522.082"/>
   <path style="fill:none;stroke:#000000;stroke-width:0.5pt;stroke-linecap:round;stroke-linejoin:round;stroke-opacity:1" d="M 758.171,522.082 C 728.271,490.521 700.998,454.758 681.334,427.25"/>
   <path style="fill:none;stroke:#000000;stroke-width:0.5pt;stroke-linecap:round;stroke-linejoin:round;stroke-opacity:1" d="M 35.089,595.514 C 60.0771,626.94 92.4187,650.447 141.478,658.841"/>
   <path style="fill:none;stroke:#000000;stroke-width:0.5pt;stroke-linecap:round;stroke-linejoin:round;stroke-opacity:1" d="M 141.478,658.841 C 189.38,667.038 246.04,659.163 292.829,649.831"/>
   <path style="fill:none;stroke:#000000;stroke-width:0.5pt;stroke-linecap:round;stroke-linejoin:round;stroke-opacity:1" d="M 292.829,649.831 C 309.886,645.957 344,638.208 361.057,634.334"/>
   <path style="fill:none;stroke:#000000;stroke-width:0.5pt;stroke-linecap:round;stroke-linejoin:round;stroke-opacity:1" d="M 361.057,634.334 C 393.903,626.004 426.25,616.582 459.964,605.958"/>
   <path style="fill:none;stroke:#000000;stroke-width:0.5pt;stroke-linecap:round;stroke-linejoin:round;stroke-opacity:1" d="M 459.964,605.958 C 496.218,594.534 524.96,586.521 565.396,570.073"/>
   <path style="fill:none;stroke:#000000;stroke-width:0.5pt;stroke-linecap:round;stroke-linejoin:round;stroke-opacity:1" d="M 565.396,570.073 C 648.859,550.812 679.781,544.813 758.171,522.082"/>
   <path style="fill:none;stroke:#000000;stroke-width:0.5pt;stroke-linecap:round;stroke-linejoin:round;stroke-opacity:1" d="M 758.171,522.082 C 844.728,496.338 875.687,443.222 817.121,382.588"/>
   <path style="fill:none;stroke:#000000;stroke-width:0.5pt;stroke-linecap:round;stroke-linejoin:round;stroke-opacity:1" d="M 211.782,420.137 C 218.798,429.263 227.905,440.87 236.369,451.195"/>
   <path style="fill:none;stroke:#000000;stroke-width:0.5pt;stroke-linecap:round;stroke-linejoin:round;stroke-opacity:1" d="M 236.369,451.195 C 244.868,461.562 252.823,470.721 257.236,474.637"/>
   <path style="fill:none;stroke:#000000;stroke-width:0.5pt;stroke-linecap:round;stroke-linejoin:round;stroke-opacity:1" d="M 257.236,474.637 C 261.047,478.024 266.866,478.494 267.781,483.526"/>
   <path style="fill:none;stroke:#000000;stroke-width:0.5pt;stroke-linecap:round;stroke-linejoin:round;stroke-opacity:1" d="M 267.781,483.526 C 274.213,491.974 293.824,524.23 301.682,540.638"/>
   <path style="fill:none;stroke:#000000;stroke-width:0.5pt;stroke-linecap:round;stroke-linejoin:round;stroke-opacity:1" d="M 301.682,540.638 C 309.881,557.757 299.604,625.052 292.829,649.831"/>
   <path style="fill:none;stroke:#000000;stroke-width:0.5pt;stroke-linecap:round;stroke-linejoin:round;stroke-opacity:1" d="M 281.577,402.566 C 288.293,407.927 300.607,428.661 307.409,438.183"/>
   <path style="fill:none;stroke:#000000;stroke-width:0.5pt;stroke-linecap:round;stroke-linejoin:round;stroke-opacity:1" d="M 307.409,438.183 C 312.137,444.995 320.43,454.389 327.788,462.191"/>
   <path style="fill:none;stroke:#000000;stroke-width:0.5pt;stroke-linecap:round;stroke-linejoin:round;stroke-opacity:1" d="M 327.788,462.191 C 331.248,465.86 334.025,468.676 336.512,471.114"/>
   <path style="fill:none;stroke:#000000;stroke-width:0.5pt;stroke-linecap:round;stroke-linejoin:round;stroke-opacity:1" d="M 336.512,471.114 C 350.886,494.677 357.43,505.741 368.034,524.506"/>
   <path style="fill:none;stroke:#000000;stroke-width:0.5pt;stroke-linecap:round;stroke-linejoin:round;stroke-opacity:1" d="M 368.034,524.506 C 369.412,553.04 365.726,607.486 361.057,634.334"/>
   <path style="fill:none;stroke:#000000;stroke-width:0.5pt;stroke-linecap:round;stroke-linejoin:round;stroke-opacity:1" d="M 339.958,388.722 C 354.977,406.262 369.477,418.081 384.968,427.774"/>
   <path style="fill:none;stroke:#000000;stroke-width:0.5pt;stroke-linecap:round;stroke-linejoin:round;stroke-opacity:1" d="M 384.968,427.774 C 404.23,439.828 424.645,448.249 445.052,456.266"/>
   <path style="fill:none;stroke:#000000;stroke-width:0.5pt;stroke-linecap:round;stroke-linejoin:round;stroke-opacity:1" d="M 445.052,456.266 C 450.035,469.096 457.776,491.107 464.492,509.369"/>
   <path style="fill:none;stroke:#000000;stroke-width:0.5pt;stroke-linecap:round;stroke-linejoin:round;stroke-opacity:1" d="M 464.492,509.369 C 468.239,528.368 466.868,562.285 463.655,586.289"/>
   <path style="fill:none;stroke:#000000;stroke-width:0.5pt;stroke-linecap:round;stroke-linejoin:round;stroke-opacity:1" d="M 463.655,586.289 C 462.524,594.735 461.559,600.487 459.964,605.958"/>
   <path style="fill:none;stroke:#000000;stroke-width:0.5pt;stroke-linecap:round;stroke-linejoin:round;stroke-opacity:1" d="M 554.712,426.818 C 561.663,441.309 566.522,456.374 570.764,469.622"/>
   <path style="fill:none;stroke:#000000;stroke-width:0.5pt;stroke-linecap:round;stroke-linejoin:round;stroke-opacity:1" d="M 570.764,469.622 C 572.299,488.323 571.294,521.841 568.379,548.812"/>
   <path style="fill:none;stroke:#000000;stroke-width:0.5pt;stroke-linecap:round;stroke-linejoin:round;stroke-opacity:1" d="M 568.379,548.812 C 567.535,556.612 566.547,563.891 565.396,570.073"/>
   <path style="fill:none;stroke:#000000;stroke-width:0.5pt;stroke-linecap:round;stroke-linejoin:round;stroke-opacity:1" d="M 141.478,658.841 C 157.776,617.565 183.615,591.432 219.897,571.813"/>
   <path style="fill:none;stroke:#000000;stroke-width:0.5pt;stroke-linecap:round;stroke-linejoin:round;stroke-opacity:1" d="M 219.897,571.813 C 249.292,555.918 280.559,546.516 301.682,540.638"/>
   <path style="fill:none;stroke:#000000;stroke-width:0.5pt;stroke-linecap:round;stroke-linejoin:round;stroke-opacity:1" d="M 301.682,540.638 C 324.524,534.282 348.15,528.618 368.034,524.506"/>
   <path style="fill:none;stroke:#000000;stroke-width:0.5pt;stroke-linecap:round;stroke-linejoin:round;stroke-opacity:1" d="M 368.034,524.506 C 400.367,517.82 426.525,513.527 464.492,509.369"/>
   <path style="fill:none;stroke:#000000;stroke-width:0.5pt;stroke-linecap:round;stroke-linejoin:round;stroke-opacity:1" d="M 464.492,509.369 C 500.161,498.529 542.013,481.768 570.764,469.622"/>
   <path style="fill:none;stroke:#000000;stroke-width:0.5pt;stroke-linecap:round;stroke-linejoin:round;stroke-opacity:1" d="M 570.764,469.622 C 588.137,467.292 638.622,458.842 677.673,451.462"/>
   <path style="fill:none;stroke:#000000;stroke-width:0.5pt;stroke-linecap:round;stroke-linejoin:round;stroke-opacity:1" d="M 463.655,586.289 C 498.913,576.216 531.881,561.018 568.379,548.812"/>
   <path style="fill:none;stroke:#000000;stroke-width:0.5pt;stroke-linecap:round;stroke-linejoin:round;stroke-opacity:1" d="M 568.379,548.812 C 659.319,518.399 600.985,510.981 677.673,451.462"/>
   <path style="fill:none;stroke:#000000;stroke-width:0.5pt;stroke-linecap:round;stroke-linejoin:round;stroke-opacity:1" d="M 677.673,451.462 C 702.517,432.035 737.756,425.515 768.978,421.275"/>
   <path style="fill:none;stroke:#000000;stroke-width:0.5pt;stroke-linecap:round;stroke-linejoin:round;stroke-opacity:1" d="M 768.978,421.275 C 780.607,419.696 791.748,418.367 801.518,416.872"/>
   <path style="fill:none;stroke:#000000;stroke-width:0.5pt;stroke-linecap:round;stroke-linejoin:round;stroke-opacity:1" d="M 801.518,416.872 C 824.689,413.327 875.243,403.064 878.957,367.719"/>
   <path style="fill:none;stroke:#000000;stroke-width:0.5pt;stroke-linecap:round;stroke-linejoin:round;stroke-opacity:1" d="M 878.957,367.719 C 879.196,365.445 879.346,363.304 879.319,361.305"/>
   <path style="fill:none;stroke:#000000;stroke-width:0.5pt;stroke-linecap:round;stroke-linejoin:round;stroke-opacity:1" d="M 879.319,361.305 C 879.086,343.923 871.227,323.856 864.502,312.522"/>
   <path style="fill:none;stroke:#000000;stroke-width:0.5pt;stroke-linecap:round;stroke-linejoin:round;stroke-opacity:1" d="M 864.502,312.522 C 857.88,301.36 849.313,290.985 839.137,279.135"/>
   <path style="fill:none;stroke:#000000;stroke-width:0.5pt;stroke-linecap:round;stroke-linejoin:round;stroke-opacity:1" d="M 840.449,265.934 C 870.206,297.825 879.087,323.276 880.037,344.71"/>
   <path style="fill:none;stroke:#000000;stroke-width:0.5pt;stroke-linecap:round;stroke-linejoin:round;stroke-opacity:1" d="M 880.037,344.71 C 880.295,350.521 879.97,356.037 879.319,361.305"/>
   <path style="fill:none;stroke:#000000;stroke-width:0.5pt;stroke-linecap:round;stroke-linejoin:round;stroke-opacity:1" d="M 115.42,520.601 C 169.864,505.21 215.044,494.054 267.781,483.526"/>
   <path style="fill:none;stroke:#000000;stroke-width:0.5pt;stroke-linecap:round;stroke-linejoin:round;stroke-opacity:1" d="M 267.781,483.526 C 289.799,479.131 312.482,475.03 336.512,471.114"/>
   <path style="fill:none;stroke:#000000;stroke-width:0.5pt;stroke-linecap:round;stroke-linejoin:round;stroke-opacity:1" d="M 336.512,471.114 C 372.901,465.184 405.779,460.016 445.052,456.266"/>
   <path style="fill:none;stroke:#000000;stroke-width:0.5pt;stroke-linecap:round;stroke-linejoin:round;stroke-opacity:1" d="M 445.052,456.266 C 471.8,448.624 516.051,436.879 554.712,426.818"/>
   <path style="fill:none;stroke:#000000;stroke-width:0.5pt;stroke-linecap:round;stroke-linejoin:round;stroke-opacity:1" d="M 554.712,426.818 C 616.545,410.727 692.877,392.018 746.498,383.755"/>
   <path style="fill:none;stroke:#000000;stroke-width:0.5pt;stroke-linecap:round;stroke-linejoin:round;stroke-opacity:1" d="M 746.498,383.755 C 771.755,376.921 837.956,371.906 878.957,367.719"/>
   <path style="fill:none;stroke:#000000;stroke-width:0.5pt;stroke-linecap:round;stroke-linejoin:round;stroke-opacity:1" d="M 445.052,456.266 C 462.674,441.959 518.035,398.432 551.36,373.28"/>
   <path style="fill:none;stroke:#000000;stroke-width:0.5pt;stroke-linecap:round;stroke-linejoin:round;stroke-opacity:1" d="M 551.36,373.28 C 574.558,364.956 603.183,357.399 631.196,351.188"/>
   <path style="fill:none;stroke:#000000;stroke-width:0.5pt;stroke-linecap:round;stroke-linejoin:round;stroke-opacity:1" d="M 631.196,351.188 C 674.815,341.517 716.953,335.108 734.825,334.144"/>
   <path style="fill:none;stroke:#000000;stroke-width:0.5pt;stroke-linecap:round;stroke-linejoin:round;stroke-opacity:1" d="M 734.825,334.144 C 746.595,333.509 755.879,334.785 766.318,334.817"/>
   <path style="fill:none;stroke:#000000;stroke-width:0.5pt;stroke-linecap:round;stroke-linejoin:round;stroke-opacity:1" d="M 766.318,334.817 C 816.617,334.971 853.842,340.361 880.037,344.71"/>
   <path style="fill:none;stroke:#000000;stroke-width:0.5pt;stroke-linecap:round;stroke-linejoin:round;stroke-opacity:1" d="M 459.891,309.289 C 467.184,318.716 474.712,326.463 482.558,333.123"/>
   <path style="fill:none;stroke:#000000;stroke-width:0.5pt;stroke-linecap:round;stroke-linejoin:round;stroke-opacity:1" d="M 482.558,333.123 C 502.866,350.36 525.309,360.318 551.36,373.28"/>
   <path style="fill:none;stroke:#000000;stroke-width:0.5pt;stroke-linecap:round;stroke-linejoin:round;stroke-opacity:1" d="M 578.988,268.191 C 587.939,275.911 593.267,282.933 599.338,291.319"/>
   <path style="fill:none;stroke:#000000;stroke-width:0.5pt;stroke-linecap:round;stroke-linejoin:round;stroke-opacity:1" d="M 599.338,291.319 C 612.204,309.087 621.95,329.497 631.196,351.188"/>
   <path style="fill:none;stroke:#000000;stroke-width:0.5pt;stroke-linecap:round;stroke-linejoin:round;stroke-opacity:1" d="M 482.558,333.123 C 530.718,307.25 565.811,295.747 599.338,291.319"/>
   <path style="fill:none;stroke:#000000;stroke-width:0.5pt;stroke-linecap:round;stroke-linejoin:round;stroke-opacity:1" d="M 599.338,291.319 C 633.111,286.858 665.296,289.575 707.648,292.013"/>
   <path style="fill:none;stroke:#000000;stroke-width:0.5pt;stroke-linecap:round;stroke-linejoin:round;stroke-opacity:1" d="M 91.8428,499.459 C 110.521,490.418 126.062,484.184 144.882,477.357"/>
   <path style="fill:none;stroke:#000000;stroke-width:0.5pt;stroke-linecap:round;stroke-linejoin:round;stroke-opacity:1" d="M 144.882,477.357 C 175.088,466.399 205.509,457.965 236.369,451.195"/>
   <path style="fill:none;stroke:#000000;stroke-width:0.5pt;stroke-linecap:round;stroke-linejoin:round;stroke-opacity:1" d="M 236.369,451.195 C 259.784,446.058 283.438,441.857 307.409,438.183"/>
   <path style="fill:none;stroke:#000000;stroke-width:0.5pt;stroke-linecap:round;stroke-linejoin:round;stroke-opacity:1" d="M 307.409,438.183 C 332.873,434.281 358.695,430.975 384.968,427.774"/>
   <path style="fill:none;stroke:#000000;stroke-width:0.5pt;stroke-linecap:round;stroke-linejoin:round;stroke-opacity:1" d="M 101.834,455.438 C 113.716,460.316 132.847,470.733 144.882,477.357"/>
   <path style="fill:none;stroke:#000000;stroke-width:0.5pt;stroke-linecap:round;stroke-linejoin:round;stroke-opacity:1" d="M 114.949,520.213 C 170.113,499.573 209.606,485.589 257.236,474.637"/>
   <path style="fill:none;stroke:#000000;stroke-width:0.5pt;stroke-linecap:round;stroke-linejoin:round;stroke-opacity:1" d="M 257.236,474.637 C 279.251,469.574 302.225,465.454 327.788,462.191"/>
   <path style="fill:none;stroke:#000000;stroke-width:0.5pt;stroke-linecap:round;stroke-linejoin:round;stroke-opacity:1" d="M 327.788,462.191 C 365.779,457.341 413.372,455.955 445.052,456.266"/>
   <path style="fill:none;stroke:#000000;stroke-width:0.5pt;stroke-linecap:round;stroke-linejoin:round;stroke-opacity:1" d="M 67.5184,472.992 C 72.8605,479.719 81.2322,489.111 91.8428,499.459"/>
   <path style="fill:none;stroke:#000000;stroke-width:0.5pt;stroke-linecap:round;stroke-linejoin:round;stroke-opacity:1" d="M 91.8428,499.459 C 98.6847,506.132 106.458,513.203 114.949,520.213"/>
   <path style="fill:none;stroke:#000000;stroke-width:0.5pt;stroke-linecap:round;stroke-linejoin:round;stroke-opacity:1" d="M 114.949,520.213 C 115.106,520.342 115.263,520.471 115.42,520.601"/>
   <path style="fill:none;stroke:#000000;stroke-width:0.5pt;stroke-linecap:round;stroke-linejoin:round;stroke-opacity:1" d="M 115.42,520.601 C 144.675,544.669 182.364,567.925 219.897,571.813"/>
   <path style="fill:none;stroke:#000000;stroke-width:0.5pt;stroke-linecap:round;stroke-linejoin:round;stroke-opacity:1" d="M 61.895,488.513 C 79.8323,509.897 108.214,518.69 111.459,550.991"/>
   <path style="fill:none;stroke:#000000;stroke-width:0.5pt;stroke-linecap:round;stroke-linejoin:round;stroke-opacity:1" d="M 111.459,550.991 C 112.257,558.934 113.045,567.757 113.694,575.533"/>
   <path style="fill:none;stroke:#000000;stroke-width:0.5pt;stroke-linecap:round;stroke-linejoin:round;stroke-opacity:1" d="M 113.694,575.533 C 114.334,583.193 114.838,589.835 115.082,593.617"/>
   <path style="fill:none;stroke:#000000;stroke-width:0.5pt;stroke-linecap:round;stroke-linejoin:round;stroke-opacity:1" d="M 115.082,593.617 C 112.23,596.632 109.735,598.969 107.269,601.08"/>
   <path style="fill:none;stroke:#000000;stroke-width:0.5pt;stroke-linecap:round;stroke-linejoin:round;stroke-opacity:1" d="M 107.269,601.08 C 91.362,614.701 56.3184,587.164 39.4374,566.798"/>
   <path style="fill:none;stroke:#000000;stroke-width:0.5pt;stroke-linecap:round;stroke-linejoin:round;stroke-opacity:1" d="M 56.9291,502.612 C 69.7098,516.75 103.024,544.581 111.459,550.991"/>
   <path style="fill:none;stroke:#000000;stroke-width:0.5pt;stroke-linecap:round;stroke-linejoin:round;stroke-opacity:1" d="M 51.6906,519.194 C 71.1612,540.313 91.4988,561.088 113.694,575.533"/>
   <path style="fill:none;stroke:#000000;stroke-width:0.5pt;stroke-linecap:round;stroke-linejoin:round;stroke-opacity:1" d="M 46.2358,538.269 C 69.1858,562.954 87.1531,578.769 115.082,593.617"/>
   <path style="fill:none;stroke:#000000;stroke-width:0.5pt;stroke-linecap:round;stroke-linejoin:round;stroke-opacity:1" d="M 42.8533,551.557 C 64.7979,574.246 85.09,589.991 107.269,601.08"/>
   <path style="fill:none;stroke:#000000;stroke-width:0.5pt;stroke-linecap:round;stroke-linejoin:round;stroke-opacity:1" d="M 801.518,416.872 C 859.42,419.349 891.17,403.314 860.586,376.4"/>
   <path style="fill:none;stroke:#000000;stroke-width:0.5pt;stroke-linecap:round;stroke-linejoin:round;stroke-opacity:1" d="M 864.502,312.522 C 865.529,318.494 865.408,333.524 864.347,348.242"/>
   <path style="fill:none;stroke:#000000;stroke-width:0.5pt;stroke-linecap:round;stroke-linejoin:round;stroke-opacity:1" d="M 864.347,348.242 C 863.57,359.024 862.289,369.639 860.586,376.4"/>
   <path style="fill:none;stroke:#000000;stroke-width:0.5pt;stroke-linecap:round;stroke-linejoin:round;stroke-opacity:1" d="M 860.586,376.4 C 844.938,405.637 853.926,385.36 822.379,362.349"/>
   <path style="fill:none;stroke:#000000;stroke-width:0.5pt;stroke-linecap:round;stroke-linejoin:round;stroke-opacity:1" d="M 835.335,305.556 C 854.01,324.718 856.78,330.177 864.347,348.242"/>
   <path style="fill:none;stroke:#000000;stroke-width:0.5pt;stroke-linecap:round;stroke-linejoin:round;stroke-opacity:1" d="M 717.884,273.563 C 724.379,282.708 796.152,343.514 730.049,324.072"/>
   <path style="fill:none;stroke:#000000;stroke-width:0.5pt;stroke-linecap:round;stroke-linejoin:round;stroke-opacity:1" d="M 745.449,273.132 C 760.658,295.803 771.318,314.351 766.318,334.817"/>
   <path style="fill:none;stroke:#000000;stroke-width:0.5pt;stroke-linecap:round;stroke-linejoin:round;stroke-opacity:1" d="M 766.318,334.817 C 763.359,346.928 754.281,360.809 743.864,367.188"/>
  </g>
  <g id="intersections">
   <circle fill="black" cx="339.958" cy="388.722" stroke="none" r="2"/>
   <circle fill="black" cx="578.988" cy="268.191" stroke="none" r="2"/>
   <circle fill="black" cx="717.884" cy="273.563" stroke="none" r="2"/>
   <circle fill="black" cx="840.449" cy="265.934" stroke="none" r="2"/>
   <circle fill="black" cx="817.121" cy="382.588" stroke="none" r="2"/>
   <circle fill="black" cx="35.089" cy="595.514" stroke="none" r="2"/>
   <circle fill="black" cx="67.5184" cy="472.992" stroke="none" r="2"/>
   <circle fill="black" cx="734.825" cy="334.144" stroke="none" r="2"/>
   <circle fill="black" cx="746.498" cy="383.755" stroke="none" r="2"/>
   <circle fill="black" cx="768.978" cy="421.275" stroke="none" r="2"/>
   <circle fill="black" cx="758.171" cy="522.082" stroke="none" r="2"/>
   <circle fill="black" cx="565.396" cy="570.073" stroke="none" r="2"/>
   <circle fill="black" cx="257.236" cy="474.637" stroke="none" r="2"/>
   <circle fill="black" cx="267.781" cy="483.526" stroke="none" r="2"/>
   <circle fill="black" cx="292.829" cy="649.831" stroke="none" r="2"/>
   <circle fill="black" cx="281.577" cy="402.566" stroke="none" r="2"/>
   <circle fill="black" cx="307.409" cy="438.183" stroke="none" r="2"/>
   <circle fill="black" cx="336.512" cy="471.114" stroke="none" r="2"/>
   <circle fill="black" cx="368.034" cy="524.506" stroke="none" r="2"/>
   <circle fill="black" cx="361.057" cy="634.334" stroke="none" r="2"/>
   <circle fill="black" cx="445.052" cy="456.266" stroke="none" r="2"/>
   <circle fill="black" cx="464.492" cy="509.369" stroke="none" r="2"/>
   <circle fill="black" cx="459.964" cy="605.958" stroke="none" r="2"/>
   <circle fill="black" cx="554.712" cy="426.818" stroke="none" r="2"/>
   <circle fill="black" cx="570.764" cy="469.622" stroke="none" r="2"/>
   <circle fill="black" cx="677.673" cy="451.462" stroke="none" r="2"/>
   <circle fill="black" cx="839.137" cy="279.135" stroke="none" r="2"/>
   <circle fill="black" cx="115.42" cy="520.601" stroke="none" r="2"/>
   <circle fill="black" cx="878.957" cy="367.719" stroke="none" r="2"/>
   <circle fill="black" cx="551.36" cy="373.28" stroke="none" r="2"/>
   <circle fill="black" cx="880.037" cy="344.71" stroke="none" r="2"/>
   <circle fill="black" cx="459.891" cy="309.289" stroke="none" r="2"/>
   <circle fill="black" cx="631.196" cy="351.188" stroke="none" r="2"/>
   <circle fill="black" cx="482.558" cy="333.123" stroke="none" r="2"/>
   <circle fill="black" cx="91.8428" cy="499.459" stroke="none" r="2"/>
   <circle fill="black" cx="114.949" cy="520.213" stroke="none" r="2"/>
   <circle fill="black" cx="61.895" cy="488.513" stroke="none" r="2"/>
   <circle fill="black" cx="115.082" cy="593.617" stroke="none" r="2"/>
   <circle fill="black" cx="111.459" cy="550.991" stroke="none" r="2"/>
   <circle fill="black" cx="113.694" cy="575.533" stroke="none" r="2"/>
   <circle fill="black" cx="42.8533" cy="551.557" stroke="none" r="2"/>
   <circle fill="black" cx="107.269" cy="601.08" stroke="none" r="2"/>
   <circle fill="black" cx="860.586" cy="376.4" stroke="none" r="2"/>
   <circle fill="black" cx="864.502" cy="312.522" stroke="none" r="2"/>
   <circle fill="black" cx="822.379" cy="362.349" stroke="none" r="2"/>
   <circle fill="black" cx="835.335" cy="305.556" stroke="none" r="2"/>
   <circle fill="black" cx="864.347" cy="348.242" stroke="none" r="2"/>
   <circle fill="black" cx="730.049" cy="324.072" stroke="none" r="2"/>
   <circle fill="black" cx="745.449" cy="273.132" stroke="none" r="2"/>
   <circle fill="black" cx="211.782" cy="420.137" stroke="none" r="2"/>
   <circle fill="black" cx="690.745" cy="271.7" stroke="none" r="2"/>
   <circle fill="black" cx="681.334" cy="427.25" stroke="none" r="2"/>
   <circle fill="black" cx="39.4374" cy="566.798" stroke="none" r="2"/>
   <circle fill="black" cx="46.2358" cy="538.269" stroke="none" r="2"/>
   <circle fill="black" cx="51.6906" cy="519.194" stroke="none" r="2"/>
   <circle fill="black" cx="56.9291" cy="502.612" stroke="none" r="2"/>
   <circle fill="black" cx="101.834" cy="455.438" stroke="none" r="2"/>
   <circle fill="black" cx="707.648" cy="292.013" stroke="none" r="2"/>
   <circle fill="black" cx="743.864" cy="367.188" stroke="none" r="2"/>
   <circle fill="black" cx="141.478" cy="658.841" stroke="none" r="2"/>
   <circle fill="black" cx="236.369" cy="451.195" stroke="none" r="2"/>
   <circle fill="black" cx="301.682" cy="540.638" stroke="none" r="2"/>
   <circle fill="black" cx="327.788" cy="462.191" stroke="none" r="2"/>
   <circle fill="black" cx="384.968" cy="427.774" stroke="none" r="2"/>
   <circle fill="black" cx="463.655" cy="586.289" stroke="none" r="2"/>
   <circle fill="black" cx="568.379" cy="548.812" stroke="none" r="2"/>
   <circle fill="black" cx="219.897" cy="571.813" stroke="none" r="2"/>
   <circle fill="black" cx="801.518" cy="416.872" stroke="none" r="2"/>
   <circle fill="black" cx="879.319" cy="361.305" stroke="none" r="2"/>
   <circle fill="black" cx="766.318" cy="334.817" stroke="none" r="2"/>
   <circle fill="black" cx="599.338" cy="291.319" stroke="none" r="2"/>
   <circle fill="black" cx="144.882" cy="477.357" stroke="none" r="2"/>
  </g>
 </g>
</svg>
