<!DOCTYPE svg>
<svg width="900" height="900">
 <g id="layer0">
  <g id="paths">
   <path style="fill:none;stroke:#000000;stroke-width:0.5pt;stroke-linecap:round;stroke-linejoin:round;stroke-opacity:1" d="M 339.958,388.722 C 377.864,361.394 424.705,327.091 459.891,309.289"/>
   <path style="fill:none;stroke:#000000;stroke-width:0.5pt;stroke-linecap:round;stroke-linejoin:round;stroke-opacity:1" d="M 459.891,309.289 C 555.116,261.109 593.752,261.553 690.745,271.7"/>
   <path style="fill:none;stroke:#000000;stroke-width:0.5pt;stroke-linecap:round;stroke-linejoin:round;stroke-opacity:1" d="M 690.745,271.7 C 741.569,277.017 787.22,268.064 840.449,265.934"/>
   <path style="fill:none;stroke:#000000;stroke-width:0.5pt;stroke-linecap:round;stroke-linejoin:round;stroke-opacity:1" d="M 840.449,265.934 C 840.062,270.473 839.623,274.868 839.137,279.135"/>
   <path style="fill:none;stroke:#000000;stroke-width:0.5pt;stroke-linecap:round;stroke-linejoin:round;stroke-opacity:1" d="M 839.137,279.135 C 834.505,319.869 825.653,349.081 817.121,382.588"/>
   <path style="fill:none;stroke:#000000;stroke-width:0.5pt;stroke-linecap:round;stroke-linejoin:round;stroke-opacity:1" d="M 817.121,382.588 C 792.784,391.528 740.807,408.583 681.334,427.25"/>
   <path style="fill:none;stroke:#000000;stroke-width:0.5pt;stroke-linecap:round;stroke-linejoin:round;stroke-opacity:1" d="M 681.334,427.25 C 500.556,483.992 229.303,561.815 35.089,595.514"/>
   <path style="fill:none;stroke:#000000;stroke-width:0.5pt;stroke-linecap:round;stroke-linejoin:round;stroke-opacity:1" d="M 35.089,595.514 C 40.3419,557.576 50.0087,518.517 67.5184,472.992"/>
   <path style="fill:none;stroke:#000000;stroke-width:0.5pt;stroke-linecap:round;stroke-linejoin:round;stroke-opacity:1" d="M 67.5184,472.992 C 138.776,433.404 254.976,409.234 339.958,388.722"/>
   <path style="fill:none;stroke:#000000;stroke-width:0.5pt;stroke-linecap:round;stroke-linejoin:round;stroke-opacity:1" d="M 690.745,271.7 C 707.799,291.564 727.466,315.221 734.825,334.144"/>
   <path style="fill:none;stroke:#000000;stroke-width:0.5pt;stroke-linecap:round;stroke-linejoin:round;stroke-opacity:1" d="M 734.825,334.144 C 738.976,344.383 745.914,373.249 746.498,383.755"/>
   <path style="fill:none;stroke:#000000;stroke-width:0.5pt;stroke-linecap:round;stroke-linejoin:round;stroke-opacity:1" d="M 746.498,383.755 C 754.086,396.012 761.39,407.851 768.978,421.275"/>
   <path style="fill:none;stroke:#000000;stroke-width:0.5pt;stroke-linecap:round;stroke-linejoin:round;stroke-opacity:1" d="M 768.978,421.275 C 770.145,469.135 765.759,499.319 758.171,522.082"/>
   <path style="fill:none;stroke:#000000;stroke-width:0.5pt;stroke-linecap:round;stroke-linejoin:round;stroke-opacity:1" d="M 758.171,522.082 C 728.271,490.521 700.998,454.758 681.334,427.25"/>
   <path style="fill:none;stroke:#000000;stroke-width:0.5pt;stroke-linecap:round;stroke-linejoin:round;stroke-opacity:1" d="M 35.089,595.514 C 60.0771,626.94 92.4187,650.447 141.478,658.841"/>
   <path style="fill:none;stroke:#000000;stroke-width:0.5pt;stroke-linecap:round;stroke-linejoin:round;stroke-opacity:1" d="M 141.478,658.841 C 229.701,673.937 371.834,633.729 459.964,605.958"/>
   <path style="fill:none;stroke:#000000;stroke-width:0.5pt;stroke-linecap:round;stroke-linejoin:round;stroke-opacity:1" d="M 459.964,605.958 C 569.52,571.435 653.34,552.48 758.171,522.082"/>
   <path style="fill:none;stroke:#000000;stroke-width:0.5pt;stroke-linecap:round;stroke-linejoin:round;stroke-opacity:1" d="M 758.171,522.082 C 844.728,496.338 875.687,443.222 817.121,382.588"/>
   <path style="fill:none;stroke:#000000;stroke-width:0.5pt;stroke-linecap:round;stroke-linejoin:round;stroke-opacity:1" d="M 339.958,388.722 C 373.654,428.073 408.234,441.802 445.052,456.266"/>
   <path style="fill:none;stroke:#000000;stroke-width:0.5pt;stroke-linecap:round;stroke-linejoin:round;stroke-opacity:1" d="M 445.052,456.266 C 450.035,469.096 457.776,491.107 464.492,509.369"/>
   <path style="fill:none;stroke:#000000;stroke-width:0.5pt;stroke-linecap:round;stroke-linejoin:round;stroke-opacity:1" d="M 464.492,509.369 C 468.239,528.368 466.868,562.285 463.655,586.289"/>
   <path style="fill:none;stroke:#000000;stroke-width:0.5pt;stroke-linecap:round;stroke-linejoin:round;stroke-opacity:1" d="M 463.655,586.289 C 462.524,594.735 461.559,600.487 459.964,605.958"/>
   <path style="fill:none;stroke:#000000;stroke-width:0.5pt;stroke-linecap:round;stroke-linejoin:round;stroke-opacity:1" d="M 141.478,658.841 C 157.776,617.565 183.615,591.432 219.897,571.813"/>
   <path style="fill:none;stroke:#000000;stroke-width:0.5pt;stroke-linecap:round;stroke-linejoin:round;stroke-opacity:1" d="M 219.897,571.813 C 284.051,537.122 396.383,516.828 464.492,509.369"/>
   <path style="fill:none;stroke:#000000;stroke-width:0.5pt;stroke-linecap:round;stroke-linejoin:round;stroke-opacity:1" d="M 464.492,509.369 C 570.016,477.3 550.092,475.572 677.673,451.462"/>
   <path style="fill:none;stroke:#000000;stroke-width:0.5pt;stroke-linecap:round;stroke-linejoin:round;stroke-opacity:1" d="M 463.655,586.289 C 682.838,523.676 585.041,523.356 677.673,451.462"/>
   <path style="fill:none;stroke:#000000;stroke-width:0.5pt;stroke-linecap:round;stroke-linejoin:round;stroke-opacity:1" d="M 677.673,451.462 C 702.517,432.035 737.756,425.515 768.978,421.275"/>
   <path style="fill:none;stroke:#000000;stroke-width:0.5pt;stroke-linecap:round;stroke-linejoin:round;stroke-opacity:1" d="M 768.978,421.275 C 806.513,416.179 874.491,410.215 878.957,367.719"/>
   <path style="fill:none;stroke:#000000;stroke-width:0.5pt;stroke-linecap:round;stroke-linejoin:round;stroke-opacity:1" d="M 878.957,367.719 C 879.196,365.445 879.346,363.304 879.319,361.305"/>
   <path style="fill:none;stroke:#000000;stroke-width:0.5pt;stroke-linecap:round;stroke-linejoin:round;stroke-opacity:1" d="M 879.319,361.305 C 878.872,327.975 858.615,301.818 839.137,279.135"/>
   <path style="fill:none;stroke:#000000;stroke-width:0.5pt;stroke-linecap:round;stroke-linejoin:round;stroke-opacity:1" d="M 840.449,265.934 C 870.206,297.825 879.087,323.276 880.037,344.71"/>
   <path style="fill:none;stroke:#000000;stroke-width:0.5pt;stroke-linecap:round;stroke-linejoin:round;stroke-opacity:1" d="M 880.037,344.71 C 880.295,350.521 879.97,356.037 879.319,361.305"/>
   <path style="fill:none;stroke:#000000;stroke-width:0.5pt;stroke-linecap:round;stroke-linejoin:round;stroke-opacity:1" d="M 115.42,520.601 C 215.941,492.184 330.108,467.241 445.052,456.266"/>
   <path style="fill:none;stroke:#000000;stroke-width:0.5pt;stroke-linecap:round;stroke-linejoin:round;stroke-opacity:1" d="M 445.052,456.266 C 534.291,430.769 656.64,397.603 746.498,383.755"/>
   <path style="fill:none;stroke:#000000;stroke-width:0.5pt;stroke-linecap:round;stroke-linejoin:round;stroke-opacity:1" d="M 746.498,383.755 C 771.755,376.921 837.956,371.906 878.957,367.719"/>
   <path style="fill:none;stroke:#000000;stroke-width:0.5pt;stroke-linecap:round;stroke-linejoin:round;stroke-opacity:1" d="M 445.052,456.266 C 462.674,441.959 518.035,398.432 551.36,373.28"/>
   <path style="fill:none;stroke:#000000;stroke-width:0.5pt;stroke-linecap:round;stroke-linejoin:round;stroke-opacity:1" d="M 551.36,373.28 C 610.681,351.994 705.475,335.728 734.825,334.144"/>
   <path style="fill:none;stroke:#000000;stroke-width:0.5pt;stroke-linecap:round;stroke-linejoin:round;stroke-opacity:1" d="M 734.825,334.144 C 803.308,330.449 848.405,339.459 880.037,344.71"/>
   <path style="fill:none;stroke:#000000;stroke-width:0.5pt;stroke-linecap:round;stroke-linejoin:round;stroke-opacity:1" d="M 459.891,309.289 C 486.062,343.114 515.243,355.309 551.36,373.28"/>
   <path style="fill:none;stroke:#000000;stroke-width:0.5pt;stroke-linecap:round;stroke-linejoin:round;stroke-opacity:1" d="M 67.5184,472.992 C 76.3687,484.136 93.5345,502.596 115.42,520.601"/>
   <path style="fill:none;stroke:#000000;stroke-width:0.5pt;stroke-linecap:round;stroke-linejoin:round;stroke-opacity:1" d="M 115.42,520.601 C 144.675,544.669 182.364,567.925 219.897,571.813"/>
  </g>
  <g id="intersections">
   <circle fill="black" cx="339.958" cy="388.722" stroke="none" r="2"/>
   <circle fill="black" cx="840.449" cy="265.934" stroke="none" r="2"/>
   <circle fill="black" cx="817.121" cy="382.588" stroke="none" r="2"/>
   <circle fill="black" cx="35.089" cy="595.514" stroke="none" r="2"/>
   <circle fill="black" cx="67.5184" cy="472.992" stroke="none" r="2"/>
   <circle fill="black" cx="734.825" cy="334.144" stroke="none" r="2"/>
   <circle fill="black" cx="746.498" cy="383.755" stroke="none" r="2"/>
   <circle fill="black" cx="768.978" cy="421.275" stroke="none" r="2"/>
   <circle fill="black" cx="758.171" cy="522.082" stroke="none" r="2"/>
   <circle fill="black" cx="445.052" cy="456.266" stroke="none" r="2"/>
   <circle fill="black" cx="464.492" cy="509.369" stroke="none" r="2"/>
   <circle fill="black" cx="459.964" cy="605.958" stroke="none" r="2"/>
   <circle fill="black" cx="677.673" cy="451.462" stroke="none" r="2"/>
   <circle fill="black" cx="839.137" cy="279.135" stroke="none" r="2"/>
   <circle fill="black" cx="115.42" cy="520.601" stroke="none" r="2"/>
   <circle fill="black" cx="878.957" cy="367.719" stroke="none" r="2"/>
   <circle fill="black" cx="551.36" cy="373.28" stroke="none" r="2"/>
   <circle fill="black" cx="880.037" cy="344.71" stroke="none" r="2"/>
   <circle fill="black" cx="459.891" cy="309.289" stroke="none" r="2"/>
   <circle fill="black" cx="690.745" cy="271.7" stroke="none" r="2"/>
   <circle fill="black" cx="681.334" cy="427.25" stroke="none" r="2"/>
   <circle fill="black" cx="141.478" cy="658.841" stroke="none" r="2"/>
   <circle fill="black" cx="463.655" cy="586.289" stroke="none" r="2"/>
   <circle fill="black" cx="219.897" cy="571.813" stroke="none" r="2"/>
   <circle fill="black" cx="879.319" cy="361.305" stroke="none" r="2"/>
  </g>
 </g>
</svg>
